<?xml version="1.0" encoding="ISO-8859-1" standalone="no"?>
<!DOCTYPE svg PUBLIC "-//W3C//DTD SVG 1.1//EN" "http://www.w3.org/Graphics/SVG/1.1/DTD/svg11.dtd">
<svg version="1.1" baseProfile="full" id="body" width="8in" height="8in" viewBox="0 0 1 1" preserveAspectRatio="none" xmlns="http://www.w3.org/2000/svg" xmlns:xlink="http://www.w3.org/1999/xlink" xmlns:ev="http://www.w3.org/2001/xml-events">
<title>SVG drawing</title>
<desc>This was produced by version 4.4 of GNU libplot, a free library for exporting 2-D vector graphics.</desc>
<rect id="background" x="0" y="0" width="1" height="1" stroke="none" fill="white"/>
<g id="content" transform="translate(0,1) scale(1,-1) scale(0.00024414) " xml:space="preserve" stroke="black" stroke-linecap="butt" stroke-linejoin="miter" stroke-miterlimit="10.433" stroke-dasharray="none" stroke-dashoffset="0" stroke-opacity="1" fill="none" fill-rule="evenodd" fill-opacity="1" font-style="normal" font-variant="normal" font-weight="normal" font-stretch="normal" font-size-adjust="none" letter-spacing="normal" word-spacing="normal" text-anchor="start">
<text transform="translate(649.98,3451.9) scale(1,-1) scale(8.6016) " font-family="Helvetica,sans-serif" font-size="20px" stroke="none" fill="black" >Analytical deriv and integ of cos(x)^2</text>
<rect x="819.2" y="819.2" width="2457.6" height="2457.6" stroke-width="4.8188" />
<text transform="translate(783.33,662.21) scale(1,-1) scale(6.4512) " font-family="Helvetica,sans-serif" font-size="20px" stroke="none" fill="black" >0</text>
<line x1="819.2" y1="3276.8" x2="819.2" y2="3227.6" stroke-width="4.8188" />
<line x1="819.2" y1="819.2" x2="819.2" y2="868.35" stroke-width="4.8188" />
<text transform="translate(1274.9,662.21) scale(1,-1) scale(6.4512) " font-family="Helvetica,sans-serif" font-size="20px" stroke="none" fill="black" >2</text>
<line x1="1310.7" y1="3276.8" x2="1310.7" y2="3227.6" stroke-width="4.8188" />
<line x1="1310.7" y1="819.2" x2="1310.7" y2="868.35" stroke-width="4.8188" />
<text transform="translate(1766.4,662.21) scale(1,-1) scale(6.4512) " font-family="Helvetica,sans-serif" font-size="20px" stroke="none" fill="black" >4</text>
<line x1="1802.2" y1="3276.8" x2="1802.2" y2="3227.6" stroke-width="4.8188" />
<line x1="1802.2" y1="819.2" x2="1802.2" y2="868.35" stroke-width="4.8188" />
<text transform="translate(2257.9,662.21) scale(1,-1) scale(6.4512) " font-family="Helvetica,sans-serif" font-size="20px" stroke="none" fill="black" >6</text>
<line x1="2293.8" y1="3276.8" x2="2293.8" y2="3227.6" stroke-width="4.8188" />
<line x1="2293.8" y1="819.2" x2="2293.8" y2="868.35" stroke-width="4.8188" />
<text transform="translate(2749.4,662.21) scale(1,-1) scale(6.4512) " font-family="Helvetica,sans-serif" font-size="20px" stroke="none" fill="black" >8</text>
<line x1="2785.3" y1="3276.8" x2="2785.3" y2="3227.6" stroke-width="4.8188" />
<line x1="2785.3" y1="819.2" x2="2785.3" y2="868.35" stroke-width="4.8188" />
<text transform="translate(3205.1,662.21) scale(1,-1) scale(6.4512) " font-family="Helvetica,sans-serif" font-size="20px" stroke="none" fill="black" >10</text>
<line x1="3276.8" y1="3276.8" x2="3276.8" y2="3227.6" stroke-width="4.8188" />
<line x1="3276.8" y1="819.2" x2="3276.8" y2="868.35" stroke-width="4.8188" />
<line x1="819.2" y1="3276.8" x2="819.2" y2="3257.1" stroke-width="4.8188" />
<line x1="819.2" y1="819.2" x2="819.2" y2="838.86" stroke-width="4.8188" />
<line x1="1065" y1="3276.8" x2="1065" y2="3257.1" stroke-width="4.8188" />
<line x1="1065" y1="819.2" x2="1065" y2="838.86" stroke-width="4.8188" />
<line x1="1310.7" y1="3276.8" x2="1310.7" y2="3257.1" stroke-width="4.8188" />
<line x1="1310.7" y1="819.2" x2="1310.7" y2="838.86" stroke-width="4.8188" />
<line x1="1556.5" y1="3276.8" x2="1556.5" y2="3257.1" stroke-width="4.8188" />
<line x1="1556.5" y1="819.2" x2="1556.5" y2="838.86" stroke-width="4.8188" />
<line x1="1802.2" y1="3276.8" x2="1802.2" y2="3257.1" stroke-width="4.8188" />
<line x1="1802.2" y1="819.2" x2="1802.2" y2="838.86" stroke-width="4.8188" />
<line x1="2048" y1="3276.8" x2="2048" y2="3257.1" stroke-width="4.8188" />
<line x1="2048" y1="819.2" x2="2048" y2="838.86" stroke-width="4.8188" />
<line x1="2293.8" y1="3276.8" x2="2293.8" y2="3257.1" stroke-width="4.8188" />
<line x1="2293.8" y1="819.2" x2="2293.8" y2="838.86" stroke-width="4.8188" />
<line x1="2539.5" y1="3276.8" x2="2539.5" y2="3257.1" stroke-width="4.8188" />
<line x1="2539.5" y1="819.2" x2="2539.5" y2="838.86" stroke-width="4.8188" />
<line x1="2785.3" y1="3276.8" x2="2785.3" y2="3257.1" stroke-width="4.8188" />
<line x1="2785.3" y1="819.2" x2="2785.3" y2="838.86" stroke-width="4.8188" />
<line x1="3031" y1="3276.8" x2="3031" y2="3257.1" stroke-width="4.8188" />
<line x1="3031" y1="819.2" x2="3031" y2="838.86" stroke-width="4.8188" />
<line x1="3276.8" y1="3276.8" x2="3276.8" y2="3257.1" stroke-width="4.8188" />
<line x1="3276.8" y1="819.2" x2="3276.8" y2="838.86" stroke-width="4.8188" />
<text transform="translate(635.25,773.65) scale(1,-1) scale(6.4512) " font-family="Helvetica,sans-serif" font-size="20px" stroke="none" fill="black" >-1</text>
<line x1="3276.8" y1="819.2" x2="3227.6" y2="819.2" stroke-width="4.8188" />
<line x1="819.2" y1="819.2" x2="868.35" y2="819.2" stroke-width="4.8188" />
<text transform="translate(710.6,1124.7) scale(1,-1) scale(6.4512) " font-family="Helvetica,sans-serif" font-size="20px" stroke="none" fill="black" >0</text>
<line x1="3276.8" y1="1170.3" x2="3227.6" y2="1170.3" stroke-width="4.8188" />
<line x1="819.2" y1="1170.3" x2="868.35" y2="1170.3" stroke-width="4.8188" />
<text transform="translate(710.6,1475.8) scale(1,-1) scale(6.4512) " font-family="Helvetica,sans-serif" font-size="20px" stroke="none" fill="black" >1</text>
<line x1="3276.8" y1="1521.4" x2="3227.6" y2="1521.4" stroke-width="4.8188" />
<line x1="819.2" y1="1521.4" x2="868.35" y2="1521.4" stroke-width="4.8188" />
<text transform="translate(710.6,1826.9) scale(1,-1) scale(6.4512) " font-family="Helvetica,sans-serif" font-size="20px" stroke="none" fill="black" >2</text>
<line x1="3276.8" y1="1872.5" x2="3227.6" y2="1872.5" stroke-width="4.8188" />
<line x1="819.2" y1="1872.5" x2="868.35" y2="1872.5" stroke-width="4.8188" />
<text transform="translate(710.6,2178) scale(1,-1) scale(6.4512) " font-family="Helvetica,sans-serif" font-size="20px" stroke="none" fill="black" >3</text>
<line x1="3276.8" y1="2223.5" x2="3227.6" y2="2223.5" stroke-width="4.8188" />
<line x1="819.2" y1="2223.5" x2="868.35" y2="2223.5" stroke-width="4.8188" />
<text transform="translate(710.6,2529.1) scale(1,-1) scale(6.4512) " font-family="Helvetica,sans-serif" font-size="20px" stroke="none" fill="black" >4</text>
<line x1="3276.8" y1="2574.6" x2="3227.6" y2="2574.6" stroke-width="4.8188" />
<line x1="819.2" y1="2574.6" x2="868.35" y2="2574.6" stroke-width="4.8188" />
<text transform="translate(710.6,2880.2) scale(1,-1) scale(6.4512) " font-family="Helvetica,sans-serif" font-size="20px" stroke="none" fill="black" >5</text>
<line x1="3276.8" y1="2925.7" x2="3227.6" y2="2925.7" stroke-width="4.8188" />
<line x1="819.2" y1="2925.7" x2="868.35" y2="2925.7" stroke-width="4.8188" />
<text transform="translate(710.6,3231.3) scale(1,-1) scale(6.4512) " font-family="Helvetica,sans-serif" font-size="20px" stroke="none" fill="black" >6</text>
<line x1="3276.8" y1="3276.8" x2="3227.6" y2="3276.8" stroke-width="4.8188" />
<line x1="819.2" y1="3276.8" x2="868.35" y2="3276.8" stroke-width="4.8188" />
<line x1="3276.8" y1="819.2" x2="3257.1" y2="819.2" stroke-width="4.8188" />
<line x1="819.2" y1="819.2" x2="838.86" y2="819.2" stroke-width="4.8188" />
<line x1="3276.8" y1="994.74" x2="3257.1" y2="994.74" stroke-width="4.8188" />
<line x1="819.2" y1="994.74" x2="838.86" y2="994.74" stroke-width="4.8188" />
<line x1="3276.8" y1="1170.3" x2="3257.1" y2="1170.3" stroke-width="4.8188" />
<line x1="819.2" y1="1170.3" x2="838.86" y2="1170.3" stroke-width="4.8188" />
<line x1="3276.8" y1="1345.8" x2="3257.1" y2="1345.8" stroke-width="4.8188" />
<line x1="819.2" y1="1345.8" x2="838.86" y2="1345.8" stroke-width="4.8188" />
<line x1="3276.8" y1="1521.4" x2="3257.1" y2="1521.4" stroke-width="4.8188" />
<line x1="819.2" y1="1521.4" x2="838.86" y2="1521.4" stroke-width="4.8188" />
<line x1="3276.8" y1="1696.9" x2="3257.1" y2="1696.9" stroke-width="4.8188" />
<line x1="819.2" y1="1696.9" x2="838.86" y2="1696.9" stroke-width="4.8188" />
<line x1="3276.8" y1="1872.5" x2="3257.1" y2="1872.5" stroke-width="4.8188" />
<line x1="819.2" y1="1872.5" x2="838.86" y2="1872.5" stroke-width="4.8188" />
<line x1="3276.8" y1="2048" x2="3257.1" y2="2048" stroke-width="4.8188" />
<line x1="819.2" y1="2048" x2="838.86" y2="2048" stroke-width="4.8188" />
<line x1="3276.8" y1="2223.5" x2="3257.1" y2="2223.5" stroke-width="4.8188" />
<line x1="819.2" y1="2223.5" x2="838.86" y2="2223.5" stroke-width="4.8188" />
<line x1="3276.8" y1="2399.1" x2="3257.1" y2="2399.1" stroke-width="4.8188" />
<line x1="819.2" y1="2399.1" x2="838.86" y2="2399.1" stroke-width="4.8188" />
<line x1="3276.8" y1="2574.6" x2="3257.1" y2="2574.6" stroke-width="4.8188" />
<line x1="819.2" y1="2574.6" x2="838.86" y2="2574.6" stroke-width="4.8188" />
<line x1="3276.8" y1="2750.2" x2="3257.1" y2="2750.2" stroke-width="4.8188" />
<line x1="819.2" y1="2750.2" x2="838.86" y2="2750.2" stroke-width="4.8188" />
<line x1="3276.8" y1="2925.7" x2="3257.1" y2="2925.7" stroke-width="4.8188" />
<line x1="819.2" y1="2925.7" x2="838.86" y2="2925.7" stroke-width="4.8188" />
<line x1="3276.8" y1="3101.3" x2="3257.1" y2="3101.3" stroke-width="4.8188" />
<line x1="819.2" y1="3101.3" x2="838.86" y2="3101.3" stroke-width="4.8188" />
<line x1="3276.8" y1="3276.8" x2="3257.1" y2="3276.8" stroke-width="4.8188" />
<line x1="819.2" y1="3276.8" x2="838.86" y2="3276.8" stroke-width="4.8188" />
<line x1="819.2" y1="1170.3" x2="3276.8" y2="1170.3" stroke-width="4.8188" stroke-dasharray="4.8188, 14.456" />
<text transform="translate(2015.7,501.24) scale(1,-1) scale(6.4512) " font-family="Helvetica,sans-serif" font-size="20px" stroke="none" fill="black" >x</text>
<text transform="matrix(0 6.4512 6.4512 0 548.67 2015.7) " font-family="Helvetica,sans-serif" font-size="20px" stroke="none" fill="black" >y</text>
<circle cx="819.2" cy="1521.4" r="23.04" stroke-width="2.304" />
<circle cx="1065" cy="1272.8" r="23.04" stroke-width="2.304" />
<circle cx="1310.7" cy="1231.1" r="23.04" stroke-width="2.304" />
<circle cx="1556.5" cy="1514.4" r="23.04" stroke-width="2.304" />
<circle cx="1802.2" cy="1320.3" r="23.04" stroke-width="2.304" />
<circle cx="2048" cy="1198.5" r="23.04" stroke-width="2.304" />
<circle cx="2293.8" cy="1494" r="23.04" stroke-width="2.304" />
<circle cx="2539.5" cy="1369.8" r="23.04" stroke-width="2.304" />
<circle cx="2785.3" cy="1177.7" r="23.04" stroke-width="2.304" />
<circle cx="3031" cy="1461.7" r="23.04" stroke-width="2.304" />
<polyline points="819.2,1521.4 831.49,1520.5 843.78,1517.9 856.06,1513.5 868.35,1507.5 880.64,1499.9 892.93,1490.7 905.22,1480.1 917.5,1468.1 929.79,1454.9 942.08,1440.7 954.37,1425.5 966.66,1409.4 978.94,1392.8 991.23,1375.7 1003.5,1358.2 1015.8,1340.7 1028.1,1323.2 1040.4,1305.9 1052.7,1289.1 1065,1272.8 1077.2,1257.2 1089.5,1242.5 1101.8,1228.9 1114.1,1216.4 1126.4,1205.2 1138.7,1195.4 1151,1187.1 1163.3,1180.4 1175.6,1175.4 1187.8,1172 1200.1,1170.4 1212.4,1170.6 1224.7,1172.5 1237,1176.1 1249.3,1181.4 1261.6,1188.4 1273.9,1197 1286.1,1207 1298.4,1218.4 1310.7,1231.1 1323,1244.9 1335.3,1259.8 1347.6,1275.5 1359.9,1291.9 1372.2,1308.8 1384.4,1326.1 1396.7,1343.7 1409,1361.2 1421.3,1378.6 1433.6,1395.6 1445.9,1412.2 1458.2,1428.1 1470.5,1443.1 1482.8,1457.2 1495,1470.2 1507.3,1482 1519.6,1492.4 1531.9,1501.3 1544.2,1508.6 1556.5,1514.4 1568.8,1518.4 1581.1,1520.8 1593.3,1521.3 1605.6,1520.2 1617.9,1517.3 1630.2,1512.6 1642.5,1506.3 1654.8,1498.4 1667.1,1489 1679.4,1478.2 1691.6,1466 1703.9,1452.6 1716.2,1438.2 1728.5,1422.8 1740.8,1406.7 1753.1,1389.9 1765.4,1372.8 1777.7,1355.3 1790,1337.8 1802.2,1320.3 1814.5,1303.1 1826.8,1286.3 1839.1,1270.1 1851.4,1254.7 1863.7,1240.1 1876,1226.7 1888.3,1214.4 1900.5,1203.4 1912.8,1193.9 1925.1,1185.9 1937.4,1179.5 1949.7,1174.7 1962,1171.7 1974.3,1170.3 1986.6,1170.8 1998.8,1173 2011.1,1176.9 2023.4,1182.5 2035.7,1189.7 2048,1198.5 2060.3,1208.8 2072.6,1220.4 2084.9,1233.3 2097.2,1247.4 2109.4,1262.4 2121.7,1278.2 2134,1294.7 2146.3,1311.7 2158.6,1329.1 2170.9,1346.6 2183.2,1364.1 2195.5,1381.5 2207.7,1398.4 2220,1414.9 2232.3,1430.7 2244.6,1445.6 2256.9,1459.5 2269.2,1472.3 2281.5,1483.8 2293.8,1494 2306,1502.6 2318.3,1509.7 2330.6,1515.2 2342.9,1518.9 2355.2,1521 2367.5,1521.3 2379.8,1519.8 2392.1,1516.6 2404.4,1511.7 2416.6,1505.1 2428.9,1497 2441.2,1487.3 2453.5,1476.2 2465.8,1463.8 2478.1,1450.3 2490.4,1435.7 2502.7,1420.1 2514.9,1403.9 2527.2,1387.1 2539.5,1369.8 2551.8,1352.4 2564.1,1334.8 2576.4,1317.4 2588.7,1300.2 2601,1283.5 2613.2,1267.5 2625.5,1252.2 2637.8,1237.8 2650.1,1224.5 2662.4,1212.5 2674.7,1201.7 2687,1192.5 2699.3,1184.7 2711.6,1178.5 2723.8,1174.1 2736.1,1171.3 2748.4,1170.3 2760.7,1171 2773,1173.5 2785.3,1177.7 2797.6,1183.6 2809.9,1191.1 2822.1,1200.2 2834.4,1210.7 2846.7,1222.5 2859,1235.6 2871.3,1249.8 2883.6,1265 2895.9,1280.9 2908.2,1297.5 2920.4,1314.6 2932.7,1332 2945,1349.6 2957.3,1367.1 2969.6,1384.3 2981.9,1401.3 2994.2,1417.6 3006.5,1433.2 3018.8,1448 3031,1461.7 3043.3,1474.3 3055.6,1485.6 3067.9,1495.5 3080.2,1503.9 3092.5,1510.8 3104.8,1515.9 3117.1,1519.4 3129.3,1521.2 3141.6,1521.1 3153.9,1519.4 3166.2,1515.9 3178.5,1510.7 3190.8,1503.9 3203.1,1495.4 3215.4,1485.5 3227.6,1474.2 3239.9,1461.6 3252.2,1447.9 3264.5,1433.1 " stroke-width="4.8188" stroke-dasharray="4.8188, 14.456" />
<polyline points="819.2,1170.3 831.49,1135.2 843.78,1100.5 856.06,1066.5 868.35,1033.6 880.64,1002 892.93,972.05 905.22,944.11 917.5,918.43 929.79,895.27 942.08,874.86 954.37,857.4 966.66,843.06 978.94,831.99 991.23,824.31 1003.5,820.08 1015.8,819.35 1028.1,822.13 1040.4,828.38 1052.7,838.05 1065,851.04 1077.2,867.23 1089.5,886.43 1101.8,908.48 1114.1,933.14 1126.4,960.17 1138.7,989.3 1151,1020.2 1163.3,1052.7 1175.6,1086.3 1187.8,1120.7 1200.1,1155.7 1212.4,1190.8 1224.7,1225.7 1237,1260 1249.3,1293.4 1261.6,1325.6 1273.9,1356.3 1286.1,1385.1 1298.4,1411.8 1310.7,1436 1323,1457.6 1335.3,1476.3 1347.6,1491.9 1359.9,1504.4 1372.2,1513.5 1384.4,1519.2 1396.7,1521.3 1409,1520 1421.3,1515.2 1433.6,1507 1445.9,1495.3 1458.2,1480.5 1470.5,1462.5 1482.8,1441.6 1495,1418 1507.3,1391.9 1519.6,1363.6 1531.9,1333.4 1544.2,1301.5 1556.5,1268.4 1568.8,1234.2 1581.1,1199.5 1593.3,1164.4 1605.6,1129.4 1617.9,1094.8 1630.2,1060.9 1642.5,1028.1 1654.8,996.81 1667.1,967.2 1679.4,939.63 1691.6,914.36 1703.9,891.64 1716.2,871.71 1728.5,854.76 1740.8,840.97 1753.1,830.46 1765.4,823.35 1777.7,819.71 1790,819.57 1802.2,822.94 1814.5,829.77 1826.8,840.01 1839.1,853.55 1851.4,870.25 1863.7,889.95 1876,912.45 1888.3,937.53 1900.5,964.93 1912.8,994.38 1925.1,1025.6 1937.4,1058.3 1949.7,1092 1962,1126.6 1974.3,1161.6 1986.6,1196.7 1998.8,1231.5 2011.1,1265.7 2023.4,1299 2035.7,1330.9 2048,1361.3 2060.3,1389.7 2072.6,1416 2084.9,1439.8 2097.2,1460.9 2109.4,1479.1 2121.7,1494.3 2134,1506.1 2146.3,1514.7 2158.6,1519.8 2170.9,1521.4 2183.2,1519.5 2195.5,1514.1 2207.7,1505.2 2220,1493 2232.3,1477.6 2244.6,1459.2 2256.9,1437.8 2269.2,1413.8 2281.5,1387.3 2293.8,1358.7 2306,1328.2 2318.3,1296.1 2330.6,1262.7 2342.9,1228.4 2355.2,1193.6 2367.5,1158.5 2379.8,1123.5 2392.1,1089 2404.4,1055.3 2416.6,1022.8 2428.9,991.7 2441.2,962.42 2453.5,935.21 2465.8,910.35 2478.1,888.09 2490.4,868.65 2502.7,852.22 2514.9,838.97 2527.2,829.03 2539.5,822.5 2551.8,819.44 2564.1,819.89 2576.4,823.84 2588.7,831.26 2601,842.06 2613.2,856.14 2625.5,873.36 2637.8,893.54 2650.1,916.49 2662.4,941.98 2674.7,969.75 2687,999.52 2699.3,1031 2711.6,1063.9 2723.8,1097.8 2736.1,1132.5 2748.4,1167.5 2760.7,1202.6 2773,1237.3 2785.3,1271.4 2797.6,1304.4 2809.9,1336.1 2822.1,1366.2 2834.4,1394.3 2846.7,1420.2 2859,1443.6 2871.3,1464.2 2883.6,1481.9 2895.9,1496.5 2908.2,1507.8 2920.4,1515.8 2932.7,1520.3 2945,1521.3 2957.3,1518.8 2969.6,1512.8 2981.9,1503.4 2994.2,1490.7 3006.5,1474.7 3018.8,1455.8 3031,1433.9 3043.3,1409.5 3055.6,1382.6 3067.9,1353.7 3080.2,1322.9 3092.5,1290.5 3104.8,1257 3117.1,1222.6 3129.3,1187.7 3141.6,1152.6 3153.9,1117.7 3166.2,1083.3 3178.5,1049.8 3190.8,1017.4 3203.1,986.64 3215.4,957.69 3227.6,930.86 3239.9,906.42 3252.2,884.62 3264.5,865.67 " stroke-width="4.8188" stroke-dasharray="19.275, 14.456, 4.8188, 14.456" />
<polyline points="819.2,1170.3 831.49,1187.8 843.78,1205.3 856.06,1222.6 868.35,1239.6 880.64,1256.3 892.93,1272.5 905.22,1288.3 917.5,1303.5 929.79,1318 942.08,1331.9 954.37,1345.1 966.66,1357.4 978.94,1369 991.23,1379.7 1003.5,1389.5 1015.8,1398.5 1028.1,1406.5 1040.4,1413.8 1052.7,1420.1 1065,1425.6 1077.2,1430.4 1089.5,1434.3 1101.8,1437.6 1114.1,1440.2 1126.4,1442.2 1138.7,1443.7 1151,1444.8 1163.3,1445.4 1175.6,1445.8 1187.8,1446 1200.1,1446 1212.4,1446 1224.7,1446.1 1237,1446.3 1249.3,1446.7 1261.6,1447.4 1273.9,1448.5 1286.1,1450.1 1298.4,1452.2 1310.7,1454.9 1323,1458.3 1335.3,1462.4 1347.6,1467.3 1359.9,1473 1372.2,1479.5 1384.4,1486.8 1396.7,1495 1409,1504.2 1421.3,1514.1 1433.6,1525 1445.9,1536.7 1458.2,1549.2 1470.5,1562.4 1482.8,1576.4 1495,1591.1 1507.3,1606.4 1519.6,1622.2 1531.9,1638.6 1544.2,1655.3 1556.5,1672.4 1568.8,1689.7 1581.1,1707.2 1593.3,1724.7 1605.6,1742.3 1617.9,1759.7 1630.2,1776.9 1642.5,1793.9 1654.8,1810.5 1667.1,1826.7 1679.4,1842.4 1691.6,1857.4 1703.9,1871.9 1716.2,1885.7 1728.5,1898.7 1740.8,1910.9 1753.1,1922.3 1765.4,1932.9 1777.7,1942.5 1790,1951.4 1802.2,1959.3 1814.5,1966.4 1826.8,1972.6 1839.1,1978 1851.4,1982.6 1863.7,1986.4 1876,1989.6 1888.3,1992.1 1900.5,1994 1912.8,1995.4 1925.1,1996.4 1937.4,1997 1949.7,1997.3 1962,1997.5 1974.3,1997.5 1986.6,1997.5 1998.8,1997.6 2011.1,1997.8 2023.4,1998.3 2035.7,1999.1 2048,2000.2 2060.3,2001.9 2072.6,2004.1 2084.9,2007 2097.2,2010.4 2109.4,2014.7 2121.7,2019.7 2134,2025.5 2146.3,2032.1 2158.6,2039.6 2170.9,2048 2183.2,2057.3 2195.5,2067.4 2207.7,2078.4 2220,2090.2 2232.3,2102.8 2244.6,2116.2 2256.9,2130.3 2269.2,2145.1 2281.5,2160.5 2293.8,2176.4 2306,2192.9 2318.3,2209.7 2330.6,2226.8 2342.9,2244.1 2355.2,2261.6 2367.5,2279.2 2379.8,2296.7 2392.1,2314.1 2404.4,2331.3 2416.6,2348.2 2428.9,2364.7 2441.2,2380.8 2453.5,2396.4 2465.8,2411.4 2478.1,2425.8 2490.4,2439.4 2502.7,2452.3 2514.9,2464.4 2527.2,2475.6 2539.5,2486 2551.8,2495.6 2564.1,2504.2 2576.4,2512 2588.7,2518.9 2601,2525 2613.2,2530.3 2625.5,2534.8 2637.8,2538.5 2650.1,2541.5 2662.4,2543.9 2674.7,2545.8 2687,2547.1 2699.3,2548 2711.6,2548.6 2723.8,2548.9 2736.1,2549 2748.4,2549 2760.7,2549 2773,2549.1 2785.3,2549.4 2797.6,2549.9 2809.9,2550.7 2822.1,2552 2834.4,2553.7 2846.7,2556 2859,2559 2871.3,2562.6 2883.6,2566.9 2895.9,2572.1 2908.2,2578 2920.4,2584.8 2932.7,2592.5 2945,2601 2957.3,2610.4 2969.6,2620.7 2981.9,2631.8 2994.2,2643.7 3006.5,2656.5 3018.8,2670 3031,2684.3 3043.3,2699.1 3055.6,2714.6 3067.9,2730.7 3080.2,2747.1 3092.5,2764 3104.8,2781.2 3117.1,2798.5 3129.3,2816 3141.6,2833.6 3153.9,2851.1 3166.2,2868.5 3178.5,2885.6 3190.8,2902.5 3203.1,2919 3215.4,2935 3227.6,2950.5 3239.9,2965.3 3252.2,2979.6 3264.5,2993.1 " stroke-width="4.8188" stroke-dasharray="19.275, 19.275" />
</g>
</svg>
