<?xml version="1.0" encoding="ISO-8859-1" standalone="no"?>
<!DOCTYPE svg PUBLIC "-//W3C//DTD SVG 1.1//EN" "http://www.w3.org/Graphics/SVG/1.1/DTD/svg11.dtd">
<svg version="1.1" baseProfile="full" id="body" width="8in" height="8in" viewBox="0 0 1 1" preserveAspectRatio="none" xmlns="http://www.w3.org/2000/svg" xmlns:xlink="http://www.w3.org/1999/xlink" xmlns:ev="http://www.w3.org/2001/xml-events">
<title>SVG drawing</title>
<desc>This was produced by version 4.4 of GNU libplot, a free library for exporting 2-D vector graphics.</desc>
<rect id="background" x="0" y="0" width="1" height="1" stroke="none" fill="white"/>
<g id="content" transform="translate(0,1) scale(1,-1) scale(0.00024414) " xml:space="preserve" stroke="black" stroke-linecap="butt" stroke-linejoin="miter" stroke-miterlimit="10.433" stroke-dasharray="none" stroke-dashoffset="0" stroke-opacity="1" fill="none" fill-rule="evenodd" fill-opacity="1" font-style="normal" font-variant="normal" font-weight="normal" font-stretch="normal" font-size-adjust="none" letter-spacing="normal" word-spacing="normal" text-anchor="start">
<text transform="translate(1804.2,3451.9) scale(1,-1) scale(8.6016) " font-family="Helvetica,sans-serif" font-size="20px" stroke="none" fill="black" >lspline</text>
<rect x="819.2" y="819.2" width="2457.6" height="2457.6" stroke-width="4.8188" />
<text transform="translate(783.33,662.21) scale(1,-1) scale(6.4512) " font-family="Helvetica,sans-serif" font-size="20px" stroke="none" fill="black" >0</text>
<line x1="819.2" y1="3276.8" x2="819.2" y2="3227.6" stroke-width="4.8188" />
<line x1="819.2" y1="819.2" x2="819.2" y2="868.35" stroke-width="4.8188" />
<text transform="translate(1274.9,662.21) scale(1,-1) scale(6.4512) " font-family="Helvetica,sans-serif" font-size="20px" stroke="none" fill="black" >1</text>
<line x1="1310.7" y1="3276.8" x2="1310.7" y2="3227.6" stroke-width="4.8188" />
<line x1="1310.7" y1="819.2" x2="1310.7" y2="868.35" stroke-width="4.8188" />
<text transform="translate(1766.4,662.21) scale(1,-1) scale(6.4512) " font-family="Helvetica,sans-serif" font-size="20px" stroke="none" fill="black" >2</text>
<line x1="1802.2" y1="3276.8" x2="1802.2" y2="3227.6" stroke-width="4.8188" />
<line x1="1802.2" y1="819.2" x2="1802.2" y2="868.35" stroke-width="4.8188" />
<text transform="translate(2257.9,662.21) scale(1,-1) scale(6.4512) " font-family="Helvetica,sans-serif" font-size="20px" stroke="none" fill="black" >3</text>
<line x1="2293.8" y1="3276.8" x2="2293.8" y2="3227.6" stroke-width="4.8188" />
<line x1="2293.8" y1="819.2" x2="2293.8" y2="868.35" stroke-width="4.8188" />
<text transform="translate(2749.4,662.21) scale(1,-1) scale(6.4512) " font-family="Helvetica,sans-serif" font-size="20px" stroke="none" fill="black" >4</text>
<line x1="2785.3" y1="3276.8" x2="2785.3" y2="3227.6" stroke-width="4.8188" />
<line x1="2785.3" y1="819.2" x2="2785.3" y2="868.35" stroke-width="4.8188" />
<text transform="translate(3240.9,662.21) scale(1,-1) scale(6.4512) " font-family="Helvetica,sans-serif" font-size="20px" stroke="none" fill="black" >5</text>
<line x1="3276.8" y1="3276.8" x2="3276.8" y2="3227.6" stroke-width="4.8188" />
<line x1="3276.8" y1="819.2" x2="3276.8" y2="868.35" stroke-width="4.8188" />
<line x1="819.2" y1="3276.8" x2="819.2" y2="3257.1" stroke-width="4.8188" />
<line x1="819.2" y1="819.2" x2="819.2" y2="838.86" stroke-width="4.8188" />
<line x1="917.5" y1="3276.8" x2="917.5" y2="3257.1" stroke-width="4.8188" />
<line x1="917.5" y1="819.2" x2="917.5" y2="838.86" stroke-width="4.8188" />
<line x1="1015.8" y1="3276.8" x2="1015.8" y2="3257.1" stroke-width="4.8188" />
<line x1="1015.8" y1="819.2" x2="1015.8" y2="838.86" stroke-width="4.8188" />
<line x1="1114.1" y1="3276.8" x2="1114.1" y2="3257.1" stroke-width="4.8188" />
<line x1="1114.1" y1="819.2" x2="1114.1" y2="838.86" stroke-width="4.8188" />
<line x1="1212.4" y1="3276.8" x2="1212.4" y2="3257.1" stroke-width="4.8188" />
<line x1="1212.4" y1="819.2" x2="1212.4" y2="838.86" stroke-width="4.8188" />
<line x1="1310.7" y1="3276.8" x2="1310.7" y2="3257.1" stroke-width="4.8188" />
<line x1="1310.7" y1="819.2" x2="1310.7" y2="838.86" stroke-width="4.8188" />
<line x1="1409" y1="3276.8" x2="1409" y2="3257.1" stroke-width="4.8188" />
<line x1="1409" y1="819.2" x2="1409" y2="838.86" stroke-width="4.8188" />
<line x1="1507.3" y1="3276.8" x2="1507.3" y2="3257.1" stroke-width="4.8188" />
<line x1="1507.3" y1="819.2" x2="1507.3" y2="838.86" stroke-width="4.8188" />
<line x1="1605.6" y1="3276.8" x2="1605.6" y2="3257.1" stroke-width="4.8188" />
<line x1="1605.6" y1="819.2" x2="1605.6" y2="838.86" stroke-width="4.8188" />
<line x1="1703.9" y1="3276.8" x2="1703.9" y2="3257.1" stroke-width="4.8188" />
<line x1="1703.9" y1="819.2" x2="1703.9" y2="838.86" stroke-width="4.8188" />
<line x1="1802.2" y1="3276.8" x2="1802.2" y2="3257.1" stroke-width="4.8188" />
<line x1="1802.2" y1="819.2" x2="1802.2" y2="838.86" stroke-width="4.8188" />
<line x1="1900.5" y1="3276.8" x2="1900.5" y2="3257.1" stroke-width="4.8188" />
<line x1="1900.5" y1="819.2" x2="1900.5" y2="838.86" stroke-width="4.8188" />
<line x1="1998.8" y1="3276.8" x2="1998.8" y2="3257.1" stroke-width="4.8188" />
<line x1="1998.8" y1="819.2" x2="1998.8" y2="838.86" stroke-width="4.8188" />
<line x1="2097.2" y1="3276.8" x2="2097.2" y2="3257.1" stroke-width="4.8188" />
<line x1="2097.2" y1="819.2" x2="2097.2" y2="838.86" stroke-width="4.8188" />
<line x1="2195.5" y1="3276.8" x2="2195.5" y2="3257.1" stroke-width="4.8188" />
<line x1="2195.5" y1="819.2" x2="2195.5" y2="838.86" stroke-width="4.8188" />
<line x1="2293.8" y1="3276.8" x2="2293.8" y2="3257.1" stroke-width="4.8188" />
<line x1="2293.8" y1="819.2" x2="2293.8" y2="838.86" stroke-width="4.8188" />
<line x1="2392.1" y1="3276.8" x2="2392.1" y2="3257.1" stroke-width="4.8188" />
<line x1="2392.1" y1="819.2" x2="2392.1" y2="838.86" stroke-width="4.8188" />
<line x1="2490.4" y1="3276.8" x2="2490.4" y2="3257.1" stroke-width="4.8188" />
<line x1="2490.4" y1="819.2" x2="2490.4" y2="838.86" stroke-width="4.8188" />
<line x1="2588.7" y1="3276.8" x2="2588.7" y2="3257.1" stroke-width="4.8188" />
<line x1="2588.7" y1="819.2" x2="2588.7" y2="838.86" stroke-width="4.8188" />
<line x1="2687" y1="3276.8" x2="2687" y2="3257.1" stroke-width="4.8188" />
<line x1="2687" y1="819.2" x2="2687" y2="838.86" stroke-width="4.8188" />
<line x1="2785.3" y1="3276.8" x2="2785.3" y2="3257.1" stroke-width="4.8188" />
<line x1="2785.3" y1="819.2" x2="2785.3" y2="838.86" stroke-width="4.8188" />
<line x1="2883.6" y1="3276.8" x2="2883.6" y2="3257.1" stroke-width="4.8188" />
<line x1="2883.6" y1="819.2" x2="2883.6" y2="838.86" stroke-width="4.8188" />
<line x1="2981.9" y1="3276.8" x2="2981.9" y2="3257.1" stroke-width="4.8188" />
<line x1="2981.9" y1="819.2" x2="2981.9" y2="838.86" stroke-width="4.8188" />
<line x1="3080.2" y1="3276.8" x2="3080.2" y2="3257.1" stroke-width="4.8188" />
<line x1="3080.2" y1="819.2" x2="3080.2" y2="838.86" stroke-width="4.8188" />
<line x1="3178.5" y1="3276.8" x2="3178.5" y2="3257.1" stroke-width="4.8188" />
<line x1="3178.5" y1="819.2" x2="3178.5" y2="838.86" stroke-width="4.8188" />
<line x1="3276.8" y1="3276.8" x2="3276.8" y2="3257.1" stroke-width="4.8188" />
<line x1="3276.8" y1="819.2" x2="3276.8" y2="838.86" stroke-width="4.8188" />
<text transform="translate(635.25,773.65) scale(1,-1) scale(6.4512) " font-family="Helvetica,sans-serif" font-size="20px" stroke="none" fill="black" >-5</text>
<line x1="3276.8" y1="819.2" x2="3227.6" y2="819.2" stroke-width="4.8188" />
<line x1="819.2" y1="819.2" x2="868.35" y2="819.2" stroke-width="4.8188" />
<text transform="translate(710.6,1124.7) scale(1,-1) scale(6.4512) " font-family="Helvetica,sans-serif" font-size="20px" stroke="none" fill="black" >0</text>
<line x1="3276.8" y1="1170.3" x2="3227.6" y2="1170.3" stroke-width="4.8188" />
<line x1="819.2" y1="1170.3" x2="868.35" y2="1170.3" stroke-width="4.8188" />
<text transform="translate(710.6,1475.8) scale(1,-1) scale(6.4512) " font-family="Helvetica,sans-serif" font-size="20px" stroke="none" fill="black" >5</text>
<line x1="3276.8" y1="1521.4" x2="3227.6" y2="1521.4" stroke-width="4.8188" />
<line x1="819.2" y1="1521.4" x2="868.35" y2="1521.4" stroke-width="4.8188" />
<text transform="translate(638.86,1826.9) scale(1,-1) scale(6.4512) " font-family="Helvetica,sans-serif" font-size="20px" stroke="none" fill="black" >10</text>
<line x1="3276.8" y1="1872.5" x2="3227.6" y2="1872.5" stroke-width="4.8188" />
<line x1="819.2" y1="1872.5" x2="868.35" y2="1872.5" stroke-width="4.8188" />
<text transform="translate(638.86,2178) scale(1,-1) scale(6.4512) " font-family="Helvetica,sans-serif" font-size="20px" stroke="none" fill="black" >15</text>
<line x1="3276.8" y1="2223.5" x2="3227.6" y2="2223.5" stroke-width="4.8188" />
<line x1="819.2" y1="2223.5" x2="868.35" y2="2223.5" stroke-width="4.8188" />
<text transform="translate(638.86,2529.1) scale(1,-1) scale(6.4512) " font-family="Helvetica,sans-serif" font-size="20px" stroke="none" fill="black" >20</text>
<line x1="3276.8" y1="2574.6" x2="3227.6" y2="2574.6" stroke-width="4.8188" />
<line x1="819.2" y1="2574.6" x2="868.35" y2="2574.6" stroke-width="4.8188" />
<text transform="translate(638.86,2880.2) scale(1,-1) scale(6.4512) " font-family="Helvetica,sans-serif" font-size="20px" stroke="none" fill="black" >25</text>
<line x1="3276.8" y1="2925.7" x2="3227.6" y2="2925.7" stroke-width="4.8188" />
<line x1="819.2" y1="2925.7" x2="868.35" y2="2925.7" stroke-width="4.8188" />
<text transform="translate(638.86,3231.3) scale(1,-1) scale(6.4512) " font-family="Helvetica,sans-serif" font-size="20px" stroke="none" fill="black" >30</text>
<line x1="3276.8" y1="3276.8" x2="3227.6" y2="3276.8" stroke-width="4.8188" />
<line x1="819.2" y1="3276.8" x2="868.35" y2="3276.8" stroke-width="4.8188" />
<line x1="819.2" y1="1170.3" x2="3276.8" y2="1170.3" stroke-width="4.8188" stroke-dasharray="4.8188, 14.456" />
<text transform="translate(2015.7,501.24) scale(1,-1) scale(6.4512) " font-family="Helvetica,sans-serif" font-size="20px" stroke="none" fill="black" >x</text>
<text transform="matrix(0 6.4512 6.4512 0 548.67 2015.7) " font-family="Helvetica,sans-serif" font-size="20px" stroke="none" fill="black" >y</text>
<circle cx="819.2" cy="1100.1" r="23.04" stroke-width="2.304" />
<circle cx="1065" cy="1117.6" r="23.04" stroke-width="2.304" />
<circle cx="1310.7" cy="1170.3" r="23.04" stroke-width="2.304" />
<circle cx="1556.5" cy="1258.1" r="23.04" stroke-width="2.304" />
<circle cx="1802.2" cy="1380.9" r="23.04" stroke-width="2.304" />
<circle cx="2048" cy="1538.9" r="23.04" stroke-width="2.304" />
<circle cx="2293.8" cy="1732" r="23.04" stroke-width="2.304" />
<circle cx="2539.5" cy="1960.2" r="23.04" stroke-width="2.304" />
<circle cx="2785.3" cy="2223.5" r="23.04" stroke-width="2.304" />
<circle cx="3031" cy="2522" r="23.04" stroke-width="2.304" />
<polyline points="819.2,1100.1 831.49,1100.1 843.78,1100.2 856.06,1100.5 868.35,1100.8 880.64,1101.2 892.93,1101.6 905.22,1102.2 917.5,1102.9 929.79,1103.6 942.08,1104.5 954.37,1105.4 966.66,1106.4 978.94,1107.5 991.23,1108.7 1003.5,1109.9 1015.8,1111.3 1028.1,1112.8 1040.4,1114.3 1052.7,1115.9 1065,1117.6 1077.2,1119.4 1089.5,1121.3 1101.8,1123.3 1114.1,1125.3 1126.4,1127.5 1138.7,1129.7 1151,1132.1 1163.3,1134.5 1175.6,1137 1187.8,1139.6 1200.1,1142.2 1212.4,1145 1224.7,1147.9 1237,1150.8 1249.3,1153.8 1261.6,1156.9 1273.9,1160.1 1286.1,1163.4 1298.4,1166.8 1310.7,1170.3 1323,1173.8 1335.3,1177.5 1347.6,1181.2 1359.9,1185 1372.2,1188.9 1384.4,1192.9 1396.7,1197 1409,1201.2 1421.3,1205.4 1433.6,1209.8 1445.9,1214.2 1458.2,1218.7 1470.5,1223.3 1482.8,1228 1495,1232.8 1507.3,1237.7 1519.6,1242.7 1531.9,1247.7 1544.2,1252.8 1556.5,1258.1 1568.8,1263.4 1581.1,1268.8 1593.3,1274.3 1605.6,1279.8 1617.9,1285.5 1630.2,1291.2 1642.5,1297.1 1654.8,1303 1667.1,1309 1679.4,1315.1 1691.6,1321.3 1703.9,1327.6 1716.2,1333.9 1728.5,1340.4 1740.8,1346.9 1753.1,1353.6 1765.4,1360.3 1777.7,1367.1 1790,1374 1802.2,1380.9 1814.5,1388 1826.8,1395.2 1839.1,1402.4 1851.4,1409.7 1863.7,1417.1 1876,1424.6 1888.3,1432.2 1900.5,1439.9 1912.8,1447.7 1925.1,1455.5 1937.4,1463.5 1949.7,1471.5 1962,1479.6 1974.3,1487.8 1986.6,1496.1 1998.8,1504.5 2011.1,1513 2023.4,1521.5 2035.7,1530.2 2048,1538.9 2060.3,1547.7 2072.6,1556.7 2084.9,1565.7 2097.2,1574.7 2109.4,1583.9 2121.7,1593.2 2134,1602.5 2146.3,1612 2158.6,1621.5 2170.9,1631.1 2183.2,1640.8 2195.5,1650.6 2207.7,1660.4 2220,1670.4 2232.3,1680.5 2244.6,1690.6 2256.9,1700.8 2269.2,1711.1 2281.5,1721.5 2293.8,1732 2306,1742.6 2318.3,1753.3 2330.6,1764 2342.9,1774.9 2355.2,1785.8 2367.5,1796.8 2379.8,1807.9 2392.1,1819.1 2404.4,1830.4 2416.6,1841.7 2428.9,1853.2 2441.2,1864.7 2453.5,1876.4 2465.8,1888.1 2478.1,1899.9 2490.4,1911.8 2502.7,1923.8 2514.9,1935.8 2527.2,1948 2539.5,1960.2 2551.8,1972.6 2564.1,1985 2576.4,1997.5 2588.7,2010.1 2601,2022.8 2613.2,2035.5 2625.5,2048.4 2637.8,2061.3 2650.1,2074.4 2662.4,2087.5 2674.7,2100.7 2687,2114 2699.3,2127.4 2711.6,2140.9 2723.8,2154.4 2736.1,2168.1 2748.4,2181.8 2760.7,2195.6 2773,2209.5 2785.3,2223.5 2797.6,2237.6 2809.9,2251.8 2822.1,2266.1 2834.4,2280.4 2846.7,2294.9 2859,2309.4 2871.3,2324 2883.6,2338.7 2895.9,2353.5 2908.2,2368.4 2920.4,2383.3 2932.7,2398.4 2945,2413.5 2957.3,2428.8 2969.6,2444.1 2981.9,2459.5 2994.2,2475 3006.5,2490.5 3018.8,2506.2 3031,2522 3043.3,2537.8 3055.6,2553.7 3067.9,2569.8 3080.2,2585.9 3092.5,2602.1 3104.8,2618.3 3117.1,2634.7 3129.3,2651.2 3141.6,2667.7 3153.9,2684.3 3166.2,2701.1 3178.5,2717.9 3190.8,2734.8 3203.1,2751.8 3215.4,2768.8 3227.6,2786 3239.9,2803.2 3252.2,2820.6 3264.5,2838 " stroke-width="4.8188" stroke-dasharray="4.8188, 14.456" />
<polyline points="819.2,1100.1 830.31,1100.9 841.43,1101.7 852.54,1102.5 863.66,1103.2 874.77,1104 885.89,1104.8 897,1105.6 908.12,1106.4 919.23,1107.2 930.35,1108 941.46,1108.8 952.58,1109.6 963.69,1110.4 974.81,1111.2 985.92,1112 997.04,1112.8 1008.2,1113.6 1019.3,1114.4 1030.4,1115.2 1041.5,1115.9 1052.6,1116.7 1063.7,1117.5 1074.8,1119.7 1086,1122.1 1097.1,1124.5 1108.2,1126.9 1119.3,1129.3 1130.4,1131.6 1141.5,1134 1152.6,1136.4 1163.8,1138.8 1174.9,1141.2 1186,1143.6 1197.1,1145.9 1208.2,1148.3 1219.3,1150.7 1230.4,1153.1 1241.6,1155.5 1252.7,1157.8 1263.8,1160.2 1274.9,1162.6 1286,1165 1297.1,1167.4 1308.3,1169.8 1319.4,1173.4 1330.5,1177.3 1341.6,1181.3 1352.7,1185.3 1363.8,1189.3 1374.9,1193.2 1386.1,1197.2 1397.2,1201.2 1408.3,1205.1 1419.4,1209.1 1430.5,1213.1 1441.6,1217 1452.7,1221 1463.9,1225 1475,1228.9 1486.1,1232.9 1497.2,1236.9 1508.3,1240.9 1519.4,1244.8 1530.5,1248.8 1541.7,1252.8 1552.8,1256.7 1563.9,1261.8 1575,1267.3 1586.1,1272.9 1597.2,1278.4 1608.4,1284 1619.5,1289.5 1630.6,1295.1 1641.7,1300.7 1652.8,1306.2 1663.9,1311.8 1675,1317.3 1686.2,1322.9 1697.3,1328.5 1708.4,1334 1719.5,1339.6 1730.6,1345.1 1741.7,1350.7 1752.8,1356.2 1764,1361.8 1775.1,1367.4 1786.2,1372.9 1797.3,1378.5 1808.4,1384.9 1819.5,1392.1 1830.6,1399.2 1841.8,1406.3 1852.9,1413.5 1864,1420.6 1875.1,1427.8 1886.2,1434.9 1897.3,1442.1 1908.4,1449.2 1919.6,1456.4 1930.7,1463.5 1941.8,1470.6 1952.9,1477.8 1964,1484.9 1975.1,1492.1 1986.3,1499.2 1997.4,1506.4 2008.5,1513.5 2019.6,1520.7 2030.7,1527.8 2041.8,1535 2052.9,1542.8 2064.1,1551.5 2075.2,1560.3 2086.3,1569 2097.4,1577.7 2108.5,1586.5 2119.6,1595.2 2130.7,1603.9 2141.9,1612.7 2153,1621.4 2164.1,1630.1 2175.2,1638.9 2186.3,1647.6 2197.4,1656.3 2208.5,1665.1 2219.7,1673.8 2230.8,1682.5 2241.9,1691.3 2253,1700 2264.1,1708.7 2275.2,1717.5 2286.3,1726.2 2297.5,1735.5 2308.6,1745.8 2319.7,1756.1 2330.8,1766.4 2341.9,1776.7 2353,1787.1 2364.2,1797.4 2375.3,1807.7 2386.4,1818 2397.5,1828.4 2408.6,1838.7 2419.7,1849 2430.8,1859.3 2442,1869.6 2453.1,1880 2464.2,1890.3 2475.3,1900.6 2486.4,1910.9 2497.5,1921.2 2508.6,1931.6 2519.8,1941.9 2530.9,1952.2 2542,1962.9 2553.1,1974.8 2564.2,1986.7 2575.3,1998.6 2586.5,2010.5 2597.6,2022.4 2608.7,2034.3 2619.8,2046.2 2630.9,2058.1 2642,2070.1 2653.1,2082 2664.3,2093.9 2675.4,2105.8 2686.5,2117.7 2697.6,2129.6 2708.7,2141.5 2719.8,2153.4 2730.9,2165.3 2742.1,2177.2 2753.2,2189.1 2764.3,2201 2775.4,2213 2786.5,2225 2797.6,2238.5 2808.7,2252 2819.9,2265.5 2831,2279 2842.1,2292.5 2853.2,2306 2864.3,2319.5 2875.4,2333 2886.5,2346.5 2897.7,2360 2908.8,2373.5 2919.9,2387 2931,2400.5 2942.1,2414 2953.2,2427.5 2964.4,2441 2975.5,2454.5 2986.6,2468 2997.7,2481.5 3008.8,2495 3019.9,2508.5 3031,2522 " stroke-width="4.8188" />
<polyline points="819.2,1170.3 830.31,1168.7 841.43,1167.1 852.54,1165.6 863.66,1164.1 874.77,1162.6 885.89,1161.1 897,1159.6 908.12,1158.2 919.23,1156.7 930.35,1155.3 941.46,1153.9 952.58,1152.5 963.69,1151.2 974.81,1149.8 985.92,1148.5 997.04,1147.2 1008.2,1145.9 1019.3,1144.6 1030.4,1143.4 1041.5,1142.1 1052.6,1140.9 1063.7,1139.7 1074.8,1138.5 1086,1137.4 1097.1,1136.4 1108.2,1135.3 1119.3,1134.4 1130.4,1133.5 1141.5,1132.6 1152.6,1131.8 1163.8,1131.1 1174.9,1130.4 1186,1129.8 1197.1,1129.2 1208.2,1128.7 1219.3,1128.2 1230.4,1127.8 1241.6,1127.4 1252.7,1127.1 1263.8,1126.9 1274.9,1126.7 1286,1126.5 1297.1,1126.4 1308.3,1126.4 1319.4,1126.4 1330.5,1126.5 1341.6,1126.7 1352.7,1127 1363.8,1127.4 1374.9,1127.9 1386.1,1128.5 1397.2,1129.1 1408.3,1129.9 1419.4,1130.7 1430.5,1131.6 1441.6,1132.6 1452.7,1133.7 1463.9,1134.9 1475,1136.2 1486.1,1137.6 1497.2,1139 1508.3,1140.6 1519.4,1142.2 1530.5,1144 1541.7,1145.8 1552.8,1147.7 1563.9,1149.7 1575,1151.8 1586.1,1154.1 1597.2,1156.5 1608.4,1159 1619.5,1161.6 1630.6,1164.4 1641.7,1167.3 1652.8,1170.3 1663.9,1173.4 1675,1176.7 1686.2,1180.1 1697.3,1183.6 1708.4,1187.2 1719.5,1191 1730.6,1194.9 1741.7,1198.9 1752.8,1203 1764,1207.3 1775.1,1211.7 1786.2,1216.2 1797.3,1220.8 1808.4,1225.6 1819.5,1230.6 1830.6,1235.6 1841.8,1240.9 1852.9,1246.3 1864,1251.9 1875.1,1257.6 1886.2,1263.6 1897.3,1269.6 1908.4,1275.8 1919.6,1282.2 1930.7,1288.8 1941.8,1295.5 1952.9,1302.4 1964,1309.4 1975.1,1316.6 1986.3,1324 1997.4,1331.5 2008.5,1339.2 2019.6,1347 2030.7,1355 2041.8,1363.2 2052.9,1371.5 2064.1,1380 2075.2,1388.7 2086.3,1397.7 2097.4,1406.8 2108.5,1416.1 2119.6,1425.6 2130.7,1435.3 2141.9,1445.2 2153,1455.3 2164.1,1465.6 2175.2,1476.1 2186.3,1486.8 2197.4,1497.7 2208.5,1508.8 2219.7,1520.1 2230.8,1531.6 2241.9,1543.2 2253,1555.1 2264.1,1567.2 2275.2,1579.5 2286.3,1591.9 2297.5,1604.6 2308.6,1617.5 2319.7,1630.6 2330.8,1644 2341.9,1657.6 2353,1671.4 2364.2,1685.5 2375.3,1699.8 2386.4,1714.3 2397.5,1729.1 2408.6,1744.1 2419.7,1759.3 2430.8,1774.8 2442,1790.5 2453.1,1806.4 2464.2,1822.6 2475.3,1839 2486.4,1855.6 2497.5,1872.5 2508.6,1889.6 2519.8,1906.9 2530.9,1924.5 2542,1942.3 2553.1,1960.3 2564.2,1978.6 2575.3,1997.2 2586.5,2016.1 2597.6,2035.2 2608.7,2054.6 2619.8,2074.3 2630.9,2094.3 2642,2114.5 2653.1,2135 2664.3,2155.7 2675.4,2176.7 2686.5,2198 2697.6,2219.6 2708.7,2241.4 2719.8,2263.5 2730.9,2285.9 2742.1,2308.5 2753.2,2331.4 2764.3,2354.6 2775.4,2378 2786.5,2401.7 2797.6,2425.7 2808.7,2450 2819.9,2474.7 2831,2499.6 2842.1,2524.8 2853.2,2550.3 2864.3,2576.2 2875.4,2602.3 2886.5,2628.8 2897.7,2655.5 2908.8,2682.6 2919.9,2709.9 2931,2737.6 2942.1,2765.6 2953.2,2793.8 2964.4,2822.4 2975.5,2851.3 2986.6,2880.5 2997.7,2910 3008.8,2939.8 3019.9,2969.9 3031,3000.3 " stroke-width="4.8188" stroke-dasharray="19.275, 14.456, 4.8188, 14.456" />
</g>
</svg>
