<?xml version="1.0" encoding="ISO-8859-1" standalone="no"?>
<!DOCTYPE svg PUBLIC "-//W3C//DTD SVG 1.1//EN" "http://www.w3.org/Graphics/SVG/1.1/DTD/svg11.dtd">
<svg version="1.1" baseProfile="full" id="body" width="8in" height="8in" viewBox="0 0 1 1" preserveAspectRatio="none" xmlns="http://www.w3.org/2000/svg" xmlns:xlink="http://www.w3.org/1999/xlink" xmlns:ev="http://www.w3.org/2001/xml-events">
<title>SVG drawing</title>
<desc>This was produced by version 4.4 of GNU libplot, a free library for exporting 2-D vector graphics.</desc>
<rect id="background" x="0" y="0" width="1" height="1" stroke="none" fill="white"/>
<g id="content" transform="translate(0,1) scale(1,-1) scale(0.00024414) " xml:space="preserve" stroke="black" stroke-linecap="butt" stroke-linejoin="miter" stroke-miterlimit="10.433" stroke-dasharray="none" stroke-dashoffset="0" stroke-opacity="1" fill="none" fill-rule="evenodd" fill-opacity="1" font-style="normal" font-variant="normal" font-weight="normal" font-stretch="normal" font-size-adjust="none" letter-spacing="normal" word-spacing="normal" text-anchor="start">
<text transform="translate(1804.2,3451.9) scale(1,-1) scale(8.6016) " font-family="Helvetica,sans-serif" font-size="20px" stroke="none" fill="black" >lspline</text>
<rect x="819.2" y="819.2" width="2457.6" height="2457.6" stroke-width="4.8188" />
<text transform="translate(783.33,662.21) scale(1,-1) scale(6.4512) " font-family="Helvetica,sans-serif" font-size="20px" stroke="none" fill="black" >0</text>
<line x1="819.2" y1="3276.8" x2="819.2" y2="3227.6" stroke-width="4.8188" />
<line x1="819.2" y1="819.2" x2="819.2" y2="868.35" stroke-width="4.8188" />
<text transform="translate(1274.9,662.21) scale(1,-1) scale(6.4512) " font-family="Helvetica,sans-serif" font-size="20px" stroke="none" fill="black" >2</text>
<line x1="1310.7" y1="3276.8" x2="1310.7" y2="3227.6" stroke-width="4.8188" />
<line x1="1310.7" y1="819.2" x2="1310.7" y2="868.35" stroke-width="4.8188" />
<text transform="translate(1766.4,662.21) scale(1,-1) scale(6.4512) " font-family="Helvetica,sans-serif" font-size="20px" stroke="none" fill="black" >4</text>
<line x1="1802.2" y1="3276.8" x2="1802.2" y2="3227.6" stroke-width="4.8188" />
<line x1="1802.2" y1="819.2" x2="1802.2" y2="868.35" stroke-width="4.8188" />
<text transform="translate(2257.9,662.21) scale(1,-1) scale(6.4512) " font-family="Helvetica,sans-serif" font-size="20px" stroke="none" fill="black" >6</text>
<line x1="2293.8" y1="3276.8" x2="2293.8" y2="3227.6" stroke-width="4.8188" />
<line x1="2293.8" y1="819.2" x2="2293.8" y2="868.35" stroke-width="4.8188" />
<text transform="translate(2749.4,662.21) scale(1,-1) scale(6.4512) " font-family="Helvetica,sans-serif" font-size="20px" stroke="none" fill="black" >8</text>
<line x1="2785.3" y1="3276.8" x2="2785.3" y2="3227.6" stroke-width="4.8188" />
<line x1="2785.3" y1="819.2" x2="2785.3" y2="868.35" stroke-width="4.8188" />
<text transform="translate(3205.1,662.21) scale(1,-1) scale(6.4512) " font-family="Helvetica,sans-serif" font-size="20px" stroke="none" fill="black" >10</text>
<line x1="3276.8" y1="3276.8" x2="3276.8" y2="3227.6" stroke-width="4.8188" />
<line x1="3276.8" y1="819.2" x2="3276.8" y2="868.35" stroke-width="4.8188" />
<line x1="819.2" y1="3276.8" x2="819.2" y2="3257.1" stroke-width="4.8188" />
<line x1="819.2" y1="819.2" x2="819.2" y2="838.86" stroke-width="4.8188" />
<line x1="1065" y1="3276.8" x2="1065" y2="3257.1" stroke-width="4.8188" />
<line x1="1065" y1="819.2" x2="1065" y2="838.86" stroke-width="4.8188" />
<line x1="1310.7" y1="3276.8" x2="1310.7" y2="3257.1" stroke-width="4.8188" />
<line x1="1310.7" y1="819.2" x2="1310.7" y2="838.86" stroke-width="4.8188" />
<line x1="1556.5" y1="3276.8" x2="1556.5" y2="3257.1" stroke-width="4.8188" />
<line x1="1556.5" y1="819.2" x2="1556.5" y2="838.86" stroke-width="4.8188" />
<line x1="1802.2" y1="3276.8" x2="1802.2" y2="3257.1" stroke-width="4.8188" />
<line x1="1802.2" y1="819.2" x2="1802.2" y2="838.86" stroke-width="4.8188" />
<line x1="2048" y1="3276.8" x2="2048" y2="3257.1" stroke-width="4.8188" />
<line x1="2048" y1="819.2" x2="2048" y2="838.86" stroke-width="4.8188" />
<line x1="2293.8" y1="3276.8" x2="2293.8" y2="3257.1" stroke-width="4.8188" />
<line x1="2293.8" y1="819.2" x2="2293.8" y2="838.86" stroke-width="4.8188" />
<line x1="2539.5" y1="3276.8" x2="2539.5" y2="3257.1" stroke-width="4.8188" />
<line x1="2539.5" y1="819.2" x2="2539.5" y2="838.86" stroke-width="4.8188" />
<line x1="2785.3" y1="3276.8" x2="2785.3" y2="3257.1" stroke-width="4.8188" />
<line x1="2785.3" y1="819.2" x2="2785.3" y2="838.86" stroke-width="4.8188" />
<line x1="3031" y1="3276.8" x2="3031" y2="3257.1" stroke-width="4.8188" />
<line x1="3031" y1="819.2" x2="3031" y2="838.86" stroke-width="4.8188" />
<line x1="3276.8" y1="3276.8" x2="3276.8" y2="3257.1" stroke-width="4.8188" />
<line x1="3276.8" y1="819.2" x2="3276.8" y2="838.86" stroke-width="4.8188" />
<text transform="translate(710.6,773.65) scale(1,-1) scale(6.4512) " font-family="Helvetica,sans-serif" font-size="20px" stroke="none" fill="black" >0</text>
<line x1="3276.8" y1="819.2" x2="3227.6" y2="819.2" stroke-width="4.8188" />
<line x1="819.2" y1="819.2" x2="868.35" y2="819.2" stroke-width="4.8188" />
<text transform="translate(710.6,1265.2) scale(1,-1) scale(6.4512) " font-family="Helvetica,sans-serif" font-size="20px" stroke="none" fill="black" >2</text>
<line x1="3276.8" y1="1310.7" x2="3227.6" y2="1310.7" stroke-width="4.8188" />
<line x1="819.2" y1="1310.7" x2="868.35" y2="1310.7" stroke-width="4.8188" />
<text transform="translate(710.6,1756.7) scale(1,-1) scale(6.4512) " font-family="Helvetica,sans-serif" font-size="20px" stroke="none" fill="black" >4</text>
<line x1="3276.8" y1="1802.2" x2="3227.6" y2="1802.2" stroke-width="4.8188" />
<line x1="819.2" y1="1802.2" x2="868.35" y2="1802.2" stroke-width="4.8188" />
<text transform="translate(710.6,2248.2) scale(1,-1) scale(6.4512) " font-family="Helvetica,sans-serif" font-size="20px" stroke="none" fill="black" >6</text>
<line x1="3276.8" y1="2293.8" x2="3227.6" y2="2293.8" stroke-width="4.8188" />
<line x1="819.2" y1="2293.8" x2="868.35" y2="2293.8" stroke-width="4.8188" />
<text transform="translate(710.6,2739.7) scale(1,-1) scale(6.4512) " font-family="Helvetica,sans-serif" font-size="20px" stroke="none" fill="black" >8</text>
<line x1="3276.8" y1="2785.3" x2="3227.6" y2="2785.3" stroke-width="4.8188" />
<line x1="819.2" y1="2785.3" x2="868.35" y2="2785.3" stroke-width="4.8188" />
<text transform="translate(638.86,3231.3) scale(1,-1) scale(6.4512) " font-family="Helvetica,sans-serif" font-size="20px" stroke="none" fill="black" >10</text>
<line x1="3276.8" y1="3276.8" x2="3227.6" y2="3276.8" stroke-width="4.8188" />
<line x1="819.2" y1="3276.8" x2="868.35" y2="3276.8" stroke-width="4.8188" />
<line x1="3276.8" y1="819.2" x2="3257.1" y2="819.2" stroke-width="4.8188" />
<line x1="819.2" y1="819.2" x2="838.86" y2="819.2" stroke-width="4.8188" />
<line x1="3276.8" y1="1065" x2="3257.1" y2="1065" stroke-width="4.8188" />
<line x1="819.2" y1="1065" x2="838.86" y2="1065" stroke-width="4.8188" />
<line x1="3276.8" y1="1310.7" x2="3257.1" y2="1310.7" stroke-width="4.8188" />
<line x1="819.2" y1="1310.7" x2="838.86" y2="1310.7" stroke-width="4.8188" />
<line x1="3276.8" y1="1556.5" x2="3257.1" y2="1556.5" stroke-width="4.8188" />
<line x1="819.2" y1="1556.5" x2="838.86" y2="1556.5" stroke-width="4.8188" />
<line x1="3276.8" y1="1802.2" x2="3257.1" y2="1802.2" stroke-width="4.8188" />
<line x1="819.2" y1="1802.2" x2="838.86" y2="1802.2" stroke-width="4.8188" />
<line x1="3276.8" y1="2048" x2="3257.1" y2="2048" stroke-width="4.8188" />
<line x1="819.2" y1="2048" x2="838.86" y2="2048" stroke-width="4.8188" />
<line x1="3276.8" y1="2293.8" x2="3257.1" y2="2293.8" stroke-width="4.8188" />
<line x1="819.2" y1="2293.8" x2="838.86" y2="2293.8" stroke-width="4.8188" />
<line x1="3276.8" y1="2539.5" x2="3257.1" y2="2539.5" stroke-width="4.8188" />
<line x1="819.2" y1="2539.5" x2="838.86" y2="2539.5" stroke-width="4.8188" />
<line x1="3276.8" y1="2785.3" x2="3257.1" y2="2785.3" stroke-width="4.8188" />
<line x1="819.2" y1="2785.3" x2="838.86" y2="2785.3" stroke-width="4.8188" />
<line x1="3276.8" y1="3031" x2="3257.1" y2="3031" stroke-width="4.8188" />
<line x1="819.2" y1="3031" x2="838.86" y2="3031" stroke-width="4.8188" />
<line x1="3276.8" y1="3276.8" x2="3257.1" y2="3276.8" stroke-width="4.8188" />
<line x1="819.2" y1="3276.8" x2="838.86" y2="3276.8" stroke-width="4.8188" />
<text transform="translate(2015.7,501.24) scale(1,-1) scale(6.4512) " font-family="Helvetica,sans-serif" font-size="20px" stroke="none" fill="black" >x</text>
<text transform="matrix(0 6.4512 6.4512 0 552.83 2015.7) " font-family="Helvetica,sans-serif" font-size="20px" stroke="none" fill="black" >y</text>
<circle cx="819.2" cy="819.2" r="23.04" stroke-width="2.304" />
<circle cx="1065" cy="890.94" r="23.04" stroke-width="2.304" />
<circle cx="1310.7" cy="904.32" r="23.04" stroke-width="2.304" />
<circle cx="1556.5" cy="1541.8" r="23.04" stroke-width="2.304" />
<circle cx="1802.2" cy="1239.2" r="23.04" stroke-width="2.304" />
<circle cx="2048" cy="918.07" r="23.04" stroke-width="2.304" />
<circle cx="2293.8" cy="2178.6" r="23.04" stroke-width="2.304" />
<circle cx="2539.5" cy="1797" r="23.04" stroke-width="2.304" />
<circle cx="2785.3" cy="860.82" r="23.04" stroke-width="2.304" />
<circle cx="3031" cy="2655.4" r="23.04" stroke-width="2.304" />
<polyline points="819.2,819.2 831.49,831.46 843.78,843.53 856.06,855.24 868.35,866.41 880.64,876.88 892.93,886.49 905.22,895.1 917.5,902.6 929.79,908.87 942.08,913.84 954.37,917.44 966.66,919.64 978.94,920.44 991.23,919.84 1003.5,917.88 1015.8,914.63 1028.1,910.19 1040.4,904.67 1052.7,898.2 1065,890.94 1077.2,883.09 1089.5,874.82 1101.8,866.36 1114.1,857.92 1126.4,849.74 1138.7,842.06 1151,835.11 1163.3,829.14 1175.6,824.37 1187.8,821.04 1200.1,819.36 1212.4,819.54 1224.7,821.74 1237,826.14 1249.3,832.86 1261.6,842.04 1273.9,853.73 1286.1,868 1298.4,884.87 1310.7,904.32 1323,926.3 1335.3,950.74 1347.6,977.5 1359.9,1006.5 1372.2,1037.4 1384.4,1070.1 1396.7,1104.4 1409,1139.9 1421.3,1176.4 1433.6,1213.5 1445.9,1251 1458.2,1288.4 1470.5,1325.4 1482.8,1361.6 1495,1396.6 1507.3,1430.1 1519.6,1461.7 1531.9,1491.1 1544.2,1517.9 1556.5,1541.8 1568.8,1562.5 1581.1,1579.7 1593.3,1593.3 1605.6,1603 1617.9,1608.6 1630.2,1610 1642.5,1607.3 1654.8,1600.2 1667.1,1589 1679.4,1573.5 1691.6,1554 1703.9,1530.7 1716.2,1503.7 1728.5,1473.2 1740.8,1439.7 1753.1,1403.5 1765.4,1364.8 1777.7,1324.3 1790,1282.2 1802.2,1239.2 1814.5,1195.7 1826.8,1152.1 1839.1,1109.2 1851.4,1067.3 1863.7,1027 1876,988.96 1888.3,953.56 1900.5,921.34 1912.8,892.78 1925.1,868.34 1937.4,848.43 1949.7,833.42 1962,823.64 1974.3,819.38 1986.6,820.85 1998.8,828.23 2011.1,841.63 2023.4,861.09 2035.7,886.6 2048,918.07 2060.3,955.37 2072.6,998.27 2084.9,1046.5 2097.2,1099.7 2109.4,1157.5 2121.7,1219.5 2134,1285.1 2146.3,1353.8 2158.6,1425 2170.9,1498 2183.2,1572.3 2195.5,1647 2207.7,1721.6 2220,1795.2 2232.3,1867.2 2244.6,1936.9 2256.9,2003.6 2269.2,2066.5 2281.5,2125.1 2293.8,2178.6 2306,2226.7 2318.3,2268.6 2330.6,2304 2342.9,2332.4 2355.2,2353.5 2367.5,2367.1 2379.8,2372.8 2392.1,2370.7 2404.4,2360.6 2416.6,2342.7 2428.9,2317 2441.2,2283.8 2453.5,2243.3 2465.8,2195.9 2478.1,2142.1 2490.4,2082.4 2502.7,2017.3 2514.9,1947.6 2527.2,1873.9 2539.5,1797 2551.8,1717.7 2564.1,1636.9 2576.4,1555.4 2588.7,1474.1 2601,1393.9 2613.2,1315.7 2625.5,1240.5 2637.8,1169 2650.1,1102.1 2662.4,1040.7 2674.7,985.44 2687,937.12 2699.3,896.35 2711.6,863.71 2723.8,839.72 2736.1,824.78 2748.4,819.23 2760.7,823.31 2773,837.16 2785.3,860.82 2797.6,894.25 2809.9,937.27 2822.1,989.64 2834.4,1051 2846.7,1120.9 2859,1198.8 2871.3,1284 2883.6,1375.9 2895.9,1473.6 2908.2,1576.3 2920.4,1683 2932.7,1792.8 2945,1904.7 2957.3,2017.6 2969.6,2130.3 2981.9,2242 2994.2,2351.4 3006.5,2457.4 3018.8,2559.1 3031,2655.4 3043.3,2745.3 3055.6,2827.9 3067.9,2902.4 3080.2,2967.9 3092.5,3023.7 3104.8,3069.4 3117.1,3104.2 3129.3,3127.9 3141.6,3140.2 3153.9,3140.7 3166.2,3129.6 3178.5,3106.8 3190.8,3072.5 3203.1,3027 3215.4,2970.7 3227.6,2904.2 3239.9,2828 3252.2,2742.9 3264.5,2649.7 " stroke-width="4.8188" stroke-dasharray="4.8188, 14.456" />
<polyline points="819.2,819.2 830.31,822.44 841.43,825.69 852.54,828.93 863.66,832.18 874.77,835.42 885.89,838.67 897,841.91 908.12,845.16 919.23,848.4 930.35,851.65 941.46,854.89 952.58,858.14 963.69,861.38 974.81,864.63 985.92,867.87 997.04,871.12 1008.2,874.36 1019.3,877.6 1030.4,880.85 1041.5,884.09 1052.6,887.34 1063.7,890.58 1074.8,891.48 1086,892.09 1097.1,892.69 1108.2,893.3 1119.3,893.9 1130.4,894.51 1141.5,895.11 1152.6,895.72 1163.8,896.32 1174.9,896.93 1186,897.53 1197.1,898.14 1208.2,898.74 1219.3,899.35 1230.4,899.95 1241.6,900.56 1252.7,901.16 1263.8,901.77 1274.9,902.37 1286,902.98 1297.1,903.58 1308.3,904.19 1319.4,926.74 1330.5,955.57 1341.6,984.41 1352.7,1013.2 1363.8,1042.1 1374.9,1070.9 1386.1,1099.7 1397.2,1128.6 1408.3,1157.4 1419.4,1186.2 1430.5,1215.1 1441.6,1243.9 1452.7,1272.7 1463.9,1301.5 1475,1330.4 1486.1,1359.2 1497.2,1388 1508.3,1416.9 1519.4,1445.7 1530.5,1474.5 1541.7,1503.4 1552.8,1532.2 1563.9,1532.7 1575,1519 1586.1,1505.3 1597.2,1491.6 1608.4,1477.9 1619.5,1464.2 1630.6,1450.6 1641.7,1436.9 1652.8,1423.2 1663.9,1409.5 1675,1395.8 1686.2,1382.1 1697.3,1368.5 1708.4,1354.8 1719.5,1341.1 1730.6,1327.4 1741.7,1313.7 1752.8,1300 1764,1286.3 1775.1,1272.7 1786.2,1259 1797.3,1245.3 1808.4,1231.1 1819.5,1216.6 1830.6,1202.1 1841.8,1187.6 1852.9,1173 1864,1158.5 1875.1,1144 1886.2,1129.5 1897.3,1114.9 1908.4,1100.4 1919.6,1085.9 1930.7,1071.4 1941.8,1056.9 1952.9,1042.3 1964,1027.8 1975.1,1013.3 1986.3,998.76 1997.4,984.24 2008.5,969.71 2019.6,955.19 2030.7,940.67 2041.8,926.14 2052.9,943.41 2064.1,1000.4 2075.2,1057.4 2086.3,1114.4 2097.4,1171.5 2108.5,1228.5 2119.6,1285.5 2130.7,1342.5 2141.9,1399.5 2153,1456.5 2164.1,1513.5 2175.2,1570.5 2186.3,1627.5 2197.4,1684.5 2208.5,1741.6 2219.7,1798.6 2230.8,1855.6 2241.9,1912.6 2253,1969.6 2264.1,2026.6 2275.2,2083.6 2286.4,2140.6 2297.5,2172.9 2308.6,2155.6 2319.7,2138.4 2330.8,2121.1 2341.9,2103.8 2353,2086.6 2364.2,2069.3 2375.3,2052.1 2386.4,2034.8 2397.5,2017.5 2408.6,2000.3 2419.7,1983 2430.8,1965.8 2442,1948.5 2453.1,1931.2 2464.2,1914 2475.3,1896.7 2486.4,1879.4 2497.5,1862.2 2508.6,1844.9 2519.8,1827.7 2530.9,1810.4 2542,1787.6 2553.1,1745.2 2564.2,1702.9 2575.3,1660.6 2586.4,1618.2 2597.6,1575.9 2608.7,1533.5 2619.8,1491.2 2630.9,1448.9 2642,1406.5 2653.1,1364.2 2664.3,1321.8 2675.4,1279.5 2686.5,1237.2 2697.6,1194.8 2708.7,1152.5 2719.8,1110.2 2730.9,1067.8 2742.1,1025.5 2753.2,983.13 2764.3,940.8 2775.4,898.46 2786.5,869.84 2797.6,951 2808.7,1032.2 2819.9,1113.3 2831,1194.5 2842.1,1275.6 2853.2,1356.8 2864.3,1438 2875.4,1519.1 2886.5,1600.3 2897.7,1681.4 2908.8,1762.6 2919.9,1843.8 2931,1924.9 2942.1,2006.1 2953.2,2087.3 2964.4,2168.4 2975.5,2249.6 2986.6,2330.7 2997.7,2411.9 3008.8,2493.1 3019.9,2574.2 3031,2655.4 " stroke-width="4.8188" />
</g>
</svg>
