<?xml version="1.0" encoding="ISO-8859-1" standalone="no"?>
<!DOCTYPE svg PUBLIC "-//W3C//DTD SVG 1.1//EN" "http://www.w3.org/Graphics/SVG/1.1/DTD/svg11.dtd">
<svg version="1.1" baseProfile="full" id="body" width="8in" height="8in" viewBox="0 0 1 1" preserveAspectRatio="none" xmlns="http://www.w3.org/2000/svg" xmlns:xlink="http://www.w3.org/1999/xlink" xmlns:ev="http://www.w3.org/2001/xml-events">
<title>SVG drawing</title>
<desc>This was produced by version 4.4 of GNU libplot, a free library for exporting 2-D vector graphics.</desc>
<rect id="background" x="0" y="0" width="1" height="1" stroke="none" fill="white"/>
<g id="content" transform="translate(0,1) scale(1,-1) scale(0.00024414) " xml:space="preserve" stroke="black" stroke-linecap="butt" stroke-linejoin="miter" stroke-miterlimit="10.433" stroke-dasharray="none" stroke-dashoffset="0" stroke-opacity="1" fill="none" fill-rule="evenodd" fill-opacity="1" font-style="normal" font-variant="normal" font-weight="normal" font-stretch="normal" font-size-adjust="none" letter-spacing="normal" word-spacing="normal" text-anchor="start">
<text transform="translate(1321.4,3451.9) scale(1,-1) scale(8.6016) " font-family="Helvetica,sans-serif" font-size="20px" stroke="none" fill="black" >lspline with integral</text>
<rect x="819.2" y="819.2" width="2457.6" height="2457.6" stroke-width="4.8188" />
<text transform="translate(783.33,662.21) scale(1,-1) scale(6.4512) " font-family="Helvetica,sans-serif" font-size="20px" stroke="none" fill="black" >0</text>
<line x1="819.2" y1="3276.8" x2="819.2" y2="3227.6" stroke-width="4.8188" />
<line x1="819.2" y1="819.2" x2="819.2" y2="868.35" stroke-width="4.8188" />
<text transform="translate(1274.9,662.21) scale(1,-1) scale(6.4512) " font-family="Helvetica,sans-serif" font-size="20px" stroke="none" fill="black" >2</text>
<line x1="1310.7" y1="3276.8" x2="1310.7" y2="3227.6" stroke-width="4.8188" />
<line x1="1310.7" y1="819.2" x2="1310.7" y2="868.35" stroke-width="4.8188" />
<text transform="translate(1766.4,662.21) scale(1,-1) scale(6.4512) " font-family="Helvetica,sans-serif" font-size="20px" stroke="none" fill="black" >4</text>
<line x1="1802.2" y1="3276.8" x2="1802.2" y2="3227.6" stroke-width="4.8188" />
<line x1="1802.2" y1="819.2" x2="1802.2" y2="868.35" stroke-width="4.8188" />
<text transform="translate(2257.9,662.21) scale(1,-1) scale(6.4512) " font-family="Helvetica,sans-serif" font-size="20px" stroke="none" fill="black" >6</text>
<line x1="2293.8" y1="3276.8" x2="2293.8" y2="3227.6" stroke-width="4.8188" />
<line x1="2293.8" y1="819.2" x2="2293.8" y2="868.35" stroke-width="4.8188" />
<text transform="translate(2749.4,662.21) scale(1,-1) scale(6.4512) " font-family="Helvetica,sans-serif" font-size="20px" stroke="none" fill="black" >8</text>
<line x1="2785.3" y1="3276.8" x2="2785.3" y2="3227.6" stroke-width="4.8188" />
<line x1="2785.3" y1="819.2" x2="2785.3" y2="868.35" stroke-width="4.8188" />
<text transform="translate(3205.1,662.21) scale(1,-1) scale(6.4512) " font-family="Helvetica,sans-serif" font-size="20px" stroke="none" fill="black" >10</text>
<line x1="3276.8" y1="3276.8" x2="3276.8" y2="3227.6" stroke-width="4.8188" />
<line x1="3276.8" y1="819.2" x2="3276.8" y2="868.35" stroke-width="4.8188" />
<line x1="819.2" y1="3276.8" x2="819.2" y2="3257.1" stroke-width="4.8188" />
<line x1="819.2" y1="819.2" x2="819.2" y2="838.86" stroke-width="4.8188" />
<line x1="1065" y1="3276.8" x2="1065" y2="3257.1" stroke-width="4.8188" />
<line x1="1065" y1="819.2" x2="1065" y2="838.86" stroke-width="4.8188" />
<line x1="1310.7" y1="3276.8" x2="1310.7" y2="3257.1" stroke-width="4.8188" />
<line x1="1310.7" y1="819.2" x2="1310.7" y2="838.86" stroke-width="4.8188" />
<line x1="1556.5" y1="3276.8" x2="1556.5" y2="3257.1" stroke-width="4.8188" />
<line x1="1556.5" y1="819.2" x2="1556.5" y2="838.86" stroke-width="4.8188" />
<line x1="1802.2" y1="3276.8" x2="1802.2" y2="3257.1" stroke-width="4.8188" />
<line x1="1802.2" y1="819.2" x2="1802.2" y2="838.86" stroke-width="4.8188" />
<line x1="2048" y1="3276.8" x2="2048" y2="3257.1" stroke-width="4.8188" />
<line x1="2048" y1="819.2" x2="2048" y2="838.86" stroke-width="4.8188" />
<line x1="2293.8" y1="3276.8" x2="2293.8" y2="3257.1" stroke-width="4.8188" />
<line x1="2293.8" y1="819.2" x2="2293.8" y2="838.86" stroke-width="4.8188" />
<line x1="2539.5" y1="3276.8" x2="2539.5" y2="3257.1" stroke-width="4.8188" />
<line x1="2539.5" y1="819.2" x2="2539.5" y2="838.86" stroke-width="4.8188" />
<line x1="2785.3" y1="3276.8" x2="2785.3" y2="3257.1" stroke-width="4.8188" />
<line x1="2785.3" y1="819.2" x2="2785.3" y2="838.86" stroke-width="4.8188" />
<line x1="3031" y1="3276.8" x2="3031" y2="3257.1" stroke-width="4.8188" />
<line x1="3031" y1="819.2" x2="3031" y2="838.86" stroke-width="4.8188" />
<line x1="3276.8" y1="3276.8" x2="3276.8" y2="3257.1" stroke-width="4.8188" />
<line x1="3276.8" y1="819.2" x2="3276.8" y2="838.86" stroke-width="4.8188" />
<text transform="translate(710.6,773.65) scale(1,-1) scale(6.4512) " font-family="Helvetica,sans-serif" font-size="20px" stroke="none" fill="black" >0</text>
<line x1="3276.8" y1="819.2" x2="3227.6" y2="819.2" stroke-width="4.8188" />
<line x1="819.2" y1="819.2" x2="868.35" y2="819.2" stroke-width="4.8188" />
<text transform="translate(710.6,1265.2) scale(1,-1) scale(6.4512) " font-family="Helvetica,sans-serif" font-size="20px" stroke="none" fill="black" >1</text>
<line x1="3276.8" y1="1310.7" x2="3227.6" y2="1310.7" stroke-width="4.8188" />
<line x1="819.2" y1="1310.7" x2="868.35" y2="1310.7" stroke-width="4.8188" />
<text transform="translate(710.6,1756.7) scale(1,-1) scale(6.4512) " font-family="Helvetica,sans-serif" font-size="20px" stroke="none" fill="black" >2</text>
<line x1="3276.8" y1="1802.2" x2="3227.6" y2="1802.2" stroke-width="4.8188" />
<line x1="819.2" y1="1802.2" x2="868.35" y2="1802.2" stroke-width="4.8188" />
<text transform="translate(710.6,2248.2) scale(1,-1) scale(6.4512) " font-family="Helvetica,sans-serif" font-size="20px" stroke="none" fill="black" >3</text>
<line x1="3276.8" y1="2293.8" x2="3227.6" y2="2293.8" stroke-width="4.8188" />
<line x1="819.2" y1="2293.8" x2="868.35" y2="2293.8" stroke-width="4.8188" />
<text transform="translate(710.6,2739.7) scale(1,-1) scale(6.4512) " font-family="Helvetica,sans-serif" font-size="20px" stroke="none" fill="black" >4</text>
<line x1="3276.8" y1="2785.3" x2="3227.6" y2="2785.3" stroke-width="4.8188" />
<line x1="819.2" y1="2785.3" x2="868.35" y2="2785.3" stroke-width="4.8188" />
<text transform="translate(710.6,3231.3) scale(1,-1) scale(6.4512) " font-family="Helvetica,sans-serif" font-size="20px" stroke="none" fill="black" >5</text>
<line x1="3276.8" y1="3276.8" x2="3227.6" y2="3276.8" stroke-width="4.8188" />
<line x1="819.2" y1="3276.8" x2="868.35" y2="3276.8" stroke-width="4.8188" />
<line x1="3276.8" y1="819.2" x2="3257.1" y2="819.2" stroke-width="4.8188" />
<line x1="819.2" y1="819.2" x2="838.86" y2="819.2" stroke-width="4.8188" />
<line x1="3276.8" y1="917.5" x2="3257.1" y2="917.5" stroke-width="4.8188" />
<line x1="819.2" y1="917.5" x2="838.86" y2="917.5" stroke-width="4.8188" />
<line x1="3276.8" y1="1015.8" x2="3257.1" y2="1015.8" stroke-width="4.8188" />
<line x1="819.2" y1="1015.8" x2="838.86" y2="1015.8" stroke-width="4.8188" />
<line x1="3276.8" y1="1114.1" x2="3257.1" y2="1114.1" stroke-width="4.8188" />
<line x1="819.2" y1="1114.1" x2="838.86" y2="1114.1" stroke-width="4.8188" />
<line x1="3276.8" y1="1212.4" x2="3257.1" y2="1212.4" stroke-width="4.8188" />
<line x1="819.2" y1="1212.4" x2="838.86" y2="1212.4" stroke-width="4.8188" />
<line x1="3276.8" y1="1310.7" x2="3257.1" y2="1310.7" stroke-width="4.8188" />
<line x1="819.2" y1="1310.7" x2="838.86" y2="1310.7" stroke-width="4.8188" />
<line x1="3276.8" y1="1409" x2="3257.1" y2="1409" stroke-width="4.8188" />
<line x1="819.2" y1="1409" x2="838.86" y2="1409" stroke-width="4.8188" />
<line x1="3276.8" y1="1507.3" x2="3257.1" y2="1507.3" stroke-width="4.8188" />
<line x1="819.2" y1="1507.3" x2="838.86" y2="1507.3" stroke-width="4.8188" />
<line x1="3276.8" y1="1605.6" x2="3257.1" y2="1605.6" stroke-width="4.8188" />
<line x1="819.2" y1="1605.6" x2="838.86" y2="1605.6" stroke-width="4.8188" />
<line x1="3276.8" y1="1703.9" x2="3257.1" y2="1703.9" stroke-width="4.8188" />
<line x1="819.2" y1="1703.9" x2="838.86" y2="1703.9" stroke-width="4.8188" />
<line x1="3276.8" y1="1802.2" x2="3257.1" y2="1802.2" stroke-width="4.8188" />
<line x1="819.2" y1="1802.2" x2="838.86" y2="1802.2" stroke-width="4.8188" />
<line x1="3276.8" y1="1900.5" x2="3257.1" y2="1900.5" stroke-width="4.8188" />
<line x1="819.2" y1="1900.5" x2="838.86" y2="1900.5" stroke-width="4.8188" />
<line x1="3276.8" y1="1998.8" x2="3257.1" y2="1998.8" stroke-width="4.8188" />
<line x1="819.2" y1="1998.8" x2="838.86" y2="1998.8" stroke-width="4.8188" />
<line x1="3276.8" y1="2097.2" x2="3257.1" y2="2097.2" stroke-width="4.8188" />
<line x1="819.2" y1="2097.2" x2="838.86" y2="2097.2" stroke-width="4.8188" />
<line x1="3276.8" y1="2195.5" x2="3257.1" y2="2195.5" stroke-width="4.8188" />
<line x1="819.2" y1="2195.5" x2="838.86" y2="2195.5" stroke-width="4.8188" />
<line x1="3276.8" y1="2293.8" x2="3257.1" y2="2293.8" stroke-width="4.8188" />
<line x1="819.2" y1="2293.8" x2="838.86" y2="2293.8" stroke-width="4.8188" />
<line x1="3276.8" y1="2392.1" x2="3257.1" y2="2392.1" stroke-width="4.8188" />
<line x1="819.2" y1="2392.1" x2="838.86" y2="2392.1" stroke-width="4.8188" />
<line x1="3276.8" y1="2490.4" x2="3257.1" y2="2490.4" stroke-width="4.8188" />
<line x1="819.2" y1="2490.4" x2="838.86" y2="2490.4" stroke-width="4.8188" />
<line x1="3276.8" y1="2588.7" x2="3257.1" y2="2588.7" stroke-width="4.8188" />
<line x1="819.2" y1="2588.7" x2="838.86" y2="2588.7" stroke-width="4.8188" />
<line x1="3276.8" y1="2687" x2="3257.1" y2="2687" stroke-width="4.8188" />
<line x1="819.2" y1="2687" x2="838.86" y2="2687" stroke-width="4.8188" />
<line x1="3276.8" y1="2785.3" x2="3257.1" y2="2785.3" stroke-width="4.8188" />
<line x1="819.2" y1="2785.3" x2="838.86" y2="2785.3" stroke-width="4.8188" />
<line x1="3276.8" y1="2883.6" x2="3257.1" y2="2883.6" stroke-width="4.8188" />
<line x1="819.2" y1="2883.6" x2="838.86" y2="2883.6" stroke-width="4.8188" />
<line x1="3276.8" y1="2981.9" x2="3257.1" y2="2981.9" stroke-width="4.8188" />
<line x1="819.2" y1="2981.9" x2="838.86" y2="2981.9" stroke-width="4.8188" />
<line x1="3276.8" y1="3080.2" x2="3257.1" y2="3080.2" stroke-width="4.8188" />
<line x1="819.2" y1="3080.2" x2="838.86" y2="3080.2" stroke-width="4.8188" />
<line x1="3276.8" y1="3178.5" x2="3257.1" y2="3178.5" stroke-width="4.8188" />
<line x1="819.2" y1="3178.5" x2="838.86" y2="3178.5" stroke-width="4.8188" />
<line x1="3276.8" y1="3276.8" x2="3257.1" y2="3276.8" stroke-width="4.8188" />
<line x1="819.2" y1="3276.8" x2="838.86" y2="3276.8" stroke-width="4.8188" />
<text transform="translate(2015.7,501.24) scale(1,-1) scale(6.4512) " font-family="Helvetica,sans-serif" font-size="20px" stroke="none" fill="black" >x</text>
<text transform="matrix(0 6.4512 6.4512 0 635.33 2015.7) " font-family="Helvetica,sans-serif" font-size="20px" stroke="none" fill="black" >y</text>
<circle cx="819.2" cy="1310.7" r="23.04" stroke-width="2.304" />
<circle cx="1065" cy="962.69" r="23.04" stroke-width="2.304" />
<circle cx="1310.7" cy="904.32" r="23.04" stroke-width="2.304" />
<circle cx="1556.5" cy="1300.9" r="23.04" stroke-width="2.304" />
<circle cx="1802.2" cy="1029.2" r="23.04" stroke-width="2.304" />
<circle cx="2048" cy="858.75" r="23.04" stroke-width="2.304" />
<circle cx="2293.8" cy="1272.3" r="23.04" stroke-width="2.304" />
<circle cx="2539.5" cy="1098.6" r="23.04" stroke-width="2.304" />
<circle cx="2785.3" cy="829.61" r="23.04" stroke-width="2.304" />
<circle cx="3031" cy="1227.2" r="23.04" stroke-width="2.304" />
<polyline points="819.2,1310.7 831.49,1309.5 843.78,1305.8 856.06,1299.7 868.35,1291.3 880.64,1280.6 892.93,1267.8 905.22,1252.9 917.5,1236.2 929.79,1217.7 942.08,1197.7 954.37,1176.4 966.66,1154 978.94,1130.7 991.23,1106.7 1003.5,1082.3 1015.8,1057.8 1028.1,1033.3 1040.4,1009.1 1052.7,985.51 1065,962.69 1077.2,940.89 1089.5,920.33 1101.8,901.22 1114.1,883.74 1126.4,868.07 1138.7,854.37 1151,842.78 1163.3,833.4 1175.6,826.34 1187.8,821.66 1200.1,819.41 1212.4,819.62 1224.7,822.28 1237,827.36 1249.3,834.82 1261.6,844.57 1273.9,856.53 1286.1,870.57 1298.4,886.55 1310.7,904.32 1323,923.69 1335.3,944.47 1347.6,966.46 1359.9,989.43 1372.2,1013.2 1384.4,1037.4 1396.7,1061.9 1409,1086.5 1421.3,1110.8 1433.6,1134.7 1445.9,1157.9 1458.2,1180.1 1470.5,1201.2 1482.8,1220.9 1495,1239.1 1507.3,1255.6 1519.6,1270.1 1531.9,1282.6 1544.2,1292.9 1556.5,1300.9 1568.8,1306.6 1581.1,1309.9 1593.3,1310.7 1605.6,1309 1617.9,1305 1630.2,1298.5 1642.5,1289.7 1654.8,1278.6 1667.1,1265.4 1679.4,1250.2 1691.6,1233.2 1703.9,1214.5 1716.2,1194.2 1728.5,1172.7 1740.8,1150.1 1753.1,1126.7 1765.4,1102.7 1777.7,1078.2 1790,1053.7 1802.2,1029.2 1814.5,1005.1 1826.8,981.61 1839.1,958.95 1851.4,937.34 1863.7,917.01 1876,898.16 1888.3,880.97 1900.5,865.63 1912.8,852.27 1925.1,841.04 1937.4,832.05 1949.7,825.38 1962,821.11 1974.3,819.28 1986.6,819.89 1998.8,822.96 2011.1,828.45 2023.4,836.3 2035.7,846.43 2048,858.75 2060.3,873.13 2072.6,889.42 2084.9,907.47 2097.2,927.09 2109.4,948.09 2121.7,970.26 2134,993.37 2146.3,1017.2 2158.6,1041.5 2170.9,1066 2183.2,1090.6 2195.5,1114.9 2207.7,1138.6 2220,1161.7 2232.3,1183.7 2244.6,1204.6 2256.9,1224.1 2269.2,1242 2281.5,1258.1 2293.8,1272.3 2306,1284.5 2318.3,1294.4 2330.6,1302.1 2342.9,1307.3 2355.2,1310.2 2367.5,1310.6 2379.8,1308.5 2392.1,1304 2404.4,1297.2 2416.6,1288 2428.9,1276.6 2441.2,1263 2453.5,1247.5 2465.8,1230.2 2478.1,1211.2 2490.4,1190.7 2502.7,1169 2514.9,1146.3 2527.2,1122.7 2539.5,1098.6 2551.8,1074.1 2564.1,1049.5 2576.4,1025.1 2588.7,1001.1 2601,977.73 2613.2,955.23 2625.5,933.83 2637.8,913.73 2650.1,895.15 2662.4,878.26 2674.7,863.24 2687,850.23 2699.3,839.37 2711.6,830.76 2723.8,824.5 2736.1,820.63 2748.4,819.21 2760.7,820.24 2773,823.72 2785.3,829.61 2797.6,837.85 2809.9,848.35 2822.1,861.03 2834.4,875.74 2846.7,892.34 2859,910.66 2871.3,930.53 2883.6,951.74 2895.9,974.09 2908.2,997.34 2920.4,1021.3 2932.7,1045.6 2945,1070.2 2957.3,1094.7 2969.6,1118.9 2981.9,1142.6 2994.2,1165.4 3006.5,1187.3 3018.8,1208 3031,1227.2 3043.3,1244.9 3055.6,1260.7 3067.9,1274.5 3080.2,1286.3 3092.5,1295.9 3104.8,1303.1 3117.1,1308 3129.3,1310.4 3141.6,1310.4 3153.9,1307.9 3166.2,1303.1 3178.5,1295.8 3190.8,1286.2 3203.1,1274.4 3215.4,1260.5 3227.6,1244.7 3239.9,1227.1 3252.2,1207.8 3264.5,1187.1 " stroke-width="4.8188" stroke-dasharray="4.8188, 14.456" />
<polyline points="819.2,1310.7 830.31,1295 841.43,1279.2 852.54,1263.5 863.66,1247.8 874.77,1232 885.89,1216.3 897,1200.5 908.12,1184.8 919.23,1169.1 930.35,1153.3 941.46,1137.6 952.58,1121.8 963.69,1106.1 974.81,1090.4 985.92,1074.6 997.04,1058.9 1008.2,1043.1 1019.3,1027.4 1030.4,1011.7 1041.5,995.92 1052.6,980.18 1063.7,964.44 1074.8,960.34 1086,957.7 1097.1,955.06 1108.2,952.42 1119.3,949.78 1130.4,947.14 1141.5,944.5 1152.6,941.86 1163.8,939.22 1174.9,936.58 1186,933.94 1197.1,931.3 1208.2,928.66 1219.3,926.02 1230.4,923.39 1241.6,920.75 1252.7,918.11 1263.8,915.47 1274.9,912.83 1286,910.19 1297.1,907.55 1308.3,904.91 1319.4,918.27 1330.5,936.21 1341.6,954.15 1352.7,972.08 1363.8,990.02 1374.9,1008 1386.1,1025.9 1397.2,1043.8 1408.3,1061.8 1419.4,1079.7 1430.5,1097.6 1441.6,1115.6 1452.7,1133.5 1463.9,1151.5 1475,1169.4 1486.1,1187.3 1497.2,1205.3 1508.3,1223.2 1519.4,1241.1 1530.5,1259.1 1541.7,1277 1552.8,1295 1563.9,1292.7 1575,1280.4 1586.1,1268.2 1597.2,1255.9 1608.4,1243.6 1619.5,1231.3 1630.6,1219 1641.7,1206.7 1652.8,1194.4 1663.9,1182.1 1675,1169.8 1686.2,1157.6 1697.3,1145.3 1708.4,1133 1719.5,1120.7 1730.6,1108.4 1741.7,1096.1 1752.8,1083.8 1764,1071.5 1775.1,1059.2 1786.2,1047 1797.3,1034.7 1808.4,1024.9 1819.5,1017.2 1830.6,1009.5 1841.8,1001.8 1852.9,994.08 1864,986.37 1875.1,978.67 1886.2,970.96 1897.3,963.25 1908.4,955.54 1919.6,947.83 1930.7,940.12 1941.8,932.41 1952.9,924.7 1964,916.99 1975.1,909.29 1986.3,901.58 1997.4,893.87 2008.5,886.16 2019.6,878.45 2030.7,870.74 2041.8,863.03 2052.9,867.06 2064.1,885.77 2075.2,904.47 2086.3,923.18 2097.4,941.88 2108.5,960.59 2119.6,979.3 2130.7,998 2141.9,1016.7 2153,1035.4 2164.1,1054.1 2175.2,1072.8 2186.3,1091.5 2197.4,1110.2 2208.5,1128.9 2219.7,1147.6 2230.8,1166.3 2241.9,1185.1 2253,1203.8 2264.1,1222.5 2275.2,1241.2 2286.4,1259.9 2297.5,1269.7 2308.6,1261.9 2319.7,1254 2330.8,1246.1 2341.9,1238.3 2353,1230.4 2364.2,1222.6 2375.3,1214.7 2386.4,1206.9 2397.5,1199 2408.6,1191.1 2419.7,1183.3 2430.8,1175.4 2442,1167.6 2453.1,1159.7 2464.2,1151.8 2475.3,1144 2486.4,1136.1 2497.5,1128.3 2508.6,1120.4 2519.8,1112.5 2530.9,1104.7 2542,1095.9 2553.1,1083.7 2564.2,1071.5 2575.3,1059.4 2586.4,1047.2 2597.6,1035 2608.7,1022.9 2619.8,1010.7 2630.9,998.55 2642,986.39 2653.1,974.22 2664.3,962.06 2675.4,949.89 2686.5,937.73 2697.6,925.57 2708.7,913.4 2719.8,901.24 2730.9,889.07 2742.1,876.91 2753.2,864.75 2764.3,852.58 2775.4,840.42 2786.5,831.6 2797.6,849.59 2808.7,867.57 2819.9,885.55 2831,903.54 2842.1,921.52 2853.2,939.5 2864.3,957.49 2875.4,975.47 2886.5,993.45 2897.7,1011.4 2908.8,1029.4 2919.9,1047.4 2931,1065.4 2942.1,1083.4 2953.2,1101.4 2964.4,1119.3 2975.5,1137.3 2986.6,1155.3 2997.7,1173.3 3008.8,1191.3 3019.9,1209.3 3031,1227.2 " stroke-width="4.8188" />
<polyline points="819.2,819.2 830.31,841.07 841.43,862.24 852.54,882.69 863.66,902.42 874.77,921.45 885.89,939.76 897,957.37 908.12,974.26 919.23,990.44 930.35,1005.9 941.46,1020.7 952.58,1034.7 963.69,1048 974.81,1060.7 985.92,1072.6 997.04,1083.8 1008.2,1094.2 1019.3,1104 1030.4,1113.1 1041.5,1121.4 1052.6,1129.1 1063.7,1136 1074.8,1142.4 1086,1148.7 1097.1,1155 1108.2,1161 1119.3,1167 1130.4,1172.8 1141.5,1178.6 1152.6,1184.2 1163.8,1189.7 1174.9,1195 1186,1200.3 1197.1,1205.4 1208.2,1210.4 1219.3,1215.3 1230.4,1220.1 1241.6,1224.7 1252.7,1229.3 1263.8,1233.7 1274.9,1238 1286,1242.2 1297.1,1246.2 1308.3,1250.1 1319.4,1254.2 1330.5,1259.1 1341.6,1264.8 1352.7,1271.3 1363.8,1278.7 1374.9,1286.8 1386.1,1295.7 1397.2,1305.5 1408.3,1316.1 1419.4,1327.4 1430.5,1339.6 1441.6,1352.6 1452.7,1366.4 1463.9,1381 1475,1396.5 1486.1,1412.7 1497.2,1429.8 1508.3,1447.6 1519.4,1466.3 1530.5,1485.8 1541.7,1506.1 1552.8,1527.2 1563.9,1548.8 1575,1570 1586.1,1590.6 1597.2,1610.6 1608.4,1630.1 1619.5,1649 1630.6,1667.3 1641.7,1685.1 1652.8,1702.4 1663.9,1719.1 1675,1735.2 1686.2,1750.8 1697.3,1765.8 1708.4,1780.3 1719.5,1794.2 1730.6,1807.6 1741.7,1820.4 1752.8,1832.6 1764,1844.3 1775.1,1855.4 1786.2,1866 1797.3,1876 1808.4,1885.5 1819.5,1894.7 1830.6,1903.4 1841.8,1911.9 1852.9,1919.9 1864,1927.7 1875.1,1935.1 1886.2,1942.1 1897.3,1948.8 1908.4,1955.1 1919.6,1961.1 1930.7,1966.8 1941.8,1972.1 1952.9,1977 1964,1981.6 1975.1,1985.9 1986.3,1989.8 1997.4,1993.3 2008.5,1996.5 2019.6,1999.4 2030.7,2001.9 2041.8,2004 2052.9,2006 2064.1,2008.5 2075.2,2012 2086.3,2016.3 2097.4,2021.4 2108.5,2027.4 2119.6,2034.2 2130.7,2041.8 2141.9,2050.3 2153,2059.7 2164.1,2069.9 2175.2,2080.9 2186.3,2092.8 2197.4,2105.6 2208.5,2119.2 2219.7,2133.6 2230.8,2148.9 2241.9,2165 2253,2182 2264.1,2199.8 2275.2,2218.4 2286.4,2237.9 2297.5,2258.2 2308.6,2278.4 2319.7,2298.3 2330.8,2317.8 2341.9,2336.9 2353,2355.7 2364.2,2374.1 2375.3,2392.2 2386.4,2409.9 2397.5,2427.2 2408.6,2444.2 2419.7,2460.9 2430.8,2477.2 2442,2493.1 2453.1,2508.7 2464.2,2523.9 2475.3,2538.7 2486.4,2553.3 2497.5,2567.4 2508.6,2581.2 2519.8,2594.7 2530.9,2607.7 2542,2620.5 2553.1,2632.7 2564.2,2644.4 2575.3,2655.5 2586.4,2666.1 2597.6,2676.2 2608.7,2685.6 2619.8,2694.6 2630.9,2703 2642,2710.8 2653.1,2718.1 2664.3,2724.8 2675.4,2731 2686.5,2736.6 2697.6,2741.7 2708.7,2746.3 2719.8,2750.3 2730.9,2753.7 2742.1,2756.6 2753.2,2758.9 2764.3,2760.7 2775.4,2761.9 2786.5,2762.6 2797.6,2763.6 2808.7,2765.4 2819.9,2768 2831,2771.4 2842.1,2775.6 2853.2,2780.6 2864.3,2786.5 2875.4,2793.1 2886.5,2800.6 2897.7,2808.9 2908.8,2818 2919.9,2827.9 2931,2838.6 2942.1,2850.2 2953.2,2862.5 2964.4,2875.7 2975.5,2889.7 2986.6,2904.5 2997.7,2920.1 3008.8,2936.5 3019.9,2953.7 3031,2971.8 " stroke-width="4.8188" stroke-dasharray="19.275, 14.456, 4.8188, 14.456" />
</g>
</svg>
