<?xml version="1.0" encoding="ISO-8859-1" standalone="no"?>
<!DOCTYPE svg PUBLIC "-//W3C//DTD SVG 1.1//EN" "http://www.w3.org/Graphics/SVG/1.1/DTD/svg11.dtd">
<svg version="1.1" baseProfile="full" id="body" width="8in" height="8in" viewBox="0 0 1 1" preserveAspectRatio="none" xmlns="http://www.w3.org/2000/svg" xmlns:xlink="http://www.w3.org/1999/xlink" xmlns:ev="http://www.w3.org/2001/xml-events">
<title>SVG drawing</title>
<desc>This was produced by version 4.4 of GNU libplot, a free library for exporting 2-D vector graphics.</desc>
<rect id="background" x="0" y="0" width="1" height="1" stroke="none" fill="white"/>
<g id="content" transform="translate(0,1) scale(1,-1) scale(0.00024414) " xml:space="preserve" stroke="black" stroke-linecap="butt" stroke-linejoin="miter" stroke-miterlimit="10.433" stroke-dasharray="none" stroke-dashoffset="0" stroke-opacity="1" fill="none" fill-rule="evenodd" fill-opacity="1" font-style="normal" font-variant="normal" font-weight="normal" font-stretch="normal" font-size-adjust="none" letter-spacing="normal" word-spacing="normal" text-anchor="start">
<text transform="translate(1321.4,3451.9) scale(1,-1) scale(8.6016) " font-family="Helvetica,sans-serif" font-size="20px" stroke="none" fill="black" >lspline with integral</text>
<rect x="819.2" y="819.2" width="2457.6" height="2457.6" stroke-width="4.8188" />
<text transform="translate(783.33,662.21) scale(1,-1) scale(6.4512) " font-family="Helvetica,sans-serif" font-size="20px" stroke="none" fill="black" >0</text>
<line x1="819.2" y1="3276.8" x2="819.2" y2="3227.6" stroke-width="4.8188" />
<line x1="819.2" y1="819.2" x2="819.2" y2="868.35" stroke-width="4.8188" />
<text transform="translate(1274.9,662.21) scale(1,-1) scale(6.4512) " font-family="Helvetica,sans-serif" font-size="20px" stroke="none" fill="black" >1</text>
<line x1="1310.7" y1="3276.8" x2="1310.7" y2="3227.6" stroke-width="4.8188" />
<line x1="1310.7" y1="819.2" x2="1310.7" y2="868.35" stroke-width="4.8188" />
<text transform="translate(1766.4,662.21) scale(1,-1) scale(6.4512) " font-family="Helvetica,sans-serif" font-size="20px" stroke="none" fill="black" >2</text>
<line x1="1802.2" y1="3276.8" x2="1802.2" y2="3227.6" stroke-width="4.8188" />
<line x1="1802.2" y1="819.2" x2="1802.2" y2="868.35" stroke-width="4.8188" />
<text transform="translate(2257.9,662.21) scale(1,-1) scale(6.4512) " font-family="Helvetica,sans-serif" font-size="20px" stroke="none" fill="black" >3</text>
<line x1="2293.8" y1="3276.8" x2="2293.8" y2="3227.6" stroke-width="4.8188" />
<line x1="2293.8" y1="819.2" x2="2293.8" y2="868.35" stroke-width="4.8188" />
<text transform="translate(2749.4,662.21) scale(1,-1) scale(6.4512) " font-family="Helvetica,sans-serif" font-size="20px" stroke="none" fill="black" >4</text>
<line x1="2785.3" y1="3276.8" x2="2785.3" y2="3227.6" stroke-width="4.8188" />
<line x1="2785.3" y1="819.2" x2="2785.3" y2="868.35" stroke-width="4.8188" />
<text transform="translate(3240.9,662.21) scale(1,-1) scale(6.4512) " font-family="Helvetica,sans-serif" font-size="20px" stroke="none" fill="black" >5</text>
<line x1="3276.8" y1="3276.8" x2="3276.8" y2="3227.6" stroke-width="4.8188" />
<line x1="3276.8" y1="819.2" x2="3276.8" y2="868.35" stroke-width="4.8188" />
<line x1="819.2" y1="3276.8" x2="819.2" y2="3257.1" stroke-width="4.8188" />
<line x1="819.2" y1="819.2" x2="819.2" y2="838.86" stroke-width="4.8188" />
<line x1="917.5" y1="3276.8" x2="917.5" y2="3257.1" stroke-width="4.8188" />
<line x1="917.5" y1="819.2" x2="917.5" y2="838.86" stroke-width="4.8188" />
<line x1="1015.8" y1="3276.8" x2="1015.8" y2="3257.1" stroke-width="4.8188" />
<line x1="1015.8" y1="819.2" x2="1015.8" y2="838.86" stroke-width="4.8188" />
<line x1="1114.1" y1="3276.8" x2="1114.1" y2="3257.1" stroke-width="4.8188" />
<line x1="1114.1" y1="819.2" x2="1114.1" y2="838.86" stroke-width="4.8188" />
<line x1="1212.4" y1="3276.8" x2="1212.4" y2="3257.1" stroke-width="4.8188" />
<line x1="1212.4" y1="819.2" x2="1212.4" y2="838.86" stroke-width="4.8188" />
<line x1="1310.7" y1="3276.8" x2="1310.7" y2="3257.1" stroke-width="4.8188" />
<line x1="1310.7" y1="819.2" x2="1310.7" y2="838.86" stroke-width="4.8188" />
<line x1="1409" y1="3276.8" x2="1409" y2="3257.1" stroke-width="4.8188" />
<line x1="1409" y1="819.2" x2="1409" y2="838.86" stroke-width="4.8188" />
<line x1="1507.3" y1="3276.8" x2="1507.3" y2="3257.1" stroke-width="4.8188" />
<line x1="1507.3" y1="819.2" x2="1507.3" y2="838.86" stroke-width="4.8188" />
<line x1="1605.6" y1="3276.8" x2="1605.6" y2="3257.1" stroke-width="4.8188" />
<line x1="1605.6" y1="819.2" x2="1605.6" y2="838.86" stroke-width="4.8188" />
<line x1="1703.9" y1="3276.8" x2="1703.9" y2="3257.1" stroke-width="4.8188" />
<line x1="1703.9" y1="819.2" x2="1703.9" y2="838.86" stroke-width="4.8188" />
<line x1="1802.2" y1="3276.8" x2="1802.2" y2="3257.1" stroke-width="4.8188" />
<line x1="1802.2" y1="819.2" x2="1802.2" y2="838.86" stroke-width="4.8188" />
<line x1="1900.5" y1="3276.8" x2="1900.5" y2="3257.1" stroke-width="4.8188" />
<line x1="1900.5" y1="819.2" x2="1900.5" y2="838.86" stroke-width="4.8188" />
<line x1="1998.8" y1="3276.8" x2="1998.8" y2="3257.1" stroke-width="4.8188" />
<line x1="1998.8" y1="819.2" x2="1998.8" y2="838.86" stroke-width="4.8188" />
<line x1="2097.2" y1="3276.8" x2="2097.2" y2="3257.1" stroke-width="4.8188" />
<line x1="2097.2" y1="819.2" x2="2097.2" y2="838.86" stroke-width="4.8188" />
<line x1="2195.5" y1="3276.8" x2="2195.5" y2="3257.1" stroke-width="4.8188" />
<line x1="2195.5" y1="819.2" x2="2195.5" y2="838.86" stroke-width="4.8188" />
<line x1="2293.8" y1="3276.8" x2="2293.8" y2="3257.1" stroke-width="4.8188" />
<line x1="2293.8" y1="819.2" x2="2293.8" y2="838.86" stroke-width="4.8188" />
<line x1="2392.1" y1="3276.8" x2="2392.1" y2="3257.1" stroke-width="4.8188" />
<line x1="2392.1" y1="819.2" x2="2392.1" y2="838.86" stroke-width="4.8188" />
<line x1="2490.4" y1="3276.8" x2="2490.4" y2="3257.1" stroke-width="4.8188" />
<line x1="2490.4" y1="819.2" x2="2490.4" y2="838.86" stroke-width="4.8188" />
<line x1="2588.7" y1="3276.8" x2="2588.7" y2="3257.1" stroke-width="4.8188" />
<line x1="2588.7" y1="819.2" x2="2588.7" y2="838.86" stroke-width="4.8188" />
<line x1="2687" y1="3276.8" x2="2687" y2="3257.1" stroke-width="4.8188" />
<line x1="2687" y1="819.2" x2="2687" y2="838.86" stroke-width="4.8188" />
<line x1="2785.3" y1="3276.8" x2="2785.3" y2="3257.1" stroke-width="4.8188" />
<line x1="2785.3" y1="819.2" x2="2785.3" y2="838.86" stroke-width="4.8188" />
<line x1="2883.6" y1="3276.8" x2="2883.6" y2="3257.1" stroke-width="4.8188" />
<line x1="2883.6" y1="819.2" x2="2883.6" y2="838.86" stroke-width="4.8188" />
<line x1="2981.9" y1="3276.8" x2="2981.9" y2="3257.1" stroke-width="4.8188" />
<line x1="2981.9" y1="819.2" x2="2981.9" y2="838.86" stroke-width="4.8188" />
<line x1="3080.2" y1="3276.8" x2="3080.2" y2="3257.1" stroke-width="4.8188" />
<line x1="3080.2" y1="819.2" x2="3080.2" y2="838.86" stroke-width="4.8188" />
<line x1="3178.5" y1="3276.8" x2="3178.5" y2="3257.1" stroke-width="4.8188" />
<line x1="3178.5" y1="819.2" x2="3178.5" y2="838.86" stroke-width="4.8188" />
<line x1="3276.8" y1="3276.8" x2="3276.8" y2="3257.1" stroke-width="4.8188" />
<line x1="3276.8" y1="819.2" x2="3276.8" y2="838.86" stroke-width="4.8188" />
<text transform="translate(602.99,773.65) scale(1,-1) scale(6.4512) " font-family="Helvetica,sans-serif" font-size="20px" stroke="none" fill="black" >0.0</text>
<line x1="3276.8" y1="819.2" x2="3227.6" y2="819.2" stroke-width="4.8188" />
<line x1="819.2" y1="819.2" x2="868.35" y2="819.2" stroke-width="4.8188" />
<text transform="translate(602.99,1265.2) scale(1,-1) scale(6.4512) " font-family="Helvetica,sans-serif" font-size="20px" stroke="none" fill="black" >0.5</text>
<line x1="3276.8" y1="1310.7" x2="3227.6" y2="1310.7" stroke-width="4.8188" />
<line x1="819.2" y1="1310.7" x2="868.35" y2="1310.7" stroke-width="4.8188" />
<text transform="translate(602.99,1756.7) scale(1,-1) scale(6.4512) " font-family="Helvetica,sans-serif" font-size="20px" stroke="none" fill="black" >1.0</text>
<line x1="3276.8" y1="1802.2" x2="3227.6" y2="1802.2" stroke-width="4.8188" />
<line x1="819.2" y1="1802.2" x2="868.35" y2="1802.2" stroke-width="4.8188" />
<text transform="translate(602.99,2248.2) scale(1,-1) scale(6.4512) " font-family="Helvetica,sans-serif" font-size="20px" stroke="none" fill="black" >1.5</text>
<line x1="3276.8" y1="2293.8" x2="3227.6" y2="2293.8" stroke-width="4.8188" />
<line x1="819.2" y1="2293.8" x2="868.35" y2="2293.8" stroke-width="4.8188" />
<text transform="translate(602.99,2739.7) scale(1,-1) scale(6.4512) " font-family="Helvetica,sans-serif" font-size="20px" stroke="none" fill="black" >2.0</text>
<line x1="3276.8" y1="2785.3" x2="3227.6" y2="2785.3" stroke-width="4.8188" />
<line x1="819.2" y1="2785.3" x2="868.35" y2="2785.3" stroke-width="4.8188" />
<text transform="translate(602.99,3231.3) scale(1,-1) scale(6.4512) " font-family="Helvetica,sans-serif" font-size="20px" stroke="none" fill="black" >2.5</text>
<line x1="3276.8" y1="3276.8" x2="3227.6" y2="3276.8" stroke-width="4.8188" />
<line x1="819.2" y1="3276.8" x2="868.35" y2="3276.8" stroke-width="4.8188" />
<line x1="3276.8" y1="819.2" x2="3257.1" y2="819.2" stroke-width="4.8188" />
<line x1="819.2" y1="819.2" x2="838.86" y2="819.2" stroke-width="4.8188" />
<line x1="3276.8" y1="917.5" x2="3257.1" y2="917.5" stroke-width="4.8188" />
<line x1="819.2" y1="917.5" x2="838.86" y2="917.5" stroke-width="4.8188" />
<line x1="3276.8" y1="1015.8" x2="3257.1" y2="1015.8" stroke-width="4.8188" />
<line x1="819.2" y1="1015.8" x2="838.86" y2="1015.8" stroke-width="4.8188" />
<line x1="3276.8" y1="1114.1" x2="3257.1" y2="1114.1" stroke-width="4.8188" />
<line x1="819.2" y1="1114.1" x2="838.86" y2="1114.1" stroke-width="4.8188" />
<line x1="3276.8" y1="1212.4" x2="3257.1" y2="1212.4" stroke-width="4.8188" />
<line x1="819.2" y1="1212.4" x2="838.86" y2="1212.4" stroke-width="4.8188" />
<line x1="3276.8" y1="1310.7" x2="3257.1" y2="1310.7" stroke-width="4.8188" />
<line x1="819.2" y1="1310.7" x2="838.86" y2="1310.7" stroke-width="4.8188" />
<line x1="3276.8" y1="1409" x2="3257.1" y2="1409" stroke-width="4.8188" />
<line x1="819.2" y1="1409" x2="838.86" y2="1409" stroke-width="4.8188" />
<line x1="3276.8" y1="1507.3" x2="3257.1" y2="1507.3" stroke-width="4.8188" />
<line x1="819.2" y1="1507.3" x2="838.86" y2="1507.3" stroke-width="4.8188" />
<line x1="3276.8" y1="1605.6" x2="3257.1" y2="1605.6" stroke-width="4.8188" />
<line x1="819.2" y1="1605.6" x2="838.86" y2="1605.6" stroke-width="4.8188" />
<line x1="3276.8" y1="1703.9" x2="3257.1" y2="1703.9" stroke-width="4.8188" />
<line x1="819.2" y1="1703.9" x2="838.86" y2="1703.9" stroke-width="4.8188" />
<line x1="3276.8" y1="1802.2" x2="3257.1" y2="1802.2" stroke-width="4.8188" />
<line x1="819.2" y1="1802.2" x2="838.86" y2="1802.2" stroke-width="4.8188" />
<line x1="3276.8" y1="1900.5" x2="3257.1" y2="1900.5" stroke-width="4.8188" />
<line x1="819.2" y1="1900.5" x2="838.86" y2="1900.5" stroke-width="4.8188" />
<line x1="3276.8" y1="1998.8" x2="3257.1" y2="1998.8" stroke-width="4.8188" />
<line x1="819.2" y1="1998.8" x2="838.86" y2="1998.8" stroke-width="4.8188" />
<line x1="3276.8" y1="2097.2" x2="3257.1" y2="2097.2" stroke-width="4.8188" />
<line x1="819.2" y1="2097.2" x2="838.86" y2="2097.2" stroke-width="4.8188" />
<line x1="3276.8" y1="2195.5" x2="3257.1" y2="2195.5" stroke-width="4.8188" />
<line x1="819.2" y1="2195.5" x2="838.86" y2="2195.5" stroke-width="4.8188" />
<line x1="3276.8" y1="2293.8" x2="3257.1" y2="2293.8" stroke-width="4.8188" />
<line x1="819.2" y1="2293.8" x2="838.86" y2="2293.8" stroke-width="4.8188" />
<line x1="3276.8" y1="2392.1" x2="3257.1" y2="2392.1" stroke-width="4.8188" />
<line x1="819.2" y1="2392.1" x2="838.86" y2="2392.1" stroke-width="4.8188" />
<line x1="3276.8" y1="2490.4" x2="3257.1" y2="2490.4" stroke-width="4.8188" />
<line x1="819.2" y1="2490.4" x2="838.86" y2="2490.4" stroke-width="4.8188" />
<line x1="3276.8" y1="2588.7" x2="3257.1" y2="2588.7" stroke-width="4.8188" />
<line x1="819.2" y1="2588.7" x2="838.86" y2="2588.7" stroke-width="4.8188" />
<line x1="3276.8" y1="2687" x2="3257.1" y2="2687" stroke-width="4.8188" />
<line x1="819.2" y1="2687" x2="838.86" y2="2687" stroke-width="4.8188" />
<line x1="3276.8" y1="2785.3" x2="3257.1" y2="2785.3" stroke-width="4.8188" />
<line x1="819.2" y1="2785.3" x2="838.86" y2="2785.3" stroke-width="4.8188" />
<line x1="3276.8" y1="2883.6" x2="3257.1" y2="2883.6" stroke-width="4.8188" />
<line x1="819.2" y1="2883.6" x2="838.86" y2="2883.6" stroke-width="4.8188" />
<line x1="3276.8" y1="2981.9" x2="3257.1" y2="2981.9" stroke-width="4.8188" />
<line x1="819.2" y1="2981.9" x2="838.86" y2="2981.9" stroke-width="4.8188" />
<line x1="3276.8" y1="3080.2" x2="3257.1" y2="3080.2" stroke-width="4.8188" />
<line x1="819.2" y1="3080.2" x2="838.86" y2="3080.2" stroke-width="4.8188" />
<line x1="3276.8" y1="3178.5" x2="3257.1" y2="3178.5" stroke-width="4.8188" />
<line x1="819.2" y1="3178.5" x2="838.86" y2="3178.5" stroke-width="4.8188" />
<line x1="3276.8" y1="3276.8" x2="3257.1" y2="3276.8" stroke-width="4.8188" />
<line x1="819.2" y1="3276.8" x2="838.86" y2="3276.8" stroke-width="4.8188" />
<text transform="translate(2015.7,501.24) scale(1,-1) scale(6.4512) " font-family="Helvetica,sans-serif" font-size="20px" stroke="none" fill="black" >x</text>
<text transform="matrix(0 6.4512 6.4512 0 511.58 2015.7) " font-family="Helvetica,sans-serif" font-size="20px" stroke="none" fill="black" >y</text>
<circle cx="819.2" cy="1802.2" r="23.04" stroke-width="2.304" />
<circle cx="1065" cy="1576.3" r="23.04" stroke-width="2.304" />
<circle cx="1310.7" cy="1106.2" r="23.04" stroke-width="2.304" />
<circle cx="1556.5" cy="824.12" r="23.04" stroke-width="2.304" />
<circle cx="1802.2" cy="989.44" r="23.04" stroke-width="2.304" />
<circle cx="2048" cy="1450.1" r="23.04" stroke-width="2.304" />
<circle cx="2293.8" cy="1782.7" r="23.04" stroke-width="2.304" />
<circle cx="2539.5" cy="1681.3" r="23.04" stroke-width="2.304" />
<circle cx="2785.3" cy="1239.2" r="23.04" stroke-width="2.304" />
<circle cx="3031" cy="862.88" r="23.04" stroke-width="2.304" />
<polyline points="819.2,1802.2 831.49,1801.6 843.78,1799.8 856.06,1796.7 868.35,1792.4 880.64,1787 892.93,1780.3 905.22,1772.4 917.5,1763.4 929.79,1753.3 942.08,1742.1 954.37,1729.8 966.66,1716.4 978.94,1702 991.23,1686.7 1003.5,1670.4 1015.8,1653.2 1028.1,1635.1 1040.4,1616.3 1052.7,1596.6 1065,1576.3 1077.2,1555.3 1089.5,1533.7 1101.8,1511.5 1114.1,1488.8 1126.4,1465.7 1138.7,1442.2 1151,1418.4 1163.3,1394.3 1175.6,1369.9 1187.8,1345.5 1200.1,1320.9 1212.4,1296.4 1224.7,1271.8 1237,1247.4 1249.3,1223.1 1261.6,1199 1273.9,1175.3 1286.1,1151.8 1298.4,1128.8 1310.7,1106.2 1323,1084.1 1335.3,1062.6 1347.6,1041.7 1359.9,1021.5 1372.2,1002 1384.4,983.23 1396.7,965.32 1409,948.28 1421.3,932.14 1433.6,916.94 1445.9,902.73 1458.2,889.54 1470.5,877.4 1482.8,866.35 1495,856.41 1507.3,847.6 1519.6,839.95 1531.9,833.47 1544.2,828.19 1556.5,824.12 1568.8,821.26 1581.1,819.63 1593.3,819.22 1605.6,820.04 1617.9,822.09 1630.2,825.35 1642.5,829.84 1654.8,835.52 1667.1,842.39 1679.4,850.43 1691.6,859.63 1703.9,869.95 1716.2,881.37 1728.5,893.86 1740.8,907.4 1753.1,921.94 1765.4,937.46 1777.7,953.91 1790,971.25 1802.2,989.44 1814.5,1008.4 1826.8,1028.2 1839.1,1048.6 1851.4,1069.7 1863.7,1091.5 1876,1113.7 1888.3,1136.5 1900.5,1159.7 1912.8,1183.2 1925.1,1207.1 1937.4,1231.3 1949.7,1255.6 1962,1280.1 1974.3,1304.6 1986.6,1329.2 1998.8,1353.7 2011.1,1378.1 2023.4,1402.4 2035.7,1426.4 2048,1450.1 2060.3,1473.5 2072.6,1496.5 2084.9,1519 2097.2,1541 2109.4,1562.4 2121.7,1583.2 2134,1603.3 2146.3,1622.7 2158.6,1641.3 2170.9,1659 2183.2,1675.9 2195.5,1691.9 2207.7,1707 2220,1721 2232.3,1734 2244.6,1746 2256.9,1756.8 2269.2,1766.6 2281.5,1775.2 2293.8,1782.7 2306,1788.9 2318.3,1794 2330.6,1797.9 2342.9,1800.5 2355.2,1802 2367.5,1802.2 2379.8,1801.1 2392.1,1798.9 2404.4,1795.4 2416.6,1790.7 2428.9,1784.8 2441.2,1777.8 2453.5,1769.5 2465.8,1760.2 2478.1,1749.7 2490.4,1738 2502.7,1725.4 2514.9,1711.7 2527.2,1697 2539.5,1681.3 2551.8,1664.7 2564.1,1647.2 2576.4,1628.9 2588.7,1609.7 2601,1589.9 2613.2,1569.3 2625.5,1548.1 2637.8,1526.3 2650.1,1503.9 2662.4,1481.1 2674.7,1457.8 2687,1434.2 2699.3,1410.3 2711.6,1386.1 2723.8,1361.7 2736.1,1337.2 2748.4,1312.7 2760.7,1288.1 2773,1263.6 2785.3,1239.2 2797.6,1215 2809.9,1191 2822.1,1167.3 2834.4,1144 2846.7,1121.1 2859,1098.7 2871.3,1076.8 2883.6,1055.5 2895.9,1034.8 2908.2,1014.8 2920.4,995.57 2932.7,977.12 2945,959.49 2957.3,942.75 2969.6,926.92 2981.9,912.05 2994.2,898.18 3006.5,885.34 3018.8,873.56 3031,862.88 3043.3,853.32 3055.6,844.9 3067.9,837.64 3080.2,831.56 3092.5,826.69 3104.8,823.02 3117.1,820.57 3129.3,819.35 3141.6,819.36 3153.9,820.59 3166.2,823.05 3178.5,826.73 3190.8,831.61 3203.1,837.7 3215.4,844.97 3227.6,853.4 3239.9,862.97 3252.2,873.66 3264.5,885.45 " stroke-width="4.8188" stroke-dasharray="4.8188, 14.456" />
<polyline points="819.2,1802.2 830.31,1792 841.43,1781.8 852.54,1771.6 863.66,1761.4 874.77,1751.1 885.89,1740.9 897,1730.7 908.12,1720.5 919.23,1710.3 930.35,1700.1 941.46,1689.8 952.58,1679.6 963.69,1669.4 974.81,1659.2 985.92,1649 997.04,1638.7 1008.2,1628.5 1019.3,1618.3 1030.4,1608.1 1041.5,1597.9 1052.6,1587.6 1063.7,1577.4 1074.8,1557.4 1086,1536.1 1097.1,1514.9 1108.2,1493.6 1119.3,1472.3 1130.4,1451.1 1141.5,1429.8 1152.6,1408.6 1163.8,1387.3 1174.9,1366 1186,1344.8 1197.1,1323.5 1208.2,1302.3 1219.3,1281 1230.4,1259.7 1241.6,1238.5 1252.7,1217.2 1263.8,1195.9 1274.9,1174.7 1286,1153.4 1297.1,1132.2 1308.3,1110.9 1319.4,1096.3 1330.5,1083.5 1341.6,1070.7 1352.7,1058 1363.8,1045.2 1374.9,1032.5 1386.1,1019.7 1397.2,1007 1408.3,994.2 1419.4,981.45 1430.5,968.69 1441.6,955.93 1452.7,943.18 1463.9,930.42 1475,917.67 1486.1,904.91 1497.2,892.15 1508.3,879.4 1519.4,866.64 1530.5,853.88 1541.7,841.13 1552.8,828.37 1563.9,829.1 1575,836.58 1586.1,844.06 1597.2,851.53 1608.4,859.01 1619.5,866.49 1630.6,873.96 1641.7,881.44 1652.8,888.92 1663.9,896.4 1675,903.87 1686.2,911.35 1697.3,918.83 1708.4,926.3 1719.5,933.78 1730.6,941.26 1741.7,948.73 1752.8,956.21 1764,963.69 1775.1,971.16 1786.2,978.64 1797.3,986.12 1808.4,1001 1819.5,1021.9 1830.6,1042.7 1841.8,1063.5 1852.9,1084.4 1864,1105.2 1875.1,1126 1886.2,1146.9 1897.3,1167.7 1908.4,1188.5 1919.6,1209.4 1930.7,1230.2 1941.8,1251 1952.9,1271.9 1964,1292.7 1975.1,1313.6 1986.3,1334.4 1997.4,1355.2 2008.5,1376.1 2019.6,1396.9 2030.7,1417.7 2041.8,1438.6 2052.9,1456.8 2064.1,1471.9 2075.2,1486.9 2086.3,1501.9 2097.4,1517 2108.5,1532 2119.6,1547.1 2130.7,1562.1 2141.9,1577.1 2153,1592.2 2164.1,1607.2 2175.2,1622.3 2186.3,1637.3 2197.4,1652.3 2208.5,1667.4 2219.7,1682.4 2230.8,1697.4 2241.9,1712.5 2253,1727.5 2264.1,1742.6 2275.2,1757.6 2286.3,1772.6 2297.5,1781.1 2308.6,1776.5 2319.7,1772 2330.8,1767.4 2341.9,1762.8 2353,1758.2 2364.2,1753.6 2375.3,1749 2386.4,1744.5 2397.5,1739.9 2408.6,1735.3 2419.7,1730.7 2430.8,1726.1 2442,1721.5 2453.1,1716.9 2464.2,1712.4 2475.3,1707.8 2486.4,1703.2 2497.5,1698.6 2508.6,1694 2519.8,1689.4 2530.9,1684.8 2542,1676.8 2553.1,1656.8 2564.2,1636.8 2575.3,1616.9 2586.5,1596.9 2597.6,1576.9 2608.7,1556.9 2619.8,1536.9 2630.9,1516.9 2642,1496.9 2653.1,1476.9 2664.3,1456.9 2675.4,1436.9 2686.5,1416.9 2697.6,1396.9 2708.7,1376.9 2719.8,1356.9 2730.9,1336.9 2742.1,1317 2753.2,1297 2764.3,1277 2775.4,1257 2786.5,1237.3 2797.6,1220.3 2808.7,1203.3 2819.9,1186.3 2831,1169.2 2842.1,1152.2 2853.2,1135.2 2864.3,1118.2 2875.4,1101.2 2886.5,1084.1 2897.7,1067.1 2908.8,1050.1 2919.9,1033.1 2931,1016.1 2942.1,999.04 2953.2,982.02 2964.4,965 2975.5,947.98 2986.6,930.96 2997.7,913.94 3008.8,896.92 3019.9,879.9 3031,862.88 " stroke-width="4.8188" />
<polyline points="819.2,819.2 830.31,841.31 841.43,863.2 852.54,884.85 863.66,906.27 874.77,927.46 885.89,948.42 897,969.15 908.12,989.64 919.23,1009.9 930.35,1029.9 941.46,1049.7 952.58,1069.3 963.69,1088.7 974.81,1107.8 985.92,1126.6 997.04,1145.3 1008.2,1163.7 1019.3,1181.9 1030.4,1199.9 1041.5,1217.6 1052.6,1235.1 1063.7,1252.3 1074.8,1269.3 1086,1285.7 1097.1,1301.7 1108.2,1317.2 1119.3,1332.2 1130.4,1346.7 1141.5,1360.8 1152.6,1374.3 1163.8,1387.4 1174.9,1400 1186,1412.1 1197.1,1423.8 1208.2,1435 1219.3,1445.6 1230.4,1455.8 1241.6,1465.6 1252.7,1474.8 1263.8,1483.6 1274.9,1491.8 1286,1499.6 1297.1,1507 1308.3,1513.8 1319.4,1520.2 1330.5,1526.3 1341.6,1532.2 1352.7,1537.7 1363.8,1543 1374.9,1547.9 1386.1,1552.6 1397.2,1557 1408.3,1561.1 1419.4,1564.9 1430.5,1568.4 1441.6,1571.7 1452.7,1574.6 1463.9,1577.3 1475,1579.7 1486.1,1581.7 1497.2,1583.5 1508.3,1585 1519.4,1586.2 1530.5,1587.2 1541.7,1587.8 1552.8,1588.2 1563.9,1588.3 1575,1588.6 1586.1,1589.1 1597.2,1589.8 1608.4,1590.6 1619.5,1591.6 1630.6,1592.7 1641.7,1594 1652.8,1595.5 1663.9,1597.2 1675,1599 1686.2,1601 1697.3,1603.2 1708.4,1605.5 1719.5,1608 1730.6,1610.7 1741.7,1613.6 1752.8,1616.6 1764,1619.8 1775.1,1623.1 1786.2,1626.6 1797.3,1630.3 1808.4,1634.2 1819.5,1638.6 1830.6,1643.4 1841.8,1648.7 1852.9,1654.4 1864,1660.7 1875.1,1667.4 1886.2,1674.5 1897.3,1682.2 1908.4,1690.3 1919.6,1698.9 1930.7,1708 1941.8,1717.5 1952.9,1727.5 1964,1738 1975.1,1748.9 1986.3,1760.3 1997.4,1772.2 2008.5,1784.6 2019.6,1797.4 2030.7,1810.7 2041.8,1824.5 2052.9,1838.7 2064.1,1853.3 2075.2,1868.2 2086.3,1883.5 2097.4,1899.1 2108.5,1915 2119.6,1931.3 2130.7,1947.9 2141.9,1964.9 2153,1982.2 2164.1,1999.9 2175.2,2017.9 2186.3,2036.2 2197.4,2054.9 2208.5,2073.9 2219.7,2093.2 2230.8,2112.9 2241.9,2132.9 2253,2153.3 2264.1,2174 2275.2,2195.1 2286.3,2216.5 2297.5,2238.2 2308.6,2259.9 2319.7,2281.5 2330.8,2303 2341.9,2324.3 2353,2345.6 2364.2,2366.8 2375.3,2387.9 2386.4,2408.9 2397.5,2429.7 2408.6,2450.5 2419.7,2471.2 2430.8,2491.7 2442,2512.2 2453.1,2532.5 2464.2,2552.8 2475.3,2572.9 2486.4,2593 2497.5,2612.9 2508.6,2632.7 2519.8,2652.5 2530.9,2672.1 2542,2691.6 2553.1,2710.8 2564.2,2729.5 2575.3,2747.8 2586.5,2765.6 2597.6,2782.9 2608.7,2799.8 2619.8,2816.3 2630.9,2832.3 2642,2847.9 2653.1,2862.9 2664.3,2877.6 2675.4,2891.8 2686.5,2905.5 2697.6,2918.8 2708.7,2931.7 2719.8,2944.1 2730.9,2956 2742.1,2967.5 2753.2,2978.5 2764.3,2989.1 2775.4,2999.2 2786.5,3008.9 2797.6,3018.1 2808.7,3027 2819.9,3035.5 2831,3043.6 2842.1,3051.3 2853.2,3058.7 2864.3,3065.6 2875.4,3072.2 2886.5,3078.4 2897.7,3084.2 2908.8,3089.6 2919.9,3094.6 2931,3099.3 2942.1,3103.5 2953.2,3107.4 2964.4,3110.9 2975.5,3114 2986.6,3116.7 2997.7,3119 3008.8,3121 3019.9,3122.6 3031,3123.7 " stroke-width="4.8188" stroke-dasharray="19.275, 14.456, 4.8188, 14.456" />
</g>
</svg>
