<?xml version="1.0" encoding="ISO-8859-1" standalone="no"?>
<!DOCTYPE svg PUBLIC "-//W3C//DTD SVG 1.1//EN" "http://www.w3.org/Graphics/SVG/1.1/DTD/svg11.dtd">
<svg version="1.1" baseProfile="full" id="body" width="8in" height="8in" viewBox="0 0 1 1" preserveAspectRatio="none" xmlns="http://www.w3.org/2000/svg" xmlns:xlink="http://www.w3.org/1999/xlink" xmlns:ev="http://www.w3.org/2001/xml-events">
<title>SVG drawing</title>
<desc>This was produced by version 4.4 of GNU libplot, a free library for exporting 2-D vector graphics.</desc>
<rect id="background" x="0" y="0" width="1" height="1" stroke="none" fill="white"/>
<g id="content" transform="translate(0,1) scale(1,-1) scale(0.00024414) " xml:space="preserve" stroke="black" stroke-linecap="butt" stroke-linejoin="miter" stroke-miterlimit="10.433" stroke-dasharray="none" stroke-dashoffset="0" stroke-opacity="1" fill="none" fill-rule="evenodd" fill-opacity="1" font-style="normal" font-variant="normal" font-weight="normal" font-stretch="normal" font-size-adjust="none" letter-spacing="normal" word-spacing="normal" text-anchor="start">
<text transform="translate(1804.2,3451.9) scale(1,-1) scale(8.6016) " font-family="Helvetica,sans-serif" font-size="20px" stroke="none" fill="black" >lspline</text>
<rect x="819.2" y="819.2" width="2457.6" height="2457.6" stroke-width="4.8188" />
<text transform="translate(783.33,662.21) scale(1,-1) scale(6.4512) " font-family="Helvetica,sans-serif" font-size="20px" stroke="none" fill="black" >0</text>
<line x1="819.2" y1="3276.8" x2="819.2" y2="3227.6" stroke-width="4.8188" />
<line x1="819.2" y1="819.2" x2="819.2" y2="868.35" stroke-width="4.8188" />
<text transform="translate(1274.9,662.21) scale(1,-1) scale(6.4512) " font-family="Helvetica,sans-serif" font-size="20px" stroke="none" fill="black" >2</text>
<line x1="1310.7" y1="3276.8" x2="1310.7" y2="3227.6" stroke-width="4.8188" />
<line x1="1310.7" y1="819.2" x2="1310.7" y2="868.35" stroke-width="4.8188" />
<text transform="translate(1766.4,662.21) scale(1,-1) scale(6.4512) " font-family="Helvetica,sans-serif" font-size="20px" stroke="none" fill="black" >4</text>
<line x1="1802.2" y1="3276.8" x2="1802.2" y2="3227.6" stroke-width="4.8188" />
<line x1="1802.2" y1="819.2" x2="1802.2" y2="868.35" stroke-width="4.8188" />
<text transform="translate(2257.9,662.21) scale(1,-1) scale(6.4512) " font-family="Helvetica,sans-serif" font-size="20px" stroke="none" fill="black" >6</text>
<line x1="2293.8" y1="3276.8" x2="2293.8" y2="3227.6" stroke-width="4.8188" />
<line x1="2293.8" y1="819.2" x2="2293.8" y2="868.35" stroke-width="4.8188" />
<text transform="translate(2749.4,662.21) scale(1,-1) scale(6.4512) " font-family="Helvetica,sans-serif" font-size="20px" stroke="none" fill="black" >8</text>
<line x1="2785.3" y1="3276.8" x2="2785.3" y2="3227.6" stroke-width="4.8188" />
<line x1="2785.3" y1="819.2" x2="2785.3" y2="868.35" stroke-width="4.8188" />
<text transform="translate(3205.1,662.21) scale(1,-1) scale(6.4512) " font-family="Helvetica,sans-serif" font-size="20px" stroke="none" fill="black" >10</text>
<line x1="3276.8" y1="3276.8" x2="3276.8" y2="3227.6" stroke-width="4.8188" />
<line x1="3276.8" y1="819.2" x2="3276.8" y2="868.35" stroke-width="4.8188" />
<line x1="819.2" y1="3276.8" x2="819.2" y2="3257.1" stroke-width="4.8188" />
<line x1="819.2" y1="819.2" x2="819.2" y2="838.86" stroke-width="4.8188" />
<line x1="1065" y1="3276.8" x2="1065" y2="3257.1" stroke-width="4.8188" />
<line x1="1065" y1="819.2" x2="1065" y2="838.86" stroke-width="4.8188" />
<line x1="1310.7" y1="3276.8" x2="1310.7" y2="3257.1" stroke-width="4.8188" />
<line x1="1310.7" y1="819.2" x2="1310.7" y2="838.86" stroke-width="4.8188" />
<line x1="1556.5" y1="3276.8" x2="1556.5" y2="3257.1" stroke-width="4.8188" />
<line x1="1556.5" y1="819.2" x2="1556.5" y2="838.86" stroke-width="4.8188" />
<line x1="1802.2" y1="3276.8" x2="1802.2" y2="3257.1" stroke-width="4.8188" />
<line x1="1802.2" y1="819.2" x2="1802.2" y2="838.86" stroke-width="4.8188" />
<line x1="2048" y1="3276.8" x2="2048" y2="3257.1" stroke-width="4.8188" />
<line x1="2048" y1="819.2" x2="2048" y2="838.86" stroke-width="4.8188" />
<line x1="2293.8" y1="3276.8" x2="2293.8" y2="3257.1" stroke-width="4.8188" />
<line x1="2293.8" y1="819.2" x2="2293.8" y2="838.86" stroke-width="4.8188" />
<line x1="2539.5" y1="3276.8" x2="2539.5" y2="3257.1" stroke-width="4.8188" />
<line x1="2539.5" y1="819.2" x2="2539.5" y2="838.86" stroke-width="4.8188" />
<line x1="2785.3" y1="3276.8" x2="2785.3" y2="3257.1" stroke-width="4.8188" />
<line x1="2785.3" y1="819.2" x2="2785.3" y2="838.86" stroke-width="4.8188" />
<line x1="3031" y1="3276.8" x2="3031" y2="3257.1" stroke-width="4.8188" />
<line x1="3031" y1="819.2" x2="3031" y2="838.86" stroke-width="4.8188" />
<line x1="3276.8" y1="3276.8" x2="3276.8" y2="3257.1" stroke-width="4.8188" />
<line x1="3276.8" y1="819.2" x2="3276.8" y2="838.86" stroke-width="4.8188" />
<text transform="translate(710.6,773.65) scale(1,-1) scale(6.4512) " font-family="Helvetica,sans-serif" font-size="20px" stroke="none" fill="black" >0</text>
<line x1="3276.8" y1="819.2" x2="3227.6" y2="819.2" stroke-width="4.8188" />
<line x1="819.2" y1="819.2" x2="868.35" y2="819.2" stroke-width="4.8188" />
<text transform="translate(710.6,1265.2) scale(1,-1) scale(6.4512) " font-family="Helvetica,sans-serif" font-size="20px" stroke="none" fill="black" >2</text>
<line x1="3276.8" y1="1310.7" x2="3227.6" y2="1310.7" stroke-width="4.8188" />
<line x1="819.2" y1="1310.7" x2="868.35" y2="1310.7" stroke-width="4.8188" />
<text transform="translate(710.6,1756.7) scale(1,-1) scale(6.4512) " font-family="Helvetica,sans-serif" font-size="20px" stroke="none" fill="black" >4</text>
<line x1="3276.8" y1="1802.2" x2="3227.6" y2="1802.2" stroke-width="4.8188" />
<line x1="819.2" y1="1802.2" x2="868.35" y2="1802.2" stroke-width="4.8188" />
<text transform="translate(710.6,2248.2) scale(1,-1) scale(6.4512) " font-family="Helvetica,sans-serif" font-size="20px" stroke="none" fill="black" >6</text>
<line x1="3276.8" y1="2293.8" x2="3227.6" y2="2293.8" stroke-width="4.8188" />
<line x1="819.2" y1="2293.8" x2="868.35" y2="2293.8" stroke-width="4.8188" />
<text transform="translate(710.6,2739.7) scale(1,-1) scale(6.4512) " font-family="Helvetica,sans-serif" font-size="20px" stroke="none" fill="black" >8</text>
<line x1="3276.8" y1="2785.3" x2="3227.6" y2="2785.3" stroke-width="4.8188" />
<line x1="819.2" y1="2785.3" x2="868.35" y2="2785.3" stroke-width="4.8188" />
<text transform="translate(638.86,3231.3) scale(1,-1) scale(6.4512) " font-family="Helvetica,sans-serif" font-size="20px" stroke="none" fill="black" >10</text>
<line x1="3276.8" y1="3276.8" x2="3227.6" y2="3276.8" stroke-width="4.8188" />
<line x1="819.2" y1="3276.8" x2="868.35" y2="3276.8" stroke-width="4.8188" />
<line x1="3276.8" y1="819.2" x2="3257.1" y2="819.2" stroke-width="4.8188" />
<line x1="819.2" y1="819.2" x2="838.86" y2="819.2" stroke-width="4.8188" />
<line x1="3276.8" y1="1065" x2="3257.1" y2="1065" stroke-width="4.8188" />
<line x1="819.2" y1="1065" x2="838.86" y2="1065" stroke-width="4.8188" />
<line x1="3276.8" y1="1310.7" x2="3257.1" y2="1310.7" stroke-width="4.8188" />
<line x1="819.2" y1="1310.7" x2="838.86" y2="1310.7" stroke-width="4.8188" />
<line x1="3276.8" y1="1556.5" x2="3257.1" y2="1556.5" stroke-width="4.8188" />
<line x1="819.2" y1="1556.5" x2="838.86" y2="1556.5" stroke-width="4.8188" />
<line x1="3276.8" y1="1802.2" x2="3257.1" y2="1802.2" stroke-width="4.8188" />
<line x1="819.2" y1="1802.2" x2="838.86" y2="1802.2" stroke-width="4.8188" />
<line x1="3276.8" y1="2048" x2="3257.1" y2="2048" stroke-width="4.8188" />
<line x1="819.2" y1="2048" x2="838.86" y2="2048" stroke-width="4.8188" />
<line x1="3276.8" y1="2293.8" x2="3257.1" y2="2293.8" stroke-width="4.8188" />
<line x1="819.2" y1="2293.8" x2="838.86" y2="2293.8" stroke-width="4.8188" />
<line x1="3276.8" y1="2539.5" x2="3257.1" y2="2539.5" stroke-width="4.8188" />
<line x1="819.2" y1="2539.5" x2="838.86" y2="2539.5" stroke-width="4.8188" />
<line x1="3276.8" y1="2785.3" x2="3257.1" y2="2785.3" stroke-width="4.8188" />
<line x1="819.2" y1="2785.3" x2="838.86" y2="2785.3" stroke-width="4.8188" />
<line x1="3276.8" y1="3031" x2="3257.1" y2="3031" stroke-width="4.8188" />
<line x1="819.2" y1="3031" x2="838.86" y2="3031" stroke-width="4.8188" />
<line x1="3276.8" y1="3276.8" x2="3257.1" y2="3276.8" stroke-width="4.8188" />
<line x1="819.2" y1="3276.8" x2="838.86" y2="3276.8" stroke-width="4.8188" />
<text transform="translate(2015.7,501.24) scale(1,-1) scale(6.4512) " font-family="Helvetica,sans-serif" font-size="20px" stroke="none" fill="black" >x</text>
<text transform="matrix(0 6.4512 6.4512 0 552.83 2015.7) " font-family="Helvetica,sans-serif" font-size="20px" stroke="none" fill="black" >y</text>
<circle cx="819.2" cy="819.2" r="23.04" stroke-width="2.304" />
<circle cx="1065" cy="890.94" r="23.04" stroke-width="2.304" />
<circle cx="1310.7" cy="904.32" r="23.04" stroke-width="2.304" />
<circle cx="1556.5" cy="1541.8" r="23.04" stroke-width="2.304" />
<circle cx="1802.2" cy="1239.2" r="23.04" stroke-width="2.304" />
<circle cx="2048" cy="918.07" r="23.04" stroke-width="2.304" />
<circle cx="2293.8" cy="2178.6" r="23.04" stroke-width="2.304" />
<circle cx="2539.5" cy="1797" r="23.04" stroke-width="2.304" />
<circle cx="2785.3" cy="860.82" r="23.04" stroke-width="2.304" />
<circle cx="3031" cy="2655.4" r="23.04" stroke-width="2.304" />
<polyline points="819.2,819.2 821.66,821.66 824.12,824.11 826.57,826.57 829.03,829.01 831.49,831.46 833.95,833.89 836.4,836.32 838.86,838.74 841.32,841.14 843.78,843.53 846.23,845.91 848.69,848.27 851.15,850.61 853.61,852.94 856.06,855.24 858.52,857.52 860.98,859.78 863.44,862.02 865.89,864.23 868.35,866.41 870.81,868.57 873.27,870.69 875.72,872.79 878.18,874.85 880.64,876.88 883.1,878.87 885.56,880.83 888.01,882.76 890.47,884.64 892.93,886.49 895.39,888.3 897.84,890.06 900.3,891.78 902.76,893.47 905.22,895.1 907.67,896.69 910.13,898.24 912.59,899.74 915.05,901.19 917.5,902.6 919.96,903.95 922.42,905.26 924.88,906.51 927.33,907.72 929.79,908.87 932.25,909.97 934.71,911.02 937.16,912.01 939.62,912.95 942.08,913.84 944.54,914.67 947,915.44 949.45,916.16 951.91,916.83 954.37,917.44 956.83,917.99 959.28,918.49 961.74,918.93 964.2,919.32 966.66,919.64 969.11,919.92 971.57,920.13 974.03,920.29 976.49,920.39 978.94,920.44 981.4,920.43 983.86,920.36 986.32,920.24 988.77,920.07 991.23,919.84 993.69,919.55 996.15,919.21 998.6,918.82 1001.1,918.38 1003.5,917.88 1006,917.33 1008.4,916.73 1010.9,916.08 1013.4,915.38 1015.8,914.63 1018.3,913.84 1020.7,912.99 1023.2,912.1 1025.6,911.17 1028.1,910.19 1030.6,909.17 1033,908.1 1035.5,907 1037.9,905.85 1040.4,904.67 1042.8,903.44 1045.3,902.18 1047.8,900.89 1050.2,899.56 1052.7,898.2 1055.1,896.8 1057.6,895.38 1060,893.93 1062.5,892.45 1065,890.94 1067.4,889.41 1069.9,887.86 1072.3,886.29 1074.8,884.7 1077.2,883.09 1079.7,881.46 1082.2,879.82 1084.6,878.16 1087.1,876.5 1089.5,874.82 1092,873.14 1094.5,871.45 1096.9,869.75 1099.4,868.06 1101.8,866.36 1104.3,864.66 1106.7,862.97 1109.2,861.28 1111.7,859.6 1114.1,857.92 1116.6,856.26 1119,854.61 1121.5,852.97 1123.9,851.35 1126.4,849.74 1128.9,848.16 1131.3,846.6 1133.8,845.06 1136.2,843.55 1138.7,842.06 1141.1,840.61 1143.6,839.18 1146.1,837.79 1148.5,836.43 1151,835.11 1153.4,833.83 1155.9,832.59 1158.3,831.4 1160.8,830.25 1163.3,829.14 1165.7,828.08 1168.2,827.08 1170.6,826.12 1173.1,825.22 1175.6,824.37 1178,823.59 1180.5,822.86 1182.9,822.19 1185.4,821.59 1187.8,821.04 1190.3,820.57 1192.8,820.16 1195.2,819.83 1197.7,819.56 1200.1,819.36 1202.6,819.24 1205,819.2 1207.5,819.23 1210,819.34 1212.4,819.54 1214.9,819.81 1217.3,820.16 1219.8,820.6 1222.2,821.13 1224.7,821.74 1227.2,822.44 1229.6,823.23 1232.1,824.1 1234.5,825.07 1237,826.14 1239.4,827.29 1241.9,828.54 1244.4,829.89 1246.8,831.33 1249.3,832.86 1251.7,834.5 1254.2,836.23 1256.7,838.07 1259.1,840 1261.6,842.04 1264,844.17 1266.5,846.41 1268.9,848.75 1271.4,851.19 1273.9,853.73 1276.3,856.38 1278.8,859.13 1281.2,861.98 1283.7,864.94 1286.1,868 1288.6,871.17 1291.1,874.44 1293.5,877.81 1296,881.29 1298.4,884.87 1300.9,888.56 1303.3,892.34 1305.8,896.23 1308.3,900.23 1310.7,904.32 1313.2,908.52 1315.6,912.81 1318.1,917.21 1320.6,921.71 1323,926.3 1325.5,931 1327.9,935.79 1330.4,940.68 1332.8,945.66 1335.3,950.74 1337.8,955.91 1340.2,961.17 1342.7,966.53 1345.1,971.97 1347.6,977.5 1350,983.12 1352.5,988.83 1355,994.62 1357.4,1000.5 1359.9,1006.5 1362.3,1012.5 1364.8,1018.6 1367.2,1024.8 1369.7,1031.1 1372.2,1037.4 1374.6,1043.8 1377.1,1050.3 1379.5,1056.8 1382,1063.5 1384.4,1070.1 1386.9,1076.9 1389.4,1083.7 1391.8,1090.5 1394.3,1097.4 1396.7,1104.4 1399.2,1111.4 1401.7,1118.5 1404.1,1125.6 1406.6,1132.7 1409,1139.9 1411.5,1147.1 1413.9,1154.4 1416.4,1161.7 1418.9,1169 1421.3,1176.4 1423.8,1183.8 1426.2,1191.2 1428.7,1198.6 1431.1,1206.1 1433.6,1213.5 1436.1,1221 1438.5,1228.5 1441,1236 1443.4,1243.5 1445.9,1251 1448.3,1258.5 1450.8,1266 1453.3,1273.4 1455.7,1280.9 1458.2,1288.4 1460.6,1295.8 1463.1,1303.2 1465.5,1310.6 1468,1318 1470.5,1325.4 1472.9,1332.7 1475.4,1339.9 1477.8,1347.2 1480.3,1354.4 1482.8,1361.6 1485.2,1368.7 1487.7,1375.7 1490.1,1382.7 1492.6,1389.7 1495,1396.6 1497.5,1403.4 1500,1410.2 1502.4,1416.9 1504.9,1423.5 1507.3,1430.1 1509.8,1436.6 1512.2,1443 1514.7,1449.3 1517.2,1455.6 1519.6,1461.7 1522.1,1467.8 1524.5,1473.8 1527,1479.6 1529.4,1485.4 1531.9,1491.1 1534.4,1496.7 1536.8,1502.2 1539.3,1507.5 1541.7,1512.8 1544.2,1517.9 1546.6,1522.9 1549.1,1527.8 1551.6,1532.6 1554,1537.3 1556.5,1541.8 1558.9,1546.2 1561.4,1550.5 1563.9,1554.6 1566.3,1558.6 1568.8,1562.5 1571.2,1566.2 1573.7,1569.8 1576.1,1573.3 1578.6,1576.6 1581.1,1579.7 1583.5,1582.8 1586,1585.6 1588.4,1588.3 1590.9,1590.9 1593.3,1593.3 1595.8,1595.5 1598.3,1597.6 1600.7,1599.6 1603.2,1601.3 1605.6,1603 1608.1,1604.4 1610.5,1605.7 1613,1606.8 1615.5,1607.8 1617.9,1608.6 1620.4,1609.2 1622.8,1609.7 1625.3,1610 1627.8,1610.1 1630.2,1610 1632.7,1609.8 1635.1,1609.4 1637.6,1608.9 1640,1608.1 1642.5,1607.3 1645,1606.2 1647.4,1604.9 1649.9,1603.5 1652.3,1602 1654.8,1600.2 1657.2,1598.3 1659.7,1596.2 1662.2,1594 1664.6,1591.5 1667.1,1589 1669.5,1586.2 1672,1583.3 1674.4,1580.2 1676.9,1576.9 1679.4,1573.5 1681.8,1569.9 1684.3,1566.2 1686.7,1562.3 1689.2,1558.3 1691.6,1554 1694.1,1549.7 1696.6,1545.2 1699,1540.5 1701.5,1535.7 1703.9,1530.7 1706.4,1525.6 1708.9,1520.3 1711.3,1514.9 1713.8,1509.3 1716.2,1503.7 1718.7,1497.8 1721.1,1491.9 1723.6,1485.8 1726.1,1479.6 1728.5,1473.2 1731,1466.8 1733.4,1460.2 1735.9,1453.5 1738.3,1446.7 1740.8,1439.7 1743.3,1432.7 1745.7,1425.5 1748.2,1418.3 1750.6,1410.9 1753.1,1403.5 1755.5,1395.9 1758,1388.3 1760.5,1380.6 1762.9,1372.7 1765.4,1364.8 1767.8,1356.9 1770.3,1348.8 1772.7,1340.7 1775.2,1332.5 1777.7,1324.3 1780.1,1316 1782.6,1307.6 1785,1299.2 1787.5,1290.8 1790,1282.2 1792.4,1273.7 1794.9,1265.1 1797.3,1256.5 1799.8,1247.9 1802.2,1239.2 1804.7,1230.5 1807.2,1221.8 1809.6,1213.1 1812.1,1204.4 1814.5,1195.7 1817,1186.9 1819.4,1178.2 1821.9,1169.5 1824.4,1160.8 1826.8,1152.1 1829.3,1143.5 1831.7,1134.9 1834.2,1126.3 1836.6,1117.7 1839.1,1109.2 1841.6,1100.7 1844,1092.3 1846.5,1083.9 1848.9,1075.6 1851.4,1067.3 1853.8,1059.1 1856.3,1051 1858.8,1042.9 1861.2,1034.9 1863.7,1027 1866.1,1019.2 1868.6,1011.5 1871.1,1003.9 1873.5,996.38 1876,988.96 1878.4,981.65 1880.9,974.45 1883.3,967.36 1885.8,960.4 1888.3,953.56 1890.7,946.84 1893.2,940.26 1895.6,933.81 1898.1,927.5 1900.5,921.34 1903,915.32 1905.5,909.45 1907.9,903.73 1910.4,898.18 1912.8,892.78 1915.3,887.55 1917.7,882.49 1920.2,877.6 1922.7,872.88 1925.1,868.34 1927.6,863.98 1930,859.81 1932.5,855.83 1935,852.03 1937.4,848.43 1939.9,845.02 1942.3,841.82 1944.8,838.81 1947.2,836.01 1949.7,833.42 1952.2,831.04 1954.6,828.86 1957.1,826.91 1959.5,825.17 1962,823.64 1964.4,822.34 1966.9,821.26 1969.4,820.41 1971.8,819.78 1974.3,819.38 1976.7,819.21 1979.2,819.27 1981.6,819.56 1984.1,820.09 1986.6,820.85 1989,821.85 1991.5,823.09 1993.9,824.56 1996.4,826.28 1998.8,828.23 2001.3,830.43 2003.8,832.86 2006.2,835.54 2008.7,838.47 2011.1,841.63 2013.6,845.04 2016.1,848.69 2018.5,852.58 2021,856.71 2023.4,861.09 2025.9,865.71 2028.3,870.57 2030.8,875.67 2033.3,881.02 2035.7,886.6 2038.2,892.42 2040.6,898.48 2043.1,904.78 2045.5,911.31 " stroke-width="4.8188" stroke-dasharray="4.8188, 14.456" />
<polyline points="2045.5,911.31 2048,918.07 2050.5,925.07 2052.9,932.3 2055.4,939.76 2057.8,947.45 2060.3,955.37 2062.7,963.51 2065.2,971.87 2067.7,980.45 2070.1,989.25 2072.6,998.27 2075,1007.5 2077.5,1016.9 2079.9,1026.6 2082.4,1036.4 2084.9,1046.5 2087.3,1056.8 2089.8,1067.2 2092.2,1077.9 2094.7,1088.7 2097.2,1099.7 2099.6,1110.9 2102.1,1122.3 2104.5,1133.9 2107,1145.6 2109.4,1157.5 2111.9,1169.6 2114.4,1181.9 2116.8,1194.3 2119.3,1206.8 2121.7,1219.5 2124.2,1232.4 2126.6,1245.3 2129.1,1258.5 2131.6,1271.7 2134,1285.1 2136.5,1298.6 2138.9,1312.3 2141.4,1326 2143.8,1339.8 2146.3,1353.8 2148.8,1367.9 2151.2,1382 2153.7,1396.3 2156.1,1410.6 2158.6,1425 2161,1439.5 2163.5,1454 2166,1468.6 2168.4,1483.3 2170.9,1498 2173.3,1512.8 2175.8,1527.6 2178.3,1542.5 2180.7,1557.4 2183.2,1572.3 2185.6,1587.2 2188.1,1602.1 2190.5,1617.1 2193,1632.1 2195.5,1647 2197.9,1662 2200.4,1676.9 2202.8,1691.8 2205.3,1706.7 2207.7,1721.6 2210.2,1736.4 2212.7,1751.2 2215.1,1765.9 2217.6,1780.6 2220,1795.2 2222.5,1809.8 2224.9,1824.3 2227.4,1838.7 2229.9,1853 2232.3,1867.2 2234.8,1881.4 2237.2,1895.4 2239.7,1909.4 2242.2,1923.2 2244.6,1936.9 2247.1,1950.5 2249.5,1964 2252,1977.3 2254.4,1990.5 2256.9,2003.6 2259.4,2016.5 2261.8,2029.2 2264.3,2041.8 2266.7,2054.2 2269.2,2066.5 2271.6,2078.6 2274.1,2090.5 2276.6,2102.2 2279,2113.7 2281.5,2125.1 2283.9,2136.2 2286.4,2147.1 2288.8,2157.8 2291.3,2168.3 2293.8,2178.6 2296.2,2188.7 2298.7,2198.5 2301.1,2208.1 2303.6,2217.5 2306,2226.7 2308.5,2235.5 2311,2244.2 2313.4,2252.6 2315.9,2260.7 2318.3,2268.6 2320.8,2276.2 2323.3,2283.6 2325.7,2290.6 2328.2,2297.4 2330.6,2304 2333.1,2310.2 2335.5,2316.2 2338,2321.9 2340.5,2327.3 2342.9,2332.4 2345.4,2337.2 2347.8,2341.7 2350.3,2346 2352.7,2349.9 2355.2,2353.5 2357.7,2356.8 2360.1,2359.8 2362.6,2362.6 2365,2365 2367.5,2367.1 2369.9,2368.8 2372.4,2370.3 2374.9,2371.5 2377.3,2372.3 2379.8,2372.8 2382.2,2373 2384.7,2372.9 2387.1,2372.5 2389.6,2371.8 2392.1,2370.7 2394.5,2369.3 2397,2367.6 2399.4,2365.6 2401.9,2363.3 2404.4,2360.6 2406.8,2357.7 2409.3,2354.4 2411.7,2350.8 2414.2,2346.9 2416.6,2342.7 2419.1,2338.2 2421.6,2333.4 2424,2328.2 2426.5,2322.8 2428.9,2317 2431.4,2311 2433.8,2304.6 2436.3,2298 2438.8,2291 2441.2,2283.8 2443.7,2276.3 2446.1,2268.4 2448.6,2260.3 2451,2252 2453.5,2243.3 2456,2234.4 2458.4,2225.1 2460.9,2215.7 2463.3,2205.9 2465.8,2195.9 2468.2,2185.6 2470.7,2175.1 2473.2,2164.4 2475.6,2153.3 2478.1,2142.1 2480.5,2130.6 2483,2118.9 2485.5,2106.9 2487.9,2094.7 2490.4,2082.4 2492.8,2069.7 2495.3,2056.9 2497.7,2043.9 2500.2,2030.7 2502.7,2017.3 2505.1,2003.7 2507.6,1989.9 2510,1976 2512.5,1961.8 2514.9,1947.6 2517.4,1933.1 2519.9,1918.5 2522.3,1903.8 2524.8,1888.9 2527.2,1873.9 2529.7,1858.7 2532.1,1843.4 2534.6,1828.1 2537.1,1812.6 2539.5,1797 2542,1781.3 2544.4,1765.5 2546.9,1749.6 2549.4,1733.7 2551.8,1717.7 2554.3,1701.6 2556.7,1685.5 2559.2,1669.3 2561.6,1653.1 2564.1,1636.9 2566.6,1620.6 2569,1604.3 2571.5,1588 2573.9,1571.7 2576.4,1555.4 2578.8,1539.1 2581.3,1522.8 2583.8,1506.5 2586.2,1490.3 2588.7,1474.1 2591.1,1457.9 2593.6,1441.8 2596,1425.8 2598.5,1409.8 2601,1393.9 2603.4,1378.1 2605.9,1362.3 2608.3,1346.7 2610.8,1331.1 2613.2,1315.7 2615.7,1300.4 2618.2,1285.2 2620.6,1270.2 2623.1,1255.2 2625.5,1240.5 2628,1225.8 2630.5,1211.4 2632.9,1197.1 2635.4,1182.9 2637.8,1169 2640.3,1155.2 2642.7,1141.6 2645.2,1128.2 2647.7,1115.1 2650.1,1102.1 2652.6,1089.4 2655,1076.8 2657.5,1064.5 2659.9,1052.5 2662.4,1040.7 2664.9,1029.1 2667.3,1017.8 2669.8,1006.7 2672.2,995.96 2674.7,985.44 2677.1,975.2 2679.6,965.24 2682.1,955.57 2684.5,946.2 2687,937.12 2689.4,928.34 2691.9,919.87 2694.3,911.71 2696.8,903.87 2699.3,896.35 2701.7,889.15 2704.2,882.29 2706.6,875.76 2709.1,869.57 2711.6,863.71 2714,858.21 2716.5,853.05 2718.9,848.25 2721.4,843.81 2723.8,839.72 2726.3,835.99 2728.8,832.64 2731.2,829.65 2733.7,827.03 2736.1,824.78 2738.6,822.91 2741,821.42 2743.5,820.31 2746,819.58 2748.4,819.23 2750.9,819.27 2753.3,819.7 2755.8,820.51 2758.2,821.71 2760.7,823.31 2763.2,825.29 2765.6,827.67 2768.1,830.44 2770.5,833.6 2773,837.16 2775.4,841.11 2777.9,845.45 2780.4,850.18 2782.8,855.31 2785.3,860.82 2787.7,866.73 2790.2,873.03 2792.7,879.71 2795.1,886.79 2797.6,894.25 2800,902.09 2802.5,910.32 2804.9,918.92 2807.4,927.91 2809.9,937.27 2812.3,947.01 2814.8,957.12 2817.2,967.6 2819.7,978.44 2822.1,989.64 2824.6,1001.2 2827.1,1013.1 2829.5,1025.4 2832,1038 2834.4,1051 2836.9,1064.3 2839.3,1078 2841.8,1091.9 2844.3,1106.3 2846.7,1120.9 2849.2,1135.9 2851.6,1151.1 2854.1,1166.7 2856.6,1182.6 2859,1198.8 2861.5,1215.3 2863.9,1232 2866.4,1249.1 2868.8,1266.4 2871.3,1284 2873.8,1301.9 2876.2,1320 2878.7,1338.4 2881.1,1357 2883.6,1375.9 2886,1395 2888.5,1414.3 2891,1433.9 2893.4,1453.6 2895.9,1473.6 2898.3,1493.8 2900.8,1514.1 2903.2,1534.7 2905.7,1555.4 2908.2,1576.3 2910.6,1597.3 2913.1,1618.5 2915.5,1639.9 2918,1661.4 2920.4,1683 2922.9,1704.8 2925.4,1726.6 2927.8,1748.6 2930.3,1770.7 2932.7,1792.8 2935.2,1815.1 2937.7,1837.4 2940.1,1859.8 2942.6,1882.2 2945,1904.7 2947.5,1927.2 2949.9,1949.8 2952.4,1972.4 2954.9,1995 2957.3,2017.6 2959.8,2040.2 2962.2,2062.7 2964.7,2085.3 2967.1,2107.8 2969.6,2130.3 2972.1,2152.8 2974.5,2175.2 2977,2197.5 2979.4,2219.8 2981.9,2242 2984.3,2264.1 2986.8,2286.1 2989.3,2307.9 2991.7,2329.7 2994.2,2351.4 2996.6,2372.9 2999.1,2394.2 3001.5,2415.5 3004,2436.5 3006.5,2457.4 3008.9,2478.1 3011.4,2498.7 3013.8,2519 3016.3,2539.2 3018.8,2559.1 3021.2,2578.8 3023.7,2598.3 3026.1,2617.6 3028.6,2636.6 3031,2655.4 3033.5,2673.9 3036,2692.2 3038.4,2710.1 3040.9,2727.9 3043.3,2745.3 3045.8,2762.4 3048.2,2779.3 3050.7,2795.8 3053.2,2812 3055.6,2827.9 3058.1,2843.5 3060.5,2858.7 3063,2873.6 3065.4,2888.2 3067.9,2902.4 3070.4,2916.2 3072.8,2929.7 3075.3,2942.8 3077.7,2955.5 3080.2,2967.9 3082.6,2979.8 3085.1,2991.4 3087.6,3002.6 3090,3013.4 3092.5,3023.7 3094.9,3033.7 3097.4,3043.3 3099.9,3052.4 3102.3,3061.1 3104.8,3069.4 3107.2,3077.2 3109.7,3084.6 3112.1,3091.6 3114.6,3098.1 3117.1,3104.2 3119.5,3109.9 3122,3115.1 3124.4,3119.8 3126.9,3124.1 3129.3,3127.9 3131.8,3131.3 3134.3,3134.2 3136.7,3136.7 3139.2,3138.6 3141.6,3140.2 3144.1,3141.2 3146.5,3141.8 3149,3141.9 3151.5,3141.6 3153.9,3140.7 3156.4,3139.4 3158.8,3137.7 3161.3,3135.5 3163.8,3132.8 3166.2,3129.6 3168.7,3126 3171.1,3121.9 3173.6,3117.3 3176,3112.3 3178.5,3106.8 3181,3100.9 3183.4,3094.4 3185.9,3087.6 3188.3,3080.3 3190.8,3072.5 3193.2,3064.3 3195.7,3055.6 3198.2,3046.5 3200.6,3037 3203.1,3027 3205.5,3016.6 3208,3005.8 3210.4,2994.5 3212.9,2982.8 3215.4,2970.7 3217.8,2958.2 3220.3,2945.3 3222.7,2932 3225.2,2918.3 3227.6,2904.2 3230.1,2889.7 3232.6,2874.8 3235,2859.6 3237.5,2844 3239.9,2828 3242.4,2811.7 3244.9,2795 3247.3,2777.9 3249.8,2760.6 3252.2,2742.9 3254.7,2724.9 3257.1,2706.6 3259.6,2687.9 3262.1,2669 3264.5,2649.7 3267,2630.2 3269.4,2610.4 3271.9,2590.4 " stroke-width="4.8188" stroke-dasharray="4.8188, 14.456" />
<line x1="3271.9" y1="2590.4" x2="3274.3" y2="2570" stroke-width="4.8188" stroke-dasharray="4.8188, 14.456" />
<polyline points="819.2,819.2 830.31,822.44 841.43,825.69 852.54,828.93 863.66,832.18 874.77,835.42 885.89,838.67 897,841.91 908.12,845.16 919.23,848.4 930.35,851.65 941.46,854.89 952.58,858.14 963.69,861.38 974.81,864.63 985.92,867.87 997.04,871.12 1008.2,874.36 1019.3,877.6 1030.4,880.85 1041.5,884.09 1052.6,887.34 1063.7,890.58 1074.8,891.48 1086,892.09 1097.1,892.69 1108.2,893.3 1119.3,893.9 1130.4,894.51 1141.5,895.11 1152.6,895.72 1163.8,896.32 1174.9,896.93 1186,897.53 1197.1,898.14 1208.2,898.74 1219.3,899.35 1230.4,899.95 1241.6,900.56 1252.7,901.16 1263.8,901.77 1274.9,902.37 1286,902.98 1297.1,903.58 1308.3,904.19 1319.4,926.74 1330.5,955.57 1341.6,984.41 1352.7,1013.2 1363.8,1042.1 1374.9,1070.9 1386.1,1099.7 1397.2,1128.6 1408.3,1157.4 1419.4,1186.2 1430.5,1215.1 1441.6,1243.9 1452.7,1272.7 1463.9,1301.5 1475,1330.4 1486.1,1359.2 1497.2,1388 1508.3,1416.9 1519.4,1445.7 1530.5,1474.5 1541.7,1503.4 1552.8,1532.2 1563.9,1532.7 1575,1519 1586.1,1505.3 1597.2,1491.6 1608.4,1477.9 1619.5,1464.2 1630.6,1450.6 1641.7,1436.9 1652.8,1423.2 1663.9,1409.5 1675,1395.8 1686.2,1382.1 1697.3,1368.5 1708.4,1354.8 1719.5,1341.1 1730.6,1327.4 1741.7,1313.7 1752.8,1300 1764,1286.3 1775.1,1272.7 1786.2,1259 1797.3,1245.3 1808.4,1231.1 1819.5,1216.6 1830.6,1202.1 1841.8,1187.6 1852.9,1173 1864,1158.5 1875.1,1144 1886.2,1129.5 1897.3,1114.9 1908.4,1100.4 1919.6,1085.9 1930.7,1071.4 1941.8,1056.9 1952.9,1042.3 1964,1027.8 1975.1,1013.3 1986.3,998.76 1997.4,984.24 2008.5,969.71 2019.6,955.19 2030.7,940.67 2041.8,926.14 2052.9,943.41 2064.1,1000.4 2075.2,1057.4 2086.3,1114.4 2097.4,1171.5 2108.5,1228.5 2119.6,1285.5 2130.7,1342.5 2141.9,1399.5 2153,1456.5 2164.1,1513.5 2175.2,1570.5 2186.3,1627.5 2197.4,1684.5 2208.5,1741.6 2219.7,1798.6 2230.8,1855.6 2241.9,1912.6 2253,1969.6 2264.1,2026.6 2275.2,2083.6 2286.4,2140.6 2297.5,2172.9 2308.6,2155.6 2319.7,2138.4 2330.8,2121.1 2341.9,2103.8 2353,2086.6 2364.2,2069.3 2375.3,2052.1 2386.4,2034.8 2397.5,2017.5 2408.6,2000.3 2419.7,1983 2430.8,1965.8 2442,1948.5 2453.1,1931.2 2464.2,1914 2475.3,1896.7 2486.4,1879.4 2497.5,1862.2 2508.6,1844.9 2519.8,1827.7 2530.9,1810.4 2542,1787.6 2553.1,1745.2 2564.2,1702.9 2575.3,1660.6 2586.4,1618.2 2597.6,1575.9 2608.7,1533.5 2619.8,1491.2 2630.9,1448.9 2642,1406.5 2653.1,1364.2 2664.3,1321.8 2675.4,1279.5 2686.5,1237.2 2697.6,1194.8 2708.7,1152.5 2719.8,1110.2 2730.9,1067.8 2742.1,1025.5 2753.2,983.13 2764.3,940.8 2775.4,898.46 2786.5,869.84 2797.6,951 2808.7,1032.2 2819.9,1113.3 2831,1194.5 2842.1,1275.6 2853.2,1356.8 2864.3,1438 2875.4,1519.1 2886.5,1600.3 2897.7,1681.4 2908.8,1762.6 2919.9,1843.8 2931,1924.9 2942.1,2006.1 2953.2,2087.3 2964.4,2168.4 2975.5,2249.6 2986.6,2330.7 2997.7,2411.9 3008.8,2493.1 3019.9,2574.2 3031,2655.4 " stroke-width="4.8188" />
</g>
</svg>
