<?xml version="1.0" encoding="ISO-8859-1" standalone="no"?>
<!DOCTYPE svg PUBLIC "-//W3C//DTD SVG 1.1//EN" "http://www.w3.org/Graphics/SVG/1.1/DTD/svg11.dtd">
<svg version="1.1" baseProfile="full" id="body" width="8in" height="8in" viewBox="0 0 1 1" preserveAspectRatio="none" xmlns="http://www.w3.org/2000/svg" xmlns:xlink="http://www.w3.org/1999/xlink" xmlns:ev="http://www.w3.org/2001/xml-events">
<title>SVG drawing</title>
<desc>This was produced by version 4.4 of GNU libplot, a free library for exporting 2-D vector graphics.</desc>
<rect id="background" x="0" y="0" width="1" height="1" stroke="none" fill="white"/>
<g id="content" transform="translate(0,1) scale(1,-1) scale(0.00024414) " xml:space="preserve" stroke="black" stroke-linecap="butt" stroke-linejoin="miter" stroke-miterlimit="10.433" stroke-dasharray="none" stroke-dashoffset="0" stroke-opacity="1" fill="none" fill-rule="evenodd" fill-opacity="1" font-style="normal" font-variant="normal" font-weight="normal" font-stretch="normal" font-size-adjust="none" letter-spacing="normal" word-spacing="normal" text-anchor="start">
<text transform="translate(1804.2,3451.9) scale(1,-1) scale(8.6016) " font-family="Helvetica,sans-serif" font-size="20px" stroke="none" fill="black" >lspline</text>
<rect x="819.2" y="819.2" width="2457.6" height="2457.6" stroke-width="4.8188" />
<text transform="translate(783.33,662.21) scale(1,-1) scale(6.4512) " font-family="Helvetica,sans-serif" font-size="20px" stroke="none" fill="black" >0</text>
<line x1="819.2" y1="3276.8" x2="819.2" y2="3227.6" stroke-width="4.8188" />
<line x1="819.2" y1="819.2" x2="819.2" y2="868.35" stroke-width="4.8188" />
<text transform="translate(1274.9,662.21) scale(1,-1) scale(6.4512) " font-family="Helvetica,sans-serif" font-size="20px" stroke="none" fill="black" >2</text>
<line x1="1310.7" y1="3276.8" x2="1310.7" y2="3227.6" stroke-width="4.8188" />
<line x1="1310.7" y1="819.2" x2="1310.7" y2="868.35" stroke-width="4.8188" />
<text transform="translate(1766.4,662.21) scale(1,-1) scale(6.4512) " font-family="Helvetica,sans-serif" font-size="20px" stroke="none" fill="black" >4</text>
<line x1="1802.2" y1="3276.8" x2="1802.2" y2="3227.6" stroke-width="4.8188" />
<line x1="1802.2" y1="819.2" x2="1802.2" y2="868.35" stroke-width="4.8188" />
<text transform="translate(2257.9,662.21) scale(1,-1) scale(6.4512) " font-family="Helvetica,sans-serif" font-size="20px" stroke="none" fill="black" >6</text>
<line x1="2293.8" y1="3276.8" x2="2293.8" y2="3227.6" stroke-width="4.8188" />
<line x1="2293.8" y1="819.2" x2="2293.8" y2="868.35" stroke-width="4.8188" />
<text transform="translate(2749.4,662.21) scale(1,-1) scale(6.4512) " font-family="Helvetica,sans-serif" font-size="20px" stroke="none" fill="black" >8</text>
<line x1="2785.3" y1="3276.8" x2="2785.3" y2="3227.6" stroke-width="4.8188" />
<line x1="2785.3" y1="819.2" x2="2785.3" y2="868.35" stroke-width="4.8188" />
<text transform="translate(3205.1,662.21) scale(1,-1) scale(6.4512) " font-family="Helvetica,sans-serif" font-size="20px" stroke="none" fill="black" >10</text>
<line x1="3276.8" y1="3276.8" x2="3276.8" y2="3227.6" stroke-width="4.8188" />
<line x1="3276.8" y1="819.2" x2="3276.8" y2="868.35" stroke-width="4.8188" />
<line x1="819.2" y1="3276.8" x2="819.2" y2="3257.1" stroke-width="4.8188" />
<line x1="819.2" y1="819.2" x2="819.2" y2="838.86" stroke-width="4.8188" />
<line x1="1065" y1="3276.8" x2="1065" y2="3257.1" stroke-width="4.8188" />
<line x1="1065" y1="819.2" x2="1065" y2="838.86" stroke-width="4.8188" />
<line x1="1310.7" y1="3276.8" x2="1310.7" y2="3257.1" stroke-width="4.8188" />
<line x1="1310.7" y1="819.2" x2="1310.7" y2="838.86" stroke-width="4.8188" />
<line x1="1556.5" y1="3276.8" x2="1556.5" y2="3257.1" stroke-width="4.8188" />
<line x1="1556.5" y1="819.2" x2="1556.5" y2="838.86" stroke-width="4.8188" />
<line x1="1802.2" y1="3276.8" x2="1802.2" y2="3257.1" stroke-width="4.8188" />
<line x1="1802.2" y1="819.2" x2="1802.2" y2="838.86" stroke-width="4.8188" />
<line x1="2048" y1="3276.8" x2="2048" y2="3257.1" stroke-width="4.8188" />
<line x1="2048" y1="819.2" x2="2048" y2="838.86" stroke-width="4.8188" />
<line x1="2293.8" y1="3276.8" x2="2293.8" y2="3257.1" stroke-width="4.8188" />
<line x1="2293.8" y1="819.2" x2="2293.8" y2="838.86" stroke-width="4.8188" />
<line x1="2539.5" y1="3276.8" x2="2539.5" y2="3257.1" stroke-width="4.8188" />
<line x1="2539.5" y1="819.2" x2="2539.5" y2="838.86" stroke-width="4.8188" />
<line x1="2785.3" y1="3276.8" x2="2785.3" y2="3257.1" stroke-width="4.8188" />
<line x1="2785.3" y1="819.2" x2="2785.3" y2="838.86" stroke-width="4.8188" />
<line x1="3031" y1="3276.8" x2="3031" y2="3257.1" stroke-width="4.8188" />
<line x1="3031" y1="819.2" x2="3031" y2="838.86" stroke-width="4.8188" />
<line x1="3276.8" y1="3276.8" x2="3276.8" y2="3257.1" stroke-width="4.8188" />
<line x1="3276.8" y1="819.2" x2="3276.8" y2="838.86" stroke-width="4.8188" />
<text transform="translate(527.64,773.65) scale(1,-1) scale(6.4512) " font-family="Helvetica,sans-serif" font-size="20px" stroke="none" fill="black" >-0.5</text>
<line x1="3276.8" y1="819.2" x2="3227.6" y2="819.2" stroke-width="4.8188" />
<line x1="819.2" y1="819.2" x2="868.35" y2="819.2" stroke-width="4.8188" />
<text transform="translate(602.99,1124.7) scale(1,-1) scale(6.4512) " font-family="Helvetica,sans-serif" font-size="20px" stroke="none" fill="black" >0.0</text>
<line x1="3276.8" y1="1170.3" x2="3227.6" y2="1170.3" stroke-width="4.8188" />
<line x1="819.2" y1="1170.3" x2="868.35" y2="1170.3" stroke-width="4.8188" />
<text transform="translate(602.99,1475.8) scale(1,-1) scale(6.4512) " font-family="Helvetica,sans-serif" font-size="20px" stroke="none" fill="black" >0.5</text>
<line x1="3276.8" y1="1521.4" x2="3227.6" y2="1521.4" stroke-width="4.8188" />
<line x1="819.2" y1="1521.4" x2="868.35" y2="1521.4" stroke-width="4.8188" />
<text transform="translate(602.99,1826.9) scale(1,-1) scale(6.4512) " font-family="Helvetica,sans-serif" font-size="20px" stroke="none" fill="black" >1.0</text>
<line x1="3276.8" y1="1872.5" x2="3227.6" y2="1872.5" stroke-width="4.8188" />
<line x1="819.2" y1="1872.5" x2="868.35" y2="1872.5" stroke-width="4.8188" />
<text transform="translate(602.99,2178) scale(1,-1) scale(6.4512) " font-family="Helvetica,sans-serif" font-size="20px" stroke="none" fill="black" >1.5</text>
<line x1="3276.8" y1="2223.5" x2="3227.6" y2="2223.5" stroke-width="4.8188" />
<line x1="819.2" y1="2223.5" x2="868.35" y2="2223.5" stroke-width="4.8188" />
<text transform="translate(602.99,2529.1) scale(1,-1) scale(6.4512) " font-family="Helvetica,sans-serif" font-size="20px" stroke="none" fill="black" >2.0</text>
<line x1="3276.8" y1="2574.6" x2="3227.6" y2="2574.6" stroke-width="4.8188" />
<line x1="819.2" y1="2574.6" x2="868.35" y2="2574.6" stroke-width="4.8188" />
<text transform="translate(602.99,2880.2) scale(1,-1) scale(6.4512) " font-family="Helvetica,sans-serif" font-size="20px" stroke="none" fill="black" >2.5</text>
<line x1="3276.8" y1="2925.7" x2="3227.6" y2="2925.7" stroke-width="4.8188" />
<line x1="819.2" y1="2925.7" x2="868.35" y2="2925.7" stroke-width="4.8188" />
<text transform="translate(602.99,3231.3) scale(1,-1) scale(6.4512) " font-family="Helvetica,sans-serif" font-size="20px" stroke="none" fill="black" >3.0</text>
<line x1="3276.8" y1="3276.8" x2="3227.6" y2="3276.8" stroke-width="4.8188" />
<line x1="819.2" y1="3276.8" x2="868.35" y2="3276.8" stroke-width="4.8188" />
<line x1="819.2" y1="1170.3" x2="3276.8" y2="1170.3" stroke-width="4.8188" stroke-dasharray="4.8188, 14.456" />
<text transform="translate(2015.7,501.24) scale(1,-1) scale(6.4512) " font-family="Helvetica,sans-serif" font-size="20px" stroke="none" fill="black" >x</text>
<text transform="matrix(0 6.4512 6.4512 0 424.93 2015.7) " font-family="Helvetica,sans-serif" font-size="20px" stroke="none" fill="black" >y</text>
<circle cx="819.2" cy="1732" r="23.04" stroke-width="2.304" />
<circle cx="1065" cy="1151.5" r="23.04" stroke-width="2.304" />
<circle cx="1310.7" cy="1329.9" r="23.04" stroke-width="2.304" />
<circle cx="1556.5" cy="1677.2" r="23.04" stroke-width="2.304" />
<circle cx="1802.2" cy="1044.7" r="23.04" stroke-width="2.304" />
<circle cx="2048" cy="1524.2" r="23.04" stroke-width="2.304" />
<circle cx="2293.8" cy="1529.9" r="23.04" stroke-width="2.304" />
<circle cx="2539.5" cy="1043" r="23.04" stroke-width="2.304" />
<circle cx="2785.3" cy="1673.8" r="23.04" stroke-width="2.304" />
<circle cx="3031" cy="1336" r="23.04" stroke-width="2.304" />
<polyline points="819.2,1732 831.49,1725 843.78,1704.3 856.06,1670.7 868.35,1625.5 880.64,1570.6 892.93,1508.2 905.22,1440.6 917.5,1370.7 929.79,1301.2 942.08,1234.8 954.37,1174.3 966.66,1122 978.94,1080.1 991.23,1050.1 1003.5,1033.4 1015.8,1030.5 1028.1,1041.5 1040.4,1066.1 1052.7,1103.2 1065,1151.5 1077.2,1208.8 1089.5,1273 1101.8,1341.6 1114.1,1411.7 1126.4,1480.5 1138.7,1545.4 1151,1603.8 1163.3,1653.2 1175.6,1691.8 1187.8,1718 1200.1,1730.8 1212.4,1729.6 1224.7,1714.6 1237,1686.2 1249.3,1645.6 1261.6,1594.5 1273.9,1534.9 1286.1,1469.2 1298.4,1399.9 1310.7,1329.9 1323,1261.9 1335.3,1198.6 1347.6,1142.6 1359.9,1096.2 1372.2,1061.1 1384.4,1038.7 1396.7,1030 1409,1035.2 1421.3,1054.3 1433.6,1086.4 1445.9,1130.2 1458.2,1184 1470.5,1245.7 1482.8,1312.7 1495,1382.5 1507.3,1452.2 1519.6,1519.1 1531.9,1580.5 1544.2,1633.9 1556.5,1677.2 1568.8,1708.7 1581.1,1727.2 1593.3,1731.8 1605.6,1722.5 1617.9,1699.5 1630.2,1663.9 1642.5,1616.9 1654.8,1560.6 1667.1,1497.1 1679.4,1428.9 1691.6,1358.9 1703.9,1289.7 1716.2,1224.2 1728.5,1164.9 1740.8,1114.2 1753.1,1074.2 1765.4,1046.4 1777.7,1031.9 1790,1031.3 1802.2,1044.7 1814.5,1071.5 1826.8,1110.6 1839.1,1160.5 1851.4,1219.2 1863.7,1284.3 1876,1353.3 1888.3,1423.4 1900.5,1491.8 1912.8,1555.8 1925.1,1612.8 1937.4,1660.5 1949.7,1697.1 1962,1721.1 1974.3,1731.6 1986.6,1728.1 1998.8,1710.7 2011.1,1680.2 2023.4,1637.7 2035.7,1585 2048,1524.2 2060.3,1457.7 2072.6,1388.1 2084.9,1318.2 2097.2,1250.8 2109.4,1188.6 2121.7,1134.1 2134,1089.4 2146.3,1056.4 2158.6,1036.2 2170.9,1029.9 2183.2,1037.5 2195.5,1058.8 2207.7,1092.9 2220,1138.6 2232.3,1193.9 2244.6,1256.6 2256.9,1324.3 2269.2,1394.3 2281.5,1463.7 2293.8,1529.9 2306,1590.1 2318.3,1641.9 2330.6,1683.4 2342.9,1712.8 2355.2,1728.9 2367.5,1731.2 2379.8,1719.6 2392.1,1694.4 2404.4,1656.7 2416.6,1608.1 2428.9,1550.3 2441.2,1485.9 2453.5,1417.2 2465.8,1347.1 2478.1,1278.4 2490.4,1213.7 2502.7,1155.7 2514.9,1106.7 2527.2,1068.6 2539.5,1043 2551.8,1030.8 2564.1,1032.6 2576.4,1048.3 2588.7,1077.3 2601,1118.3 2613.2,1169.8 2625.5,1229.8 2637.8,1295.7 2650.1,1365.1 2662.4,1435.1 2674.7,1502.9 2687,1565.9 2699.3,1621.5 2711.6,1667.5 2723.8,1702.1 2736.1,1723.9 2748.4,1732 2760.7,1726.1 2773,1706.4 2785.3,1673.8 2797.6,1629.5 2809.9,1575.3 2822.1,1513.4 2834.4,1446.1 2846.7,1376.3 2859,1306.6 2871.3,1239.9 2883.6,1178.9 2895.9,1125.9 2908.2,1083 2920.4,1052.1 2932.7,1034.2 2945,1030.2 2957.3,1040.1 2969.6,1063.7 2981.9,1099.9 2994.2,1147.2 3006.5,1204 3018.8,1267.7 3031,1336 3043.3,1406.1 3055.6,1475.2 3067.9,1540.5 3080.2,1599.4 3092.5,1649.7 3104.8,1689.2 3117.1,1716.4 3129.3,1730.3 3141.6,1730.2 3153.9,1716.2 3166.2,1688.9 3178.5,1649.3 3190.8,1598.9 3203.1,1539.9 3215.4,1474.6 3227.6,1405.5 3239.9,1335.4 3252.2,1267.1 3264.5,1203.4 " stroke-width="4.8188" stroke-dasharray="4.8188, 14.456" />
<polyline points="819.2,1732 830.31,1705.8 841.43,1679.5 852.54,1653.3 863.66,1627 874.77,1600.7 885.89,1574.5 897,1548.2 908.12,1522 919.23,1495.7 930.35,1469.5 941.46,1443.2 952.58,1416.9 963.69,1390.7 974.81,1364.4 985.92,1338.2 997.04,1311.9 1008.2,1285.7 1019.3,1259.4 1030.4,1233.1 1041.5,1206.9 1052.6,1180.6 1063.7,1154.4 1074.8,1158.6 1086,1166.7 1097.1,1174.8 1108.2,1182.8 1119.3,1190.9 1130.4,1199 1141.5,1207 1152.6,1215.1 1163.8,1223.2 1174.9,1231.2 1186,1239.3 1197.1,1247.4 1208.2,1255.4 1219.3,1263.5 1230.4,1271.6 1241.6,1279.7 1252.7,1287.7 1263.8,1295.8 1274.9,1303.9 1286,1311.9 1297.1,1320 1308.3,1328.1 1319.4,1342.1 1330.5,1357.8 1341.6,1373.5 1352.7,1389.2 1363.8,1404.9 1374.9,1420.6 1386.1,1436.3 1397.2,1452 1408.3,1467.7 1419.4,1483.5 1430.5,1499.2 1441.6,1514.9 1452.7,1530.6 1463.9,1546.3 1475,1562 1486.1,1577.7 1497.2,1593.4 1508.3,1609.1 1519.4,1624.8 1530.5,1640.5 1541.7,1656.3 1552.8,1672 1563.9,1658.1 1575,1629.5 1586.1,1600.9 1597.2,1572.3 1608.4,1543.7 1619.5,1515.1 1630.6,1486.5 1641.7,1457.9 1652.8,1429.3 1663.9,1400.7 1675,1372.1 1686.2,1343.5 1697.3,1314.9 1708.4,1286.3 1719.5,1257.7 1730.6,1229.1 1741.7,1200.5 1752.8,1171.8 1764,1143.2 1775.1,1114.6 1786.2,1086 1797.3,1057.4 1808.4,1056.8 1819.5,1078.4 1830.6,1100.1 1841.8,1121.8 1852.9,1143.5 1864,1165.2 1875.1,1186.9 1886.2,1208.6 1897.3,1230.2 1908.4,1251.9 1919.6,1273.6 1930.7,1295.3 1941.8,1317 1952.9,1338.7 1964,1360.4 1975.1,1382 1986.3,1403.7 1997.4,1425.4 2008.5,1447.1 2019.6,1468.8 2030.7,1490.5 2041.8,1512.2 2052.9,1524.3 2064.1,1524.6 2075.2,1524.8 2086.3,1525.1 2097.4,1525.3 2108.5,1525.6 2119.6,1525.9 2130.7,1526.1 2141.9,1526.4 2153,1526.6 2164.1,1526.9 2175.2,1527.1 2186.3,1527.4 2197.4,1527.6 2208.5,1527.9 2219.7,1528.2 2230.8,1528.4 2241.9,1528.7 2253,1528.9 2264.1,1529.2 2275.2,1529.4 2286.4,1529.7 2297.5,1522.5 2308.6,1500.5 2319.7,1478.5 2330.8,1456.5 2341.9,1434.4 2353,1412.4 2364.2,1390.4 2375.3,1368.4 2386.4,1346.4 2397.5,1324.3 2408.6,1302.3 2419.7,1280.3 2430.8,1258.3 2442,1236.3 2453.1,1214.2 2464.2,1192.2 2475.3,1170.2 2486.4,1148.2 2497.5,1126.2 2508.6,1104.1 2519.8,1082.1 2530.9,1060.1 2542,1049.3 2553.1,1077.9 2564.2,1106.4 2575.3,1134.9 2586.4,1163.4 2597.6,1192 2608.7,1220.5 2619.8,1249 2630.9,1277.6 2642,1306.1 2653.1,1334.6 2664.3,1363.2 2675.4,1391.7 2686.5,1420.2 2697.6,1448.7 2708.7,1477.3 2719.8,1505.8 2730.9,1534.3 2742.1,1562.9 2753.2,1591.4 2764.3,1619.9 2775.4,1648.5 2786.5,1672.1 2797.6,1656.8 2808.7,1641.6 2819.9,1626.3 2831,1611 2842.1,1595.7 2853.2,1580.5 2864.3,1565.2 2875.4,1549.9 2886.5,1534.6 2897.7,1519.3 2908.8,1504.1 2919.9,1488.8 2931,1473.5 2942.1,1458.2 2953.2,1443 2964.4,1427.7 2975.5,1412.4 2986.6,1397.1 2997.7,1381.8 3008.8,1366.6 3019.9,1351.3 3031,1336 " stroke-width="4.8188" />
<polyline points="819.2,1170.3 830.31,1195.1 841.43,1218.7 852.54,1241.2 863.66,1262.4 874.77,1282.5 885.89,1301.3 897,1319 908.12,1335.5 919.23,1350.8 930.35,1365 941.46,1377.9 952.58,1389.6 963.69,1400.2 974.81,1409.6 985.92,1417.8 997.04,1424.8 1008.2,1430.6 1019.3,1435.2 1030.4,1438.6 1041.5,1440.9 1052.6,1442 1063.7,1441.8 1074.8,1441.1 1086,1440.8 1097.1,1440.8 1108.2,1441.2 1119.3,1441.9 1130.4,1443 1141.5,1444.5 1152.6,1446.4 1163.8,1448.6 1174.9,1451.2 1186,1454.1 1197.1,1457.4 1208.2,1461.1 1219.3,1465.1 1230.4,1469.5 1241.6,1474.3 1252.7,1479.4 1263.8,1484.9 1274.9,1490.7 1286,1497 1297.1,1503.6 1308.3,1510.5 1319.4,1517.9 1330.5,1526.1 1341.6,1534.9 1352.7,1544.4 1363.8,1554.7 1374.9,1565.7 1386.1,1577.3 1397.2,1589.7 1408.3,1602.8 1419.4,1616.6 1430.5,1631.1 1441.6,1646.4 1452.7,1662.3 1463.9,1679 1475,1696.3 1486.1,1714.4 1497.2,1733.2 1508.3,1752.7 1519.4,1772.9 1530.5,1793.8 1541.7,1815.4 1552.8,1837.7 1563.9,1860.3 1575,1881.8 1586.1,1901.9 1597.2,1920.7 1608.4,1938.3 1619.5,1954.5 1630.6,1969.4 1641.7,1983.1 1652.8,1995.5 1663.9,2006.5 1675,2016.3 1686.2,2024.8 1697.3,2032 1708.4,2037.9 1719.5,2042.5 1730.6,2045.8 1741.7,2047.8 1752.8,2048.5 1764,2047.9 1775.1,2046 1786.2,2042.9 1797.3,2038.4 1808.4,2033 1819.5,2028.4 1830.6,2024.7 1841.8,2022 1852.9,2020.3 1864,2019.6 1875.1,2019.9 1886.2,2021.1 1897.3,2023.3 1908.4,2026.5 1919.6,2030.7 1930.7,2035.9 1941.8,2042 1952.9,2049.1 1964,2057.3 1975.1,2066.3 1986.3,2076.4 1997.4,2087.5 2008.5,2099.5 2019.6,2112.5 2030.7,2126.5 2041.8,2141.5 2052.9,2157.3 2064.1,2173.3 2075.2,2189.4 2086.3,2205.4 2097.4,2221.5 2108.5,2237.5 2119.6,2253.6 2130.7,2269.7 2141.9,2285.8 2153,2301.9 2164.1,2318 2175.2,2334.1 2186.3,2350.3 2197.4,2366.4 2208.5,2382.6 2219.7,2398.8 2230.8,2415 2241.9,2431.2 2253,2447.4 2264.1,2463.6 2275.2,2479.9 2286.4,2496.1 2297.5,2512.3 2308.6,2527.7 2319.7,2542.2 2330.8,2555.6 2341.9,2568.1 2353,2579.5 2364.2,2590 2375.3,2599.4 2386.4,2607.9 2397.5,2615.4 2408.6,2621.8 2419.7,2627.3 2430.8,2631.8 2442,2635.3 2453.1,2637.7 2464.2,2639.2 2475.3,2639.7 2486.4,2639.2 2497.5,2637.7 2508.6,2635.2 2519.8,2631.7 2530.9,2627.3 2542,2621.8 2553.1,2617 2564.2,2613.5 2575.3,2611.2 2586.4,2610.3 2597.6,2610.6 2608.7,2612.2 2619.8,2615.2 2630.9,2619.4 2642,2624.9 2653.1,2631.6 2664.3,2639.7 2675.4,2649.1 2686.5,2659.7 2697.6,2671.7 2708.7,2684.9 2719.8,2699.5 2730.9,2715.3 2742.1,2732.4 2753.2,2750.8 2764.3,2770.5 2775.4,2791.5 2786.5,2813.7 2797.6,2836.1 2808.7,2857.7 2819.9,2878.7 2831,2899 2842.1,2918.6 2853.2,2937.5 2864.3,2955.7 2875.4,2973.2 2886.5,2990 2897.7,3006.1 2908.8,3021.6 2919.9,3036.3 2931,3050.4 2942.1,3063.8 2953.2,3076.4 2964.4,3088.4 2975.5,3099.7 2986.6,3110.3 2997.7,3120.2 3008.8,3129.5 3019.9,3138 3031,3145.8 " stroke-width="4.8188" stroke-dasharray="19.275, 14.456, 4.8188, 14.456" />
</g>
</svg>
