<?xml version="1.0" encoding="ISO-8859-1" standalone="no"?>
<!DOCTYPE svg PUBLIC "-//W3C//DTD SVG 1.1//EN" "http://www.w3.org/Graphics/SVG/1.1/DTD/svg11.dtd">
<svg version="1.1" baseProfile="full" id="body" width="8in" height="8in" viewBox="0 0 1 1" preserveAspectRatio="none" xmlns="http://www.w3.org/2000/svg" xmlns:xlink="http://www.w3.org/1999/xlink" xmlns:ev="http://www.w3.org/2001/xml-events">
<title>SVG drawing</title>
<desc>This was produced by version 4.4 of GNU libplot, a free library for exporting 2-D vector graphics.</desc>
<rect id="background" x="0" y="0" width="1" height="1" stroke="none" fill="white"/>
<g id="content" transform="translate(0,1) scale(1,-1) scale(0.00024414) " xml:space="preserve" stroke="black" stroke-linecap="butt" stroke-linejoin="miter" stroke-miterlimit="10.433" stroke-dasharray="none" stroke-dashoffset="0" stroke-opacity="1" fill="none" fill-rule="evenodd" fill-opacity="1" font-style="normal" font-variant="normal" font-weight="normal" font-stretch="normal" font-size-adjust="none" letter-spacing="normal" word-spacing="normal" text-anchor="start">
<text transform="translate(1804.2,3451.9) scale(1,-1) scale(8.6016) " font-family="Helvetica,sans-serif" font-size="20px" stroke="none" fill="black" >lspline</text>
<rect x="819.2" y="819.2" width="2457.6" height="2457.6" stroke-width="4.8188" />
<text transform="translate(783.33,662.21) scale(1,-1) scale(6.4512) " font-family="Helvetica,sans-serif" font-size="20px" stroke="none" fill="black" >0</text>
<line x1="819.2" y1="3276.8" x2="819.2" y2="3227.6" stroke-width="4.8188" />
<line x1="819.2" y1="819.2" x2="819.2" y2="868.35" stroke-width="4.8188" />
<text transform="translate(1274.9,662.21) scale(1,-1) scale(6.4512) " font-family="Helvetica,sans-serif" font-size="20px" stroke="none" fill="black" >2</text>
<line x1="1310.7" y1="3276.8" x2="1310.7" y2="3227.6" stroke-width="4.8188" />
<line x1="1310.7" y1="819.2" x2="1310.7" y2="868.35" stroke-width="4.8188" />
<text transform="translate(1766.4,662.21) scale(1,-1) scale(6.4512) " font-family="Helvetica,sans-serif" font-size="20px" stroke="none" fill="black" >4</text>
<line x1="1802.2" y1="3276.8" x2="1802.2" y2="3227.6" stroke-width="4.8188" />
<line x1="1802.2" y1="819.2" x2="1802.2" y2="868.35" stroke-width="4.8188" />
<text transform="translate(2257.9,662.21) scale(1,-1) scale(6.4512) " font-family="Helvetica,sans-serif" font-size="20px" stroke="none" fill="black" >6</text>
<line x1="2293.8" y1="3276.8" x2="2293.8" y2="3227.6" stroke-width="4.8188" />
<line x1="2293.8" y1="819.2" x2="2293.8" y2="868.35" stroke-width="4.8188" />
<text transform="translate(2749.4,662.21) scale(1,-1) scale(6.4512) " font-family="Helvetica,sans-serif" font-size="20px" stroke="none" fill="black" >8</text>
<line x1="2785.3" y1="3276.8" x2="2785.3" y2="3227.6" stroke-width="4.8188" />
<line x1="2785.3" y1="819.2" x2="2785.3" y2="868.35" stroke-width="4.8188" />
<text transform="translate(3205.1,662.21) scale(1,-1) scale(6.4512) " font-family="Helvetica,sans-serif" font-size="20px" stroke="none" fill="black" >10</text>
<line x1="3276.8" y1="3276.8" x2="3276.8" y2="3227.6" stroke-width="4.8188" />
<line x1="3276.8" y1="819.2" x2="3276.8" y2="868.35" stroke-width="4.8188" />
<line x1="819.2" y1="3276.8" x2="819.2" y2="3257.1" stroke-width="4.8188" />
<line x1="819.2" y1="819.2" x2="819.2" y2="838.86" stroke-width="4.8188" />
<line x1="1065" y1="3276.8" x2="1065" y2="3257.1" stroke-width="4.8188" />
<line x1="1065" y1="819.2" x2="1065" y2="838.86" stroke-width="4.8188" />
<line x1="1310.7" y1="3276.8" x2="1310.7" y2="3257.1" stroke-width="4.8188" />
<line x1="1310.7" y1="819.2" x2="1310.7" y2="838.86" stroke-width="4.8188" />
<line x1="1556.5" y1="3276.8" x2="1556.5" y2="3257.1" stroke-width="4.8188" />
<line x1="1556.5" y1="819.2" x2="1556.5" y2="838.86" stroke-width="4.8188" />
<line x1="1802.2" y1="3276.8" x2="1802.2" y2="3257.1" stroke-width="4.8188" />
<line x1="1802.2" y1="819.2" x2="1802.2" y2="838.86" stroke-width="4.8188" />
<line x1="2048" y1="3276.8" x2="2048" y2="3257.1" stroke-width="4.8188" />
<line x1="2048" y1="819.2" x2="2048" y2="838.86" stroke-width="4.8188" />
<line x1="2293.8" y1="3276.8" x2="2293.8" y2="3257.1" stroke-width="4.8188" />
<line x1="2293.8" y1="819.2" x2="2293.8" y2="838.86" stroke-width="4.8188" />
<line x1="2539.5" y1="3276.8" x2="2539.5" y2="3257.1" stroke-width="4.8188" />
<line x1="2539.5" y1="819.2" x2="2539.5" y2="838.86" stroke-width="4.8188" />
<line x1="2785.3" y1="3276.8" x2="2785.3" y2="3257.1" stroke-width="4.8188" />
<line x1="2785.3" y1="819.2" x2="2785.3" y2="838.86" stroke-width="4.8188" />
<line x1="3031" y1="3276.8" x2="3031" y2="3257.1" stroke-width="4.8188" />
<line x1="3031" y1="819.2" x2="3031" y2="838.86" stroke-width="4.8188" />
<line x1="3276.8" y1="3276.8" x2="3276.8" y2="3257.1" stroke-width="4.8188" />
<line x1="3276.8" y1="819.2" x2="3276.8" y2="838.86" stroke-width="4.8188" />
<text transform="translate(710.6,773.65) scale(1,-1) scale(6.4512) " font-family="Helvetica,sans-serif" font-size="20px" stroke="none" fill="black" >0</text>
<line x1="3276.8" y1="819.2" x2="3227.6" y2="819.2" stroke-width="4.8188" />
<line x1="819.2" y1="819.2" x2="868.35" y2="819.2" stroke-width="4.8188" />
<text transform="translate(710.6,1388.1) scale(1,-1) scale(6.4512) " font-family="Helvetica,sans-serif" font-size="20px" stroke="none" fill="black" >5</text>
<line x1="3276.8" y1="1433.6" x2="3227.6" y2="1433.6" stroke-width="4.8188" />
<line x1="819.2" y1="1433.6" x2="868.35" y2="1433.6" stroke-width="4.8188" />
<text transform="translate(638.86,2002.5) scale(1,-1) scale(6.4512) " font-family="Helvetica,sans-serif" font-size="20px" stroke="none" fill="black" >10</text>
<line x1="3276.8" y1="2048" x2="3227.6" y2="2048" stroke-width="4.8188" />
<line x1="819.2" y1="2048" x2="868.35" y2="2048" stroke-width="4.8188" />
<text transform="translate(638.86,2616.9) scale(1,-1) scale(6.4512) " font-family="Helvetica,sans-serif" font-size="20px" stroke="none" fill="black" >15</text>
<line x1="3276.8" y1="2662.4" x2="3227.6" y2="2662.4" stroke-width="4.8188" />
<line x1="819.2" y1="2662.4" x2="868.35" y2="2662.4" stroke-width="4.8188" />
<text transform="translate(638.86,3231.3) scale(1,-1) scale(6.4512) " font-family="Helvetica,sans-serif" font-size="20px" stroke="none" fill="black" >20</text>
<line x1="3276.8" y1="3276.8" x2="3227.6" y2="3276.8" stroke-width="4.8188" />
<line x1="819.2" y1="3276.8" x2="868.35" y2="3276.8" stroke-width="4.8188" />
<line x1="3276.8" y1="819.2" x2="3257.1" y2="819.2" stroke-width="4.8188" />
<line x1="819.2" y1="819.2" x2="838.86" y2="819.2" stroke-width="4.8188" />
<line x1="3276.8" y1="942.08" x2="3257.1" y2="942.08" stroke-width="4.8188" />
<line x1="819.2" y1="942.08" x2="838.86" y2="942.08" stroke-width="4.8188" />
<line x1="3276.8" y1="1065" x2="3257.1" y2="1065" stroke-width="4.8188" />
<line x1="819.2" y1="1065" x2="838.86" y2="1065" stroke-width="4.8188" />
<line x1="3276.8" y1="1187.8" x2="3257.1" y2="1187.8" stroke-width="4.8188" />
<line x1="819.2" y1="1187.8" x2="838.86" y2="1187.8" stroke-width="4.8188" />
<line x1="3276.8" y1="1310.7" x2="3257.1" y2="1310.7" stroke-width="4.8188" />
<line x1="819.2" y1="1310.7" x2="838.86" y2="1310.7" stroke-width="4.8188" />
<line x1="3276.8" y1="1433.6" x2="3257.1" y2="1433.6" stroke-width="4.8188" />
<line x1="819.2" y1="1433.6" x2="838.86" y2="1433.6" stroke-width="4.8188" />
<line x1="3276.8" y1="1556.5" x2="3257.1" y2="1556.5" stroke-width="4.8188" />
<line x1="819.2" y1="1556.5" x2="838.86" y2="1556.5" stroke-width="4.8188" />
<line x1="3276.8" y1="1679.4" x2="3257.1" y2="1679.4" stroke-width="4.8188" />
<line x1="819.2" y1="1679.4" x2="838.86" y2="1679.4" stroke-width="4.8188" />
<line x1="3276.8" y1="1802.2" x2="3257.1" y2="1802.2" stroke-width="4.8188" />
<line x1="819.2" y1="1802.2" x2="838.86" y2="1802.2" stroke-width="4.8188" />
<line x1="3276.8" y1="1925.1" x2="3257.1" y2="1925.1" stroke-width="4.8188" />
<line x1="819.2" y1="1925.1" x2="838.86" y2="1925.1" stroke-width="4.8188" />
<line x1="3276.8" y1="2048" x2="3257.1" y2="2048" stroke-width="4.8188" />
<line x1="819.2" y1="2048" x2="838.86" y2="2048" stroke-width="4.8188" />
<line x1="3276.8" y1="2170.9" x2="3257.1" y2="2170.9" stroke-width="4.8188" />
<line x1="819.2" y1="2170.9" x2="838.86" y2="2170.9" stroke-width="4.8188" />
<line x1="3276.8" y1="2293.8" x2="3257.1" y2="2293.8" stroke-width="4.8188" />
<line x1="819.2" y1="2293.8" x2="838.86" y2="2293.8" stroke-width="4.8188" />
<line x1="3276.8" y1="2416.6" x2="3257.1" y2="2416.6" stroke-width="4.8188" />
<line x1="819.2" y1="2416.6" x2="838.86" y2="2416.6" stroke-width="4.8188" />
<line x1="3276.8" y1="2539.5" x2="3257.1" y2="2539.5" stroke-width="4.8188" />
<line x1="819.2" y1="2539.5" x2="838.86" y2="2539.5" stroke-width="4.8188" />
<line x1="3276.8" y1="2662.4" x2="3257.1" y2="2662.4" stroke-width="4.8188" />
<line x1="819.2" y1="2662.4" x2="838.86" y2="2662.4" stroke-width="4.8188" />
<line x1="3276.8" y1="2785.3" x2="3257.1" y2="2785.3" stroke-width="4.8188" />
<line x1="819.2" y1="2785.3" x2="838.86" y2="2785.3" stroke-width="4.8188" />
<line x1="3276.8" y1="2908.2" x2="3257.1" y2="2908.2" stroke-width="4.8188" />
<line x1="819.2" y1="2908.2" x2="838.86" y2="2908.2" stroke-width="4.8188" />
<line x1="3276.8" y1="3031" x2="3257.1" y2="3031" stroke-width="4.8188" />
<line x1="819.2" y1="3031" x2="838.86" y2="3031" stroke-width="4.8188" />
<line x1="3276.8" y1="3153.9" x2="3257.1" y2="3153.9" stroke-width="4.8188" />
<line x1="819.2" y1="3153.9" x2="838.86" y2="3153.9" stroke-width="4.8188" />
<line x1="3276.8" y1="3276.8" x2="3257.1" y2="3276.8" stroke-width="4.8188" />
<line x1="819.2" y1="3276.8" x2="838.86" y2="3276.8" stroke-width="4.8188" />
<text transform="translate(2015.7,501.24) scale(1,-1) scale(6.4512) " font-family="Helvetica,sans-serif" font-size="20px" stroke="none" fill="black" >x</text>
<text transform="matrix(0 6.4512 6.4512 0 552.83 2015.7) " font-family="Helvetica,sans-serif" font-size="20px" stroke="none" fill="black" >y</text>
<circle cx="819.2" cy="819.2" r="23.04" stroke-width="2.304" />
<circle cx="1065" cy="855.07" r="23.04" stroke-width="2.304" />
<circle cx="1310.7" cy="861.76" r="23.04" stroke-width="2.304" />
<circle cx="1556.5" cy="1180.5" r="23.04" stroke-width="2.304" />
<circle cx="1802.2" cy="1029.2" r="23.04" stroke-width="2.304" />
<circle cx="2048" cy="868.64" r="23.04" stroke-width="2.304" />
<circle cx="2293.8" cy="1498.9" r="23.04" stroke-width="2.304" />
<circle cx="2539.5" cy="1308.1" r="23.04" stroke-width="2.304" />
<circle cx="2785.3" cy="840.01" r="23.04" stroke-width="2.304" />
<circle cx="3031" cy="1737.3" r="23.04" stroke-width="2.304" />
<polyline points="819.2,819.2 831.49,825.33 843.78,831.37 856.06,837.22 868.35,842.81 880.64,848.04 892.93,852.84 905.22,857.15 917.5,860.9 929.79,864.03 942.08,866.52 954.37,868.32 966.66,869.42 978.94,869.82 991.23,869.52 1003.5,868.54 1015.8,866.92 1028.1,864.7 1040.4,861.93 1052.7,858.7 1065,855.07 1077.2,851.14 1089.5,847.01 1101.8,842.78 1114.1,838.56 1126.4,834.47 1138.7,830.63 1151,827.16 1163.3,824.17 1175.6,821.79 1187.8,820.12 1200.1,819.28 1212.4,819.37 1224.7,820.47 1237,822.67 1249.3,826.03 1261.6,830.62 1273.9,836.47 1286.1,843.6 1298.4,852.04 1310.7,861.76 1323,872.75 1335.3,884.97 1347.6,898.35 1359.9,912.83 1372.2,928.3 1384.4,944.66 1396.7,961.79 1409,979.56 1421.3,997.8 1433.6,1016.4 1445.9,1035.1 1458.2,1053.8 1470.5,1072.3 1482.8,1090.4 1495,1107.9 1507.3,1124.7 1519.6,1140.5 1531.9,1155.2 1544.2,1168.6 1556.5,1180.5 1568.8,1190.8 1581.1,1199.5 1593.3,1206.2 1605.6,1211.1 1617.9,1213.9 1630.2,1214.6 1642.5,1213.2 1654.8,1209.7 1667.1,1204.1 1679.4,1196.4 1691.6,1186.6 1703.9,1174.9 1716.2,1161.4 1728.5,1146.2 1740.8,1129.5 1753.1,1111.3 1765.4,1092 1777.7,1071.7 1790,1050.7 1802.2,1029.2 1814.5,1007.4 1826.8,985.67 1839.1,964.18 1851.4,943.25 1863.7,923.12 1876,904.08 1888.3,886.38 1900.5,870.27 1912.8,855.99 1925.1,843.77 1937.4,833.81 1949.7,826.31 1962,821.42 1974.3,819.29 1986.6,820.03 1998.8,823.72 2011.1,830.41 2023.4,840.15 2035.7,852.9 2048,868.64 2060.3,887.28 2072.6,908.73 2084.9,932.85 2097.2,959.46 2109.4,988.37 2121.7,1019.4 2134,1052.2 2146.3,1086.5 2158.6,1122.1 2170.9,1158.6 2183.2,1195.7 2195.5,1233.1 2207.7,1270.4 2220,1307.2 2232.3,1343.2 2244.6,1378.1 2256.9,1411.4 2269.2,1442.9 2281.5,1472.1 2293.8,1498.9 2306,1522.9 2318.3,1543.9 2330.6,1561.6 2342.9,1575.8 2355.2,1586.4 2367.5,1593.1 2379.8,1596 2392.1,1594.9 2404.4,1589.9 2416.6,1581 2428.9,1568.1 2441.2,1551.5 2453.5,1531.2 2465.8,1507.6 2478.1,1480.6 2490.4,1450.8 2502.7,1418.2 2514.9,1383.4 2527.2,1346.5 2539.5,1308.1 2551.8,1268.4 2564.1,1228 2576.4,1187.3 2588.7,1146.6 2601,1106.5 2613.2,1067.5 2625.5,1029.8 2637.8,994.08 2650.1,960.65 2662.4,929.94 2674.7,902.32 2687,878.16 2699.3,857.77 2711.6,841.46 2723.8,829.46 2736.1,821.99 2748.4,819.22 2760.7,821.25 2773,828.18 2785.3,840.01 2797.6,856.72 2809.9,878.24 2822.1,904.42 2834.4,935.1 2846.7,970.05 2859,1009 2871.3,1051.6 2883.6,1097.5 2895.9,1146.4 2908.2,1197.7 2920.4,1251.1 2932.7,1306 2945,1361.9 2957.3,1418.4 2969.6,1474.8 2981.9,1530.6 2994.2,1585.3 3006.5,1638.3 3018.8,1689.1 3031,1737.3 3043.3,1782.2 3055.6,1823.5 3067.9,1860.8 3080.2,1893.5 3092.5,1921.5 3104.8,1944.3 3117.1,1961.7 3129.3,1973.6 3141.6,1979.7 3153.9,1980 3166.2,1974.4 3178.5,1963 3190.8,1945.9 3203.1,1923.1 3215.4,1895 3227.6,1861.7 3239.9,1823.6 3252.2,1781 3264.5,1734.5 " stroke-width="4.8188" stroke-dasharray="4.8188, 14.456" />
<polyline points="819.2,819.2 830.31,820.82 841.43,822.44 852.54,824.07 863.66,825.69 874.77,827.31 885.89,828.93 897,830.56 908.12,832.18 919.23,833.8 930.35,835.42 941.46,837.05 952.58,838.67 963.69,840.29 974.81,841.91 985.92,843.54 997.04,845.16 1008.2,846.78 1019.3,848.4 1030.4,850.02 1041.5,851.65 1052.6,853.27 1063.7,854.89 1074.8,855.34 1086,855.64 1097.1,855.95 1108.2,856.25 1119.3,856.55 1130.4,856.85 1141.5,857.16 1152.6,857.46 1163.8,857.76 1174.9,858.06 1186,858.37 1197.1,858.67 1208.2,858.97 1219.3,859.27 1230.4,859.58 1241.6,859.88 1252.7,860.18 1263.8,860.48 1274.9,860.79 1286,861.09 1297.1,861.39 1308.3,861.69 1319.4,872.97 1330.5,887.39 1341.6,901.8 1352.7,916.22 1363.8,930.63 1374.9,945.05 1386.1,959.46 1397.2,973.88 1408.3,988.3 1419.4,1002.7 1430.5,1017.1 1441.6,1031.5 1452.7,1046 1463.9,1060.4 1475,1074.8 1486.1,1089.2 1497.2,1103.6 1508.3,1118 1519.4,1132.4 1530.5,1146.9 1541.7,1161.3 1552.8,1175.7 1563.9,1175.9 1575,1169.1 1586.1,1162.3 1597.2,1155.4 1608.4,1148.6 1619.5,1141.7 1630.6,1134.9 1641.7,1128 1652.8,1121.2 1663.9,1114.4 1675,1107.5 1686.2,1100.7 1697.3,1093.8 1708.4,1087 1719.5,1080.1 1730.6,1073.3 1741.7,1066.5 1752.8,1059.6 1764,1052.8 1775.1,1045.9 1786.2,1039.1 1797.3,1032.2 1808.4,1025.2 1819.5,1017.9 1830.6,1010.6 1841.8,1003.4 1852.9,996.12 1864,988.86 1875.1,981.6 1886.2,974.34 1897.3,967.07 1908.4,959.81 1919.6,952.55 1930.7,945.29 1941.8,938.03 1952.9,930.77 1964,923.5 1975.1,916.24 1986.3,908.98 1997.4,901.72 2008.5,894.46 2019.6,887.19 2030.7,879.93 2041.8,872.67 2052.9,881.31 2064.1,909.81 2075.2,938.32 2086.3,966.82 2097.4,995.33 2108.5,1023.8 2119.6,1052.3 2130.7,1080.8 2141.9,1109.3 2153,1137.9 2164.1,1166.4 2175.2,1194.9 2186.3,1223.4 2197.4,1251.9 2208.5,1280.4 2219.7,1308.9 2230.8,1337.4 2241.9,1365.9 2253,1394.4 2264.1,1422.9 2275.2,1451.4 2286.4,1479.9 2297.5,1496 2308.6,1487.4 2319.7,1478.8 2330.8,1470.1 2341.9,1461.5 2353,1452.9 2364.2,1444.3 2375.3,1435.6 2386.4,1427 2397.5,1418.4 2408.6,1409.7 2419.7,1401.1 2430.8,1392.5 2442,1383.8 2453.1,1375.2 2464.2,1366.6 2475.3,1358 2486.4,1349.3 2497.5,1340.7 2508.6,1332.1 2519.8,1323.4 2530.9,1314.8 2542,1303.4 2553.1,1282.2 2564.2,1261 2575.3,1239.9 2586.4,1218.7 2597.6,1197.5 2608.7,1176.4 2619.8,1155.2 2630.9,1134 2642,1112.9 2653.1,1091.7 2664.3,1070.5 2675.4,1049.4 2686.5,1028.2 2697.6,1007 2708.7,985.84 2719.8,964.68 2730.9,943.51 2742.1,922.34 2753.2,901.17 2764.3,880 2775.4,858.83 2786.5,844.52 2797.6,885.1 2808.7,925.68 2819.9,966.26 2831,1006.8 2842.1,1047.4 2853.2,1088 2864.3,1128.6 2875.4,1169.2 2886.5,1209.7 2897.7,1250.3 2908.8,1290.9 2919.9,1331.5 2931,1372.1 2942.1,1412.6 2953.2,1453.2 2964.4,1493.8 2975.5,1534.4 2986.6,1575 2997.7,1615.5 3008.8,1656.1 3019.9,1696.7 3031,1737.3 " stroke-width="4.8188" />
<polyline points="819.2,819.2 830.31,819.24 841.43,819.35 852.54,819.53 863.66,819.79 874.77,820.12 885.89,820.52 897,821 908.12,821.55 919.23,822.17 930.35,822.87 941.46,823.64 952.58,824.48 963.69,825.4 974.81,826.39 985.92,827.45 997.04,828.59 1008.2,829.8 1019.3,831.09 1030.4,832.44 1041.5,833.87 1052.6,835.38 1063.7,836.96 1074.8,838.58 1086,840.22 1097.1,841.88 1108.2,843.55 1119.3,845.23 1130.4,846.93 1141.5,848.64 1152.6,850.36 1163.8,852.1 1174.9,853.85 1186,855.61 1197.1,857.39 1208.2,859.18 1219.3,860.99 1230.4,862.81 1241.6,864.64 1252.7,866.49 1263.8,868.35 1274.9,870.22 1286,872.11 1297.1,874.01 1308.3,875.92 1319.4,878.05 1330.5,880.8 1341.6,884.21 1352.7,888.28 1363.8,892.99 1374.9,898.36 1386.1,904.37 1397.2,911.04 1408.3,918.36 1419.4,926.34 1430.5,934.96 1441.6,944.24 1452.7,954.17 1463.9,964.75 1475,975.98 1486.1,987.87 1497.2,1000.4 1508.3,1013.6 1519.4,1027.4 1530.5,1041.9 1541.7,1057.1 1552.8,1072.9 1563.9,1089.1 1575,1105.1 1586.1,1120.8 1597.2,1136.1 1608.4,1151.2 1619.5,1165.9 1630.6,1180.3 1641.7,1194.5 1652.8,1208.3 1663.9,1221.8 1675,1235 1686.2,1247.9 1697.3,1260.4 1708.4,1272.7 1719.5,1284.7 1730.6,1296.3 1741.7,1307.6 1752.8,1318.7 1764,1329.4 1775.1,1339.8 1786.2,1349.9 1797.3,1359.7 1808.4,1369.2 1819.5,1378.3 1830.6,1387.1 1841.8,1395.6 1852.9,1403.8 1864,1411.6 1875.1,1419.1 1886.2,1426.3 1897.3,1433.2 1908.4,1439.7 1919.6,1445.9 1930.7,1451.8 1941.8,1457.3 1952.9,1462.5 1964,1467.4 1975.1,1471.9 1986.3,1476.2 1997.4,1480.1 2008.5,1483.6 2019.6,1486.9 2030.7,1489.8 2041.8,1492.4 2052.9,1494.8 2064.1,1498.2 2075.2,1503 2086.3,1509 2097.4,1516.3 2108.5,1524.9 2119.6,1534.8 2130.7,1546 2141.9,1558.5 2153,1572.3 2164.1,1587.3 2175.2,1603.7 2186.3,1621.3 2197.4,1640.2 2208.5,1660.4 2219.7,1681.9 2230.8,1704.7 2241.9,1728.8 2253,1754.2 2264.1,1780.8 2275.2,1808.8 2286.4,1838 2297.5,1868.5 2308.6,1898.9 2319.7,1928.9 2330.8,1958.5 2341.9,1987.8 2353,2016.6 2364.2,2045.1 2375.3,2073.2 2386.4,2100.9 2397.5,2128.1 2408.6,2155.1 2419.7,2181.6 2430.8,2207.7 2442,2233.4 2453.1,2258.8 2464.2,2283.7 2475.3,2308.3 2486.4,2332.4 2497.5,2356.2 2508.6,2379.6 2519.8,2402.6 2530.9,2425.2 2542,2447.4 2553.1,2468.8 2564.2,2489.3 2575.3,2508.8 2586.4,2527.4 2597.6,2544.9 2608.7,2561.6 2619.8,2577.2 2630.9,2592 2642,2605.7 2653.1,2618.5 2664.3,2630.4 2675.4,2641.3 2686.5,2651.2 2697.6,2660.2 2708.7,2668.2 2719.8,2675.2 2730.9,2681.3 2742.1,2686.5 2753.2,2690.7 2764.3,2693.9 2775.4,2696.2 2786.5,2697.5 2797.6,2699.6 2808.7,2703.5 2819.9,2709.2 2831,2716.8 2842.1,2726.2 2853.2,2737.4 2864.3,2750.5 2875.4,2765.4 2886.5,2782.1 2897.7,2800.7 2908.8,2821.1 2919.9,2843.4 2931,2867.5 2942.1,2893.4 2953.2,2921.1 2964.4,2950.7 2975.5,2982.2 2986.6,3015.4 2997.7,3050.5 3008.8,3087.5 3019.9,3126.2 3031,3166.8 " stroke-width="4.8188" stroke-dasharray="4.8188, 14.456" />
</g>
</svg>
