<?xml version="1.0" encoding="ISO-8859-1" standalone="no"?>
<!DOCTYPE svg PUBLIC "-//W3C//DTD SVG 1.1//EN" "http://www.w3.org/Graphics/SVG/1.1/DTD/svg11.dtd">
<svg version="1.1" baseProfile="full" id="body" width="8in" height="8in" viewBox="0 0 1 1" preserveAspectRatio="none" xmlns="http://www.w3.org/2000/svg" xmlns:xlink="http://www.w3.org/1999/xlink" xmlns:ev="http://www.w3.org/2001/xml-events">
<title>SVG drawing</title>
<desc>This was produced by version 4.4 of GNU libplot, a free library for exporting 2-D vector graphics.</desc>
<rect id="background" x="0" y="0" width="1" height="1" stroke="none" fill="white"/>
<g id="content" transform="translate(0,1) scale(1,-1) scale(0.00024414) " xml:space="preserve" stroke="black" stroke-linecap="butt" stroke-linejoin="miter" stroke-miterlimit="10.433" stroke-dasharray="none" stroke-dashoffset="0" stroke-opacity="1" fill="none" fill-rule="evenodd" fill-opacity="1" font-style="normal" font-variant="normal" font-weight="normal" font-stretch="normal" font-size-adjust="none" letter-spacing="normal" word-spacing="normal" text-anchor="start">
<text transform="translate(1804.2,3451.9) scale(1,-1) scale(8.6016) " font-family="Helvetica,sans-serif" font-size="20px" stroke="none" fill="black" >lspline</text>
<rect x="819.2" y="819.2" width="2457.6" height="2457.6" stroke-width="4.8188" />
<text transform="translate(783.33,662.21) scale(1,-1) scale(6.4512) " font-family="Helvetica,sans-serif" font-size="20px" stroke="none" fill="black" >0</text>
<line x1="819.2" y1="3276.8" x2="819.2" y2="3227.6" stroke-width="4.8188" />
<line x1="819.2" y1="819.2" x2="819.2" y2="868.35" stroke-width="4.8188" />
<text transform="translate(1274.9,662.21) scale(1,-1) scale(6.4512) " font-family="Helvetica,sans-serif" font-size="20px" stroke="none" fill="black" >1</text>
<line x1="1310.7" y1="3276.8" x2="1310.7" y2="3227.6" stroke-width="4.8188" />
<line x1="1310.7" y1="819.2" x2="1310.7" y2="868.35" stroke-width="4.8188" />
<text transform="translate(1766.4,662.21) scale(1,-1) scale(6.4512) " font-family="Helvetica,sans-serif" font-size="20px" stroke="none" fill="black" >2</text>
<line x1="1802.2" y1="3276.8" x2="1802.2" y2="3227.6" stroke-width="4.8188" />
<line x1="1802.2" y1="819.2" x2="1802.2" y2="868.35" stroke-width="4.8188" />
<text transform="translate(2257.9,662.21) scale(1,-1) scale(6.4512) " font-family="Helvetica,sans-serif" font-size="20px" stroke="none" fill="black" >3</text>
<line x1="2293.8" y1="3276.8" x2="2293.8" y2="3227.6" stroke-width="4.8188" />
<line x1="2293.8" y1="819.2" x2="2293.8" y2="868.35" stroke-width="4.8188" />
<text transform="translate(2749.4,662.21) scale(1,-1) scale(6.4512) " font-family="Helvetica,sans-serif" font-size="20px" stroke="none" fill="black" >4</text>
<line x1="2785.3" y1="3276.8" x2="2785.3" y2="3227.6" stroke-width="4.8188" />
<line x1="2785.3" y1="819.2" x2="2785.3" y2="868.35" stroke-width="4.8188" />
<text transform="translate(3240.9,662.21) scale(1,-1) scale(6.4512) " font-family="Helvetica,sans-serif" font-size="20px" stroke="none" fill="black" >5</text>
<line x1="3276.8" y1="3276.8" x2="3276.8" y2="3227.6" stroke-width="4.8188" />
<line x1="3276.8" y1="819.2" x2="3276.8" y2="868.35" stroke-width="4.8188" />
<line x1="819.2" y1="3276.8" x2="819.2" y2="3257.1" stroke-width="4.8188" />
<line x1="819.2" y1="819.2" x2="819.2" y2="838.86" stroke-width="4.8188" />
<line x1="917.5" y1="3276.8" x2="917.5" y2="3257.1" stroke-width="4.8188" />
<line x1="917.5" y1="819.2" x2="917.5" y2="838.86" stroke-width="4.8188" />
<line x1="1015.8" y1="3276.8" x2="1015.8" y2="3257.1" stroke-width="4.8188" />
<line x1="1015.8" y1="819.2" x2="1015.8" y2="838.86" stroke-width="4.8188" />
<line x1="1114.1" y1="3276.8" x2="1114.1" y2="3257.1" stroke-width="4.8188" />
<line x1="1114.1" y1="819.2" x2="1114.1" y2="838.86" stroke-width="4.8188" />
<line x1="1212.4" y1="3276.8" x2="1212.4" y2="3257.1" stroke-width="4.8188" />
<line x1="1212.4" y1="819.2" x2="1212.4" y2="838.86" stroke-width="4.8188" />
<line x1="1310.7" y1="3276.8" x2="1310.7" y2="3257.1" stroke-width="4.8188" />
<line x1="1310.7" y1="819.2" x2="1310.7" y2="838.86" stroke-width="4.8188" />
<line x1="1409" y1="3276.8" x2="1409" y2="3257.1" stroke-width="4.8188" />
<line x1="1409" y1="819.2" x2="1409" y2="838.86" stroke-width="4.8188" />
<line x1="1507.3" y1="3276.8" x2="1507.3" y2="3257.1" stroke-width="4.8188" />
<line x1="1507.3" y1="819.2" x2="1507.3" y2="838.86" stroke-width="4.8188" />
<line x1="1605.6" y1="3276.8" x2="1605.6" y2="3257.1" stroke-width="4.8188" />
<line x1="1605.6" y1="819.2" x2="1605.6" y2="838.86" stroke-width="4.8188" />
<line x1="1703.9" y1="3276.8" x2="1703.9" y2="3257.1" stroke-width="4.8188" />
<line x1="1703.9" y1="819.2" x2="1703.9" y2="838.86" stroke-width="4.8188" />
<line x1="1802.2" y1="3276.8" x2="1802.2" y2="3257.1" stroke-width="4.8188" />
<line x1="1802.2" y1="819.2" x2="1802.2" y2="838.86" stroke-width="4.8188" />
<line x1="1900.5" y1="3276.8" x2="1900.5" y2="3257.1" stroke-width="4.8188" />
<line x1="1900.5" y1="819.2" x2="1900.5" y2="838.86" stroke-width="4.8188" />
<line x1="1998.8" y1="3276.8" x2="1998.8" y2="3257.1" stroke-width="4.8188" />
<line x1="1998.8" y1="819.2" x2="1998.8" y2="838.86" stroke-width="4.8188" />
<line x1="2097.2" y1="3276.8" x2="2097.2" y2="3257.1" stroke-width="4.8188" />
<line x1="2097.2" y1="819.2" x2="2097.2" y2="838.86" stroke-width="4.8188" />
<line x1="2195.5" y1="3276.8" x2="2195.5" y2="3257.1" stroke-width="4.8188" />
<line x1="2195.5" y1="819.2" x2="2195.5" y2="838.86" stroke-width="4.8188" />
<line x1="2293.8" y1="3276.8" x2="2293.8" y2="3257.1" stroke-width="4.8188" />
<line x1="2293.8" y1="819.2" x2="2293.8" y2="838.86" stroke-width="4.8188" />
<line x1="2392.1" y1="3276.8" x2="2392.1" y2="3257.1" stroke-width="4.8188" />
<line x1="2392.1" y1="819.2" x2="2392.1" y2="838.86" stroke-width="4.8188" />
<line x1="2490.4" y1="3276.8" x2="2490.4" y2="3257.1" stroke-width="4.8188" />
<line x1="2490.4" y1="819.2" x2="2490.4" y2="838.86" stroke-width="4.8188" />
<line x1="2588.7" y1="3276.8" x2="2588.7" y2="3257.1" stroke-width="4.8188" />
<line x1="2588.7" y1="819.2" x2="2588.7" y2="838.86" stroke-width="4.8188" />
<line x1="2687" y1="3276.8" x2="2687" y2="3257.1" stroke-width="4.8188" />
<line x1="2687" y1="819.2" x2="2687" y2="838.86" stroke-width="4.8188" />
<line x1="2785.3" y1="3276.8" x2="2785.3" y2="3257.1" stroke-width="4.8188" />
<line x1="2785.3" y1="819.2" x2="2785.3" y2="838.86" stroke-width="4.8188" />
<line x1="2883.6" y1="3276.8" x2="2883.6" y2="3257.1" stroke-width="4.8188" />
<line x1="2883.6" y1="819.2" x2="2883.6" y2="838.86" stroke-width="4.8188" />
<line x1="2981.9" y1="3276.8" x2="2981.9" y2="3257.1" stroke-width="4.8188" />
<line x1="2981.9" y1="819.2" x2="2981.9" y2="838.86" stroke-width="4.8188" />
<line x1="3080.2" y1="3276.8" x2="3080.2" y2="3257.1" stroke-width="4.8188" />
<line x1="3080.2" y1="819.2" x2="3080.2" y2="838.86" stroke-width="4.8188" />
<line x1="3178.5" y1="3276.8" x2="3178.5" y2="3257.1" stroke-width="4.8188" />
<line x1="3178.5" y1="819.2" x2="3178.5" y2="838.86" stroke-width="4.8188" />
<line x1="3276.8" y1="3276.8" x2="3276.8" y2="3257.1" stroke-width="4.8188" />
<line x1="3276.8" y1="819.2" x2="3276.8" y2="838.86" stroke-width="4.8188" />
<text transform="translate(527.64,773.65) scale(1,-1) scale(6.4512) " font-family="Helvetica,sans-serif" font-size="20px" stroke="none" fill="black" >-1.0</text>
<line x1="3276.8" y1="819.2" x2="3227.6" y2="819.2" stroke-width="4.8188" />
<line x1="819.2" y1="819.2" x2="868.35" y2="819.2" stroke-width="4.8188" />
<text transform="translate(527.64,1388.1) scale(1,-1) scale(6.4512) " font-family="Helvetica,sans-serif" font-size="20px" stroke="none" fill="black" >-0.5</text>
<line x1="3276.8" y1="1433.6" x2="3227.6" y2="1433.6" stroke-width="4.8188" />
<line x1="819.2" y1="1433.6" x2="868.35" y2="1433.6" stroke-width="4.8188" />
<text transform="translate(602.99,2002.5) scale(1,-1) scale(6.4512) " font-family="Helvetica,sans-serif" font-size="20px" stroke="none" fill="black" >0.0</text>
<line x1="3276.8" y1="2048" x2="3227.6" y2="2048" stroke-width="4.8188" />
<line x1="819.2" y1="2048" x2="868.35" y2="2048" stroke-width="4.8188" />
<text transform="translate(602.99,2616.9) scale(1,-1) scale(6.4512) " font-family="Helvetica,sans-serif" font-size="20px" stroke="none" fill="black" >0.5</text>
<line x1="3276.8" y1="2662.4" x2="3227.6" y2="2662.4" stroke-width="4.8188" />
<line x1="819.2" y1="2662.4" x2="868.35" y2="2662.4" stroke-width="4.8188" />
<text transform="translate(602.99,3231.3) scale(1,-1) scale(6.4512) " font-family="Helvetica,sans-serif" font-size="20px" stroke="none" fill="black" >1.0</text>
<line x1="3276.8" y1="3276.8" x2="3227.6" y2="3276.8" stroke-width="4.8188" />
<line x1="819.2" y1="3276.8" x2="868.35" y2="3276.8" stroke-width="4.8188" />
<line x1="3276.8" y1="819.2" x2="3257.1" y2="819.2" stroke-width="4.8188" />
<line x1="819.2" y1="819.2" x2="838.86" y2="819.2" stroke-width="4.8188" />
<line x1="3276.8" y1="942.08" x2="3257.1" y2="942.08" stroke-width="4.8188" />
<line x1="819.2" y1="942.08" x2="838.86" y2="942.08" stroke-width="4.8188" />
<line x1="3276.8" y1="1065" x2="3257.1" y2="1065" stroke-width="4.8188" />
<line x1="819.2" y1="1065" x2="838.86" y2="1065" stroke-width="4.8188" />
<line x1="3276.8" y1="1187.8" x2="3257.1" y2="1187.8" stroke-width="4.8188" />
<line x1="819.2" y1="1187.8" x2="838.86" y2="1187.8" stroke-width="4.8188" />
<line x1="3276.8" y1="1310.7" x2="3257.1" y2="1310.7" stroke-width="4.8188" />
<line x1="819.2" y1="1310.7" x2="838.86" y2="1310.7" stroke-width="4.8188" />
<line x1="3276.8" y1="1433.6" x2="3257.1" y2="1433.6" stroke-width="4.8188" />
<line x1="819.2" y1="1433.6" x2="838.86" y2="1433.6" stroke-width="4.8188" />
<line x1="3276.8" y1="1556.5" x2="3257.1" y2="1556.5" stroke-width="4.8188" />
<line x1="819.2" y1="1556.5" x2="838.86" y2="1556.5" stroke-width="4.8188" />
<line x1="3276.8" y1="1679.4" x2="3257.1" y2="1679.4" stroke-width="4.8188" />
<line x1="819.2" y1="1679.4" x2="838.86" y2="1679.4" stroke-width="4.8188" />
<line x1="3276.8" y1="1802.2" x2="3257.1" y2="1802.2" stroke-width="4.8188" />
<line x1="819.2" y1="1802.2" x2="838.86" y2="1802.2" stroke-width="4.8188" />
<line x1="3276.8" y1="1925.1" x2="3257.1" y2="1925.1" stroke-width="4.8188" />
<line x1="819.2" y1="1925.1" x2="838.86" y2="1925.1" stroke-width="4.8188" />
<line x1="3276.8" y1="2048" x2="3257.1" y2="2048" stroke-width="4.8188" />
<line x1="819.2" y1="2048" x2="838.86" y2="2048" stroke-width="4.8188" />
<line x1="3276.8" y1="2170.9" x2="3257.1" y2="2170.9" stroke-width="4.8188" />
<line x1="819.2" y1="2170.9" x2="838.86" y2="2170.9" stroke-width="4.8188" />
<line x1="3276.8" y1="2293.8" x2="3257.1" y2="2293.8" stroke-width="4.8188" />
<line x1="819.2" y1="2293.8" x2="838.86" y2="2293.8" stroke-width="4.8188" />
<line x1="3276.8" y1="2416.6" x2="3257.1" y2="2416.6" stroke-width="4.8188" />
<line x1="819.2" y1="2416.6" x2="838.86" y2="2416.6" stroke-width="4.8188" />
<line x1="3276.8" y1="2539.5" x2="3257.1" y2="2539.5" stroke-width="4.8188" />
<line x1="819.2" y1="2539.5" x2="838.86" y2="2539.5" stroke-width="4.8188" />
<line x1="3276.8" y1="2662.4" x2="3257.1" y2="2662.4" stroke-width="4.8188" />
<line x1="819.2" y1="2662.4" x2="838.86" y2="2662.4" stroke-width="4.8188" />
<line x1="3276.8" y1="2785.3" x2="3257.1" y2="2785.3" stroke-width="4.8188" />
<line x1="819.2" y1="2785.3" x2="838.86" y2="2785.3" stroke-width="4.8188" />
<line x1="3276.8" y1="2908.2" x2="3257.1" y2="2908.2" stroke-width="4.8188" />
<line x1="819.2" y1="2908.2" x2="838.86" y2="2908.2" stroke-width="4.8188" />
<line x1="3276.8" y1="3031" x2="3257.1" y2="3031" stroke-width="4.8188" />
<line x1="819.2" y1="3031" x2="838.86" y2="3031" stroke-width="4.8188" />
<line x1="3276.8" y1="3153.9" x2="3257.1" y2="3153.9" stroke-width="4.8188" />
<line x1="819.2" y1="3153.9" x2="838.86" y2="3153.9" stroke-width="4.8188" />
<line x1="3276.8" y1="3276.8" x2="3257.1" y2="3276.8" stroke-width="4.8188" />
<line x1="819.2" y1="3276.8" x2="838.86" y2="3276.8" stroke-width="4.8188" />
<line x1="819.2" y1="2048" x2="3276.8" y2="2048" stroke-width="4.8188" stroke-dasharray="4.8188, 14.456" />
<text transform="translate(2015.7,501.24) scale(1,-1) scale(6.4512) " font-family="Helvetica,sans-serif" font-size="20px" stroke="none" fill="black" >x</text>
<text transform="matrix(0 6.4512 6.4512 0 424.93 2015.7) " font-family="Helvetica,sans-serif" font-size="20px" stroke="none" fill="black" >y</text>
<circle cx="819.2" cy="3276.8" r="23.04" stroke-width="2.304" />
<circle cx="1065" cy="1063.6" r="23.04" stroke-width="2.304" />
<circle cx="1310.7" cy="2396.6" r="23.04" stroke-width="2.304" />
<circle cx="1556.5" cy="2473.9" r="23.04" stroke-width="2.304" />
<circle cx="1802.2" cy="1016.9" r="23.04" stroke-width="2.304" />
<circle cx="2048" cy="3274.1" r="23.04" stroke-width="2.304" />
<circle cx="2293.8" cy="1114.5" r="23.04" stroke-width="2.304" />
<circle cx="2539.5" cy="2317.6" r="23.04" stroke-width="2.304" />
<circle cx="2785.3" cy="2549.5" r="23.04" stroke-width="2.304" />
<circle cx="3031" cy="974.88" r="23.04" stroke-width="2.304" />
<polyline points="819.2,3276.8 831.49,3267.2 843.78,3238.6 856.06,3191.4 868.35,3126.4 880.64,3044.5 892.93,2947.1 905.22,2835.7 917.5,2711.9 929.79,2577.8 942.08,2435.5 954.37,2287.1 966.66,2134.9 978.94,1981.4 991.23,1829 1003.5,1679.9 1015.8,1536.6 1028.1,1401.3 1040.4,1276.1 1052.7,1162.9 1065,1063.6 1077.2,979.55 1089.5,912.22 1101.8,862.61 1114.1,831.5 1126.4,819.37 1138.7,826.41 1151,852.52 1163.3,897.28 1175.6,960 1187.8,1039.7 1200.1,1135.1 1212.4,1244.8 1224.7,1367 1237,1499.8 1249.3,1641.2 1261.6,1789 1273.9,1940.8 1286.1,2094.2 1298.4,2246.9 1310.7,2396.6 1323,2540.8 1335.3,2677.3 1347.6,2803.9 1359.9,2918.8 1372.2,3020.1 1384.4,3106.2 1396.7,3175.8 1409,3227.9 1421.3,3261.5 1433.6,3276.1 1445.9,3271.6 1458.2,3248 1470.5,3205.7 1482.8,3145.3 1495,3067.8 1507.3,2974.4 1519.6,2866.5 1531.9,2745.9 1544.2,2614.3 1556.5,2473.9 1568.8,2326.9 1581.1,2175.5 1593.3,2022.2 1605.6,1869.2 1617.9,1719 1630.2,1574 1642.5,1436.3 1654.8,1308.2 1667.1,1191.7 1679.4,1088.5 1691.6,1000.3 1703.9,928.4 1716.2,874 1728.5,837.92 1740.8,820.72 1753.1,822.68 1765.4,843.75 1777.7,883.61 1790,941.65 1802.2,1016.9 1814.5,1108.3 1826.8,1214.4 1839.1,1333.5 1851.4,1463.7 1863.7,1603 1876,1749.3 1888.3,1900.2 1900.5,2053.4 1912.8,2206.6 1925.1,2357.3 1937.4,2503.1 1949.7,2641.9 1962,2771.4 1974.3,2889.6 1986.6,2994.6 1998.8,3084.9 2011.1,3159 2023.4,3215.8 2035.7,3254.4 2048,3274.1 2060.3,3274.7 2072.6,3256.1 2084.9,3218.7 2097.2,3163.1 2109.4,3090 2121.7,3000.7 2134,2896.5 2146.3,2779 2158.6,2650.2 2170.9,2512 2183.2,2366.5 2195.5,2216 2207.7,2063 2220,1909.6 2232.3,1758.5 2244.6,1611.9 2256.9,1472 2269.2,1341.2 2281.5,1221.4 2293.8,1114.5 2306,1022.2 2318.3,945.82 2330.6,886.69 2342.9,845.68 2355.2,823.43 2367.5,820.29 2379.8,836.3 2392.1,871.23 2404.4,924.52 2416.6,995.34 2428.9,1082.6 2441.2,1184.9 2453.5,1300.7 2465.8,1428.1 2478.1,1565.2 2490.4,1709.9 2502.7,1859.8 2514.9,2012.7 2527.2,2166.1 2539.5,2317.6 2551.8,2465 2564.1,2605.9 2576.4,2738 2588.7,2859.4 2601,2968.1 2613.2,3062.5 2625.5,3141 2637.8,3202.5 2650.1,3245.9 2662.4,3270.7 2674.7,3276.4 2687,3262.9 2699.3,3230.5 2711.6,3179.6 2723.8,3111 2736.1,3025.9 2748.4,2925.5 2760.7,2811.4 2773,2685.4 2785.3,2549.5 2797.6,2405.7 2809.9,2256.3 2822.1,2103.7 2834.4,1950.2 2846.7,1798.3 2859,1650.2 2871.3,1508.4 2883.6,1375 2895.9,1252 2908.2,1141.5 2920.4,1045.2 2932.7,964.45 2945,900.65 2957.3,854.76 2969.6,827.48 2981.9,819.25 2994.2,830.19 3006.5,860.14 3018.8,908.62 3031,974.88 3043.3,1057.9 3055.6,1156.3 3067.9,1268.7 3080.2,1393.3 3092.5,1528 3104.8,1670.9 3117.1,1819.6 3129.3,1971.9 3141.6,2125.4 3153.9,2277.7 3166.2,2426.4 3178.5,2569.2 3190.8,2703.9 3203.1,2828.3 3215.4,2940.6 3227.6,3038.9 3239.9,3121.8 3252.2,3187.9 3264.5,3236.2 " stroke-width="4.8188" stroke-dasharray="4.8188, 14.456" />
<polyline points="819.2,3276.8 830.31,3176.7 841.43,3076.6 852.54,2976.5 863.66,2876.4 874.77,2776.3 885.89,2676.2 897,2576.1 908.12,2476 919.23,2375.9 930.35,2275.8 941.46,2175.7 952.58,2075.6 963.69,1975.5 974.81,1875.4 985.92,1775.4 997.04,1675.3 1008.2,1575.2 1019.3,1475.1 1030.4,1375 1041.5,1274.9 1052.6,1174.8 1063.7,1074.7 1074.8,1117.1 1086,1177.4 1097.1,1237.7 1108.2,1298 1119.3,1358.3 1130.4,1418.6 1141.5,1478.9 1152.6,1539.2 1163.8,1599.4 1174.9,1659.7 1186,1720 1197.1,1780.3 1208.2,1840.6 1219.3,1900.9 1230.4,1961.2 1241.6,2021.4 1252.7,2081.7 1263.8,2142 1274.9,2202.3 1286,2262.6 1297.1,2322.9 1308.3,2383.2 1319.4,2399.3 1330.5,2402.8 1341.6,2406.3 1352.7,2409.8 1363.8,2413.3 1374.9,2416.8 1386.1,2420.3 1397.2,2423.8 1408.3,2427.3 1419.4,2430.8 1430.5,2434.3 1441.6,2437.8 1452.7,2441.3 1463.9,2444.8 1475,2448.3 1486.1,2451.8 1497.2,2455.3 1508.3,2458.8 1519.4,2462.3 1530.5,2465.8 1541.7,2469.3 1552.8,2472.8 1563.9,2430 1575,2364.1 1586.1,2298.2 1597.2,2232.3 1608.4,2166.4 1619.5,2100.5 1630.6,2034.7 1641.7,1968.8 1652.8,1902.9 1663.9,1837 1675,1771.1 1686.2,1705.2 1697.3,1639.3 1708.4,1573.4 1719.5,1507.5 1730.6,1441.6 1741.7,1375.7 1752.8,1309.8 1764,1243.9 1775.1,1178 1786.2,1112.1 1797.3,1046.2 1808.4,1073.7 1819.5,1175.7 1830.6,1277.8 1841.8,1379.9 1852.9,1482 1864,1584.1 1875.1,1686.2 1886.2,1788.2 1897.3,1890.3 1908.4,1992.4 1919.6,2094.5 1930.7,2196.6 1941.8,2298.6 1952.9,2400.7 1964,2502.8 1975.1,2604.9 1986.3,2707 1997.4,2809.1 2008.5,2911.1 2019.6,3013.2 2030.7,3115.3 2041.8,3217.4 2052.9,3230.7 2064.1,3133 2075.2,3035.3 2086.3,2937.7 2097.4,2840 2108.5,2742.3 2119.6,2644.7 2130.7,2547 2141.9,2449.3 2153,2351.7 2164.1,2254 2175.2,2156.3 2186.3,2058.6 2197.4,1961 2208.5,1863.3 2219.7,1765.6 2230.8,1668 2241.9,1570.3 2253,1472.6 2264.1,1374.9 2275.2,1277.3 2286.3,1179.6 2297.5,1132.6 2308.6,1187 2319.7,1241.5 2330.8,1295.9 2341.9,1350.3 2353,1404.7 2364.2,1459.1 2375.3,1513.5 2386.4,1567.9 2397.5,1622.4 2408.6,1676.8 2419.7,1731.2 2430.8,1785.6 2442,1840 2453.1,1894.4 2464.2,1948.8 2475.3,2003.3 2486.4,2057.7 2497.5,2112.1 2508.6,2166.5 2519.8,2220.9 2530.9,2275.3 2542,2320 2553.1,2330.5 2564.2,2340.9 2575.3,2351.4 2586.5,2361.9 2597.6,2372.4 2608.7,2382.9 2619.8,2393.4 2630.9,2403.8 2642,2414.3 2653.1,2424.8 2664.3,2435.3 2675.4,2445.8 2686.5,2456.3 2697.6,2466.7 2708.7,2477.2 2719.8,2487.7 2730.9,2498.2 2742.1,2508.7 2753.2,2519.2 2764.3,2529.6 2775.4,2540.1 2786.5,2541.5 2797.6,2470.3 2808.7,2399.1 2819.9,2327.9 2831,2256.7 2842.1,2185.5 2853.2,2114.3 2864.3,2043.1 2875.4,1971.8 2886.5,1900.6 2897.7,1829.4 2908.8,1758.2 2919.9,1687 2931,1615.8 2942.1,1544.6 2953.2,1473.4 2964.4,1402.2 2975.5,1330.9 2986.6,1259.7 2997.7,1188.5 3008.8,1117.3 3019.9,1046.1 3031,974.88 " stroke-width="4.8188" />
<polyline points="819.2,2048 830.31,2074.7 841.43,2099 852.54,2121.2 863.66,2141 874.77,2158.6 885.89,2174 897,2187.1 908.12,2197.9 919.23,2206.4 930.35,2212.7 941.46,2216.7 952.58,2218.5 963.69,2218 974.81,2215.2 985.92,2210.2 997.04,2202.9 1008.2,2193.3 1019.3,2181.5 1030.4,2167.4 1041.5,2151 1052.6,2132.4 1063.7,2111.5 1074.8,2089.8 1086,2069.5 1097.1,2050.5 1108.2,2032.8 1119.3,2016.5 1130.4,2001.6 1141.5,1988.1 1152.6,1975.9 1163.8,1965.1 1174.9,1955.6 1186,1947.5 1197.1,1940.8 1208.2,1935.4 1219.3,1931.4 1230.4,1928.7 1241.6,1927.5 1252.7,1927.5 1263.8,1929 1274.9,1931.8 1286,1936 1297.1,1941.5 1308.3,1948.4 1319.4,1956.3 1330.5,1964.3 1341.6,1972.3 1352.7,1980.5 1363.8,1988.7 1374.9,1997 1386.1,2005.4 1397.2,2013.8 1408.3,2022.4 1419.4,2031 1430.5,2039.7 1441.6,2048.4 1452.7,2057.3 1463.9,2066.2 1475,2075.2 1486.1,2084.3 1497.2,2093.5 1508.3,2102.8 1519.4,2112.1 1530.5,2121.5 1541.7,2131 1552.8,2140.5 1563.9,2149.8 1575,2157.7 1586.1,2164.1 1597.2,2169 1608.4,2172.5 1619.5,2174.4 1630.6,2174.8 1641.7,2173.8 1652.8,2171.3 1663.9,2167.2 1675,2161.7 1686.2,2154.7 1697.3,2146.2 1708.4,2136.2 1719.5,2124.7 1730.6,2111.8 1741.7,2097.3 1752.8,2081.4 1764,2063.9 1775.1,2045 1786.2,2024.6 1797.3,2002.7 1808.4,1979.9 1819.5,1959 1830.6,1940.4 1841.8,1924.2 1852.9,1910.2 1864,1898.6 1875.1,1889.2 1886.2,1882.2 1897.3,1877.5 1908.4,1875.1 1919.6,1875 1930.7,1877.2 1941.8,1881.7 1952.9,1888.5 1964,1897.6 1975.1,1909.1 1986.3,1922.8 1997.4,1938.9 2008.5,1957.2 2019.6,1977.9 2030.7,2000.9 2041.8,2026.2 2052.9,2053.3 2064.1,2079 2075.2,2102.4 2086.3,2123.6 2097.4,2142.6 2108.5,2159.4 2119.6,2174 2130.7,2186.4 2141.9,2196.6 2153,2204.6 2164.1,2210.3 2175.2,2213.9 2186.3,2215.2 2197.4,2214.4 2208.5,2211.3 2219.7,2206 2230.8,2198.5 2241.9,2188.8 2253,2176.9 2264.1,2162.8 2275.2,2146.5 2286.3,2128 2297.5,2107.4 2308.6,2087.3 2319.7,2068.5 2330.8,2050.8 2341.9,2034.5 2353,2019.3 2364.2,2005.4 2375.3,1992.7 2386.4,1981.2 2397.5,1971 2408.6,1961.9 2419.7,1954.2 2430.8,1947.6 2442,1942.3 2453.1,1938.2 2464.2,1935.3 2475.3,1933.7 2486.4,1933.3 2497.5,1934.2 2508.6,1936.2 2519.8,1939.5 2530.9,1944 2542,1949.8 2553.1,1956 2564.2,1962.5 2575.3,1969.3 2586.5,1976.3 2597.6,1983.5 2608.7,1990.9 2619.8,1998.6 2630.9,2006.6 2642,2014.7 2653.1,2023.1 2664.3,2031.8 2675.4,2040.6 2686.5,2049.8 2697.6,2059.1 2708.7,2068.7 2719.8,2078.5 2730.9,2088.6 2742.1,2098.9 2753.2,2109.4 2764.3,2120.2 2775.4,2131.2 2786.5,2142.4 2797.6,2152.8 2808.7,2161.5 2819.9,2168.7 2831,2174.2 2842.1,2178.1 2853.2,2180.4 2864.3,2181.1 2875.4,2180.2 2886.5,2177.7 2897.7,2173.5 2908.8,2167.8 2919.9,2160.4 2931,2151.5 2942.1,2140.9 2953.2,2128.7 2964.4,2114.9 2975.5,2099.5 2986.6,2082.5 2997.7,2063.8 3008.8,2043.6 3019.9,2021.7 3031,1998.3 " stroke-width="4.8188" stroke-dasharray="19.275, 14.456, 4.8188, 14.456" />
</g>
</svg>
