<?xml version="1.0" encoding="ISO-8859-1" standalone="no"?>
<!DOCTYPE svg PUBLIC "-//W3C//DTD SVG 1.1//EN" "http://www.w3.org/Graphics/SVG/1.1/DTD/svg11.dtd">
<svg version="1.1" baseProfile="full" id="body" width="8in" height="8in" viewBox="0 0 1 1" preserveAspectRatio="none" xmlns="http://www.w3.org/2000/svg" xmlns:xlink="http://www.w3.org/1999/xlink" xmlns:ev="http://www.w3.org/2001/xml-events">
<title>SVG drawing</title>
<desc>This was produced by version 4.4 of GNU libplot, a free library for exporting 2-D vector graphics.</desc>
<rect id="background" x="0" y="0" width="1" height="1" stroke="none" fill="white"/>
<g id="content" transform="translate(0,1) scale(1,-1) scale(0.00024414) " xml:space="preserve" stroke="black" stroke-linecap="butt" stroke-linejoin="miter" stroke-miterlimit="10.433" stroke-dasharray="none" stroke-dashoffset="0" stroke-opacity="1" fill="none" fill-rule="evenodd" fill-opacity="1" font-style="normal" font-variant="normal" font-weight="normal" font-stretch="normal" font-size-adjust="none" letter-spacing="normal" word-spacing="normal" text-anchor="start">
<text transform="translate(1804.2,3451.9) scale(1,-1) scale(8.6016) " font-family="Helvetica,sans-serif" font-size="20px" stroke="none" fill="black" >lspline</text>
<rect x="819.2" y="819.2" width="2457.6" height="2457.6" stroke-width="4.8188" />
<text transform="translate(783.33,662.21) scale(1,-1) scale(6.4512) " font-family="Helvetica,sans-serif" font-size="20px" stroke="none" fill="black" >0</text>
<line x1="819.2" y1="3276.8" x2="819.2" y2="3227.6" stroke-width="4.8188" />
<line x1="819.2" y1="819.2" x2="819.2" y2="868.35" stroke-width="4.8188" />
<text transform="translate(1274.9,662.21) scale(1,-1) scale(6.4512) " font-family="Helvetica,sans-serif" font-size="20px" stroke="none" fill="black" >2</text>
<line x1="1310.7" y1="3276.8" x2="1310.7" y2="3227.6" stroke-width="4.8188" />
<line x1="1310.7" y1="819.2" x2="1310.7" y2="868.35" stroke-width="4.8188" />
<text transform="translate(1766.4,662.21) scale(1,-1) scale(6.4512) " font-family="Helvetica,sans-serif" font-size="20px" stroke="none" fill="black" >4</text>
<line x1="1802.2" y1="3276.8" x2="1802.2" y2="3227.6" stroke-width="4.8188" />
<line x1="1802.2" y1="819.2" x2="1802.2" y2="868.35" stroke-width="4.8188" />
<text transform="translate(2257.9,662.21) scale(1,-1) scale(6.4512) " font-family="Helvetica,sans-serif" font-size="20px" stroke="none" fill="black" >6</text>
<line x1="2293.8" y1="3276.8" x2="2293.8" y2="3227.6" stroke-width="4.8188" />
<line x1="2293.8" y1="819.2" x2="2293.8" y2="868.35" stroke-width="4.8188" />
<text transform="translate(2749.4,662.21) scale(1,-1) scale(6.4512) " font-family="Helvetica,sans-serif" font-size="20px" stroke="none" fill="black" >8</text>
<line x1="2785.3" y1="3276.8" x2="2785.3" y2="3227.6" stroke-width="4.8188" />
<line x1="2785.3" y1="819.2" x2="2785.3" y2="868.35" stroke-width="4.8188" />
<text transform="translate(3205.1,662.21) scale(1,-1) scale(6.4512) " font-family="Helvetica,sans-serif" font-size="20px" stroke="none" fill="black" >10</text>
<line x1="3276.8" y1="3276.8" x2="3276.8" y2="3227.6" stroke-width="4.8188" />
<line x1="3276.8" y1="819.2" x2="3276.8" y2="868.35" stroke-width="4.8188" />
<line x1="819.2" y1="3276.8" x2="819.2" y2="3257.1" stroke-width="4.8188" />
<line x1="819.2" y1="819.2" x2="819.2" y2="838.86" stroke-width="4.8188" />
<line x1="1065" y1="3276.8" x2="1065" y2="3257.1" stroke-width="4.8188" />
<line x1="1065" y1="819.2" x2="1065" y2="838.86" stroke-width="4.8188" />
<line x1="1310.7" y1="3276.8" x2="1310.7" y2="3257.1" stroke-width="4.8188" />
<line x1="1310.7" y1="819.2" x2="1310.7" y2="838.86" stroke-width="4.8188" />
<line x1="1556.5" y1="3276.8" x2="1556.5" y2="3257.1" stroke-width="4.8188" />
<line x1="1556.5" y1="819.2" x2="1556.5" y2="838.86" stroke-width="4.8188" />
<line x1="1802.2" y1="3276.8" x2="1802.2" y2="3257.1" stroke-width="4.8188" />
<line x1="1802.2" y1="819.2" x2="1802.2" y2="838.86" stroke-width="4.8188" />
<line x1="2048" y1="3276.8" x2="2048" y2="3257.1" stroke-width="4.8188" />
<line x1="2048" y1="819.2" x2="2048" y2="838.86" stroke-width="4.8188" />
<line x1="2293.8" y1="3276.8" x2="2293.8" y2="3257.1" stroke-width="4.8188" />
<line x1="2293.8" y1="819.2" x2="2293.8" y2="838.86" stroke-width="4.8188" />
<line x1="2539.5" y1="3276.8" x2="2539.5" y2="3257.1" stroke-width="4.8188" />
<line x1="2539.5" y1="819.2" x2="2539.5" y2="838.86" stroke-width="4.8188" />
<line x1="2785.3" y1="3276.8" x2="2785.3" y2="3257.1" stroke-width="4.8188" />
<line x1="2785.3" y1="819.2" x2="2785.3" y2="838.86" stroke-width="4.8188" />
<line x1="3031" y1="3276.8" x2="3031" y2="3257.1" stroke-width="4.8188" />
<line x1="3031" y1="819.2" x2="3031" y2="838.86" stroke-width="4.8188" />
<line x1="3276.8" y1="3276.8" x2="3276.8" y2="3257.1" stroke-width="4.8188" />
<line x1="3276.8" y1="819.2" x2="3276.8" y2="838.86" stroke-width="4.8188" />
<text transform="translate(710.6,773.65) scale(1,-1) scale(6.4512) " font-family="Helvetica,sans-serif" font-size="20px" stroke="none" fill="black" >0</text>
<line x1="3276.8" y1="819.2" x2="3227.6" y2="819.2" stroke-width="4.8188" />
<line x1="819.2" y1="819.2" x2="868.35" y2="819.2" stroke-width="4.8188" />
<text transform="translate(710.6,1265.2) scale(1,-1) scale(6.4512) " font-family="Helvetica,sans-serif" font-size="20px" stroke="none" fill="black" >2</text>
<line x1="3276.8" y1="1310.7" x2="3227.6" y2="1310.7" stroke-width="4.8188" />
<line x1="819.2" y1="1310.7" x2="868.35" y2="1310.7" stroke-width="4.8188" />
<text transform="translate(710.6,1756.7) scale(1,-1) scale(6.4512) " font-family="Helvetica,sans-serif" font-size="20px" stroke="none" fill="black" >4</text>
<line x1="3276.8" y1="1802.2" x2="3227.6" y2="1802.2" stroke-width="4.8188" />
<line x1="819.2" y1="1802.2" x2="868.35" y2="1802.2" stroke-width="4.8188" />
<text transform="translate(710.6,2248.2) scale(1,-1) scale(6.4512) " font-family="Helvetica,sans-serif" font-size="20px" stroke="none" fill="black" >6</text>
<line x1="3276.8" y1="2293.8" x2="3227.6" y2="2293.8" stroke-width="4.8188" />
<line x1="819.2" y1="2293.8" x2="868.35" y2="2293.8" stroke-width="4.8188" />
<text transform="translate(710.6,2739.7) scale(1,-1) scale(6.4512) " font-family="Helvetica,sans-serif" font-size="20px" stroke="none" fill="black" >8</text>
<line x1="3276.8" y1="2785.3" x2="3227.6" y2="2785.3" stroke-width="4.8188" />
<line x1="819.2" y1="2785.3" x2="868.35" y2="2785.3" stroke-width="4.8188" />
<text transform="translate(638.86,3231.3) scale(1,-1) scale(6.4512) " font-family="Helvetica,sans-serif" font-size="20px" stroke="none" fill="black" >10</text>
<line x1="3276.8" y1="3276.8" x2="3227.6" y2="3276.8" stroke-width="4.8188" />
<line x1="819.2" y1="3276.8" x2="868.35" y2="3276.8" stroke-width="4.8188" />
<line x1="3276.8" y1="819.2" x2="3257.1" y2="819.2" stroke-width="4.8188" />
<line x1="819.2" y1="819.2" x2="838.86" y2="819.2" stroke-width="4.8188" />
<line x1="3276.8" y1="1065" x2="3257.1" y2="1065" stroke-width="4.8188" />
<line x1="819.2" y1="1065" x2="838.86" y2="1065" stroke-width="4.8188" />
<line x1="3276.8" y1="1310.7" x2="3257.1" y2="1310.7" stroke-width="4.8188" />
<line x1="819.2" y1="1310.7" x2="838.86" y2="1310.7" stroke-width="4.8188" />
<line x1="3276.8" y1="1556.5" x2="3257.1" y2="1556.5" stroke-width="4.8188" />
<line x1="819.2" y1="1556.5" x2="838.86" y2="1556.5" stroke-width="4.8188" />
<line x1="3276.8" y1="1802.2" x2="3257.1" y2="1802.2" stroke-width="4.8188" />
<line x1="819.2" y1="1802.2" x2="838.86" y2="1802.2" stroke-width="4.8188" />
<line x1="3276.8" y1="2048" x2="3257.1" y2="2048" stroke-width="4.8188" />
<line x1="819.2" y1="2048" x2="838.86" y2="2048" stroke-width="4.8188" />
<line x1="3276.8" y1="2293.8" x2="3257.1" y2="2293.8" stroke-width="4.8188" />
<line x1="819.2" y1="2293.8" x2="838.86" y2="2293.8" stroke-width="4.8188" />
<line x1="3276.8" y1="2539.5" x2="3257.1" y2="2539.5" stroke-width="4.8188" />
<line x1="819.2" y1="2539.5" x2="838.86" y2="2539.5" stroke-width="4.8188" />
<line x1="3276.8" y1="2785.3" x2="3257.1" y2="2785.3" stroke-width="4.8188" />
<line x1="819.2" y1="2785.3" x2="838.86" y2="2785.3" stroke-width="4.8188" />
<line x1="3276.8" y1="3031" x2="3257.1" y2="3031" stroke-width="4.8188" />
<line x1="819.2" y1="3031" x2="838.86" y2="3031" stroke-width="4.8188" />
<line x1="3276.8" y1="3276.8" x2="3257.1" y2="3276.8" stroke-width="4.8188" />
<line x1="819.2" y1="3276.8" x2="838.86" y2="3276.8" stroke-width="4.8188" />
<text transform="translate(2015.7,501.24) scale(1,-1) scale(6.4512) " font-family="Helvetica,sans-serif" font-size="20px" stroke="none" fill="black" >x</text>
<text transform="matrix(0 6.4512 6.4512 0 552.83 2015.7) " font-family="Helvetica,sans-serif" font-size="20px" stroke="none" fill="black" >y</text>
<circle cx="819.2" cy="819.2" r="23.04" stroke-width="2.304" />
<circle cx="1065" cy="890.94" r="23.04" stroke-width="2.304" />
<circle cx="1310.7" cy="904.32" r="23.04" stroke-width="2.304" />
<circle cx="1556.5" cy="1541.8" r="23.04" stroke-width="2.304" />
<circle cx="1802.2" cy="1239.2" r="23.04" stroke-width="2.304" />
<circle cx="2048" cy="918.07" r="23.04" stroke-width="2.304" />
<circle cx="2293.8" cy="2178.6" r="23.04" stroke-width="2.304" />
<circle cx="2539.5" cy="1797" r="23.04" stroke-width="2.304" />
<circle cx="2785.3" cy="860.82" r="23.04" stroke-width="2.304" />
<circle cx="3031" cy="2655.4" r="23.04" stroke-width="2.304" />
<polyline points="819.2,819.2 831.49,831.46 843.78,843.53 856.06,855.24 868.35,866.41 880.64,876.88 892.93,886.49 905.22,895.1 917.5,902.6 929.79,908.87 942.08,913.84 954.37,917.44 966.66,919.64 978.94,920.44 991.23,919.84 1003.5,917.88 1015.8,914.63 1028.1,910.19 1040.4,904.67 1052.7,898.2 1065,890.94 1077.2,883.09 1089.5,874.82 1101.8,866.36 1114.1,857.92 1126.4,849.74 1138.7,842.06 1151,835.11 1163.3,829.14 1175.6,824.37 1187.8,821.04 1200.1,819.36 1212.4,819.54 1224.7,821.74 1237,826.14 1249.3,832.86 1261.6,842.04 1273.9,853.73 1286.1,868 1298.4,884.87 1310.7,904.32 1323,926.3 1335.3,950.74 1347.6,977.5 1359.9,1006.5 1372.2,1037.4 1384.4,1070.1 1396.7,1104.4 1409,1139.9 1421.3,1176.4 1433.6,1213.5 1445.9,1251 1458.2,1288.4 1470.5,1325.4 1482.8,1361.6 1495,1396.6 1507.3,1430.1 1519.6,1461.7 1531.9,1491.1 1544.2,1517.9 1556.5,1541.8 1568.8,1562.5 1581.1,1579.7 1593.3,1593.3 1605.6,1603 1617.9,1608.6 1630.2,1610 1642.5,1607.3 1654.8,1600.2 1667.1,1589 1679.4,1573.5 1691.6,1554 1703.9,1530.7 1716.2,1503.7 1728.5,1473.2 1740.8,1439.7 1753.1,1403.5 1765.4,1364.8 1777.7,1324.3 1790,1282.2 1802.2,1239.2 1814.5,1195.7 1826.8,1152.1 1839.1,1109.2 1851.4,1067.3 1863.7,1027 1876,988.96 1888.3,953.56 1900.5,921.34 1912.8,892.78 1925.1,868.34 1937.4,848.43 1949.7,833.42 1962,823.64 1974.3,819.38 1986.6,820.85 1998.8,828.23 2011.1,841.63 2023.4,861.09 2035.7,886.6 2048,918.07 2060.3,955.37 2072.6,998.27 2084.9,1046.5 2097.2,1099.7 2109.4,1157.5 2121.7,1219.5 2134,1285.1 2146.3,1353.8 2158.6,1425 2170.9,1498 2183.2,1572.3 2195.5,1647 2207.7,1721.6 2220,1795.2 2232.3,1867.2 2244.6,1936.9 2256.9,2003.6 2269.2,2066.5 2281.5,2125.1 2293.8,2178.6 2306,2226.7 2318.3,2268.6 2330.6,2304 2342.9,2332.4 2355.2,2353.5 2367.5,2367.1 2379.8,2372.8 2392.1,2370.7 2404.4,2360.6 2416.6,2342.7 2428.9,2317 2441.2,2283.8 2453.5,2243.3 2465.8,2195.9 2478.1,2142.1 2490.4,2082.4 2502.7,2017.3 2514.9,1947.6 2527.2,1873.9 2539.5,1797 2551.8,1717.7 2564.1,1636.9 2576.4,1555.4 2588.7,1474.1 2601,1393.9 2613.2,1315.7 2625.5,1240.5 2637.8,1169 2650.1,1102.1 2662.4,1040.7 2674.7,985.44 2687,937.12 2699.3,896.35 2711.6,863.71 2723.8,839.72 2736.1,824.78 2748.4,819.23 2760.7,823.31 2773,837.16 2785.3,860.82 2797.6,894.25 2809.9,937.27 2822.1,989.64 2834.4,1051 2846.7,1120.9 2859,1198.8 2871.3,1284 2883.6,1375.9 2895.9,1473.6 2908.2,1576.3 2920.4,1683 2932.7,1792.8 2945,1904.7 2957.3,2017.6 2969.6,2130.3 2981.9,2242 2994.2,2351.4 3006.5,2457.4 3018.8,2559.1 3031,2655.4 3043.3,2745.3 3055.6,2827.9 3067.9,2902.4 3080.2,2967.9 3092.5,3023.7 3104.8,3069.4 3117.1,3104.2 3129.3,3127.9 3141.6,3140.2 3153.9,3140.7 3166.2,3129.6 3178.5,3106.8 3190.8,3072.5 3203.1,3027 3215.4,2970.7 3227.6,2904.2 3239.9,2828 3252.2,2742.9 3264.5,2649.7 " stroke-width="4.8188" stroke-dasharray="4.8188, 14.456" />
<polyline points="819.2,819.2 841.54,825.72 863.88,832.24 886.23,838.77 908.57,845.29 930.91,851.81 953.25,858.33 975.59,864.86 997.93,871.38 1020.3,877.9 1042.6,884.42 1065,890.94 1087.3,892.16 1109.6,893.38 1132,894.59 1154.3,895.81 1176.7,897.02 1199,898.24 1221.4,899.46 1243.7,900.67 1266,901.89 1288.4,903.1 1310.7,904.32 1333.1,962.27 1355.4,1020.2 1377.7,1078.2 1400.1,1136.1 1422.4,1194.1 1444.8,1252 1467.1,1310 1489.5,1367.9 1511.8,1425.9 1534.1,1483.8 1556.5,1541.8 1578.8,1514.3 1601.2,1486.8 1623.5,1459.3 1645.8,1431.8 1668.2,1404.3 1690.5,1376.7 1712.9,1349.2 1735.2,1321.7 1757.6,1294.2 1779.9,1266.7 1802.2,1239.2 1824.6,1210 1846.9,1180.8 1869.3,1151.6 1891.6,1122.4 1914,1093.2 1936.3,1064 1958.6,1034.8 1981,1005.7 2003.3,976.46 2025.7,947.27 2048,918.07 2070.3,1032.7 2092.7,1147.3 2115,1261.9 2137.4,1376.5 2159.7,1491.1 2182,1605.7 2204.4,1720.2 2226.7,1834.8 2249.1,1949.4 2271.4,2064 2293.8,2178.6 2316.1,2143.9 2338.4,2109.2 2360.8,2074.5 2383.1,2039.9 2405.5,2005.2 2427.8,1970.5 2450.2,1935.8 2472.5,1901.1 2494.8,1866.4 2517.2,1831.7 2539.5,1797 2561.9,1711.9 2584.2,1626.8 2606.5,1541.7 2628.9,1456.6 2651.2,1371.5 2673.6,1286.3 2695.9,1201.2 2718.3,1116.1 2740.6,1031 2762.9,945.93 2785.3,860.82 2807.6,1024 2830,1187.1 2852.3,1350.2 2874.6,1513.4 2897,1676.5 2919.3,1839.7 2941.7,2002.8 2964,2166 2986.4,2329.1 3008.7,2492.2 " stroke-width="4.8188" />
<polyline points="819.2,1310.7 841.54,1311 863.88,1311.9 886.23,1313.4 908.57,1315.5 930.91,1318.1 953.25,1321.4 975.59,1325.2 997.93,1329.7 1020.3,1334.7 1042.6,1340.4 1065,1317.4 1087.3,1324 1109.6,1330.7 1132,1337.5 1154.3,1344.4 1176.7,1351.4 1199,1358.5 1221.4,1365.8 1243.7,1373.1 1266,1380.6 1288.4,1388.2 1310.7,1395.8 1333.1,2030.3 1355.4,2046 1377.7,2066.9 1400.1,2093 1422.4,2124.5 1444.8,2161.2 1467.1,2203.2 1489.5,2250.4 1511.8,2303 1534.1,2360.7 1556.5,2423.8 1578.8,1078.1 1601.2,1140.1 1623.5,1199.5 1645.8,1256.5 1668.2,1310.9 1690.5,1362.8 1712.9,1412.3 1735.2,1459.2 1757.6,1503.6 1779.9,1545.6 1802.2,1585 " stroke-width="4.8188" stroke-dasharray="4.8188, 14.456" />
</g>
</svg>
