<?xml version="1.0" encoding="ISO-8859-1" standalone="no"?>
<!DOCTYPE svg PUBLIC "-//W3C//DTD SVG 1.1//EN" "http://www.w3.org/Graphics/SVG/1.1/DTD/svg11.dtd">
<svg version="1.1" baseProfile="full" id="body" width="8in" height="8in" viewBox="0 0 1 1" preserveAspectRatio="none" xmlns="http://www.w3.org/2000/svg" xmlns:xlink="http://www.w3.org/1999/xlink" xmlns:ev="http://www.w3.org/2001/xml-events">
<title>SVG drawing</title>
<desc>This was produced by version 4.4 of GNU libplot, a free library for exporting 2-D vector graphics.</desc>
<rect id="background" x="0" y="0" width="1" height="1" stroke="none" fill="white"/>
<g id="content" transform="translate(0,1) scale(1,-1) scale(0.00024414) " xml:space="preserve" stroke="black" stroke-linecap="butt" stroke-linejoin="miter" stroke-miterlimit="10.433" stroke-dasharray="none" stroke-dashoffset="0" stroke-opacity="1" fill="none" fill-rule="evenodd" fill-opacity="1" font-style="normal" font-variant="normal" font-weight="normal" font-stretch="normal" font-size-adjust="none" letter-spacing="normal" word-spacing="normal" text-anchor="start">
<text transform="translate(1804.2,3451.9) scale(1,-1) scale(8.6016) " font-family="Helvetica,sans-serif" font-size="20px" stroke="none" fill="black" >lspline</text>
<rect x="819.2" y="819.2" width="2457.6" height="2457.6" stroke-width="4.8188" />
<text transform="translate(729.53,662.21) scale(1,-1) scale(6.4512) " font-family="Helvetica,sans-serif" font-size="20px" stroke="none" fill="black" >0.0</text>
<line x1="819.2" y1="3276.8" x2="819.2" y2="3227.6" stroke-width="4.8188" />
<line x1="819.2" y1="819.2" x2="819.2" y2="868.35" stroke-width="4.8188" />
<text transform="translate(1139.1,662.21) scale(1,-1) scale(6.4512) " font-family="Helvetica,sans-serif" font-size="20px" stroke="none" fill="black" >0.5</text>
<line x1="1228.8" y1="3276.8" x2="1228.8" y2="3227.6" stroke-width="4.8188" />
<line x1="1228.8" y1="819.2" x2="1228.8" y2="868.35" stroke-width="4.8188" />
<text transform="translate(1548.7,662.21) scale(1,-1) scale(6.4512) " font-family="Helvetica,sans-serif" font-size="20px" stroke="none" fill="black" >1.0</text>
<line x1="1638.4" y1="3276.8" x2="1638.4" y2="3227.6" stroke-width="4.8188" />
<line x1="1638.4" y1="819.2" x2="1638.4" y2="868.35" stroke-width="4.8188" />
<text transform="translate(1958.3,662.21) scale(1,-1) scale(6.4512) " font-family="Helvetica,sans-serif" font-size="20px" stroke="none" fill="black" >1.5</text>
<line x1="2048" y1="3276.8" x2="2048" y2="3227.6" stroke-width="4.8188" />
<line x1="2048" y1="819.2" x2="2048" y2="868.35" stroke-width="4.8188" />
<text transform="translate(2367.9,662.21) scale(1,-1) scale(6.4512) " font-family="Helvetica,sans-serif" font-size="20px" stroke="none" fill="black" >2.0</text>
<line x1="2457.6" y1="3276.8" x2="2457.6" y2="3227.6" stroke-width="4.8188" />
<line x1="2457.6" y1="819.2" x2="2457.6" y2="868.35" stroke-width="4.8188" />
<text transform="translate(2777.5,662.21) scale(1,-1) scale(6.4512) " font-family="Helvetica,sans-serif" font-size="20px" stroke="none" fill="black" >2.5</text>
<line x1="2867.2" y1="3276.8" x2="2867.2" y2="3227.6" stroke-width="4.8188" />
<line x1="2867.2" y1="819.2" x2="2867.2" y2="868.35" stroke-width="4.8188" />
<text transform="translate(3187.1,662.21) scale(1,-1) scale(6.4512) " font-family="Helvetica,sans-serif" font-size="20px" stroke="none" fill="black" >3.0</text>
<line x1="3276.8" y1="3276.8" x2="3276.8" y2="3227.6" stroke-width="4.8188" />
<line x1="3276.8" y1="819.2" x2="3276.8" y2="868.35" stroke-width="4.8188" />
<text transform="translate(602.99,773.65) scale(1,-1) scale(6.4512) " font-family="Helvetica,sans-serif" font-size="20px" stroke="none" fill="black" >0.0</text>
<line x1="3276.8" y1="819.2" x2="3227.6" y2="819.2" stroke-width="4.8188" />
<line x1="819.2" y1="819.2" x2="868.35" y2="819.2" stroke-width="4.8188" />
<text transform="translate(602.99,1124.7) scale(1,-1) scale(6.4512) " font-family="Helvetica,sans-serif" font-size="20px" stroke="none" fill="black" >0.2</text>
<line x1="3276.8" y1="1170.3" x2="3227.6" y2="1170.3" stroke-width="4.8188" />
<line x1="819.2" y1="1170.3" x2="868.35" y2="1170.3" stroke-width="4.8188" />
<text transform="translate(602.99,1475.8) scale(1,-1) scale(6.4512) " font-family="Helvetica,sans-serif" font-size="20px" stroke="none" fill="black" >0.4</text>
<line x1="3276.8" y1="1521.4" x2="3227.6" y2="1521.4" stroke-width="4.8188" />
<line x1="819.2" y1="1521.4" x2="868.35" y2="1521.4" stroke-width="4.8188" />
<text transform="translate(602.99,1826.9) scale(1,-1) scale(6.4512) " font-family="Helvetica,sans-serif" font-size="20px" stroke="none" fill="black" >0.6</text>
<line x1="3276.8" y1="1872.5" x2="3227.6" y2="1872.5" stroke-width="4.8188" />
<line x1="819.2" y1="1872.5" x2="868.35" y2="1872.5" stroke-width="4.8188" />
<text transform="translate(602.99,2178) scale(1,-1) scale(6.4512) " font-family="Helvetica,sans-serif" font-size="20px" stroke="none" fill="black" >0.8</text>
<line x1="3276.8" y1="2223.5" x2="3227.6" y2="2223.5" stroke-width="4.8188" />
<line x1="819.2" y1="2223.5" x2="868.35" y2="2223.5" stroke-width="4.8188" />
<text transform="translate(602.99,2529.1) scale(1,-1) scale(6.4512) " font-family="Helvetica,sans-serif" font-size="20px" stroke="none" fill="black" >1.0</text>
<line x1="3276.8" y1="2574.6" x2="3227.6" y2="2574.6" stroke-width="4.8188" />
<line x1="819.2" y1="2574.6" x2="868.35" y2="2574.6" stroke-width="4.8188" />
<text transform="translate(602.99,2880.2) scale(1,-1) scale(6.4512) " font-family="Helvetica,sans-serif" font-size="20px" stroke="none" fill="black" >1.2</text>
<line x1="3276.8" y1="2925.7" x2="3227.6" y2="2925.7" stroke-width="4.8188" />
<line x1="819.2" y1="2925.7" x2="868.35" y2="2925.7" stroke-width="4.8188" />
<text transform="translate(602.99,3231.3) scale(1,-1) scale(6.4512) " font-family="Helvetica,sans-serif" font-size="20px" stroke="none" fill="black" >1.4</text>
<line x1="3276.8" y1="3276.8" x2="3227.6" y2="3276.8" stroke-width="4.8188" />
<line x1="819.2" y1="3276.8" x2="868.35" y2="3276.8" stroke-width="4.8188" />
<line x1="3276.8" y1="819.2" x2="3257.1" y2="819.2" stroke-width="4.8188" />
<line x1="819.2" y1="819.2" x2="838.86" y2="819.2" stroke-width="4.8188" />
<line x1="3276.8" y1="994.74" x2="3257.1" y2="994.74" stroke-width="4.8188" />
<line x1="819.2" y1="994.74" x2="838.86" y2="994.74" stroke-width="4.8188" />
<line x1="3276.8" y1="1170.3" x2="3257.1" y2="1170.3" stroke-width="4.8188" />
<line x1="819.2" y1="1170.3" x2="838.86" y2="1170.3" stroke-width="4.8188" />
<line x1="3276.8" y1="1345.8" x2="3257.1" y2="1345.8" stroke-width="4.8188" />
<line x1="819.2" y1="1345.8" x2="838.86" y2="1345.8" stroke-width="4.8188" />
<line x1="3276.8" y1="1521.4" x2="3257.1" y2="1521.4" stroke-width="4.8188" />
<line x1="819.2" y1="1521.4" x2="838.86" y2="1521.4" stroke-width="4.8188" />
<line x1="3276.8" y1="1696.9" x2="3257.1" y2="1696.9" stroke-width="4.8188" />
<line x1="819.2" y1="1696.9" x2="838.86" y2="1696.9" stroke-width="4.8188" />
<line x1="3276.8" y1="1872.5" x2="3257.1" y2="1872.5" stroke-width="4.8188" />
<line x1="819.2" y1="1872.5" x2="838.86" y2="1872.5" stroke-width="4.8188" />
<line x1="3276.8" y1="2048" x2="3257.1" y2="2048" stroke-width="4.8188" />
<line x1="819.2" y1="2048" x2="838.86" y2="2048" stroke-width="4.8188" />
<line x1="3276.8" y1="2223.5" x2="3257.1" y2="2223.5" stroke-width="4.8188" />
<line x1="819.2" y1="2223.5" x2="838.86" y2="2223.5" stroke-width="4.8188" />
<line x1="3276.8" y1="2399.1" x2="3257.1" y2="2399.1" stroke-width="4.8188" />
<line x1="819.2" y1="2399.1" x2="838.86" y2="2399.1" stroke-width="4.8188" />
<line x1="3276.8" y1="2574.6" x2="3257.1" y2="2574.6" stroke-width="4.8188" />
<line x1="819.2" y1="2574.6" x2="838.86" y2="2574.6" stroke-width="4.8188" />
<line x1="3276.8" y1="2750.2" x2="3257.1" y2="2750.2" stroke-width="4.8188" />
<line x1="819.2" y1="2750.2" x2="838.86" y2="2750.2" stroke-width="4.8188" />
<line x1="3276.8" y1="2925.7" x2="3257.1" y2="2925.7" stroke-width="4.8188" />
<line x1="819.2" y1="2925.7" x2="838.86" y2="2925.7" stroke-width="4.8188" />
<line x1="3276.8" y1="3101.3" x2="3257.1" y2="3101.3" stroke-width="4.8188" />
<line x1="819.2" y1="3101.3" x2="838.86" y2="3101.3" stroke-width="4.8188" />
<line x1="3276.8" y1="3276.8" x2="3257.1" y2="3276.8" stroke-width="4.8188" />
<line x1="819.2" y1="3276.8" x2="838.86" y2="3276.8" stroke-width="4.8188" />
<text transform="translate(2015.7,501.24) scale(1,-1) scale(6.4512) " font-family="Helvetica,sans-serif" font-size="20px" stroke="none" fill="black" >x</text>
<text transform="matrix(0 6.4512 6.4512 0 511.58 2015.7) " font-family="Helvetica,sans-serif" font-size="20px" stroke="none" fill="black" >y</text>
<circle cx="819.2" cy="819.2" r="23.04" stroke-width="2.304" />
<circle cx="1080" cy="1368.6" r="23.04" stroke-width="2.304" />
<circle cx="1340.7" cy="1862.8" r="23.04" stroke-width="2.304" />
<circle cx="1601.5" cy="2252.1" r="23.04" stroke-width="2.304" />
<circle cx="1862.2" cy="2497.5" r="23.04" stroke-width="2.304" />
<circle cx="2123" cy="2574.3" r="23.04" stroke-width="2.304" />
<circle cx="2383.8" cy="2474.7" r="23.04" stroke-width="2.304" />
<circle cx="2644.5" cy="2208.8" r="23.04" stroke-width="2.304" />
<circle cx="2905.3" cy="1803.3" r="23.04" stroke-width="2.304" />
<circle cx="3166" cy="1298.9" r="23.04" stroke-width="2.304" />
<polyline points="819.2,819.2 830.99,844.05 842.79,868.89 854.58,893.74 866.37,918.59 878.17,943.43 889.96,968.28 901.75,993.13 913.54,1018 925.34,1042.8 937.13,1067.7 948.92,1092.5 960.72,1117.4 972.51,1142.2 984.3,1167.1 996.1,1191.9 1007.9,1216.7 1019.7,1241.6 1031.5,1266.4 1043.3,1291.3 1055.1,1316.1 1066.9,1341 1078.6,1365.8 1090.4,1390.7 1102.2,1415.5 1114,1440.4 1125.8,1465.2 1137.6,1490.1 1149.4,1514.9 1161.2,1539.7 1173,1564.6 1184.8,1589.4 1196.6,1614.3 1208.4,1639.1 1220.2,1664 1232,1688.8 1243.8,1713.7 1255.5,1738.5 1267.3,1763.4 1279.1,1788.2 1290.9,1813.1 1302.7,1837.9 1314.5,1862.7 1326.3,1887.6 1338.1,1912.4 1349.9,1937.3 1361.7,1962.1 1373.5,1987 1385.3,2011.8 1397.1,2036.7 1408.9,2061.5 1420.7,2086.4 1432.4,2111.2 1444.2,2136.1 1456,2160.9 1467.8,2185.8 1479.6,2210.6 1491.4,2235.4 1503.2,2260.3 1515,2285.1 1526.8,2310 1538.6,2334.8 1550.4,2359.7 1562.2,2384.5 1574,2409.4 1585.8,2434.2 1597.5,2459.1 1609.3,2483.9 1621.1,2508.8 1632.9,2533.6 1644.7,2558.5 1656.5,2583.3 1668.3,2608.1 1680.1,2633 1691.9,2657.8 1703.7,2682.7 1715.5,2707.5 1727.3,2732.4 1739.1,2757.2 1750.9,2782.1 1762.6,2806.9 1774.4,2831.8 1786.2,2856.6 1798,2881.5 1809.8,2906.3 1821.6,2931.1 1833.4,2956 1845.2,2980.8 1857,3005.7 1868.8,2499.4 1880.6,2502.9 1892.4,2506.4 1904.2,2509.8 1916,2513.3 1927.8,2516.8 1939.5,2520.2 1951.3,2523.7 1963.1,2527.2 1974.9,2530.7 1986.7,2534.1 1998.5,2537.6 2010.3,2541.1 2022.1,2544.5 2033.9,2548 2045.7,2551.5 2057.5,2555 2069.3,2558.4 2081.1,2561.9 2092.9,2565.4 2104.7,2568.8 2116.4,2572.3 2128.2,2575.8 2140,2579.3 2151.8,2582.7 2163.6,2586.2 2175.4,2589.7 2187.2,2593.1 2199,2596.6 2210.8,2600.1 2222.6,2603.6 2234.4,2607 2246.2,2610.5 2258,2614 2269.8,2617.5 2281.5,2620.9 2293.3,2624.4 2305.1,2627.9 2316.9,2631.3 2328.7,2634.8 2340.5,2638.3 2352.3,2641.8 2364.1,2645.2 2375.9,2648.7 2387.7,2652.2 2399.5,2655.6 2411.3,2659.1 2423.1,2662.6 2434.9,2666.1 2446.7,2669.5 2458.4,2673 2470.2,2676.5 2482,2679.9 2493.8,2683.4 2505.6,2686.9 2517.4,2690.4 2529.2,2693.8 2541,2697.3 2552.8,2700.8 2564.6,2704.2 2576.4,2707.7 2588.2,2711.2 2600,2714.7 2611.8,2718.1 2623.6,2721.6 2635.3,2725.1 2647.1,2728.5 2658.9,2732 2670.7,2735.5 2682.5,2739 2694.3,2742.4 2706.1,2745.9 2717.9,2749.4 2729.7,2752.9 2741.5,2756.3 2753.3,2759.8 2765.1,2763.3 2776.9,2766.7 2788.7,2770.2 2800.5,2773.7 2812.2,2777.2 2824,2780.6 2835.8,2784.1 2847.6,2787.6 2859.4,2791 2871.2,2794.5 2883,2798 2894.8,2801.4 2906.6,2804.9 2918.4,2808.4 2930.2,2811.9 2942,2815.3 2953.8,2818.8 2965.6,2822.3 2977.3,2825.8 2989.1,2829.2 3000.9,2832.7 3012.7,2836.2 3024.5,2839.6 3036.3,2843.1 3048.1,2846.6 3059.9,2850.1 3071.7,2853.5 3083.5,2857 3095.3,2860.5 3107.1,2863.9 3118.9,2867.4 3130.7,2870.9 3142.5,2874.4 3154.2,2877.8 " stroke-width="4.8188" />
</g>
</svg>
