<?xml version="1.0" encoding="ISO-8859-1" standalone="no"?>
<!DOCTYPE svg PUBLIC "-//W3C//DTD SVG 1.1//EN" "http://www.w3.org/Graphics/SVG/1.1/DTD/svg11.dtd">
<svg version="1.1" baseProfile="full" id="body" width="8in" height="8in" viewBox="0 0 1 1" preserveAspectRatio="none" xmlns="http://www.w3.org/2000/svg" xmlns:xlink="http://www.w3.org/1999/xlink" xmlns:ev="http://www.w3.org/2001/xml-events">
<title>SVG drawing</title>
<desc>This was produced by version 4.4 of GNU libplot, a free library for exporting 2-D vector graphics.</desc>
<rect id="background" x="0" y="0" width="1" height="1" stroke="none" fill="white"/>
<g id="content" transform="translate(0,1) scale(1,-1) scale(0.00024414) " xml:space="preserve" stroke="black" stroke-linecap="butt" stroke-linejoin="miter" stroke-miterlimit="10.433" stroke-dasharray="none" stroke-dashoffset="0" stroke-opacity="1" fill="none" fill-rule="evenodd" fill-opacity="1" font-style="normal" font-variant="normal" font-weight="normal" font-stretch="normal" font-size-adjust="none" letter-spacing="normal" word-spacing="normal" text-anchor="start">
<text transform="translate(1775.5,3451.9) scale(1,-1) scale(8.6016) " font-family="Helvetica,sans-serif" font-size="20px" stroke="none" fill="black" >qspline</text>
<rect x="819.2" y="819.2" width="2457.6" height="2457.6" stroke-width="4.8188" />
<text transform="translate(783.33,662.21) scale(1,-1) scale(6.4512) " font-family="Helvetica,sans-serif" font-size="20px" stroke="none" fill="black" >0</text>
<line x1="819.2" y1="3276.8" x2="819.2" y2="3227.6" stroke-width="4.8188" />
<line x1="819.2" y1="819.2" x2="819.2" y2="868.35" stroke-width="4.8188" />
<text transform="translate(1274.9,662.21) scale(1,-1) scale(6.4512) " font-family="Helvetica,sans-serif" font-size="20px" stroke="none" fill="black" >1</text>
<line x1="1310.7" y1="3276.8" x2="1310.7" y2="3227.6" stroke-width="4.8188" />
<line x1="1310.7" y1="819.2" x2="1310.7" y2="868.35" stroke-width="4.8188" />
<text transform="translate(1766.4,662.21) scale(1,-1) scale(6.4512) " font-family="Helvetica,sans-serif" font-size="20px" stroke="none" fill="black" >2</text>
<line x1="1802.2" y1="3276.8" x2="1802.2" y2="3227.6" stroke-width="4.8188" />
<line x1="1802.2" y1="819.2" x2="1802.2" y2="868.35" stroke-width="4.8188" />
<text transform="translate(2257.9,662.21) scale(1,-1) scale(6.4512) " font-family="Helvetica,sans-serif" font-size="20px" stroke="none" fill="black" >3</text>
<line x1="2293.8" y1="3276.8" x2="2293.8" y2="3227.6" stroke-width="4.8188" />
<line x1="2293.8" y1="819.2" x2="2293.8" y2="868.35" stroke-width="4.8188" />
<text transform="translate(2749.4,662.21) scale(1,-1) scale(6.4512) " font-family="Helvetica,sans-serif" font-size="20px" stroke="none" fill="black" >4</text>
<line x1="2785.3" y1="3276.8" x2="2785.3" y2="3227.6" stroke-width="4.8188" />
<line x1="2785.3" y1="819.2" x2="2785.3" y2="868.35" stroke-width="4.8188" />
<text transform="translate(3240.9,662.21) scale(1,-1) scale(6.4512) " font-family="Helvetica,sans-serif" font-size="20px" stroke="none" fill="black" >5</text>
<line x1="3276.8" y1="3276.8" x2="3276.8" y2="3227.6" stroke-width="4.8188" />
<line x1="3276.8" y1="819.2" x2="3276.8" y2="868.35" stroke-width="4.8188" />
<line x1="819.2" y1="3276.8" x2="819.2" y2="3257.1" stroke-width="4.8188" />
<line x1="819.2" y1="819.2" x2="819.2" y2="838.86" stroke-width="4.8188" />
<line x1="917.5" y1="3276.8" x2="917.5" y2="3257.1" stroke-width="4.8188" />
<line x1="917.5" y1="819.2" x2="917.5" y2="838.86" stroke-width="4.8188" />
<line x1="1015.8" y1="3276.8" x2="1015.8" y2="3257.1" stroke-width="4.8188" />
<line x1="1015.8" y1="819.2" x2="1015.8" y2="838.86" stroke-width="4.8188" />
<line x1="1114.1" y1="3276.8" x2="1114.1" y2="3257.1" stroke-width="4.8188" />
<line x1="1114.1" y1="819.2" x2="1114.1" y2="838.86" stroke-width="4.8188" />
<line x1="1212.4" y1="3276.8" x2="1212.4" y2="3257.1" stroke-width="4.8188" />
<line x1="1212.4" y1="819.2" x2="1212.4" y2="838.86" stroke-width="4.8188" />
<line x1="1310.7" y1="3276.8" x2="1310.7" y2="3257.1" stroke-width="4.8188" />
<line x1="1310.7" y1="819.2" x2="1310.7" y2="838.86" stroke-width="4.8188" />
<line x1="1409" y1="3276.8" x2="1409" y2="3257.1" stroke-width="4.8188" />
<line x1="1409" y1="819.2" x2="1409" y2="838.86" stroke-width="4.8188" />
<line x1="1507.3" y1="3276.8" x2="1507.3" y2="3257.1" stroke-width="4.8188" />
<line x1="1507.3" y1="819.2" x2="1507.3" y2="838.86" stroke-width="4.8188" />
<line x1="1605.6" y1="3276.8" x2="1605.6" y2="3257.1" stroke-width="4.8188" />
<line x1="1605.6" y1="819.2" x2="1605.6" y2="838.86" stroke-width="4.8188" />
<line x1="1703.9" y1="3276.8" x2="1703.9" y2="3257.1" stroke-width="4.8188" />
<line x1="1703.9" y1="819.2" x2="1703.9" y2="838.86" stroke-width="4.8188" />
<line x1="1802.2" y1="3276.8" x2="1802.2" y2="3257.1" stroke-width="4.8188" />
<line x1="1802.2" y1="819.2" x2="1802.2" y2="838.86" stroke-width="4.8188" />
<line x1="1900.5" y1="3276.8" x2="1900.5" y2="3257.1" stroke-width="4.8188" />
<line x1="1900.5" y1="819.2" x2="1900.5" y2="838.86" stroke-width="4.8188" />
<line x1="1998.8" y1="3276.8" x2="1998.8" y2="3257.1" stroke-width="4.8188" />
<line x1="1998.8" y1="819.2" x2="1998.8" y2="838.86" stroke-width="4.8188" />
<line x1="2097.2" y1="3276.8" x2="2097.2" y2="3257.1" stroke-width="4.8188" />
<line x1="2097.2" y1="819.2" x2="2097.2" y2="838.86" stroke-width="4.8188" />
<line x1="2195.5" y1="3276.8" x2="2195.5" y2="3257.1" stroke-width="4.8188" />
<line x1="2195.5" y1="819.2" x2="2195.5" y2="838.86" stroke-width="4.8188" />
<line x1="2293.8" y1="3276.8" x2="2293.8" y2="3257.1" stroke-width="4.8188" />
<line x1="2293.8" y1="819.2" x2="2293.8" y2="838.86" stroke-width="4.8188" />
<line x1="2392.1" y1="3276.8" x2="2392.1" y2="3257.1" stroke-width="4.8188" />
<line x1="2392.1" y1="819.2" x2="2392.1" y2="838.86" stroke-width="4.8188" />
<line x1="2490.4" y1="3276.8" x2="2490.4" y2="3257.1" stroke-width="4.8188" />
<line x1="2490.4" y1="819.2" x2="2490.4" y2="838.86" stroke-width="4.8188" />
<line x1="2588.7" y1="3276.8" x2="2588.7" y2="3257.1" stroke-width="4.8188" />
<line x1="2588.7" y1="819.2" x2="2588.7" y2="838.86" stroke-width="4.8188" />
<line x1="2687" y1="3276.8" x2="2687" y2="3257.1" stroke-width="4.8188" />
<line x1="2687" y1="819.2" x2="2687" y2="838.86" stroke-width="4.8188" />
<line x1="2785.3" y1="3276.8" x2="2785.3" y2="3257.1" stroke-width="4.8188" />
<line x1="2785.3" y1="819.2" x2="2785.3" y2="838.86" stroke-width="4.8188" />
<line x1="2883.6" y1="3276.8" x2="2883.6" y2="3257.1" stroke-width="4.8188" />
<line x1="2883.6" y1="819.2" x2="2883.6" y2="838.86" stroke-width="4.8188" />
<line x1="2981.9" y1="3276.8" x2="2981.9" y2="3257.1" stroke-width="4.8188" />
<line x1="2981.9" y1="819.2" x2="2981.9" y2="838.86" stroke-width="4.8188" />
<line x1="3080.2" y1="3276.8" x2="3080.2" y2="3257.1" stroke-width="4.8188" />
<line x1="3080.2" y1="819.2" x2="3080.2" y2="838.86" stroke-width="4.8188" />
<line x1="3178.5" y1="3276.8" x2="3178.5" y2="3257.1" stroke-width="4.8188" />
<line x1="3178.5" y1="819.2" x2="3178.5" y2="838.86" stroke-width="4.8188" />
<line x1="3276.8" y1="3276.8" x2="3276.8" y2="3257.1" stroke-width="4.8188" />
<line x1="3276.8" y1="819.2" x2="3276.8" y2="838.86" stroke-width="4.8188" />
<text transform="translate(635.25,773.65) scale(1,-1) scale(6.4512) " font-family="Helvetica,sans-serif" font-size="20px" stroke="none" fill="black" >-2</text>
<line x1="3276.8" y1="819.2" x2="3227.6" y2="819.2" stroke-width="4.8188" />
<line x1="819.2" y1="819.2" x2="868.35" y2="819.2" stroke-width="4.8188" />
<text transform="translate(635.25,1265.2) scale(1,-1) scale(6.4512) " font-family="Helvetica,sans-serif" font-size="20px" stroke="none" fill="black" >-1</text>
<line x1="3276.8" y1="1310.7" x2="3227.6" y2="1310.7" stroke-width="4.8188" />
<line x1="819.2" y1="1310.7" x2="868.35" y2="1310.7" stroke-width="4.8188" />
<text transform="translate(710.6,1756.7) scale(1,-1) scale(6.4512) " font-family="Helvetica,sans-serif" font-size="20px" stroke="none" fill="black" >0</text>
<line x1="3276.8" y1="1802.2" x2="3227.6" y2="1802.2" stroke-width="4.8188" />
<line x1="819.2" y1="1802.2" x2="868.35" y2="1802.2" stroke-width="4.8188" />
<text transform="translate(710.6,2248.2) scale(1,-1) scale(6.4512) " font-family="Helvetica,sans-serif" font-size="20px" stroke="none" fill="black" >1</text>
<line x1="3276.8" y1="2293.8" x2="3227.6" y2="2293.8" stroke-width="4.8188" />
<line x1="819.2" y1="2293.8" x2="868.35" y2="2293.8" stroke-width="4.8188" />
<text transform="translate(710.6,2739.7) scale(1,-1) scale(6.4512) " font-family="Helvetica,sans-serif" font-size="20px" stroke="none" fill="black" >2</text>
<line x1="3276.8" y1="2785.3" x2="3227.6" y2="2785.3" stroke-width="4.8188" />
<line x1="819.2" y1="2785.3" x2="868.35" y2="2785.3" stroke-width="4.8188" />
<text transform="translate(710.6,3231.3) scale(1,-1) scale(6.4512) " font-family="Helvetica,sans-serif" font-size="20px" stroke="none" fill="black" >3</text>
<line x1="3276.8" y1="3276.8" x2="3227.6" y2="3276.8" stroke-width="4.8188" />
<line x1="819.2" y1="3276.8" x2="868.35" y2="3276.8" stroke-width="4.8188" />
<line x1="3276.8" y1="819.2" x2="3257.1" y2="819.2" stroke-width="4.8188" />
<line x1="819.2" y1="819.2" x2="838.86" y2="819.2" stroke-width="4.8188" />
<line x1="3276.8" y1="917.5" x2="3257.1" y2="917.5" stroke-width="4.8188" />
<line x1="819.2" y1="917.5" x2="838.86" y2="917.5" stroke-width="4.8188" />
<line x1="3276.8" y1="1015.8" x2="3257.1" y2="1015.8" stroke-width="4.8188" />
<line x1="819.2" y1="1015.8" x2="838.86" y2="1015.8" stroke-width="4.8188" />
<line x1="3276.8" y1="1114.1" x2="3257.1" y2="1114.1" stroke-width="4.8188" />
<line x1="819.2" y1="1114.1" x2="838.86" y2="1114.1" stroke-width="4.8188" />
<line x1="3276.8" y1="1212.4" x2="3257.1" y2="1212.4" stroke-width="4.8188" />
<line x1="819.2" y1="1212.4" x2="838.86" y2="1212.4" stroke-width="4.8188" />
<line x1="3276.8" y1="1310.7" x2="3257.1" y2="1310.7" stroke-width="4.8188" />
<line x1="819.2" y1="1310.7" x2="838.86" y2="1310.7" stroke-width="4.8188" />
<line x1="3276.8" y1="1409" x2="3257.1" y2="1409" stroke-width="4.8188" />
<line x1="819.2" y1="1409" x2="838.86" y2="1409" stroke-width="4.8188" />
<line x1="3276.8" y1="1507.3" x2="3257.1" y2="1507.3" stroke-width="4.8188" />
<line x1="819.2" y1="1507.3" x2="838.86" y2="1507.3" stroke-width="4.8188" />
<line x1="3276.8" y1="1605.6" x2="3257.1" y2="1605.6" stroke-width="4.8188" />
<line x1="819.2" y1="1605.6" x2="838.86" y2="1605.6" stroke-width="4.8188" />
<line x1="3276.8" y1="1703.9" x2="3257.1" y2="1703.9" stroke-width="4.8188" />
<line x1="819.2" y1="1703.9" x2="838.86" y2="1703.9" stroke-width="4.8188" />
<line x1="3276.8" y1="1802.2" x2="3257.1" y2="1802.2" stroke-width="4.8188" />
<line x1="819.2" y1="1802.2" x2="838.86" y2="1802.2" stroke-width="4.8188" />
<line x1="3276.8" y1="1900.5" x2="3257.1" y2="1900.5" stroke-width="4.8188" />
<line x1="819.2" y1="1900.5" x2="838.86" y2="1900.5" stroke-width="4.8188" />
<line x1="3276.8" y1="1998.8" x2="3257.1" y2="1998.8" stroke-width="4.8188" />
<line x1="819.2" y1="1998.8" x2="838.86" y2="1998.8" stroke-width="4.8188" />
<line x1="3276.8" y1="2097.2" x2="3257.1" y2="2097.2" stroke-width="4.8188" />
<line x1="819.2" y1="2097.2" x2="838.86" y2="2097.2" stroke-width="4.8188" />
<line x1="3276.8" y1="2195.5" x2="3257.1" y2="2195.5" stroke-width="4.8188" />
<line x1="819.2" y1="2195.5" x2="838.86" y2="2195.5" stroke-width="4.8188" />
<line x1="3276.8" y1="2293.8" x2="3257.1" y2="2293.8" stroke-width="4.8188" />
<line x1="819.2" y1="2293.8" x2="838.86" y2="2293.8" stroke-width="4.8188" />
<line x1="3276.8" y1="2392.1" x2="3257.1" y2="2392.1" stroke-width="4.8188" />
<line x1="819.2" y1="2392.1" x2="838.86" y2="2392.1" stroke-width="4.8188" />
<line x1="3276.8" y1="2490.4" x2="3257.1" y2="2490.4" stroke-width="4.8188" />
<line x1="819.2" y1="2490.4" x2="838.86" y2="2490.4" stroke-width="4.8188" />
<line x1="3276.8" y1="2588.7" x2="3257.1" y2="2588.7" stroke-width="4.8188" />
<line x1="819.2" y1="2588.7" x2="838.86" y2="2588.7" stroke-width="4.8188" />
<line x1="3276.8" y1="2687" x2="3257.1" y2="2687" stroke-width="4.8188" />
<line x1="819.2" y1="2687" x2="838.86" y2="2687" stroke-width="4.8188" />
<line x1="3276.8" y1="2785.3" x2="3257.1" y2="2785.3" stroke-width="4.8188" />
<line x1="819.2" y1="2785.3" x2="838.86" y2="2785.3" stroke-width="4.8188" />
<line x1="3276.8" y1="2883.6" x2="3257.1" y2="2883.6" stroke-width="4.8188" />
<line x1="819.2" y1="2883.6" x2="838.86" y2="2883.6" stroke-width="4.8188" />
<line x1="3276.8" y1="2981.9" x2="3257.1" y2="2981.9" stroke-width="4.8188" />
<line x1="819.2" y1="2981.9" x2="838.86" y2="2981.9" stroke-width="4.8188" />
<line x1="3276.8" y1="3080.2" x2="3257.1" y2="3080.2" stroke-width="4.8188" />
<line x1="819.2" y1="3080.2" x2="838.86" y2="3080.2" stroke-width="4.8188" />
<line x1="3276.8" y1="3178.5" x2="3257.1" y2="3178.5" stroke-width="4.8188" />
<line x1="819.2" y1="3178.5" x2="838.86" y2="3178.5" stroke-width="4.8188" />
<line x1="3276.8" y1="3276.8" x2="3257.1" y2="3276.8" stroke-width="4.8188" />
<line x1="819.2" y1="3276.8" x2="838.86" y2="3276.8" stroke-width="4.8188" />
<line x1="819.2" y1="1802.2" x2="3276.8" y2="1802.2" stroke-width="4.8188" stroke-dasharray="4.8188, 14.456" />
<text transform="translate(2015.7,501.24) scale(1,-1) scale(6.4512) " font-family="Helvetica,sans-serif" font-size="20px" stroke="none" fill="black" >x</text>
<text transform="matrix(0 6.4512 6.4512 0 548.67 2015.7) " font-family="Helvetica,sans-serif" font-size="20px" stroke="none" fill="black" >y</text>
<circle cx="819.2" cy="2293.8" r="23.04" stroke-width="2.304" />
<circle cx="1065" cy="1408.5" r="23.04" stroke-width="2.304" />
<circle cx="1310.7" cy="1941.7" r="23.04" stroke-width="2.304" />
<circle cx="1556.5" cy="1972.6" r="23.04" stroke-width="2.304" />
<circle cx="1802.2" cy="1389.8" r="23.04" stroke-width="2.304" />
<circle cx="2048" cy="2292.7" r="23.04" stroke-width="2.304" />
<circle cx="2293.8" cy="1428.8" r="23.04" stroke-width="2.304" />
<circle cx="2539.5" cy="1910.1" r="23.04" stroke-width="2.304" />
<circle cx="2785.3" cy="2002.8" r="23.04" stroke-width="2.304" />
<circle cx="3031" cy="1373" r="23.04" stroke-width="2.304" />
<polyline points="819.2,2293.8 831.49,2289.9 843.78,2278.5 856.06,2259.6 868.35,2233.6 880.64,2200.8 892.93,2161.9 905.22,2117.3 917.5,2067.8 929.79,2014.2 942.08,1957.2 954.37,1897.9 966.66,1837 978.94,1775.6 991.23,1714.6 1003.5,1655 1015.8,1597.7 1028.1,1543.6 1040.4,1493.5 1052.7,1448.2 1065,1408.5 1077.2,1374.9 1089.5,1347.9 1101.8,1328.1 1114.1,1315.6 1126.4,1310.8 1138.7,1313.6 1151,1324 1163.3,1342 1175.6,1367 1187.8,1398.9 1200.1,1437.1 1212.4,1481 1224.7,1529.8 1237,1583 1249.3,1639.5 1261.6,1698.6 1273.9,1759.3 1286.1,1820.7 1298.4,1881.8 1310.7,1941.7 1323,1999.3 1335.3,2053.9 1347.6,2104.6 1359.9,2150.6 1372.2,2191.1 1384.4,2225.5 1396.7,2253.4 1409,2274.2 1421.3,2287.6 1433.6,2293.5 1445.9,2291.7 1458.2,2282.3 1470.5,2265.3 1482.8,2241.2 1495,2210.2 1507.3,2172.8 1519.6,2129.6 1531.9,2081.4 1544.2,2028.8 1556.5,1972.6 1568.8,1913.8 1581.1,1853.3 1593.3,1791.9 1605.6,1730.7 1617.9,1670.7 1630.2,1612.6 1642.5,1557.6 1654.8,1506.3 1667.1,1459.7 1679.4,1418.4 1691.6,1383.1 1703.9,1354.4 1716.2,1332.6 1728.5,1318.2 1740.8,1311.3 1753.1,1312.1 1765.4,1320.5 1777.7,1336.5 1790,1359.7 1802.2,1389.8 1814.5,1426.4 1826.8,1468.8 1839.1,1516.4 1851.4,1568.5 1863.7,1624.2 1876,1682.7 1888.3,1743.1 1900.5,1804.4 1912.8,1865.7 1925.1,1926 1937.4,1984.3 1949.7,2039.8 1962,2091.6 1974.3,2138.9 1986.6,2180.9 1998.8,2217 2011.1,2246.7 2023.4,2269.4 2035.7,2284.8 2048,2292.7 2060.3,2292.9 2072.6,2285.5 2084.9,2270.5 2097.2,2248.3 2109.4,2219 2121.7,2183.3 2134,2141.6 2146.3,2094.7 2158.6,2043.1 2170.9,1987.8 2183.2,1929.6 2195.5,1869.4 2207.7,1808.2 2220,1746.9 2232.3,1686.4 2244.6,1627.8 2256.9,1571.9 2269.2,1519.5 2281.5,1471.6 2293.8,1428.8 2306,1391.9 2318.3,1361.4 2330.6,1337.7 2342.9,1321.3 2355.2,1312.4 2367.5,1311.2 2379.8,1317.6 2392.1,1331.5 2404.4,1352.8 2416.6,1381.2 2428.9,1416.1 2441.2,1457 2453.5,1503.3 2465.8,1554.3 2478.1,1609.1 2490.4,1667 2502.7,1727 2514.9,1788.1 2527.2,1849.5 2539.5,1910.1 2551.8,1969 2564.1,2025.4 2576.4,2078.2 2588.7,2126.8 2601,2170.3 2613.2,2208 2625.5,2239.4 2637.8,2264 2650.1,2281.4 2662.4,2291.3 2674.7,2293.6 2687,2288.2 2699.3,2275.2 2711.6,2254.9 2723.8,2227.5 2736.1,2193.4 2748.4,2153.2 2760.7,2107.6 2773,2057.2 2785.3,2002.8 2797.6,1945.3 2809.9,1885.6 2822.1,1824.5 2834.4,1763.1 2846.7,1702.4 2859,1643.1 2871.3,1586.4 2883.6,1533 2895.9,1483.9 2908.2,1439.6 2920.4,1401.1 2932.7,1368.8 2945,1343.3 2957.3,1324.9 2969.6,1314 2981.9,1310.7 2994.2,1315.1 3006.5,1327.1 3018.8,1346.5 3031,1373 3043.3,1406.2 3055.6,1445.6 3067.9,1490.5 3080.2,1540.3 3092.5,1594.2 3104.8,1651.4 3117.1,1710.9 3129.3,1771.8 3141.6,1833.2 3153.9,1894.1 3166.2,1953.6 3178.5,2010.7 3190.8,2064.6 3203.1,2114.4 3215.4,2159.3 3227.6,2198.6 3239.9,2231.8 3252.2,2258.2 3264.5,2277.5 " stroke-width="4.8188" stroke-dasharray="4.8188, 14.456" />
<polyline points="819.2,2293.8 830.31,2317.6 841.43,2335.3 852.54,2347 863.66,2352.6 874.77,2352.3 885.89,2345.8 897,2333.3 908.12,2314.8 919.23,2290.2 930.35,2259.6 941.46,2222.9 952.58,2180.2 963.69,2131.4 974.81,2076.6 985.92,2015.7 997.04,1948.8 1008.2,1875.8 1019.3,1796.8 1030.4,1711.8 1041.5,1620.6 1052.6,1523.5 1063.7,1420.3 1074.8,1318.1 1086,1227.7 1097.1,1149.1 1108.2,1082.4 1119.3,1027.5 1130.4,984.45 1141.5,953.27 1152.6,933.94 1163.8,926.45 1174.9,930.81 1186,947.03 1197.1,975.09 1208.2,1015 1219.3,1066.8 1230.4,1130.4 1241.6,1205.8 1252.7,1293.2 1263.8,1392.3 1274.9,1503.3 1286,1626.2 1297.1,1760.9 1308.3,1907.5 1319.4,2058.1 1330.5,2195.5 1341.6,2318.9 1352.7,2428.5 1363.8,2524.1 1374.9,2605.8 1386.1,2673.7 1397.2,2727.6 1408.3,2767.6 1419.4,2793.7 1430.5,2806 1441.6,2804.3 1452.7,2788.7 1463.9,2759.2 1475,2715.8 1486.1,2658.5 1497.2,2587.3 1508.3,2502.1 1519.4,2403.1 1530.5,2290.2 1541.7,2163.4 1552.8,2022.6 1563.9,1873.6 1575,1734.6 1586.1,1606.9 1597.2,1490.7 1608.4,1385.8 1619.5,1292.4 1630.6,1210.3 1641.7,1139.7 1652.8,1080.4 1663.9,1032.5 1675,996.02 1686.2,970.93 1697.3,957.23 1708.4,954.93 1719.5,964.02 1730.6,984.5 1741.7,1016.4 1752.8,1059.7 1764,1114.3 1775.1,1180.4 1786.2,1257.8 1797.3,1346.7 1808.4,1444.3 1819.5,1538.3 1830.6,1627 1841.8,1710.4 1852.9,1788.4 1864,1861.2 1875.1,1928.6 1886.2,1990.7 1897.3,2047.4 1908.4,2098.9 1919.6,2145.1 1930.7,2185.9 1941.8,2221.4 1952.9,2251.6 1964,2276.5 1975.1,2296.1 1986.3,2310.3 1997.4,2319.2 2008.5,2322.9 2019.6,2321.2 2030.7,2314.2 2041.8,2301.8 2052.9,2284.5 2064.1,2264.8 2075.2,2243.1 2086.3,2219.5 2097.4,2194.1 2108.5,2166.7 2119.6,2137.4 2130.7,2106.2 2141.9,2073 2153,2038 2164.1,2001.1 2175.2,1962.2 2186.3,1921.4 2197.4,1878.8 2208.5,1834.2 2219.7,1787.7 2230.8,1739.3 2241.9,1688.9 2253,1636.7 2264.1,1582.6 2275.2,1526.5 2286.3,1468.5 2297.5,1409.2 2308.6,1355.2 2319.7,1308.6 2330.8,1269.4 2341.9,1237.6 2353,1213.2 2364.2,1196.3 2375.3,1186.7 2386.4,1184.6 2397.5,1189.9 2408.6,1202.6 2419.7,1222.7 2430.8,1250.3 2442,1285.2 2453.1,1327.6 2464.2,1377.4 2475.3,1434.5 2486.4,1499.1 2497.5,1571.1 2508.6,1650.6 2519.8,1737.4 2530.9,1831.7 2542,1932.9 2553.1,2030.2 2564.2,2118.4 2575.3,2197.6 2586.5,2267.8 2597.6,2329 2608.7,2381.2 2619.8,2424.4 2630.9,2458.6 2642,2483.8 2653.1,2500 2664.3,2507.2 2675.4,2505.4 2686.5,2494.6 2697.6,2474.8 2708.7,2446 2719.8,2408.2 2730.9,2361.3 2742.1,2305.5 2753.2,2240.7 2764.3,2166.8 2775.4,2084 2786.5,1992.3 2797.6,1900.6 2808.7,1815 2819.9,1735.5 2831,1662 2842.1,1594.5 2853.2,1533.1 2864.3,1477.7 2875.4,1428.4 2886.5,1385.2 2897.7,1348 2908.8,1316.8 2919.9,1291.7 2931,1272.6 2942.1,1259.5 2953.2,1252.6 2964.4,1251.6 2975.5,1256.7 2986.6,1267.9 2997.7,1285.1 3008.8,1308.3 3019.9,1337.6 3031,1373 " stroke-width="4.8188" />
</g>
</svg>
