<?xml version="1.0" encoding="ISO-8859-1" standalone="no"?>
<!DOCTYPE svg PUBLIC "-//W3C//DTD SVG 1.1//EN" "http://www.w3.org/Graphics/SVG/1.1/DTD/svg11.dtd">
<svg version="1.1" baseProfile="full" id="body" width="8in" height="8in" viewBox="0 0 1 1" preserveAspectRatio="none" xmlns="http://www.w3.org/2000/svg" xmlns:xlink="http://www.w3.org/1999/xlink" xmlns:ev="http://www.w3.org/2001/xml-events">
<title>SVG drawing</title>
<desc>This was produced by version 4.4 of GNU libplot, a free library for exporting 2-D vector graphics.</desc>
<rect id="background" x="0" y="0" width="1" height="1" stroke="none" fill="white"/>
<g id="content" transform="translate(0,1) scale(1,-1) scale(0.00024414) " xml:space="preserve" stroke="black" stroke-linecap="butt" stroke-linejoin="miter" stroke-miterlimit="10.433" stroke-dasharray="none" stroke-dashoffset="0" stroke-opacity="1" fill="none" fill-rule="evenodd" fill-opacity="1" font-style="normal" font-variant="normal" font-weight="normal" font-stretch="normal" font-size-adjust="none" letter-spacing="normal" word-spacing="normal" text-anchor="start">
<text transform="translate(1010.6,3451.9) scale(1,-1) scale(8.6016) " font-family="Helvetica,sans-serif" font-size="20px" stroke="none" fill="black" >qspline with deriv and integ</text>
<rect x="819.2" y="819.2" width="2457.6" height="2457.6" stroke-width="4.8188" />
<text transform="translate(783.33,662.21) scale(1,-1) scale(6.4512) " font-family="Helvetica,sans-serif" font-size="20px" stroke="none" fill="black" >0</text>
<line x1="819.2" y1="3276.8" x2="819.2" y2="3227.6" stroke-width="4.8188" />
<line x1="819.2" y1="819.2" x2="819.2" y2="868.35" stroke-width="4.8188" />
<text transform="translate(1274.9,662.21) scale(1,-1) scale(6.4512) " font-family="Helvetica,sans-serif" font-size="20px" stroke="none" fill="black" >1</text>
<line x1="1310.7" y1="3276.8" x2="1310.7" y2="3227.6" stroke-width="4.8188" />
<line x1="1310.7" y1="819.2" x2="1310.7" y2="868.35" stroke-width="4.8188" />
<text transform="translate(1766.4,662.21) scale(1,-1) scale(6.4512) " font-family="Helvetica,sans-serif" font-size="20px" stroke="none" fill="black" >2</text>
<line x1="1802.2" y1="3276.8" x2="1802.2" y2="3227.6" stroke-width="4.8188" />
<line x1="1802.2" y1="819.2" x2="1802.2" y2="868.35" stroke-width="4.8188" />
<text transform="translate(2257.9,662.21) scale(1,-1) scale(6.4512) " font-family="Helvetica,sans-serif" font-size="20px" stroke="none" fill="black" >3</text>
<line x1="2293.8" y1="3276.8" x2="2293.8" y2="3227.6" stroke-width="4.8188" />
<line x1="2293.8" y1="819.2" x2="2293.8" y2="868.35" stroke-width="4.8188" />
<text transform="translate(2749.4,662.21) scale(1,-1) scale(6.4512) " font-family="Helvetica,sans-serif" font-size="20px" stroke="none" fill="black" >4</text>
<line x1="2785.3" y1="3276.8" x2="2785.3" y2="3227.6" stroke-width="4.8188" />
<line x1="2785.3" y1="819.2" x2="2785.3" y2="868.35" stroke-width="4.8188" />
<text transform="translate(3240.9,662.21) scale(1,-1) scale(6.4512) " font-family="Helvetica,sans-serif" font-size="20px" stroke="none" fill="black" >5</text>
<line x1="3276.8" y1="3276.8" x2="3276.8" y2="3227.6" stroke-width="4.8188" />
<line x1="3276.8" y1="819.2" x2="3276.8" y2="868.35" stroke-width="4.8188" />
<line x1="819.2" y1="3276.8" x2="819.2" y2="3257.1" stroke-width="4.8188" />
<line x1="819.2" y1="819.2" x2="819.2" y2="838.86" stroke-width="4.8188" />
<line x1="917.5" y1="3276.8" x2="917.5" y2="3257.1" stroke-width="4.8188" />
<line x1="917.5" y1="819.2" x2="917.5" y2="838.86" stroke-width="4.8188" />
<line x1="1015.8" y1="3276.8" x2="1015.8" y2="3257.1" stroke-width="4.8188" />
<line x1="1015.8" y1="819.2" x2="1015.8" y2="838.86" stroke-width="4.8188" />
<line x1="1114.1" y1="3276.8" x2="1114.1" y2="3257.1" stroke-width="4.8188" />
<line x1="1114.1" y1="819.2" x2="1114.1" y2="838.86" stroke-width="4.8188" />
<line x1="1212.4" y1="3276.8" x2="1212.4" y2="3257.1" stroke-width="4.8188" />
<line x1="1212.4" y1="819.2" x2="1212.4" y2="838.86" stroke-width="4.8188" />
<line x1="1310.7" y1="3276.8" x2="1310.7" y2="3257.1" stroke-width="4.8188" />
<line x1="1310.7" y1="819.2" x2="1310.7" y2="838.86" stroke-width="4.8188" />
<line x1="1409" y1="3276.8" x2="1409" y2="3257.1" stroke-width="4.8188" />
<line x1="1409" y1="819.2" x2="1409" y2="838.86" stroke-width="4.8188" />
<line x1="1507.3" y1="3276.8" x2="1507.3" y2="3257.1" stroke-width="4.8188" />
<line x1="1507.3" y1="819.2" x2="1507.3" y2="838.86" stroke-width="4.8188" />
<line x1="1605.6" y1="3276.8" x2="1605.6" y2="3257.1" stroke-width="4.8188" />
<line x1="1605.6" y1="819.2" x2="1605.6" y2="838.86" stroke-width="4.8188" />
<line x1="1703.9" y1="3276.8" x2="1703.9" y2="3257.1" stroke-width="4.8188" />
<line x1="1703.9" y1="819.2" x2="1703.9" y2="838.86" stroke-width="4.8188" />
<line x1="1802.2" y1="3276.8" x2="1802.2" y2="3257.1" stroke-width="4.8188" />
<line x1="1802.2" y1="819.2" x2="1802.2" y2="838.86" stroke-width="4.8188" />
<line x1="1900.5" y1="3276.8" x2="1900.5" y2="3257.1" stroke-width="4.8188" />
<line x1="1900.5" y1="819.2" x2="1900.5" y2="838.86" stroke-width="4.8188" />
<line x1="1998.8" y1="3276.8" x2="1998.8" y2="3257.1" stroke-width="4.8188" />
<line x1="1998.8" y1="819.2" x2="1998.8" y2="838.86" stroke-width="4.8188" />
<line x1="2097.2" y1="3276.8" x2="2097.2" y2="3257.1" stroke-width="4.8188" />
<line x1="2097.2" y1="819.2" x2="2097.2" y2="838.86" stroke-width="4.8188" />
<line x1="2195.5" y1="3276.8" x2="2195.5" y2="3257.1" stroke-width="4.8188" />
<line x1="2195.5" y1="819.2" x2="2195.5" y2="838.86" stroke-width="4.8188" />
<line x1="2293.8" y1="3276.8" x2="2293.8" y2="3257.1" stroke-width="4.8188" />
<line x1="2293.8" y1="819.2" x2="2293.8" y2="838.86" stroke-width="4.8188" />
<line x1="2392.1" y1="3276.8" x2="2392.1" y2="3257.1" stroke-width="4.8188" />
<line x1="2392.1" y1="819.2" x2="2392.1" y2="838.86" stroke-width="4.8188" />
<line x1="2490.4" y1="3276.8" x2="2490.4" y2="3257.1" stroke-width="4.8188" />
<line x1="2490.4" y1="819.2" x2="2490.4" y2="838.86" stroke-width="4.8188" />
<line x1="2588.7" y1="3276.8" x2="2588.7" y2="3257.1" stroke-width="4.8188" />
<line x1="2588.7" y1="819.2" x2="2588.7" y2="838.86" stroke-width="4.8188" />
<line x1="2687" y1="3276.8" x2="2687" y2="3257.1" stroke-width="4.8188" />
<line x1="2687" y1="819.2" x2="2687" y2="838.86" stroke-width="4.8188" />
<line x1="2785.3" y1="3276.8" x2="2785.3" y2="3257.1" stroke-width="4.8188" />
<line x1="2785.3" y1="819.2" x2="2785.3" y2="838.86" stroke-width="4.8188" />
<line x1="2883.6" y1="3276.8" x2="2883.6" y2="3257.1" stroke-width="4.8188" />
<line x1="2883.6" y1="819.2" x2="2883.6" y2="838.86" stroke-width="4.8188" />
<line x1="2981.9" y1="3276.8" x2="2981.9" y2="3257.1" stroke-width="4.8188" />
<line x1="2981.9" y1="819.2" x2="2981.9" y2="838.86" stroke-width="4.8188" />
<line x1="3080.2" y1="3276.8" x2="3080.2" y2="3257.1" stroke-width="4.8188" />
<line x1="3080.2" y1="819.2" x2="3080.2" y2="838.86" stroke-width="4.8188" />
<line x1="3178.5" y1="3276.8" x2="3178.5" y2="3257.1" stroke-width="4.8188" />
<line x1="3178.5" y1="819.2" x2="3178.5" y2="838.86" stroke-width="4.8188" />
<line x1="3276.8" y1="3276.8" x2="3276.8" y2="3257.1" stroke-width="4.8188" />
<line x1="3276.8" y1="819.2" x2="3276.8" y2="838.86" stroke-width="4.8188" />
<text transform="translate(563.51,773.65) scale(1,-1) scale(6.4512) " font-family="Helvetica,sans-serif" font-size="20px" stroke="none" fill="black" >-15</text>
<line x1="3276.8" y1="819.2" x2="3227.6" y2="819.2" stroke-width="4.8188" />
<line x1="819.2" y1="819.2" x2="868.35" y2="819.2" stroke-width="4.8188" />
<text transform="translate(563.51,1183.3) scale(1,-1) scale(6.4512) " font-family="Helvetica,sans-serif" font-size="20px" stroke="none" fill="black" >-10</text>
<line x1="3276.8" y1="1228.8" x2="3227.6" y2="1228.8" stroke-width="4.8188" />
<line x1="819.2" y1="1228.8" x2="868.35" y2="1228.8" stroke-width="4.8188" />
<text transform="translate(635.25,1592.9) scale(1,-1) scale(6.4512) " font-family="Helvetica,sans-serif" font-size="20px" stroke="none" fill="black" >-5</text>
<line x1="3276.8" y1="1638.4" x2="3227.6" y2="1638.4" stroke-width="4.8188" />
<line x1="819.2" y1="1638.4" x2="868.35" y2="1638.4" stroke-width="4.8188" />
<text transform="translate(710.6,2002.5) scale(1,-1) scale(6.4512) " font-family="Helvetica,sans-serif" font-size="20px" stroke="none" fill="black" >0</text>
<line x1="3276.8" y1="2048" x2="3227.6" y2="2048" stroke-width="4.8188" />
<line x1="819.2" y1="2048" x2="868.35" y2="2048" stroke-width="4.8188" />
<text transform="translate(710.6,2412.1) scale(1,-1) scale(6.4512) " font-family="Helvetica,sans-serif" font-size="20px" stroke="none" fill="black" >5</text>
<line x1="3276.8" y1="2457.6" x2="3227.6" y2="2457.6" stroke-width="4.8188" />
<line x1="819.2" y1="2457.6" x2="868.35" y2="2457.6" stroke-width="4.8188" />
<text transform="translate(638.86,2821.7) scale(1,-1) scale(6.4512) " font-family="Helvetica,sans-serif" font-size="20px" stroke="none" fill="black" >10</text>
<line x1="3276.8" y1="2867.2" x2="3227.6" y2="2867.2" stroke-width="4.8188" />
<line x1="819.2" y1="2867.2" x2="868.35" y2="2867.2" stroke-width="4.8188" />
<text transform="translate(638.86,3231.3) scale(1,-1) scale(6.4512) " font-family="Helvetica,sans-serif" font-size="20px" stroke="none" fill="black" >15</text>
<line x1="3276.8" y1="3276.8" x2="3227.6" y2="3276.8" stroke-width="4.8188" />
<line x1="819.2" y1="3276.8" x2="868.35" y2="3276.8" stroke-width="4.8188" />
<line x1="819.2" y1="2048" x2="3276.8" y2="2048" stroke-width="4.8188" stroke-dasharray="4.8188, 14.456" />
<text transform="translate(2015.7,501.24) scale(1,-1) scale(6.4512) " font-family="Helvetica,sans-serif" font-size="20px" stroke="none" fill="black" >x</text>
<text transform="matrix(0 6.4512 6.4512 0 466.18 2015.7) " font-family="Helvetica,sans-serif" font-size="20px" stroke="none" fill="black" >y</text>
<circle cx="819.2" cy="2129.9" r="23.04" stroke-width="2.304" />
<circle cx="1065" cy="1982.4" r="23.04" stroke-width="2.304" />
<circle cx="1310.7" cy="2071.2" r="23.04" stroke-width="2.304" />
<circle cx="1556.5" cy="2076.4" r="23.04" stroke-width="2.304" />
<circle cx="1802.2" cy="1979.3" r="23.04" stroke-width="2.304" />
<circle cx="2048" cy="2129.7" r="23.04" stroke-width="2.304" />
<circle cx="2293.8" cy="1985.8" r="23.04" stroke-width="2.304" />
<circle cx="2539.5" cy="2066" r="23.04" stroke-width="2.304" />
<circle cx="2785.3" cy="2081.4" r="23.04" stroke-width="2.304" />
<circle cx="3031" cy="1976.5" r="23.04" stroke-width="2.304" />
<polyline points="819.2,2129.9 831.49,2129.3 843.78,2127.4 856.06,2124.2 868.35,2119.9 880.64,2114.4 892.93,2107.9 905.22,2100.5 917.5,2092.3 929.79,2083.3 942.08,2073.8 954.37,2063.9 966.66,2053.8 978.94,2043.6 991.23,2033.4 1003.5,2023.5 1015.8,2013.9 1028.1,2004.9 1040.4,1996.5 1052.7,1989 1065,1982.4 1077.2,1976.8 1089.5,1972.3 1101.8,1969 1114.1,1966.9 1126.4,1966.1 1138.7,1966.6 1151,1968.3 1163.3,1971.3 1175.6,1975.5 1187.8,1980.8 1200.1,1987.1 1212.4,1994.5 1224.7,2002.6 1237,2011.5 1249.3,2020.9 1261.6,2030.7 1273.9,2040.9 1286.1,2051.1 1298.4,2061.3 1310.7,2071.2 1323,2080.9 1335.3,2090 1347.6,2098.4 1359.9,2106.1 1372.2,2112.8 1384.4,2118.5 1396.7,2123.2 1409,2126.7 1421.3,2128.9 1433.6,2129.9 1445.9,2129.6 1458.2,2128 1470.5,2125.2 1482.8,2121.2 1495,2116 1507.3,2109.8 1519.6,2102.6 1531.9,2094.5 1544.2,2085.8 1556.5,2076.4 1568.8,2066.6 1581.1,2056.5 1593.3,2046.3 1605.6,2036.1 1617.9,2026.1 1630.2,2016.4 1642.5,2007.2 1654.8,1998.7 1667.1,1990.9 1679.4,1984 1691.6,1978.2 1703.9,1973.4 1716.2,1969.7 1728.5,1967.3 1740.8,1966.2 1753.1,1966.3 1765.4,1967.7 1777.7,1970.4 1790,1974.2 1802.2,1979.3 1814.5,1985.4 1826.8,1992.4 1839.1,2000.4 1851.4,2009 1863.7,2018.3 1876,2028.1 1888.3,2038.1 1900.5,2048.4 1912.8,2058.6 1925.1,2068.6 1937.4,2078.3 1949.7,2087.6 1962,2096.2 1974.3,2104.1 1986.6,2111.1 1998.8,2117.1 2011.1,2122.1 2023.4,2125.9 2035.7,2128.4 2048,2129.7 2060.3,2129.8 2072.6,2128.5 2084.9,2126 2097.2,2122.3 2109.4,2117.5 2121.7,2111.5 2134,2104.6 2146.3,2096.7 2158.6,2088.1 2170.9,2078.9 2183.2,2069.2 2195.5,2059.2 2207.7,2049 2220,2038.8 2232.3,2028.7 2244.6,2018.9 2256.9,2009.6 2269.2,2000.9 2281.5,1992.9 2293.8,1985.8 2306,1979.6 2318.3,1974.5 2330.6,1970.6 2342.9,1967.8 2355.2,1966.4 2367.5,1966.2 2379.8,1967.2 2392.1,1969.5 2404.4,1973.1 2416.6,1977.8 2428.9,1983.6 2441.2,1990.5 2453.5,1998.2 2465.8,2006.7 2478.1,2015.8 2490.4,2025.5 2502.7,2035.5 2514.9,2045.6 2527.2,2055.9 2539.5,2066 2551.8,2075.8 2564.1,2085.2 2576.4,2094 2588.7,2102.1 2601,2109.3 2613.2,2115.6 2625.5,2120.9 2637.8,2125 2650.1,2127.9 2662.4,2129.5 2674.7,2129.9 2687,2129 2699.3,2126.8 2711.6,2123.4 2723.8,2118.9 2736.1,2113.2 2748.4,2106.5 2760.7,2098.9 2773,2090.5 2785.3,2081.4 2797.6,2071.8 2809.9,2061.9 2822.1,2051.7 2834.4,2041.5 2846.7,2031.4 2859,2021.5 2871.3,2012 2883.6,2003.1 2895.9,1994.9 2908.2,1987.6 2920.4,1981.1 2932.7,1975.8 2945,1971.5 2957.3,1968.5 2969.6,1966.6 2981.9,1966.1 2994.2,1966.8 3006.5,1968.8 3018.8,1972 3031,1976.5 3043.3,1982 3055.6,1988.6 3067.9,1996 3080.2,2004.4 3092.5,2013.3 3104.8,2022.9 3117.1,2032.8 3129.3,2042.9 3141.6,2053.2 3153.9,2063.3 3166.2,2073.2 3178.5,2082.7 3190.8,2091.7 3203.1,2100 3215.4,2107.5 3227.6,2114.1 3239.9,2119.6 3252.2,2124 3264.5,2127.2 " stroke-width="4.8188" stroke-dasharray="4.8188, 14.456" />
<polyline points="819.2,2129.9 830.31,2133.9 841.43,2136.8 852.54,2138.8 863.66,2139.7 874.77,2139.7 885.89,2138.6 897,2136.5 908.12,2133.4 919.23,2129.3 930.35,2124.2 941.46,2118.1 952.58,2111 963.69,2102.9 974.81,2093.7 985.92,2083.6 997.04,2072.4 1008.2,2060.3 1019.3,2047.1 1030.4,2032.9 1041.5,2017.7 1052.6,2001.5 1063.7,1984.3 1074.8,1967.3 1086,1952.2 1097.1,1939.1 1108.2,1928 1119.3,1918.9 1130.4,1911.7 1141.5,1906.5 1152.6,1903.3 1163.8,1902 1174.9,1902.8 1186,1905.5 1197.1,1910.1 1208.2,1916.8 1219.3,1925.4 1230.4,1936 1241.6,1948.6 1252.7,1963.2 1263.8,1979.7 1274.9,1998.2 1286,2018.7 1297.1,2041.1 1308.3,2065.5 1319.4,2090.6 1330.5,2113.5 1341.6,2134.1 1352.7,2152.4 1363.8,2168.3 1374.9,2181.9 1386.1,2193.2 1397.2,2202.2 1408.3,2208.9 1419.4,2213.3 1430.5,2215.3 1441.6,2215 1452.7,2212.4 1463.9,2207.5 1475,2200.3 1486.1,2190.7 1497.2,2178.8 1508.3,2164.6 1519.4,2148.1 1530.5,2129.3 1541.7,2108.2 1552.8,2084.7 1563.9,2059.9 1575,2036.7 1586.1,2015.4 1597.2,1996.1 1608.4,1978.6 1619.5,1963 1630.6,1949.3 1641.7,1937.6 1652.8,1927.7 1663.9,1919.7 1675,1913.6 1686.2,1909.4 1697.3,1907.2 1708.4,1906.8 1719.5,1908.3 1730.6,1911.7 1741.7,1917 1752.8,1924.2 1764,1933.3 1775.1,1944.4 1786.2,1957.3 1797.3,1972.1 1808.4,1988.3 1819.5,2004 1830.6,2018.8 1841.8,2032.7 1852.9,2045.7 1864,2057.8 1875.1,2069.1 1886.2,2079.4 1897.3,2088.9 1908.4,2097.4 1919.6,2105.1 1930.7,2111.9 1941.8,2117.9 1952.9,2122.9 1964,2127 1975.1,2130.3 1986.3,2132.7 1997.4,2134.2 2008.5,2134.8 2019.6,2134.5 2030.7,2133.3 2041.8,2131.3 2052.9,2128.4 2064.1,2125.1 2075.2,2121.5 2086.3,2117.6 2097.4,2113.3 2108.5,2108.7 2119.6,2103.9 2130.7,2098.7 2141.9,2093.1 2153,2087.3 2164.1,2081.1 2175.2,2074.7 2186.3,2067.9 2197.4,2060.8 2208.5,2053.3 2219.7,2045.6 2230.8,2037.5 2241.9,2029.1 2253,2020.4 2264.1,2011.4 2275.2,2002 2286.3,1992.4 2297.5,1982.5 2308.6,1973.5 2319.7,1965.7 2330.8,1959.2 2341.9,1953.9 2353,1949.8 2364.2,1947 2375.3,1945.4 2386.4,1945.1 2397.5,1945.9 2408.6,1948.1 2419.7,1951.4 2430.8,1956 2442,1961.8 2453.1,1968.9 2464.2,1977.2 2475.3,1986.7 2486.4,1997.5 2497.5,2009.5 2508.6,2022.7 2519.8,2037.2 2530.9,2052.9 2542,2069.8 2553.1,2086 2564.2,2100.7 2575.3,2113.9 2586.5,2125.6 2597.6,2135.8 2608.7,2144.5 2619.8,2151.7 2630.9,2157.4 2642,2161.6 2653.1,2164.3 2664.3,2165.5 2675.4,2165.2 2686.5,2163.4 2697.6,2160.1 2708.7,2155.3 2719.8,2149 2730.9,2141.2 2742.1,2131.9 2753.2,2121.1 2764.3,2108.8 2775.4,2095 2786.5,2079.7 2797.6,2064.4 2808.7,2050.1 2819.9,2036.9 2831,2024.6 2842.1,2013.4 2853.2,2003.1 2864.3,1993.9 2875.4,1985.7 2886.5,1978.5 2897.7,1972.3 2908.8,1967.1 2919.9,1962.9 2931,1959.7 2942.1,1957.6 2953.2,1956.4 2964.4,1956.2 2975.5,1957.1 2986.6,1958.9 2997.7,1961.8 3008.8,1965.7 3019.9,1970.6 3031,1976.5 " stroke-width="4.8188" />
<polyline points="819.2,2245.6 830.31,2201.1 841.43,2156.5 852.54,2111.9 863.66,2067.4 874.77,2022.8 885.89,1978.2 897,1933.7 908.12,1889.1 919.23,1844.5 930.35,1799.9 941.46,1755.4 952.58,1710.8 963.69,1666.2 974.81,1621.7 985.92,1577.1 997.04,1532.5 1008.2,1488 1019.3,1443.4 1030.4,1398.8 1041.5,1354.3 1052.6,1309.7 1063.7,1265.1 1074.8,1337.8 1086,1425.1 1097.1,1512.5 1108.2,1599.8 1119.3,1687.1 1130.4,1774.5 1141.5,1861.8 1152.6,1949.2 1163.8,2036.5 1174.9,2123.8 1186,2211.2 1197.1,2298.5 1208.2,2385.9 1219.3,2473.2 1230.4,2560.5 1241.6,2647.9 1252.7,2735.2 1263.8,2822.5 1274.9,2909.9 1286,2997.2 1297.1,3084.6 1308.3,3171.9 1319.4,3111.6 1330.5,3009.1 1341.6,2906.6 1352.7,2804.2 1363.8,2701.7 1374.9,2599.2 1386.1,2496.7 1397.2,2394.2 1408.3,2291.7 1419.4,2189.3 1430.5,2086.8 1441.6,1984.3 1452.7,1881.8 1463.9,1779.3 1475,1676.9 1486.1,1574.4 1497.2,1471.9 1508.3,1369.4 1519.4,1266.9 1530.5,1164.5 1541.7,1062 1552.8,959.49 1563.9,981.31 1575,1065.3 1586.1,1149.3 1597.2,1233.2 1608.4,1317.2 1619.5,1401.2 1630.6,1485.2 1641.7,1569.1 1652.8,1653.1 1663.9,1737.1 1675,1821.1 1686.2,1905.1 1697.3,1989 1708.4,2073 1719.5,2157 1730.6,2241 1741.7,2324.9 1752.8,2408.9 1764,2492.9 1775.1,2576.9 1786.2,2660.8 1797.3,2744.8 1808.4,2760.4 1819.5,2721.2 1830.6,2682 1841.8,2642.8 1852.9,2603.6 1864,2564.5 1875.1,2525.3 1886.2,2486.1 1897.3,2446.9 1908.4,2407.7 1919.6,2368.5 1930.7,2329.4 1941.8,2290.2 1952.9,2251 1964,2211.8 1975.1,2172.6 1986.3,2133.4 1997.4,2094.3 2008.5,2055.1 2019.6,2015.9 2030.7,1976.7 2041.8,1937.5 2052.9,1909.5 2064.1,1895.4 2075.2,1881.3 2086.3,1867.3 2097.4,1853.2 2108.5,1839.1 2119.6,1825 2130.7,1810.9 2141.9,1796.8 2153,1782.7 2164.1,1768.7 2175.2,1754.6 2186.3,1740.5 2197.4,1726.4 2208.5,1712.3 2219.7,1698.2 2230.8,1684.2 2241.9,1670.1 2253,1656 2264.1,1641.9 2275.2,1627.8 2286.3,1613.7 2297.5,1622.6 2308.6,1677.2 2319.7,1731.8 2330.8,1786.5 2341.9,1841.1 2353,1895.8 2364.2,1950.4 2375.3,2005 2386.4,2059.7 2397.5,2114.3 2408.6,2169 2419.7,2223.6 2430.8,2278.2 2442,2332.9 2453.1,2387.5 2464.2,2442.2 2475.3,2496.8 2486.4,2551.4 2497.5,2606.1 2508.6,2660.7 2519.8,2715.4 2530.9,2770 2542,2797.8 2553.1,2731.4 2564.2,2665 2575.3,2598.7 2586.5,2532.3 2597.6,2466 2608.7,2399.6 2619.8,2333.3 2630.9,2266.9 2642,2200.6 2653.1,2134.2 2664.3,2067.8 2675.4,2001.5 2686.5,1935.1 2697.6,1868.8 2708.7,1802.4 2719.8,1736.1 2730.9,1669.7 2742.1,1603.4 2753.2,1537 2764.3,1470.7 2775.4,1404.3 2786.5,1350.3 2797.6,1394.8 2808.7,1439.4 2819.9,1484 2831,1528.5 2842.1,1573.1 2853.2,1617.7 2864.3,1662.3 2875.4,1706.8 2886.5,1751.4 2897.7,1796 2908.8,1840.5 2919.9,1885.1 2931,1929.7 2942.1,1974.2 2953.2,2018.8 2964.4,2063.4 2975.5,2108 2986.6,2152.5 2997.7,2197.1 3008.8,2241.7 3019.9,2286.2 3031,2330.8 " stroke-width="4.8188" stroke-dasharray="19.275, 14.456, 4.8188, 14.456" />
<polyline points="819.2,2048 830.31,2049.9 841.43,2051.9 852.54,2053.9 863.66,2056 874.77,2058.1 885.89,2060.1 897,2062.1 908.12,2064.1 919.23,2066 930.35,2067.8 941.46,2069.4 952.58,2070.9 963.69,2072.3 974.81,2073.4 985.92,2074.3 997.04,2075 1008.2,2075.4 1019.3,2075.6 1030.4,2075.4 1041.5,2074.9 1052.6,2074 1063.7,2072.8 1074.8,2071.1 1086,2069.1 1097.1,2066.8 1108.2,2064.2 1119.3,2061.4 1130.4,2058.4 1141.5,2055.3 1152.6,2052 1163.8,2048.7 1174.9,2045.4 1186,2042.2 1197.1,2039 1208.2,2036 1219.3,2033.1 1230.4,2030.4 1241.6,2028 1252.7,2025.9 1263.8,2024.2 1274.9,2022.9 1286,2022 1297.1,2021.6 1308.3,2021.7 1319.4,2022.4 1330.5,2023.6 1341.6,2025.3 1352.7,2027.5 1363.8,2030 1374.9,2032.9 1386.1,2036 1397.2,2039.4 1408.3,2043 1419.4,2046.7 1430.5,2050.5 1441.6,2054.2 1452.7,2058 1463.9,2061.7 1475,2065.2 1486.1,2068.5 1497.2,2071.6 1508.3,2074.4 1519.4,2076.9 1530.5,2078.9 1541.7,2080.5 1552.8,2081.6 1563.9,2082.2 1575,2082.2 1586.1,2081.7 1597.2,2080.7 1608.4,2079.4 1619.5,2077.6 1630.6,2075.5 1641.7,2073.2 1652.8,2070.6 1663.9,2067.7 1675,2064.8 1686.2,2061.7 1697.3,2058.5 1708.4,2055.3 1719.5,2052.1 1730.6,2049 1741.7,2046 1752.8,2043.1 1764,2040.4 1775.1,2037.9 1786.2,2035.7 1797.3,2033.8 1808.4,2032.3 1819.5,2031.1 1830.6,2030.3 1841.8,2029.8 1852.9,2029.6 1864,2029.7 1875.1,2030.1 1886.2,2030.7 1897.3,2031.5 1908.4,2032.5 1919.6,2033.7 1930.7,2035.1 1941.8,2036.6 1952.9,2038.2 1964,2040 1975.1,2041.8 1986.3,2043.7 1997.4,2045.6 2008.5,2047.6 2019.6,2049.5 2030.7,2051.5 2041.8,2053.4 2052.9,2055.2 2064.1,2057 2075.2,2058.7 2086.3,2060.3 2097.4,2061.9 2108.5,2063.3 2119.6,2064.6 2130.7,2065.8 2141.9,2066.9 2153,2067.9 2164.1,2068.7 2175.2,2069.3 2186.3,2069.9 2197.4,2070.2 2208.5,2070.4 2219.7,2070.5 2230.8,2070.3 2241.9,2070 2253,2069.5 2264.1,2068.8 2275.2,2067.8 2286.3,2066.7 2297.5,2065.3 2308.6,2063.7 2319.7,2061.9 2330.8,2060 2341.9,2057.9 2353,2055.8 2364.2,2053.5 2375.3,2051.2 2386.4,2048.9 2397.5,2046.6 2408.6,2044.3 2419.7,2042 2430.8,2039.9 2442,2037.9 2453.1,2036 2464.2,2034.3 2475.3,2032.8 2486.4,2031.6 2497.5,2030.6 2508.6,2029.8 2519.8,2029.4 2530.9,2029.4 2542,2029.7 2553.1,2030.3 2564.2,2031.4 2575.3,2032.7 2586.5,2034.3 2597.6,2036.2 2608.7,2038.3 2619.8,2040.6 2630.9,2043 2642,2045.5 2653.1,2048.1 2664.3,2050.7 2675.4,2053.4 2686.5,2056 2697.6,2058.6 2708.7,2061.1 2719.8,2063.4 2730.9,2065.6 2742.1,2067.6 2753.2,2069.4 2764.3,2070.9 2775.4,2072.2 2786.5,2073.1 2797.6,2073.6 2808.7,2073.8 2819.9,2073.7 2831,2073.3 2842.1,2072.6 2853.2,2071.7 2864.3,2070.6 2875.4,2069.3 2886.5,2067.8 2897.7,2066.2 2908.8,2064.4 2919.9,2062.5 2931,2060.6 2942.1,2058.5 2953.2,2056.5 2964.4,2054.4 2975.5,2052.3 2986.6,2050.3 2997.7,2048.3 3008.8,2046.4 3019.9,2044.6 3031,2042.9 " stroke-width="4.8188" stroke-dasharray="19.275, 19.275" />
</g>
</svg>
