<?xml version="1.0" encoding="ISO-8859-1" standalone="no"?>
<!DOCTYPE svg PUBLIC "-//W3C//DTD SVG 1.1//EN" "http://www.w3.org/Graphics/SVG/1.1/DTD/svg11.dtd">
<svg version="1.1" baseProfile="full" id="body" width="8in" height="8in" viewBox="0 0 1 1" preserveAspectRatio="none" xmlns="http://www.w3.org/2000/svg" xmlns:xlink="http://www.w3.org/1999/xlink" xmlns:ev="http://www.w3.org/2001/xml-events">
<title>SVG drawing</title>
<desc>This was produced by version 4.4 of GNU libplot, a free library for exporting 2-D vector graphics.</desc>
<rect id="background" x="0" y="0" width="1" height="1" stroke="none" fill="white"/>
<g id="content" transform="translate(0,1) scale(1,-1) scale(0.00024414) " xml:space="preserve" stroke="black" stroke-linecap="butt" stroke-linejoin="miter" stroke-miterlimit="10.433" stroke-dasharray="none" stroke-dashoffset="0" stroke-opacity="1" fill="none" fill-rule="evenodd" fill-opacity="1" font-style="normal" font-variant="normal" font-weight="normal" font-stretch="normal" font-size-adjust="none" letter-spacing="normal" word-spacing="normal" text-anchor="start">
<text transform="translate(1010.6,3451.9) scale(1,-1) scale(8.6016) " font-family="Helvetica,sans-serif" font-size="20px" stroke="none" fill="black" >qspline with deriv and integ</text>
<rect x="819.2" y="819.2" width="2457.6" height="2457.6" stroke-width="4.8188" />
<text transform="translate(783.33,662.21) scale(1,-1) scale(6.4512) " font-family="Helvetica,sans-serif" font-size="20px" stroke="none" fill="black" >0</text>
<line x1="819.2" y1="3276.8" x2="819.2" y2="3227.6" stroke-width="4.8188" />
<line x1="819.2" y1="819.2" x2="819.2" y2="868.35" stroke-width="4.8188" />
<text transform="translate(1274.9,662.21) scale(1,-1) scale(6.4512) " font-family="Helvetica,sans-serif" font-size="20px" stroke="none" fill="black" >1</text>
<line x1="1310.7" y1="3276.8" x2="1310.7" y2="3227.6" stroke-width="4.8188" />
<line x1="1310.7" y1="819.2" x2="1310.7" y2="868.35" stroke-width="4.8188" />
<text transform="translate(1766.4,662.21) scale(1,-1) scale(6.4512) " font-family="Helvetica,sans-serif" font-size="20px" stroke="none" fill="black" >2</text>
<line x1="1802.2" y1="3276.8" x2="1802.2" y2="3227.6" stroke-width="4.8188" />
<line x1="1802.2" y1="819.2" x2="1802.2" y2="868.35" stroke-width="4.8188" />
<text transform="translate(2257.9,662.21) scale(1,-1) scale(6.4512) " font-family="Helvetica,sans-serif" font-size="20px" stroke="none" fill="black" >3</text>
<line x1="2293.8" y1="3276.8" x2="2293.8" y2="3227.6" stroke-width="4.8188" />
<line x1="2293.8" y1="819.2" x2="2293.8" y2="868.35" stroke-width="4.8188" />
<text transform="translate(2749.4,662.21) scale(1,-1) scale(6.4512) " font-family="Helvetica,sans-serif" font-size="20px" stroke="none" fill="black" >4</text>
<line x1="2785.3" y1="3276.8" x2="2785.3" y2="3227.6" stroke-width="4.8188" />
<line x1="2785.3" y1="819.2" x2="2785.3" y2="868.35" stroke-width="4.8188" />
<text transform="translate(3240.9,662.21) scale(1,-1) scale(6.4512) " font-family="Helvetica,sans-serif" font-size="20px" stroke="none" fill="black" >5</text>
<line x1="3276.8" y1="3276.8" x2="3276.8" y2="3227.6" stroke-width="4.8188" />
<line x1="3276.8" y1="819.2" x2="3276.8" y2="868.35" stroke-width="4.8188" />
<line x1="819.2" y1="3276.8" x2="819.2" y2="3257.1" stroke-width="4.8188" />
<line x1="819.2" y1="819.2" x2="819.2" y2="838.86" stroke-width="4.8188" />
<line x1="917.5" y1="3276.8" x2="917.5" y2="3257.1" stroke-width="4.8188" />
<line x1="917.5" y1="819.2" x2="917.5" y2="838.86" stroke-width="4.8188" />
<line x1="1015.8" y1="3276.8" x2="1015.8" y2="3257.1" stroke-width="4.8188" />
<line x1="1015.8" y1="819.2" x2="1015.8" y2="838.86" stroke-width="4.8188" />
<line x1="1114.1" y1="3276.8" x2="1114.1" y2="3257.1" stroke-width="4.8188" />
<line x1="1114.1" y1="819.2" x2="1114.1" y2="838.86" stroke-width="4.8188" />
<line x1="1212.4" y1="3276.8" x2="1212.4" y2="3257.1" stroke-width="4.8188" />
<line x1="1212.4" y1="819.2" x2="1212.4" y2="838.86" stroke-width="4.8188" />
<line x1="1310.7" y1="3276.8" x2="1310.7" y2="3257.1" stroke-width="4.8188" />
<line x1="1310.7" y1="819.2" x2="1310.7" y2="838.86" stroke-width="4.8188" />
<line x1="1409" y1="3276.8" x2="1409" y2="3257.1" stroke-width="4.8188" />
<line x1="1409" y1="819.2" x2="1409" y2="838.86" stroke-width="4.8188" />
<line x1="1507.3" y1="3276.8" x2="1507.3" y2="3257.1" stroke-width="4.8188" />
<line x1="1507.3" y1="819.2" x2="1507.3" y2="838.86" stroke-width="4.8188" />
<line x1="1605.6" y1="3276.8" x2="1605.6" y2="3257.1" stroke-width="4.8188" />
<line x1="1605.6" y1="819.2" x2="1605.6" y2="838.86" stroke-width="4.8188" />
<line x1="1703.9" y1="3276.8" x2="1703.9" y2="3257.1" stroke-width="4.8188" />
<line x1="1703.9" y1="819.2" x2="1703.9" y2="838.86" stroke-width="4.8188" />
<line x1="1802.2" y1="3276.8" x2="1802.2" y2="3257.1" stroke-width="4.8188" />
<line x1="1802.2" y1="819.2" x2="1802.2" y2="838.86" stroke-width="4.8188" />
<line x1="1900.5" y1="3276.8" x2="1900.5" y2="3257.1" stroke-width="4.8188" />
<line x1="1900.5" y1="819.2" x2="1900.5" y2="838.86" stroke-width="4.8188" />
<line x1="1998.8" y1="3276.8" x2="1998.8" y2="3257.1" stroke-width="4.8188" />
<line x1="1998.8" y1="819.2" x2="1998.8" y2="838.86" stroke-width="4.8188" />
<line x1="2097.2" y1="3276.8" x2="2097.2" y2="3257.1" stroke-width="4.8188" />
<line x1="2097.2" y1="819.2" x2="2097.2" y2="838.86" stroke-width="4.8188" />
<line x1="2195.5" y1="3276.8" x2="2195.5" y2="3257.1" stroke-width="4.8188" />
<line x1="2195.5" y1="819.2" x2="2195.5" y2="838.86" stroke-width="4.8188" />
<line x1="2293.8" y1="3276.8" x2="2293.8" y2="3257.1" stroke-width="4.8188" />
<line x1="2293.8" y1="819.2" x2="2293.8" y2="838.86" stroke-width="4.8188" />
<line x1="2392.1" y1="3276.8" x2="2392.1" y2="3257.1" stroke-width="4.8188" />
<line x1="2392.1" y1="819.2" x2="2392.1" y2="838.86" stroke-width="4.8188" />
<line x1="2490.4" y1="3276.8" x2="2490.4" y2="3257.1" stroke-width="4.8188" />
<line x1="2490.4" y1="819.2" x2="2490.4" y2="838.86" stroke-width="4.8188" />
<line x1="2588.7" y1="3276.8" x2="2588.7" y2="3257.1" stroke-width="4.8188" />
<line x1="2588.7" y1="819.2" x2="2588.7" y2="838.86" stroke-width="4.8188" />
<line x1="2687" y1="3276.8" x2="2687" y2="3257.1" stroke-width="4.8188" />
<line x1="2687" y1="819.2" x2="2687" y2="838.86" stroke-width="4.8188" />
<line x1="2785.3" y1="3276.8" x2="2785.3" y2="3257.1" stroke-width="4.8188" />
<line x1="2785.3" y1="819.2" x2="2785.3" y2="838.86" stroke-width="4.8188" />
<line x1="2883.6" y1="3276.8" x2="2883.6" y2="3257.1" stroke-width="4.8188" />
<line x1="2883.6" y1="819.2" x2="2883.6" y2="838.86" stroke-width="4.8188" />
<line x1="2981.9" y1="3276.8" x2="2981.9" y2="3257.1" stroke-width="4.8188" />
<line x1="2981.9" y1="819.2" x2="2981.9" y2="838.86" stroke-width="4.8188" />
<line x1="3080.2" y1="3276.8" x2="3080.2" y2="3257.1" stroke-width="4.8188" />
<line x1="3080.2" y1="819.2" x2="3080.2" y2="838.86" stroke-width="4.8188" />
<line x1="3178.5" y1="3276.8" x2="3178.5" y2="3257.1" stroke-width="4.8188" />
<line x1="3178.5" y1="819.2" x2="3178.5" y2="838.86" stroke-width="4.8188" />
<line x1="3276.8" y1="3276.8" x2="3276.8" y2="3257.1" stroke-width="4.8188" />
<line x1="3276.8" y1="819.2" x2="3276.8" y2="838.86" stroke-width="4.8188" />
<text transform="translate(527.64,773.65) scale(1,-1) scale(6.4512) " font-family="Helvetica,sans-serif" font-size="20px" stroke="none" fill="black" >-1.5</text>
<line x1="3276.8" y1="819.2" x2="3227.6" y2="819.2" stroke-width="4.8188" />
<line x1="819.2" y1="819.2" x2="868.35" y2="819.2" stroke-width="4.8188" />
<text transform="translate(527.64,1080.9) scale(1,-1) scale(6.4512) " font-family="Helvetica,sans-serif" font-size="20px" stroke="none" fill="black" >-1.0</text>
<line x1="3276.8" y1="1126.4" x2="3227.6" y2="1126.4" stroke-width="4.8188" />
<line x1="819.2" y1="1126.4" x2="868.35" y2="1126.4" stroke-width="4.8188" />
<text transform="translate(527.64,1388.1) scale(1,-1) scale(6.4512) " font-family="Helvetica,sans-serif" font-size="20px" stroke="none" fill="black" >-0.5</text>
<line x1="3276.8" y1="1433.6" x2="3227.6" y2="1433.6" stroke-width="4.8188" />
<line x1="819.2" y1="1433.6" x2="868.35" y2="1433.6" stroke-width="4.8188" />
<text transform="translate(602.99,1695.3) scale(1,-1) scale(6.4512) " font-family="Helvetica,sans-serif" font-size="20px" stroke="none" fill="black" >0.0</text>
<line x1="3276.8" y1="1740.8" x2="3227.6" y2="1740.8" stroke-width="4.8188" />
<line x1="819.2" y1="1740.8" x2="868.35" y2="1740.8" stroke-width="4.8188" />
<text transform="translate(602.99,2002.5) scale(1,-1) scale(6.4512) " font-family="Helvetica,sans-serif" font-size="20px" stroke="none" fill="black" >0.5</text>
<line x1="3276.8" y1="2048" x2="3227.6" y2="2048" stroke-width="4.8188" />
<line x1="819.2" y1="2048" x2="868.35" y2="2048" stroke-width="4.8188" />
<text transform="translate(602.99,2309.7) scale(1,-1) scale(6.4512) " font-family="Helvetica,sans-serif" font-size="20px" stroke="none" fill="black" >1.0</text>
<line x1="3276.8" y1="2355.2" x2="3227.6" y2="2355.2" stroke-width="4.8188" />
<line x1="819.2" y1="2355.2" x2="868.35" y2="2355.2" stroke-width="4.8188" />
<text transform="translate(602.99,2616.9) scale(1,-1) scale(6.4512) " font-family="Helvetica,sans-serif" font-size="20px" stroke="none" fill="black" >1.5</text>
<line x1="3276.8" y1="2662.4" x2="3227.6" y2="2662.4" stroke-width="4.8188" />
<line x1="819.2" y1="2662.4" x2="868.35" y2="2662.4" stroke-width="4.8188" />
<text transform="translate(602.99,2924.1) scale(1,-1) scale(6.4512) " font-family="Helvetica,sans-serif" font-size="20px" stroke="none" fill="black" >2.0</text>
<line x1="3276.8" y1="2969.6" x2="3227.6" y2="2969.6" stroke-width="4.8188" />
<line x1="819.2" y1="2969.6" x2="868.35" y2="2969.6" stroke-width="4.8188" />
<text transform="translate(602.99,3231.3) scale(1,-1) scale(6.4512) " font-family="Helvetica,sans-serif" font-size="20px" stroke="none" fill="black" >2.5</text>
<line x1="3276.8" y1="3276.8" x2="3227.6" y2="3276.8" stroke-width="4.8188" />
<line x1="819.2" y1="3276.8" x2="868.35" y2="3276.8" stroke-width="4.8188" />
<line x1="819.2" y1="1740.8" x2="3276.8" y2="1740.8" stroke-width="4.8188" stroke-dasharray="4.8188, 14.456" />
<text transform="translate(2015.7,501.24) scale(1,-1) scale(6.4512) " font-family="Helvetica,sans-serif" font-size="20px" stroke="none" fill="black" >x</text>
<text transform="matrix(0 6.4512 6.4512 0 424.93 2015.7) " font-family="Helvetica,sans-serif" font-size="20px" stroke="none" fill="black" >y</text>
<circle cx="819.2" cy="2355.2" r="23.04" stroke-width="2.304" />
<circle cx="1065" cy="2214" r="23.04" stroke-width="2.304" />
<circle cx="1310.7" cy="1920.2" r="23.04" stroke-width="2.304" />
<circle cx="1556.5" cy="1743.9" r="23.04" stroke-width="2.304" />
<circle cx="1802.2" cy="1847.2" r="23.04" stroke-width="2.304" />
<circle cx="2048" cy="2135.1" r="23.04" stroke-width="2.304" />
<circle cx="2293.8" cy="2343" r="23.04" stroke-width="2.304" />
<circle cx="2539.5" cy="2279.6" r="23.04" stroke-width="2.304" />
<circle cx="2785.3" cy="2003.3" r="23.04" stroke-width="2.304" />
<circle cx="3031" cy="1768.1" r="23.04" stroke-width="2.304" />
<polyline points="819.2,2355.2 831.49,2354.8 843.78,2353.7 856.06,2351.8 868.35,2349.1 880.64,2345.6 892.93,2341.5 905.22,2336.6 917.5,2330.9 929.79,2324.6 942.08,2317.6 954.37,2309.9 966.66,2301.5 978.94,2292.6 991.23,2283 1003.5,2272.8 1015.8,2262 1028.1,2250.7 1040.4,2239 1052.7,2226.7 1065,2214 1077.2,2200.9 1089.5,2187.3 1101.8,2173.5 1114.1,2159.3 1126.4,2144.9 1138.7,2130.2 1151,2115.3 1163.3,2100.2 1175.6,2085 1187.8,2069.7 1200.1,2054.4 1212.4,2039 1224.7,2023.7 1237,2008.4 1249.3,1993.2 1261.6,1978.2 1273.9,1963.3 1286.1,1948.7 1298.4,1934.3 1310.7,1920.2 1323,1906.4 1335.3,1892.9 1347.6,1879.9 1359.9,1867.2 1372.2,1855 1384.4,1843.3 1396.7,1832.1 1409,1821.5 1421.3,1811.4 1433.6,1801.9 1445.9,1793 1458.2,1784.8 1470.5,1777.2 1482.8,1770.3 1495,1764.1 1507.3,1758.5 1519.6,1753.8 1531.9,1749.7 1544.2,1746.4 1556.5,1743.9 1568.8,1742.1 1581.1,1741.1 1593.3,1740.8 1605.6,1741.3 1617.9,1742.6 1630.2,1744.6 1642.5,1747.4 1654.8,1751 1667.1,1755.3 1679.4,1760.3 1691.6,1766.1 1703.9,1772.5 1716.2,1779.7 1728.5,1787.5 1740.8,1795.9 1753.1,1805 1765.4,1814.7 1777.7,1825 1790,1835.8 1802.2,1847.2 1814.5,1859.1 1826.8,1871.4 1839.1,1884.2 1851.4,1897.4 1863.7,1911 1876,1924.9 1888.3,1939.1 1900.5,1953.6 1912.8,1968.3 1925.1,1983.2 1937.4,1998.3 1949.7,2013.5 1962,2028.8 1974.3,2044.2 1986.6,2059.6 1998.8,2074.9 2011.1,2090.1 2023.4,2105.3 2035.7,2120.3 2048,2135.1 2060.3,2149.8 2072.6,2164.1 2084.9,2178.2 2097.2,2191.9 2109.4,2205.3 2121.7,2218.3 2134,2230.9 2146.3,2243 2158.6,2254.6 2170.9,2265.7 2183.2,2276.3 2195.5,2286.3 2207.7,2295.6 2220,2304.4 2232.3,2312.6 2244.6,2320 2256.9,2326.8 2269.2,2332.9 2281.5,2338.3 2293.8,2343 2306,2346.9 2318.3,2350.1 2330.6,2352.5 2342.9,2354.1 2355.2,2355 2367.5,2355.2 2379.8,2354.5 2392.1,2353.1 2404.4,2350.9 2416.6,2348 2428.9,2344.3 2441.2,2339.9 2453.5,2334.8 2465.8,2328.9 2478.1,2322.3 2490.4,2315.1 2502.7,2307.2 2514.9,2298.6 2527.2,2289.4 2539.5,2279.6 2551.8,2269.2 2564.1,2258.3 2576.4,2246.8 2588.7,2234.9 2601,2222.5 2613.2,2209.6 2625.5,2196.4 2637.8,2182.7 2650.1,2168.8 2662.4,2154.5 2674.7,2140 2687,2125.2 2699.3,2110.2 2711.6,2095.1 2723.8,2079.9 2736.1,2064.6 2748.4,2049.2 2760.7,2033.9 2773,2018.5 2785.3,2003.3 2797.6,1988.2 2809.9,1973.2 2822.1,1958.4 2834.4,1943.8 2846.7,1929.5 2859,1915.5 2871.3,1901.8 2883.6,1888.5 2895.9,1875.6 2908.2,1863.1 2920.4,1851 2932.7,1839.5 2945,1828.5 2957.3,1818 2969.6,1808.1 2981.9,1798.8 2994.2,1790.2 3006.5,1782.1 3018.8,1774.8 3031,1768.1 3043.3,1762.1 3055.6,1756.9 3067.9,1752.3 3080.2,1748.5 3092.5,1745.5 3104.8,1743.2 3117.1,1741.7 3129.3,1740.9 3141.6,1740.9 3153.9,1741.7 3166.2,1743.2 3178.5,1745.5 3190.8,1748.6 3203.1,1752.4 3215.4,1756.9 3227.6,1762.2 3239.9,1768.2 3252.2,1774.8 3264.5,1782.2 " stroke-width="4.8188" stroke-dasharray="4.8188, 14.456" />
<polyline points="819.2,2355.2 830.31,2354 841.43,2352.2 852.54,2350 863.66,2347.3 874.77,2344.1 885.89,2340.4 897,2336.2 908.12,2331.6 919.23,2326.5 930.35,2320.8 941.46,2314.7 952.58,2308.1 963.69,2301 974.81,2293.4 985.92,2285.4 997.04,2276.8 1008.2,2267.8 1019.3,2258.3 1030.4,2248.2 1041.5,2237.7 1052.6,2226.8 1063.7,2215.3 1074.8,2203.5 1086,2191.5 1097.1,2179.4 1108.2,2167.2 1119.3,2154.8 1130.4,2142.3 1141.5,2129.6 1152.6,2116.9 1163.8,2103.9 1174.9,2090.9 1186,2077.7 1197.1,2064.3 1208.2,2050.9 1219.3,2037.3 1230.4,2023.5 1241.6,2009.6 1252.7,1995.6 1263.8,1981.5 1274.9,1967.2 1286,1952.7 1297.1,1938.2 1308.3,1923.4 1319.4,1908.8 1330.5,1894.8 1341.6,1881.4 1352.7,1868.6 1363.8,1856.5 1374.9,1844.9 1386.1,1834 1397.2,1823.7 1408.3,1814 1419.4,1804.9 1430.5,1796.5 1441.6,1788.6 1452.7,1781.4 1463.9,1774.8 1475,1768.8 1486.1,1763.5 1497.2,1758.7 1508.3,1754.6 1519.4,1751.1 1530.5,1748.2 1541.7,1745.9 1552.8,1744.3 1563.9,1743.2 1575,1742.7 1586.1,1742.7 1597.2,1743.2 1608.4,1744.3 1619.5,1745.9 1630.6,1748 1641.7,1750.6 1652.8,1753.7 1663.9,1757.4 1675,1761.6 1686.2,1766.4 1697.3,1771.6 1708.4,1777.4 1719.5,1783.7 1730.6,1790.5 1741.7,1797.9 1752.8,1805.8 1764,1814.2 1775.1,1823.1 1786.2,1832.6 1797.3,1842.6 1808.4,1853.1 1819.5,1863.8 1830.6,1874.7 1841.8,1885.9 1852.9,1897.3 1864,1909 1875.1,1920.9 1886.2,1933 1897.3,1945.3 1908.4,1957.9 1919.6,1970.7 1930.7,1983.7 1941.8,1996.9 1952.9,2010.4 1964,2024.1 1975.1,2038.1 1986.3,2052.2 1997.4,2066.6 2008.5,2081.3 2019.6,2096.1 2030.7,2111.2 2041.8,2126.5 2052.9,2142 2064.1,2157 2075.2,2171.5 2086.3,2185.4 2097.4,2198.8 2108.5,2211.6 2119.6,2223.8 2130.7,2235.5 2141.9,2246.7 2153,2257.2 2164.1,2267.3 2175.2,2276.7 2186.3,2285.6 2197.4,2294 2208.5,2301.8 2219.7,2309 2230.8,2315.7 2241.9,2321.8 2253,2327.3 2264.1,2332.3 2275.2,2336.8 2286.3,2340.7 2297.5,2344 2308.6,2346.8 2319.7,2349 2330.8,2350.7 2341.9,2351.8 2353,2352.4 2364.2,2352.4 2375.3,2351.9 2386.4,2350.8 2397.5,2349.1 2408.6,2347 2419.7,2344.2 2430.8,2340.9 2442,2337.1 2453.1,2332.7 2464.2,2327.7 2475.3,2322.2 2486.4,2316.2 2497.5,2309.5 2508.6,2302.4 2519.8,2294.7 2530.9,2286.4 2542,2277.6 2553.1,2268.4 2564.2,2258.9 2575.3,2249 2586.5,2238.9 2597.6,2228.4 2608.7,2217.6 2619.8,2206.5 2630.9,2195.1 2642,2183.3 2653.1,2171.2 2664.3,2158.9 2675.4,2146.1 2686.5,2133.1 2697.6,2119.8 2708.7,2106.1 2719.8,2092.1 2730.9,2077.8 2742.1,2063.2 2753.2,2048.3 2764.3,2033 2775.4,2017.4 2786.5,2001.5 2797.6,1985.8 2808.7,1970.6 2819.9,1955.8 2831,1941.6 2842.1,1927.8 2853.2,1914.5 2864.3,1901.7 2875.4,1889.4 2886.5,1877.5 2897.7,1866.2 2908.8,1855.3 2919.9,1845 2931,1835.1 2942.1,1825.7 2953.2,1816.8 2964.4,1808.4 2975.5,1800.5 2986.6,1793 2997.7,1786.1 3008.8,1779.6 3019.9,1773.6 3031,1768.1 " stroke-width="4.8188" />
<polyline points="819.2,1696.5 830.31,1674.9 841.43,1653.4 852.54,1631.8 863.66,1610.3 874.77,1588.8 885.89,1567.2 897,1545.7 908.12,1524.2 919.23,1502.6 930.35,1481.1 941.46,1459.6 952.58,1438 963.69,1416.5 974.81,1394.9 985.92,1373.4 997.04,1351.9 1008.2,1330.3 1019.3,1308.8 1030.4,1287.3 1041.5,1265.7 1052.6,1244.2 1063.7,1222.7 1074.8,1214.9 1086,1208.8 1097.1,1202.7 1108.2,1196.7 1119.3,1190.6 1130.4,1184.5 1141.5,1178.5 1152.6,1172.4 1163.8,1166.3 1174.9,1160.2 1186,1154.2 1197.1,1148.1 1208.2,1142 1219.3,1136 1230.4,1129.9 1241.6,1123.8 1252.7,1117.7 1263.8,1111.7 1274.9,1105.6 1286,1099.5 1297.1,1093.5 1308.3,1087.4 1319.4,1107.3 1330.5,1134.6 1341.6,1162 1352.7,1189.3 1363.8,1216.6 1374.9,1244 1386.1,1271.3 1397.2,1298.6 1408.3,1326 1419.4,1353.3 1430.5,1380.6 1441.6,1408 1452.7,1435.3 1463.9,1462.6 1475,1490 1486.1,1517.3 1497.2,1544.6 1508.3,1572 1519.4,1599.3 1530.5,1626.6 1541.7,1654 1552.8,1681.3 1563.9,1705.9 1575,1729.2 1586.1,1752.4 1597.2,1775.7 1608.4,1798.9 1619.5,1822.2 1630.6,1845.4 1641.7,1868.7 1652.8,1891.9 1663.9,1915.2 1675,1938.4 1686.2,1961.7 1697.3,1984.9 1708.4,2008.2 1719.5,2031.4 1730.6,2054.7 1741.7,2077.9 1752.8,2101.2 1764,2124.4 1775.1,2147.7 1786.2,2170.9 1797.3,2194.2 1808.4,2210.1 1819.5,2220.3 1830.6,2230.4 1841.8,2240.6 1852.9,2250.7 1864,2260.9 1875.1,2271 1886.2,2281.2 1897.3,2291.3 1908.4,2301.5 1919.6,2311.6 1930.7,2321.8 1941.8,2331.9 1952.9,2342 1964,2352.2 1975.1,2362.3 1986.3,2372.5 1997.4,2382.6 2008.5,2392.8 2019.6,2402.9 2030.7,2413.1 2041.8,2423.2 2052.9,2417.9 2064.1,2393.3 2075.2,2368.6 2086.3,2344 2097.4,2319.4 2108.5,2294.7 2119.6,2270.1 2130.7,2245.4 2141.9,2220.8 2153,2196.1 2164.1,2171.5 2175.2,2146.9 2186.3,2122.2 2197.4,2097.6 2208.5,2072.9 2219.7,2048.3 2230.8,2023.7 2241.9,1999 2253,1974.4 2264.1,1949.7 2275.2,1925.1 2286.3,1900.5 2297.5,1875.9 2308.6,1851.5 2319.7,1827.1 2330.8,1802.6 2341.9,1778.2 2353,1753.8 2364.2,1729.4 2375.3,1705 2386.4,1680.5 2397.5,1656.1 2408.6,1631.7 2419.7,1607.3 2430.8,1582.9 2442,1558.4 2453.1,1534 2464.2,1509.6 2475.3,1485.2 2486.4,1460.8 2497.5,1436.4 2508.6,1411.9 2519.8,1387.5 2530.9,1363.1 2542,1341 2553.1,1326.9 2564.2,1312.8 2575.3,1298.7 2586.5,1284.6 2597.6,1270.5 2608.7,1256.4 2619.8,1242.3 2630.9,1228.2 2642,1214.1 2653.1,1200 2664.3,1185.9 2675.4,1171.8 2686.5,1157.7 2697.6,1143.6 2708.7,1129.4 2719.8,1115.3 2730.9,1101.2 2742.1,1087.1 2753.2,1073 2764.3,1058.9 2775.4,1044.8 2786.5,1034.7 2797.6,1056.2 2808.7,1077.8 2819.9,1099.3 2831,1120.8 2842.1,1142.4 2853.2,1163.9 2864.3,1185.4 2875.4,1207 2886.5,1228.5 2897.7,1250.1 2908.8,1271.6 2919.9,1293.1 2931,1314.7 2942.1,1336.2 2953.2,1357.7 2964.4,1379.3 2975.5,1400.8 2986.6,1422.3 2997.7,1443.9 3008.8,1465.4 3019.9,1487 3031,1508.5 " stroke-width="4.8188" stroke-dasharray="19.275, 14.456, 4.8188, 14.456" />
<polyline points="819.2,1740.8 830.31,1754.7 841.43,1768.5 852.54,1782.3 863.66,1796.1 874.77,1809.8 885.89,1823.4 897,1836.9 908.12,1850.3 919.23,1863.6 930.35,1876.8 941.46,1889.8 952.58,1902.7 963.69,1915.5 974.81,1928.1 985.92,1940.5 997.04,1952.7 1008.2,1964.7 1019.3,1976.5 1030.4,1988.1 1041.5,1999.5 1052.6,2010.6 1063.7,2021.4 1074.8,2032 1086,2042.3 1097.1,2052.4 1108.2,2062.2 1119.3,2071.7 1130.4,2080.9 1141.5,2089.8 1152.6,2098.5 1163.8,2106.8 1174.9,2114.9 1186,2122.7 1197.1,2130.1 1208.2,2137.3 1219.3,2144.2 1230.4,2150.7 1241.6,2157 1252.7,2162.9 1263.8,2168.5 1274.9,2173.8 1286,2178.7 1297.1,2183.3 1308.3,2187.6 1319.4,2191.6 1330.5,2195.2 1341.6,2198.6 1352.7,2201.6 1363.8,2204.4 1374.9,2206.8 1386.1,2209.1 1397.2,2211.1 1408.3,2212.8 1419.4,2214.4 1430.5,2215.7 1441.6,2216.9 1452.7,2217.9 1463.9,2218.7 1475,2219.4 1486.1,2220 1497.2,2220.5 1508.3,2220.8 1519.4,2221.1 1530.5,2221.3 1541.7,2221.4 1552.8,2221.5 1563.9,2221.6 1575,2221.7 1586.1,2221.7 1597.2,2221.7 1608.4,2221.8 1619.5,2221.9 1630.6,2222 1641.7,2222.2 1652.8,2222.5 1663.9,2222.8 1675,2223.2 1686.2,2223.8 1697.3,2224.4 1708.4,2225.2 1719.5,2226.1 1730.6,2227.1 1741.7,2228.3 1752.8,2229.7 1764,2231.3 1775.1,2233 1786.2,2235 1797.3,2237.2 1808.4,2239.6 1819.5,2242.3 1830.6,2245.2 1841.8,2248.3 1852.9,2251.7 1864,2255.4 1875.1,2259.3 1886.2,2263.5 1897.3,2268 1908.4,2272.8 1919.6,2277.8 1930.7,2283.2 1941.8,2288.8 1952.9,2294.8 1964,2301 1975.1,2307.6 1986.3,2314.5 1997.4,2321.7 2008.5,2329.2 2019.6,2337.1 2030.7,2345.3 2041.8,2353.8 2052.9,2362.7 2064.1,2372 2075.2,2381.6 2086.3,2391.4 2097.4,2401.7 2108.5,2412.2 2119.6,2422.9 2130.7,2434 2141.9,2445.3 2153,2456.9 2164.1,2468.7 2175.2,2480.7 2186.3,2492.9 2197.4,2505.3 2208.5,2517.9 2219.7,2530.7 2230.8,2543.6 2241.9,2556.7 2253,2569.9 2264.1,2583.2 2275.2,2596.6 2286.3,2610.2 2297.5,2623.8 2308.6,2637.4 2319.7,2651.2 2330.8,2664.9 2341.9,2678.7 2353,2692.6 2364.2,2706.4 2375.3,2720.2 2386.4,2734 2397.5,2747.8 2408.6,2761.5 2419.7,2775.2 2430.8,2788.8 2442,2802.3 2453.1,2815.8 2464.2,2829.1 2475.3,2842.3 2486.4,2855.4 2497.5,2868.3 2508.6,2881.1 2519.8,2893.7 2530.9,2906.2 2542,2918.4 2553.1,2930.4 2564.2,2942.3 2575.3,2953.9 2586.5,2965.2 2597.6,2976.4 2608.7,2987.3 2619.8,2998 2630.9,3008.4 2642,3018.5 2653.1,3028.4 2664.3,3038 2675.4,3047.3 2686.5,3056.3 2697.6,3065 2708.7,3073.4 2719.8,3081.5 2730.9,3089.3 2742.1,3096.8 2753.2,3103.9 2764.3,3110.7 2775.4,3117.1 2786.5,3123.2 2797.6,3128.9 2808.7,3134.3 2819.9,3139.3 2831,3144 2842.1,3148.4 2853.2,3152.5 2864.3,3156.2 2875.4,3159.7 2886.5,3163 2897.7,3165.9 2908.8,3168.6 2919.9,3171.1 2931,3173.3 2942.1,3175.4 2953.2,3177.2 2964.4,3178.8 2975.5,3180.3 2986.6,3181.5 2997.7,3182.6 3008.8,3183.6 3019.9,3184.4 3031,3185.1 " stroke-width="4.8188" stroke-dasharray="19.275, 19.275" />
</g>
</svg>
