<?xml version="1.0" encoding="ISO-8859-1" standalone="no"?>
<!DOCTYPE svg PUBLIC "-//W3C//DTD SVG 1.1//EN" "http://www.w3.org/Graphics/SVG/1.1/DTD/svg11.dtd">
<svg version="1.1" baseProfile="full" id="body" width="8in" height="8in" viewBox="0 0 1 1" preserveAspectRatio="none" xmlns="http://www.w3.org/2000/svg" xmlns:xlink="http://www.w3.org/1999/xlink" xmlns:ev="http://www.w3.org/2001/xml-events">
<title>SVG drawing</title>
<desc>This was produced by version 4.4 of GNU libplot, a free library for exporting 2-D vector graphics.</desc>
<rect id="background" x="0" y="0" width="1" height="1" stroke="none" fill="white"/>
<g id="content" transform="translate(0,1) scale(1,-1) scale(0.00024414) " xml:space="preserve" stroke="black" stroke-linecap="butt" stroke-linejoin="miter" stroke-miterlimit="10.433" stroke-dasharray="none" stroke-dashoffset="0" stroke-opacity="1" fill="none" fill-rule="evenodd" fill-opacity="1" font-style="normal" font-variant="normal" font-weight="normal" font-stretch="normal" font-size-adjust="none" letter-spacing="normal" word-spacing="normal" text-anchor="start">
<text transform="translate(1010.6,3451.9) scale(1,-1) scale(8.6016) " font-family="Helvetica,sans-serif" font-size="20px" stroke="none" fill="black" >qspline with deriv and integ</text>
<rect x="819.2" y="819.2" width="2457.6" height="2457.6" stroke-width="4.8188" />
<text transform="translate(783.33,662.21) scale(1,-1) scale(6.4512) " font-family="Helvetica,sans-serif" font-size="20px" stroke="none" fill="black" >0</text>
<line x1="819.2" y1="3276.8" x2="819.2" y2="3227.6" stroke-width="4.8188" />
<line x1="819.2" y1="819.2" x2="819.2" y2="868.35" stroke-width="4.8188" />
<text transform="translate(1274.9,662.21) scale(1,-1) scale(6.4512) " font-family="Helvetica,sans-serif" font-size="20px" stroke="none" fill="black" >2</text>
<line x1="1310.7" y1="3276.8" x2="1310.7" y2="3227.6" stroke-width="4.8188" />
<line x1="1310.7" y1="819.2" x2="1310.7" y2="868.35" stroke-width="4.8188" />
<text transform="translate(1766.4,662.21) scale(1,-1) scale(6.4512) " font-family="Helvetica,sans-serif" font-size="20px" stroke="none" fill="black" >4</text>
<line x1="1802.2" y1="3276.8" x2="1802.2" y2="3227.6" stroke-width="4.8188" />
<line x1="1802.2" y1="819.2" x2="1802.2" y2="868.35" stroke-width="4.8188" />
<text transform="translate(2257.9,662.21) scale(1,-1) scale(6.4512) " font-family="Helvetica,sans-serif" font-size="20px" stroke="none" fill="black" >6</text>
<line x1="2293.8" y1="3276.8" x2="2293.8" y2="3227.6" stroke-width="4.8188" />
<line x1="2293.8" y1="819.2" x2="2293.8" y2="868.35" stroke-width="4.8188" />
<text transform="translate(2749.4,662.21) scale(1,-1) scale(6.4512) " font-family="Helvetica,sans-serif" font-size="20px" stroke="none" fill="black" >8</text>
<line x1="2785.3" y1="3276.8" x2="2785.3" y2="3227.6" stroke-width="4.8188" />
<line x1="2785.3" y1="819.2" x2="2785.3" y2="868.35" stroke-width="4.8188" />
<text transform="translate(3205.1,662.21) scale(1,-1) scale(6.4512) " font-family="Helvetica,sans-serif" font-size="20px" stroke="none" fill="black" >10</text>
<line x1="3276.8" y1="3276.8" x2="3276.8" y2="3227.6" stroke-width="4.8188" />
<line x1="3276.8" y1="819.2" x2="3276.8" y2="868.35" stroke-width="4.8188" />
<line x1="819.2" y1="3276.8" x2="819.2" y2="3257.1" stroke-width="4.8188" />
<line x1="819.2" y1="819.2" x2="819.2" y2="838.86" stroke-width="4.8188" />
<line x1="1065" y1="3276.8" x2="1065" y2="3257.1" stroke-width="4.8188" />
<line x1="1065" y1="819.2" x2="1065" y2="838.86" stroke-width="4.8188" />
<line x1="1310.7" y1="3276.8" x2="1310.7" y2="3257.1" stroke-width="4.8188" />
<line x1="1310.7" y1="819.2" x2="1310.7" y2="838.86" stroke-width="4.8188" />
<line x1="1556.5" y1="3276.8" x2="1556.5" y2="3257.1" stroke-width="4.8188" />
<line x1="1556.5" y1="819.2" x2="1556.5" y2="838.86" stroke-width="4.8188" />
<line x1="1802.2" y1="3276.8" x2="1802.2" y2="3257.1" stroke-width="4.8188" />
<line x1="1802.2" y1="819.2" x2="1802.2" y2="838.86" stroke-width="4.8188" />
<line x1="2048" y1="3276.8" x2="2048" y2="3257.1" stroke-width="4.8188" />
<line x1="2048" y1="819.2" x2="2048" y2="838.86" stroke-width="4.8188" />
<line x1="2293.8" y1="3276.8" x2="2293.8" y2="3257.1" stroke-width="4.8188" />
<line x1="2293.8" y1="819.2" x2="2293.8" y2="838.86" stroke-width="4.8188" />
<line x1="2539.5" y1="3276.8" x2="2539.5" y2="3257.1" stroke-width="4.8188" />
<line x1="2539.5" y1="819.2" x2="2539.5" y2="838.86" stroke-width="4.8188" />
<line x1="2785.3" y1="3276.8" x2="2785.3" y2="3257.1" stroke-width="4.8188" />
<line x1="2785.3" y1="819.2" x2="2785.3" y2="838.86" stroke-width="4.8188" />
<line x1="3031" y1="3276.8" x2="3031" y2="3257.1" stroke-width="4.8188" />
<line x1="3031" y1="819.2" x2="3031" y2="838.86" stroke-width="4.8188" />
<line x1="3276.8" y1="3276.8" x2="3276.8" y2="3257.1" stroke-width="4.8188" />
<line x1="3276.8" y1="819.2" x2="3276.8" y2="838.86" stroke-width="4.8188" />
<text transform="translate(635.25,773.65) scale(1,-1) scale(6.4512) " font-family="Helvetica,sans-serif" font-size="20px" stroke="none" fill="black" >-2</text>
<line x1="3276.8" y1="819.2" x2="3227.6" y2="819.2" stroke-width="4.8188" />
<line x1="819.2" y1="819.2" x2="868.35" y2="819.2" stroke-width="4.8188" />
<text transform="translate(635.25,1124.7) scale(1,-1) scale(6.4512) " font-family="Helvetica,sans-serif" font-size="20px" stroke="none" fill="black" >-1</text>
<line x1="3276.8" y1="1170.3" x2="3227.6" y2="1170.3" stroke-width="4.8188" />
<line x1="819.2" y1="1170.3" x2="868.35" y2="1170.3" stroke-width="4.8188" />
<text transform="translate(710.6,1475.8) scale(1,-1) scale(6.4512) " font-family="Helvetica,sans-serif" font-size="20px" stroke="none" fill="black" >0</text>
<line x1="3276.8" y1="1521.4" x2="3227.6" y2="1521.4" stroke-width="4.8188" />
<line x1="819.2" y1="1521.4" x2="868.35" y2="1521.4" stroke-width="4.8188" />
<text transform="translate(710.6,1826.9) scale(1,-1) scale(6.4512) " font-family="Helvetica,sans-serif" font-size="20px" stroke="none" fill="black" >1</text>
<line x1="3276.8" y1="1872.5" x2="3227.6" y2="1872.5" stroke-width="4.8188" />
<line x1="819.2" y1="1872.5" x2="868.35" y2="1872.5" stroke-width="4.8188" />
<text transform="translate(710.6,2178) scale(1,-1) scale(6.4512) " font-family="Helvetica,sans-serif" font-size="20px" stroke="none" fill="black" >2</text>
<line x1="3276.8" y1="2223.5" x2="3227.6" y2="2223.5" stroke-width="4.8188" />
<line x1="819.2" y1="2223.5" x2="868.35" y2="2223.5" stroke-width="4.8188" />
<text transform="translate(710.6,2529.1) scale(1,-1) scale(6.4512) " font-family="Helvetica,sans-serif" font-size="20px" stroke="none" fill="black" >3</text>
<line x1="3276.8" y1="2574.6" x2="3227.6" y2="2574.6" stroke-width="4.8188" />
<line x1="819.2" y1="2574.6" x2="868.35" y2="2574.6" stroke-width="4.8188" />
<text transform="translate(710.6,2880.2) scale(1,-1) scale(6.4512) " font-family="Helvetica,sans-serif" font-size="20px" stroke="none" fill="black" >4</text>
<line x1="3276.8" y1="2925.7" x2="3227.6" y2="2925.7" stroke-width="4.8188" />
<line x1="819.2" y1="2925.7" x2="868.35" y2="2925.7" stroke-width="4.8188" />
<text transform="translate(710.6,3231.3) scale(1,-1) scale(6.4512) " font-family="Helvetica,sans-serif" font-size="20px" stroke="none" fill="black" >5</text>
<line x1="3276.8" y1="3276.8" x2="3227.6" y2="3276.8" stroke-width="4.8188" />
<line x1="819.2" y1="3276.8" x2="868.35" y2="3276.8" stroke-width="4.8188" />
<line x1="3276.8" y1="819.2" x2="3257.1" y2="819.2" stroke-width="4.8188" />
<line x1="819.2" y1="819.2" x2="838.86" y2="819.2" stroke-width="4.8188" />
<line x1="3276.8" y1="994.74" x2="3257.1" y2="994.74" stroke-width="4.8188" />
<line x1="819.2" y1="994.74" x2="838.86" y2="994.74" stroke-width="4.8188" />
<line x1="3276.8" y1="1170.3" x2="3257.1" y2="1170.3" stroke-width="4.8188" />
<line x1="819.2" y1="1170.3" x2="838.86" y2="1170.3" stroke-width="4.8188" />
<line x1="3276.8" y1="1345.8" x2="3257.1" y2="1345.8" stroke-width="4.8188" />
<line x1="819.2" y1="1345.8" x2="838.86" y2="1345.8" stroke-width="4.8188" />
<line x1="3276.8" y1="1521.4" x2="3257.1" y2="1521.4" stroke-width="4.8188" />
<line x1="819.2" y1="1521.4" x2="838.86" y2="1521.4" stroke-width="4.8188" />
<line x1="3276.8" y1="1696.9" x2="3257.1" y2="1696.9" stroke-width="4.8188" />
<line x1="819.2" y1="1696.9" x2="838.86" y2="1696.9" stroke-width="4.8188" />
<line x1="3276.8" y1="1872.5" x2="3257.1" y2="1872.5" stroke-width="4.8188" />
<line x1="819.2" y1="1872.5" x2="838.86" y2="1872.5" stroke-width="4.8188" />
<line x1="3276.8" y1="2048" x2="3257.1" y2="2048" stroke-width="4.8188" />
<line x1="819.2" y1="2048" x2="838.86" y2="2048" stroke-width="4.8188" />
<line x1="3276.8" y1="2223.5" x2="3257.1" y2="2223.5" stroke-width="4.8188" />
<line x1="819.2" y1="2223.5" x2="838.86" y2="2223.5" stroke-width="4.8188" />
<line x1="3276.8" y1="2399.1" x2="3257.1" y2="2399.1" stroke-width="4.8188" />
<line x1="819.2" y1="2399.1" x2="838.86" y2="2399.1" stroke-width="4.8188" />
<line x1="3276.8" y1="2574.6" x2="3257.1" y2="2574.6" stroke-width="4.8188" />
<line x1="819.2" y1="2574.6" x2="838.86" y2="2574.6" stroke-width="4.8188" />
<line x1="3276.8" y1="2750.2" x2="3257.1" y2="2750.2" stroke-width="4.8188" />
<line x1="819.2" y1="2750.2" x2="838.86" y2="2750.2" stroke-width="4.8188" />
<line x1="3276.8" y1="2925.7" x2="3257.1" y2="2925.7" stroke-width="4.8188" />
<line x1="819.2" y1="2925.7" x2="838.86" y2="2925.7" stroke-width="4.8188" />
<line x1="3276.8" y1="3101.3" x2="3257.1" y2="3101.3" stroke-width="4.8188" />
<line x1="819.2" y1="3101.3" x2="838.86" y2="3101.3" stroke-width="4.8188" />
<line x1="3276.8" y1="3276.8" x2="3257.1" y2="3276.8" stroke-width="4.8188" />
<line x1="819.2" y1="3276.8" x2="838.86" y2="3276.8" stroke-width="4.8188" />
<line x1="819.2" y1="1521.4" x2="3276.8" y2="1521.4" stroke-width="4.8188" stroke-dasharray="4.8188, 14.456" />
<text transform="translate(2015.7,501.24) scale(1,-1) scale(6.4512) " font-family="Helvetica,sans-serif" font-size="20px" stroke="none" fill="black" >x</text>
<text transform="matrix(0 6.4512 6.4512 0 548.67 2015.7) " font-family="Helvetica,sans-serif" font-size="20px" stroke="none" fill="black" >y</text>
<circle cx="819.2" cy="1872.5" r="23.04" stroke-width="2.304" />
<circle cx="1065" cy="1623.9" r="23.04" stroke-width="2.304" />
<circle cx="1310.7" cy="1582.2" r="23.04" stroke-width="2.304" />
<circle cx="1556.5" cy="1865.5" r="23.04" stroke-width="2.304" />
<circle cx="1802.2" cy="1671.4" r="23.04" stroke-width="2.304" />
<circle cx="2048" cy="1549.6" r="23.04" stroke-width="2.304" />
<circle cx="2293.8" cy="1845" r="23.04" stroke-width="2.304" />
<circle cx="2539.5" cy="1720.9" r="23.04" stroke-width="2.304" />
<circle cx="2785.3" cy="1528.8" r="23.04" stroke-width="2.304" />
<circle cx="3031" cy="1812.8" r="23.04" stroke-width="2.304" />
<polyline points="819.2,1872.5 831.49,1871.6 843.78,1869 856.06,1864.6 868.35,1858.6 880.64,1851 892.93,1841.8 905.22,1831.2 917.5,1819.2 929.79,1806 942.08,1791.8 954.37,1776.5 966.66,1760.5 978.94,1743.9 991.23,1726.8 1003.5,1709.3 1015.8,1691.8 1028.1,1674.3 1040.4,1657 1052.7,1640.2 1065,1623.9 1077.2,1608.3 1089.5,1593.6 1101.8,1580 1114.1,1567.5 1126.4,1556.3 1138.7,1546.5 1151,1538.2 1163.3,1531.5 1175.6,1526.5 1187.8,1523.1 1200.1,1521.5 1212.4,1521.7 1224.7,1523.6 1237,1527.2 1249.3,1532.5 1261.6,1539.5 1273.9,1548 1286.1,1558.1 1298.4,1569.5 1310.7,1582.2 1323,1596 1335.3,1610.9 1347.6,1626.6 1359.9,1643 1372.2,1659.9 1384.4,1677.2 1396.7,1694.7 1409,1712.3 1421.3,1729.7 1433.6,1746.7 1445.9,1763.3 1458.2,1779.2 1470.5,1794.2 1482.8,1808.3 1495,1821.3 1507.3,1833.1 1519.6,1843.4 1531.9,1852.4 1544.2,1859.7 1556.5,1865.5 1568.8,1869.5 1581.1,1871.9 1593.3,1872.4 1605.6,1871.3 1617.9,1868.3 1630.2,1863.7 1642.5,1857.4 1654.8,1849.5 1667.1,1840.1 1679.4,1829.3 1691.6,1817.1 1703.9,1803.7 1716.2,1789.3 1728.5,1773.9 1740.8,1757.8 1753.1,1741 1765.4,1723.8 1777.7,1706.4 1790,1688.8 1802.2,1671.4 1814.5,1654.2 1826.8,1637.4 1839.1,1621.2 1851.4,1605.8 1863.7,1591.2 1876,1577.8 1888.3,1565.5 1900.5,1554.5 1912.8,1545 1925.1,1537 1937.4,1530.5 1949.7,1525.8 1962,1522.7 1974.3,1521.4 1986.6,1521.9 1998.8,1524.1 2011.1,1528 2023.4,1533.6 2035.7,1540.8 2048,1549.6 2060.3,1559.9 2072.6,1571.5 2084.9,1584.4 2097.2,1598.4 2109.4,1613.4 2121.7,1629.3 2134,1645.8 2146.3,1662.8 2158.6,1680.2 2170.9,1697.7 2183.2,1715.2 2195.5,1732.6 2207.7,1749.5 2220,1766 2232.3,1781.8 2244.6,1796.7 2256.9,1810.6 2269.2,1823.4 2281.5,1834.9 2293.8,1845 2306,1853.7 2318.3,1860.8 2330.6,1866.3 2342.9,1870 2355.2,1872.1 2367.5,1872.4 2379.8,1870.9 2392.1,1867.7 2404.4,1862.8 2416.6,1856.2 2428.9,1848.1 2441.2,1838.4 2453.5,1827.3 2465.8,1814.9 2478.1,1801.3 2490.4,1786.7 2502.7,1771.2 2514.9,1755 2527.2,1738.2 2539.5,1720.9 2551.8,1703.4 2564.1,1685.9 2576.4,1668.5 2588.7,1651.3 2601,1634.6 2613.2,1618.5 2625.5,1603.2 2637.8,1588.9 2650.1,1575.6 2662.4,1563.6 2674.7,1552.8 2687,1543.5 2699.3,1535.8 2711.6,1529.6 2723.8,1525.2 2736.1,1522.4 2748.4,1521.4 2760.7,1522.1 2773,1524.6 2785.3,1528.8 2797.6,1534.7 2809.9,1542.2 2822.1,1551.2 2834.4,1561.8 2846.7,1573.6 2859,1586.7 2871.3,1600.9 2883.6,1616 2895.9,1632 2908.2,1648.6 2920.4,1665.7 2932.7,1683.1 2945,1700.6 2957.3,1718.1 2969.6,1735.4 2981.9,1752.3 2994.2,1768.7 3006.5,1784.3 3018.8,1799.1 3031,1812.8 3043.3,1825.4 3055.6,1836.7 3067.9,1846.6 3080.2,1855 3092.5,1861.8 3104.8,1867 3117.1,1870.5 3129.3,1872.2 3141.6,1872.2 3153.9,1870.5 3166.2,1867 3178.5,1861.8 3190.8,1854.9 3203.1,1846.5 3215.4,1836.6 3227.6,1825.3 3239.9,1812.7 3252.2,1799 3264.5,1784.2 " stroke-width="4.8188" stroke-dasharray="4.8188, 14.456" />
<polyline points="819.2,1872.5 830.31,1869.3 841.43,1865.4 852.54,1860.7 863.66,1855.3 874.77,1849.1 885.89,1842.1 897,1834.3 908.12,1825.8 919.23,1816.5 930.35,1806.5 941.46,1795.7 952.58,1784.1 963.69,1771.7 974.81,1758.6 985.92,1744.7 997.04,1730.1 1008.2,1714.7 1019.3,1698.5 1030.4,1681.5 1041.5,1663.8 1052.6,1645.3 1063.7,1626 1074.8,1607 1086,1589.5 1097.1,1573.6 1108.2,1559.3 1119.3,1546.7 1130.4,1535.7 1141.5,1526.3 1152.6,1518.5 1163.8,1512.3 1174.9,1507.7 1186,1504.7 1197.1,1503.4 1208.2,1503.6 1219.3,1505.5 1230.4,1509 1241.6,1514.1 1252.7,1520.9 1263.8,1529.2 1274.9,1539.1 1286,1550.7 1297.1,1563.9 1308.3,1578.7 1319.4,1594.5 1330.5,1610.1 1341.6,1625.4 1352.7,1640.4 1363.8,1655.2 1374.9,1669.6 1386.1,1683.8 1397.2,1697.7 1408.3,1711.3 1419.4,1724.6 1430.5,1737.6 1441.6,1750.4 1452.7,1762.8 1463.9,1775 1475,1786.9 1486.1,1798.5 1497.2,1809.9 1508.3,1820.9 1519.4,1831.7 1530.5,1842.1 1541.7,1852.3 1552.8,1862.2 1563.9,1871.5 1575,1879.3 1586.1,1885.3 1597.2,1889.7 1608.4,1892.4 1619.5,1893.5 1630.6,1892.8 1641.7,1890.6 1652.8,1886.6 1663.9,1881 1675,1873.7 1686.2,1864.7 1697.3,1854.1 1708.4,1841.8 1719.5,1827.8 1730.6,1812.2 1741.7,1794.9 1752.8,1775.9 1764,1755.2 1775.1,1732.9 1786.2,1709 1797.3,1683.3 1808.4,1656.6 1819.5,1631.4 1830.6,1608.2 1841.8,1587 1852.9,1567.7 1864,1550.4 1875.1,1535.1 1886.2,1521.7 1897.3,1510.3 1908.4,1500.9 1919.6,1493.4 1930.7,1487.9 1941.8,1484.4 1952.9,1482.8 1964,1483.2 1975.1,1485.6 1986.3,1489.9 1997.4,1496.2 2008.5,1504.4 2019.6,1514.6 2030.7,1526.8 2041.8,1540.9 2052.9,1556.8 2064.1,1572.8 2075.2,1588.5 2086.3,1603.9 2097.4,1619.1 2108.5,1634.1 2119.6,1648.7 2130.7,1663.2 2141.9,1677.3 2153,1691.2 2164.1,1704.9 2175.2,1718.3 2186.3,1731.4 2197.4,1744.3 2208.5,1756.9 2219.7,1769.2 2230.8,1781.3 2241.9,1793.2 2253,1804.8 2264.1,1816.1 2275.2,1827.2 2286.4,1838 2297.5,1848.5 2308.6,1857.8 2319.7,1865.6 2330.8,1872 2341.9,1876.9 2353,1880.4 2364.2,1882.4 2375.3,1882.9 2386.4,1882 2397.5,1879.6 2408.6,1875.8 2419.7,1870.5 2430.8,1863.7 2442,1855.5 2453.1,1845.9 2464.2,1834.8 2475.3,1822.2 2486.4,1808.1 2497.5,1792.6 2508.6,1775.7 2519.8,1757.3 2530.9,1737.4 2542,1716.1 2553.1,1695.2 2564.2,1675.5 2575.3,1657 2586.4,1639.7 2597.6,1623.5 2608.7,1608.5 2619.8,1594.7 2630.9,1582.1 2642,1570.6 2653.1,1560.4 2664.3,1551.3 2675.4,1543.4 2686.5,1536.7 2697.6,1531.1 2708.7,1526.8 2719.8,1523.6 2730.9,1521.6 2742.1,1520.8 2753.2,1521.1 2764.3,1522.7 2775.4,1525.4 2786.5,1529.3 2797.6,1534.1 2808.7,1539.7 2819.9,1546.1 2831,1553.2 2842.1,1561.1 2853.2,1569.8 2864.3,1579.2 2875.4,1589.4 2886.5,1600.4 2897.7,1612.1 2908.8,1624.6 2919.9,1637.9 2931,1651.9 2942.1,1666.7 2953.2,1682.3 2964.4,1698.7 2975.5,1715.8 2986.6,1733.6 2997.7,1752.3 3008.8,1771.7 3019.9,1791.9 3031,1812.8 " stroke-width="4.8188" />
<polyline points="819.2,1460.4 830.31,1443.4 841.43,1426.4 852.54,1409.5 863.66,1392.5 874.77,1375.5 885.89,1358.6 897,1341.6 908.12,1324.6 919.23,1307.7 930.35,1290.7 941.46,1273.7 952.58,1256.8 963.69,1239.8 974.81,1222.8 985.92,1205.8 997.04,1188.9 1008.2,1171.9 1019.3,1154.9 1030.4,1138 1041.5,1121 1052.6,1104 1063.7,1087.1 1074.8,1116.9 1086,1152.6 1097.1,1188.3 1108.2,1223.9 1119.3,1259.6 1130.4,1295.3 1141.5,1331 1152.6,1366.7 1163.8,1402.4 1174.9,1438 1186,1473.7 1197.1,1509.4 1208.2,1545.1 1219.3,1580.8 1230.4,1616.5 1241.6,1652.2 1252.7,1687.8 1263.8,1723.5 1274.9,1759.2 1286,1794.9 1297.1,1830.6 1308.3,1866.3 1319.4,1869.3 1330.5,1863 1341.6,1856.7 1352.7,1850.4 1363.8,1844.1 1374.9,1837.9 1386.1,1831.6 1397.2,1825.3 1408.3,1819 1419.4,1812.7 1430.5,1806.4 1441.6,1800.1 1452.7,1793.8 1463.9,1787.5 1475,1781.3 1486.1,1775 1497.2,1768.7 1508.3,1762.4 1519.4,1756.1 1530.5,1749.8 1541.7,1743.5 1552.8,1737.2 1563.9,1710.6 1575,1673.7 1586.1,1636.8 1597.2,1599.9 1608.4,1563 1619.5,1526.1 1630.6,1489.2 1641.7,1452.3 1652.8,1415.4 1663.9,1378.5 1675,1341.6 1686.2,1304.7 1697.3,1267.8 1708.4,1230.9 1719.5,1194.1 1730.6,1157.2 1741.7,1120.3 1752.8,1083.4 1764,1046.5 1775.1,1009.6 1786.2,972.7 1797.3,935.81 1808.4,943.54 1819.5,986.98 1830.6,1030.4 1841.8,1073.8 1852.9,1117.3 1864,1160.7 1875.1,1204.2 1886.2,1247.6 1897.3,1291 1908.4,1334.5 1919.6,1377.9 1930.7,1421.3 1941.8,1464.8 1952.9,1508.2 1964,1551.6 1975.1,1595.1 1986.3,1638.5 1997.4,1682 2008.5,1725.4 2019.6,1768.8 2030.7,1812.3 2041.8,1855.7 2052.9,1877.3 2064.1,1871.6 2075.2,1865.9 2086.3,1860.2 2097.4,1854.5 2108.5,1848.8 2119.6,1843.1 2130.7,1837.4 2141.9,1831.7 2153,1826 2164.1,1820.3 2175.2,1814.6 2186.3,1808.9 2197.4,1803.2 2208.5,1797.5 2219.7,1791.8 2230.8,1786.1 2241.9,1780.4 2253,1774.7 2264.1,1769 2275.2,1763.3 2286.4,1757.6 2297.5,1743 2308.6,1710.8 2319.7,1678.5 2330.8,1646.3 2341.9,1614 2353,1581.8 2364.2,1549.5 2375.3,1517.3 2386.4,1485 2397.5,1452.8 2408.6,1420.5 2419.7,1388.3 2430.8,1356 2442,1323.8 2453.1,1291.5 2464.2,1259.3 2475.3,1227 2486.4,1194.8 2497.5,1162.5 2508.6,1130.3 2519.8,1098 2530.9,1065.8 2542,1046.5 2553.1,1072.6 2564.2,1098.7 2575.3,1124.8 2586.4,1150.9 2597.6,1177 2608.7,1203.1 2619.8,1229.2 2630.9,1255.3 2642,1281.4 2653.1,1307.5 2664.3,1333.6 2675.4,1359.7 2686.5,1385.8 2697.6,1411.9 2708.7,1438 2719.8,1464.1 2730.9,1490.2 2742.1,1516.3 2753.2,1542.4 2764.3,1568.5 2775.4,1594.6 2786.5,1619.7 2797.6,1636.7 2808.7,1653.6 2819.9,1670.6 2831,1687.6 2842.1,1704.5 2853.2,1721.5 2864.3,1738.5 2875.4,1755.4 2886.5,1772.4 2897.7,1789.4 2908.8,1806.3 2919.9,1823.3 2931,1840.3 2942.1,1857.2 2953.2,1874.2 2964.4,1891.2 2975.5,1908.2 2986.6,1925.1 2997.7,1942.1 3008.8,1959.1 3019.9,1976 3031,1993 " stroke-width="4.8188" stroke-dasharray="19.275, 14.456, 4.8188, 14.456" />
<polyline points="819.2,1521.4 830.31,1537.2 841.43,1552.8 852.54,1568.3 863.66,1583.5 874.77,1598.5 885.89,1613.1 897,1627.5 908.12,1641.4 919.23,1655 930.35,1668.1 941.46,1680.8 952.58,1692.9 963.69,1704.5 974.81,1715.6 985.92,1726 997.04,1735.8 1008.2,1744.9 1019.3,1753.2 1030.4,1760.9 1041.5,1767.7 1052.6,1773.7 1063.7,1778.9 1074.8,1783.2 1086,1786.7 1097.1,1789.4 1108.2,1791.4 1119.3,1792.8 1130.4,1793.7 1141.5,1794.2 1152.6,1794.2 1163.8,1793.9 1174.9,1793.4 1186,1792.7 1197.1,1791.9 1208.2,1791.1 1219.3,1790.3 1230.4,1789.7 1241.6,1789.3 1252.7,1789.1 1263.8,1789.2 1274.9,1789.8 1286,1790.9 1297.1,1792.5 1308.3,1794.7 1319.4,1797.7 1330.5,1801.3 1341.6,1805.7 1352.7,1810.7 1363.8,1816.5 1374.9,1822.8 1386.1,1829.9 1397.2,1837.5 1408.3,1845.8 1419.4,1854.7 1430.5,1864.2 1441.6,1874.3 1452.7,1884.9 1463.9,1896.1 1475,1907.8 1486.1,1920.1 1497.2,1932.9 1508.3,1946.2 1519.4,1960 1530.5,1974.3 1541.7,1989 1552.8,2004.2 1563.9,2019.8 1575,2035.8 1586.1,2052.2 1597.2,2068.7 1608.4,2085.5 1619.5,2102.3 1630.6,2119.1 1641.7,2135.8 1652.8,2152.5 1663.9,2168.9 1675,2185 1686.2,2200.7 1697.3,2216 1708.4,2230.8 1719.5,2244.9 1730.6,2258.5 1741.7,2271.2 1752.8,2283.2 1764,2294.2 1775.1,2304.3 1786.2,2313.3 1797.3,2321.2 1808.4,2328 1819.5,2333.5 1830.6,2337.9 1841.8,2341.4 1852.9,2343.9 1864,2345.6 1875.1,2346.6 1886.2,2346.9 1897.3,2346.6 1908.4,2345.9 1919.6,2344.8 1930.7,2343.4 1941.8,2341.8 1952.9,2340.1 1964,2338.4 1975.1,2336.7 1986.3,2335.1 1997.4,2333.9 2008.5,2332.9 2019.6,2332.4 2030.7,2332.3 2041.8,2332.9 2052.9,2334.1 2064.1,2336.1 2075.2,2338.8 2086.3,2342.1 2097.4,2346.2 2108.5,2351 2119.6,2356.4 2130.7,2362.5 2141.9,2369.2 2153,2376.6 2164.1,2384.6 2175.2,2393.2 2186.3,2402.4 2197.4,2412.2 2208.5,2422.6 2219.7,2433.5 2230.8,2445 2241.9,2457 2253,2469.6 2264.1,2482.6 2275.2,2496.2 2286.4,2510.3 2297.5,2524.8 2308.6,2539.9 2319.7,2555.3 2330.8,2571 2341.9,2586.9 2353,2603.1 2364.2,2619.4 2375.3,2635.7 2386.4,2652.1 2397.5,2668.3 2408.6,2684.5 2419.7,2700.4 2430.8,2716 2442,2731.3 2453.1,2746.2 2464.2,2760.6 2475.3,2774.5 2486.4,2787.8 2497.5,2800.5 2508.6,2812.3 2519.8,2823.4 2530.9,2833.7 2542,2843 2553.1,2851.3 2564.2,2858.7 2575.3,2865.2 2586.4,2871 2597.6,2876 2608.7,2880.2 2619.8,2883.9 2630.9,2886.9 2642,2889.4 2653.1,2891.4 2664.3,2892.9 2675.4,2894.1 2686.5,2894.9 2697.6,2895.5 2708.7,2895.8 2719.8,2896 2730.9,2896 2742.1,2896 2753.2,2896 2764.3,2896 2775.4,2896.1 2786.5,2896.4 2797.6,2896.9 2808.7,2897.6 2819.9,2898.5 2831,2899.8 2842.1,2901.4 2853.2,2903.4 2864.3,2905.8 2875.4,2908.7 2886.5,2912 2897.7,2915.8 2908.8,2920.2 2919.9,2925.2 2931,2930.8 2942.1,2937 2953.2,2943.9 2964.4,2951.6 2975.5,2960 2986.6,2969.2 2997.7,2979.2 3008.8,2990.1 3019.9,3001.8 3031,3014.5 " stroke-width="4.8188" stroke-dasharray="19.275, 19.275" />
</g>
</svg>
