<?xml version="1.0" encoding="ISO-8859-1" standalone="no"?>
<!DOCTYPE svg PUBLIC "-//W3C//DTD SVG 1.1//EN" "http://www.w3.org/Graphics/SVG/1.1/DTD/svg11.dtd">
<svg version="1.1" baseProfile="full" id="body" width="8in" height="8in" viewBox="0 0 1 1" preserveAspectRatio="none" xmlns="http://www.w3.org/2000/svg" xmlns:xlink="http://www.w3.org/1999/xlink" xmlns:ev="http://www.w3.org/2001/xml-events">
<title>SVG drawing</title>
<desc>This was produced by version 4.4 of GNU libplot, a free library for exporting 2-D vector graphics.</desc>
<rect id="background" x="0" y="0" width="1" height="1" stroke="none" fill="white"/>
<g id="content" transform="translate(0,1) scale(1,-1) scale(0.00024414) " xml:space="preserve" stroke="black" stroke-linecap="butt" stroke-linejoin="miter" stroke-miterlimit="10.433" stroke-dasharray="none" stroke-dashoffset="0" stroke-opacity="1" fill="none" fill-rule="evenodd" fill-opacity="1" font-style="normal" font-variant="normal" font-weight="normal" font-stretch="normal" font-size-adjust="none" letter-spacing="normal" word-spacing="normal" text-anchor="start">
<text transform="translate(1780.3,3451.9) scale(1,-1) scale(8.6016) " font-family="Helvetica,sans-serif" font-size="20px" stroke="none" fill="black" >cspline</text>
<rect x="819.2" y="819.2" width="2457.6" height="2457.6" stroke-width="4.8188" />
<text transform="translate(783.33,662.21) scale(1,-1) scale(6.4512) " font-family="Helvetica,sans-serif" font-size="20px" stroke="none" fill="black" >0</text>
<line x1="819.2" y1="3276.8" x2="819.2" y2="3227.6" stroke-width="4.8188" />
<line x1="819.2" y1="819.2" x2="819.2" y2="868.35" stroke-width="4.8188" />
<text transform="translate(1274.9,662.21) scale(1,-1) scale(6.4512) " font-family="Helvetica,sans-serif" font-size="20px" stroke="none" fill="black" >1</text>
<line x1="1310.7" y1="3276.8" x2="1310.7" y2="3227.6" stroke-width="4.8188" />
<line x1="1310.7" y1="819.2" x2="1310.7" y2="868.35" stroke-width="4.8188" />
<text transform="translate(1766.4,662.21) scale(1,-1) scale(6.4512) " font-family="Helvetica,sans-serif" font-size="20px" stroke="none" fill="black" >2</text>
<line x1="1802.2" y1="3276.8" x2="1802.2" y2="3227.6" stroke-width="4.8188" />
<line x1="1802.2" y1="819.2" x2="1802.2" y2="868.35" stroke-width="4.8188" />
<text transform="translate(2257.9,662.21) scale(1,-1) scale(6.4512) " font-family="Helvetica,sans-serif" font-size="20px" stroke="none" fill="black" >3</text>
<line x1="2293.8" y1="3276.8" x2="2293.8" y2="3227.6" stroke-width="4.8188" />
<line x1="2293.8" y1="819.2" x2="2293.8" y2="868.35" stroke-width="4.8188" />
<text transform="translate(2749.4,662.21) scale(1,-1) scale(6.4512) " font-family="Helvetica,sans-serif" font-size="20px" stroke="none" fill="black" >4</text>
<line x1="2785.3" y1="3276.8" x2="2785.3" y2="3227.6" stroke-width="4.8188" />
<line x1="2785.3" y1="819.2" x2="2785.3" y2="868.35" stroke-width="4.8188" />
<text transform="translate(3240.9,662.21) scale(1,-1) scale(6.4512) " font-family="Helvetica,sans-serif" font-size="20px" stroke="none" fill="black" >5</text>
<line x1="3276.8" y1="3276.8" x2="3276.8" y2="3227.6" stroke-width="4.8188" />
<line x1="3276.8" y1="819.2" x2="3276.8" y2="868.35" stroke-width="4.8188" />
<line x1="819.2" y1="3276.8" x2="819.2" y2="3257.1" stroke-width="4.8188" />
<line x1="819.2" y1="819.2" x2="819.2" y2="838.86" stroke-width="4.8188" />
<line x1="917.5" y1="3276.8" x2="917.5" y2="3257.1" stroke-width="4.8188" />
<line x1="917.5" y1="819.2" x2="917.5" y2="838.86" stroke-width="4.8188" />
<line x1="1015.8" y1="3276.8" x2="1015.8" y2="3257.1" stroke-width="4.8188" />
<line x1="1015.8" y1="819.2" x2="1015.8" y2="838.86" stroke-width="4.8188" />
<line x1="1114.1" y1="3276.8" x2="1114.1" y2="3257.1" stroke-width="4.8188" />
<line x1="1114.1" y1="819.2" x2="1114.1" y2="838.86" stroke-width="4.8188" />
<line x1="1212.4" y1="3276.8" x2="1212.4" y2="3257.1" stroke-width="4.8188" />
<line x1="1212.4" y1="819.2" x2="1212.4" y2="838.86" stroke-width="4.8188" />
<line x1="1310.7" y1="3276.8" x2="1310.7" y2="3257.1" stroke-width="4.8188" />
<line x1="1310.7" y1="819.2" x2="1310.7" y2="838.86" stroke-width="4.8188" />
<line x1="1409" y1="3276.8" x2="1409" y2="3257.1" stroke-width="4.8188" />
<line x1="1409" y1="819.2" x2="1409" y2="838.86" stroke-width="4.8188" />
<line x1="1507.3" y1="3276.8" x2="1507.3" y2="3257.1" stroke-width="4.8188" />
<line x1="1507.3" y1="819.2" x2="1507.3" y2="838.86" stroke-width="4.8188" />
<line x1="1605.6" y1="3276.8" x2="1605.6" y2="3257.1" stroke-width="4.8188" />
<line x1="1605.6" y1="819.2" x2="1605.6" y2="838.86" stroke-width="4.8188" />
<line x1="1703.9" y1="3276.8" x2="1703.9" y2="3257.1" stroke-width="4.8188" />
<line x1="1703.9" y1="819.2" x2="1703.9" y2="838.86" stroke-width="4.8188" />
<line x1="1802.2" y1="3276.8" x2="1802.2" y2="3257.1" stroke-width="4.8188" />
<line x1="1802.2" y1="819.2" x2="1802.2" y2="838.86" stroke-width="4.8188" />
<line x1="1900.5" y1="3276.8" x2="1900.5" y2="3257.1" stroke-width="4.8188" />
<line x1="1900.5" y1="819.2" x2="1900.5" y2="838.86" stroke-width="4.8188" />
<line x1="1998.8" y1="3276.8" x2="1998.8" y2="3257.1" stroke-width="4.8188" />
<line x1="1998.8" y1="819.2" x2="1998.8" y2="838.86" stroke-width="4.8188" />
<line x1="2097.2" y1="3276.8" x2="2097.2" y2="3257.1" stroke-width="4.8188" />
<line x1="2097.2" y1="819.2" x2="2097.2" y2="838.86" stroke-width="4.8188" />
<line x1="2195.5" y1="3276.8" x2="2195.5" y2="3257.1" stroke-width="4.8188" />
<line x1="2195.5" y1="819.2" x2="2195.5" y2="838.86" stroke-width="4.8188" />
<line x1="2293.8" y1="3276.8" x2="2293.8" y2="3257.1" stroke-width="4.8188" />
<line x1="2293.8" y1="819.2" x2="2293.8" y2="838.86" stroke-width="4.8188" />
<line x1="2392.1" y1="3276.8" x2="2392.1" y2="3257.1" stroke-width="4.8188" />
<line x1="2392.1" y1="819.2" x2="2392.1" y2="838.86" stroke-width="4.8188" />
<line x1="2490.4" y1="3276.8" x2="2490.4" y2="3257.1" stroke-width="4.8188" />
<line x1="2490.4" y1="819.2" x2="2490.4" y2="838.86" stroke-width="4.8188" />
<line x1="2588.7" y1="3276.8" x2="2588.7" y2="3257.1" stroke-width="4.8188" />
<line x1="2588.7" y1="819.2" x2="2588.7" y2="838.86" stroke-width="4.8188" />
<line x1="2687" y1="3276.8" x2="2687" y2="3257.1" stroke-width="4.8188" />
<line x1="2687" y1="819.2" x2="2687" y2="838.86" stroke-width="4.8188" />
<line x1="2785.3" y1="3276.8" x2="2785.3" y2="3257.1" stroke-width="4.8188" />
<line x1="2785.3" y1="819.2" x2="2785.3" y2="838.86" stroke-width="4.8188" />
<line x1="2883.6" y1="3276.8" x2="2883.6" y2="3257.1" stroke-width="4.8188" />
<line x1="2883.6" y1="819.2" x2="2883.6" y2="838.86" stroke-width="4.8188" />
<line x1="2981.9" y1="3276.8" x2="2981.9" y2="3257.1" stroke-width="4.8188" />
<line x1="2981.9" y1="819.2" x2="2981.9" y2="838.86" stroke-width="4.8188" />
<line x1="3080.2" y1="3276.8" x2="3080.2" y2="3257.1" stroke-width="4.8188" />
<line x1="3080.2" y1="819.2" x2="3080.2" y2="838.86" stroke-width="4.8188" />
<line x1="3178.5" y1="3276.8" x2="3178.5" y2="3257.1" stroke-width="4.8188" />
<line x1="3178.5" y1="819.2" x2="3178.5" y2="838.86" stroke-width="4.8188" />
<line x1="3276.8" y1="3276.8" x2="3276.8" y2="3257.1" stroke-width="4.8188" />
<line x1="3276.8" y1="819.2" x2="3276.8" y2="838.86" stroke-width="4.8188" />
<text transform="translate(635.25,773.65) scale(1,-1) scale(6.4512) " font-family="Helvetica,sans-serif" font-size="20px" stroke="none" fill="black" >-6</text>
<line x1="3276.8" y1="819.2" x2="3227.6" y2="819.2" stroke-width="4.8188" />
<line x1="819.2" y1="819.2" x2="868.35" y2="819.2" stroke-width="4.8188" />
<text transform="translate(635.25,1183.3) scale(1,-1) scale(6.4512) " font-family="Helvetica,sans-serif" font-size="20px" stroke="none" fill="black" >-4</text>
<line x1="3276.8" y1="1228.8" x2="3227.6" y2="1228.8" stroke-width="4.8188" />
<line x1="819.2" y1="1228.8" x2="868.35" y2="1228.8" stroke-width="4.8188" />
<text transform="translate(635.25,1592.9) scale(1,-1) scale(6.4512) " font-family="Helvetica,sans-serif" font-size="20px" stroke="none" fill="black" >-2</text>
<line x1="3276.8" y1="1638.4" x2="3227.6" y2="1638.4" stroke-width="4.8188" />
<line x1="819.2" y1="1638.4" x2="868.35" y2="1638.4" stroke-width="4.8188" />
<text transform="translate(710.6,2002.5) scale(1,-1) scale(6.4512) " font-family="Helvetica,sans-serif" font-size="20px" stroke="none" fill="black" >0</text>
<line x1="3276.8" y1="2048" x2="3227.6" y2="2048" stroke-width="4.8188" />
<line x1="819.2" y1="2048" x2="868.35" y2="2048" stroke-width="4.8188" />
<text transform="translate(710.6,2412.1) scale(1,-1) scale(6.4512) " font-family="Helvetica,sans-serif" font-size="20px" stroke="none" fill="black" >2</text>
<line x1="3276.8" y1="2457.6" x2="3227.6" y2="2457.6" stroke-width="4.8188" />
<line x1="819.2" y1="2457.6" x2="868.35" y2="2457.6" stroke-width="4.8188" />
<text transform="translate(710.6,2821.7) scale(1,-1) scale(6.4512) " font-family="Helvetica,sans-serif" font-size="20px" stroke="none" fill="black" >4</text>
<line x1="3276.8" y1="2867.2" x2="3227.6" y2="2867.2" stroke-width="4.8188" />
<line x1="819.2" y1="2867.2" x2="868.35" y2="2867.2" stroke-width="4.8188" />
<text transform="translate(710.6,3231.3) scale(1,-1) scale(6.4512) " font-family="Helvetica,sans-serif" font-size="20px" stroke="none" fill="black" >6</text>
<line x1="3276.8" y1="3276.8" x2="3227.6" y2="3276.8" stroke-width="4.8188" />
<line x1="819.2" y1="3276.8" x2="868.35" y2="3276.8" stroke-width="4.8188" />
<line x1="3276.8" y1="819.2" x2="3257.1" y2="819.2" stroke-width="4.8188" />
<line x1="819.2" y1="819.2" x2="838.86" y2="819.2" stroke-width="4.8188" />
<line x1="3276.8" y1="1024" x2="3257.1" y2="1024" stroke-width="4.8188" />
<line x1="819.2" y1="1024" x2="838.86" y2="1024" stroke-width="4.8188" />
<line x1="3276.8" y1="1228.8" x2="3257.1" y2="1228.8" stroke-width="4.8188" />
<line x1="819.2" y1="1228.8" x2="838.86" y2="1228.8" stroke-width="4.8188" />
<line x1="3276.8" y1="1433.6" x2="3257.1" y2="1433.6" stroke-width="4.8188" />
<line x1="819.2" y1="1433.6" x2="838.86" y2="1433.6" stroke-width="4.8188" />
<line x1="3276.8" y1="1638.4" x2="3257.1" y2="1638.4" stroke-width="4.8188" />
<line x1="819.2" y1="1638.4" x2="838.86" y2="1638.4" stroke-width="4.8188" />
<line x1="3276.8" y1="1843.2" x2="3257.1" y2="1843.2" stroke-width="4.8188" />
<line x1="819.2" y1="1843.2" x2="838.86" y2="1843.2" stroke-width="4.8188" />
<line x1="3276.8" y1="2048" x2="3257.1" y2="2048" stroke-width="4.8188" />
<line x1="819.2" y1="2048" x2="838.86" y2="2048" stroke-width="4.8188" />
<line x1="3276.8" y1="2252.8" x2="3257.1" y2="2252.8" stroke-width="4.8188" />
<line x1="819.2" y1="2252.8" x2="838.86" y2="2252.8" stroke-width="4.8188" />
<line x1="3276.8" y1="2457.6" x2="3257.1" y2="2457.6" stroke-width="4.8188" />
<line x1="819.2" y1="2457.6" x2="838.86" y2="2457.6" stroke-width="4.8188" />
<line x1="3276.8" y1="2662.4" x2="3257.1" y2="2662.4" stroke-width="4.8188" />
<line x1="819.2" y1="2662.4" x2="838.86" y2="2662.4" stroke-width="4.8188" />
<line x1="3276.8" y1="2867.2" x2="3257.1" y2="2867.2" stroke-width="4.8188" />
<line x1="819.2" y1="2867.2" x2="838.86" y2="2867.2" stroke-width="4.8188" />
<line x1="3276.8" y1="3072" x2="3257.1" y2="3072" stroke-width="4.8188" />
<line x1="819.2" y1="3072" x2="838.86" y2="3072" stroke-width="4.8188" />
<line x1="3276.8" y1="3276.8" x2="3257.1" y2="3276.8" stroke-width="4.8188" />
<line x1="819.2" y1="3276.8" x2="838.86" y2="3276.8" stroke-width="4.8188" />
<line x1="819.2" y1="2048" x2="3276.8" y2="2048" stroke-width="4.8188" stroke-dasharray="4.8188, 14.456" />
<text transform="translate(2015.7,501.24) scale(1,-1) scale(6.4512) " font-family="Helvetica,sans-serif" font-size="20px" stroke="none" fill="black" >x</text>
<text transform="matrix(0 6.4512 6.4512 0 548.67 2015.7) " font-family="Helvetica,sans-serif" font-size="20px" stroke="none" fill="black" >y</text>
<circle cx="819.2" cy="2252.8" r="23.04" stroke-width="2.304" />
<circle cx="1065" cy="1883.9" r="23.04" stroke-width="2.304" />
<circle cx="1310.7" cy="2106.1" r="23.04" stroke-width="2.304" />
<circle cx="1556.5" cy="2119" r="23.04" stroke-width="2.304" />
<circle cx="1802.2" cy="1876.2" r="23.04" stroke-width="2.304" />
<circle cx="2048" cy="2252.3" r="23.04" stroke-width="2.304" />
<circle cx="2293.8" cy="1892.4" r="23.04" stroke-width="2.304" />
<circle cx="2539.5" cy="2092.9" r="23.04" stroke-width="2.304" />
<circle cx="2785.3" cy="2131.6" r="23.04" stroke-width="2.304" />
<circle cx="3031" cy="1869.1" r="23.04" stroke-width="2.304" />
<polyline points="819.2,2252.8 831.49,2251.2 843.78,2246.4 856.06,2238.6 868.35,2227.7 880.64,2214.1 892.93,2197.8 905.22,2179.3 917.5,2158.7 929.79,2136.3 942.08,2112.6 954.37,2087.8 966.66,2062.5 978.94,2036.9 991.23,2011.5 1003.5,1986.7 1015.8,1962.8 1028.1,1940.2 1040.4,1919.3 1052.7,1900.5 1065,1883.9 1077.2,1869.9 1089.5,1858.7 1101.8,1850.4 1114.1,1845.2 1126.4,1843.2 1138.7,1844.4 1151,1848.8 1163.3,1856.2 1175.6,1866.7 1187.8,1879.9 1200.1,1895.9 1212.4,1914.1 1224.7,1934.5 1237,1956.6 1249.3,1980.2 1261.6,2004.8 1273.9,2030.1 1286.1,2055.7 1298.4,2081.2 1310.7,2106.1 1323,2130.1 1335.3,2152.9 1347.6,2174 1359.9,2193.1 1372.2,2210 1384.4,2224.4 1396.7,2236 1409,2244.6 1421.3,2250.2 1433.6,2252.7 1445.9,2251.9 1458.2,2248 1470.5,2241 1482.8,2230.9 1495,2218 1507.3,2202.4 1519.6,2184.4 1531.9,2164.3 1544.2,2142.4 1556.5,2119 1568.8,2094.5 1581.1,2069.3 1593.3,2043.7 1605.6,2018.2 1617.9,1993.2 1630.2,1969 1642.5,1946.1 1654.8,1924.7 1667.1,1905.3 1679.4,1888.1 1691.6,1873.4 1703.9,1861.4 1716.2,1852.3 1728.5,1846.3 1740.8,1843.5 1753.1,1843.8 1765.4,1847.3 1777.7,1853.9 1790,1863.6 1802.2,1876.2 1814.5,1891.4 1826.8,1909.1 1839.1,1928.9 1851.4,1950.6 1863.7,1973.8 1876,1998.2 1888.3,2023.4 1900.5,2048.9 1912.8,2074.4 1925.1,2099.5 1937.4,2123.9 1949.7,2147 1962,2168.6 1974.3,2188.3 1986.6,2205.8 1998.8,2220.8 2011.1,2233.2 2023.4,2242.6 2035.7,2249.1 2048,2252.3 2060.3,2252.4 2072.6,2249.4 2084.9,2243.1 2097.2,2233.8 2109.4,2221.7 2121.7,2206.8 2134,2189.4 2146.3,2169.8 2158.6,2148.4 2170.9,2125.3 2183.2,2101.1 2195.5,2076 2207.7,2050.5 2220,2024.9 2232.3,1999.7 2244.6,1975.3 2256.9,1952 2269.2,1930.2 2281.5,1910.2 2293.8,1892.4 2306,1877 2318.3,1864.3 2330.6,1854.4 2342.9,1847.6 2355.2,1843.9 2367.5,1843.4 2379.8,1846.1 2392.1,1851.9 2404.4,1860.8 2416.6,1872.6 2428.9,1887.1 2441.2,1904.1 2453.5,1923.4 2465.8,1944.7 2478.1,1967.5 2490.4,1991.6 2502.7,2016.6 2514.9,2042.1 2527.2,2067.7 2539.5,2092.9 2551.8,2117.5 2564.1,2141 2576.4,2163 2588.7,2183.2 2601,2201.4 2613.2,2217.1 2625.5,2230.2 2637.8,2240.4 2650.1,2247.7 2662.4,2251.8 2674.7,2252.7 2687,2250.5 2699.3,2245.1 2711.6,2236.6 2723.8,2225.2 2736.1,2211 2748.4,2194.2 2760.7,2175.2 2773,2154.2 2785.3,2131.6 2797.6,2107.6 2809.9,2082.7 2822.1,2057.3 2834.4,2031.7 2846.7,2006.4 2859,1981.7 2871.3,1958.1 2883.6,1935.8 2895.9,1915.3 2908.2,1896.9 2920.4,1880.9 2932.7,1867.4 2945,1856.8 2957.3,1849.1 2969.6,1844.6 2981.9,1843.2 2994.2,1845 3006.5,1850 3018.8,1858.1 3031,1869.1 3043.3,1883 3055.6,1899.4 3067.9,1918.1 3080.2,1938.9 3092.5,1961.3 3104.8,1985.1 3117.1,2009.9 3129.3,2035.3 3141.6,2060.9 3153.9,2086.3 3166.2,2111.1 3178.5,2134.9 3190.8,2157.3 3203.1,2178.1 3215.4,2196.8 3227.6,2213.2 3239.9,2227 3252.2,2238 3264.5,2246 " stroke-width="4.8188" stroke-dasharray="4.8188, 14.456" />
<polyline points="819.2,2252.8 830.31,2228.7 841.43,2204.7 852.54,2180.9 863.66,2157.4 874.77,2134.2 885.89,2111.5 897,2089.3 908.12,2067.8 919.23,2046.9 930.35,2027 941.46,2007.9 952.58,1989.8 963.69,1972.8 974.81,1957 985.92,1942.5 997.04,1929.3 1008.2,1917.6 1019.3,1907.5 1030.4,1898.9 1041.5,1892.2 1052.6,1887.2 1063.7,1884.1 1074.8,1883.1 1086,1883.9 1097.1,1886.5 1108.2,1890.7 1119.3,1896.5 1130.4,1903.6 1141.5,1912.1 1152.6,1921.6 1163.8,1932.2 1174.9,1943.6 1186,1955.8 1197.1,1968.7 1208.2,1982 1219.3,1995.7 1230.4,2009.6 1241.6,2023.7 1252.7,2037.8 1263.8,2051.7 1274.9,2065.4 1286,2078.6 1297.1,2091.4 1308.3,2103.5 1319.4,2114.9 1330.5,2125.4 1341.6,2135.1 1352.7,2143.9 1363.8,2151.8 1374.9,2158.8 1386.1,2164.8 1397.2,2169.9 1408.3,2173.9 1419.4,2176.9 1430.5,2178.9 1441.6,2179.8 1452.7,2179.5 1463.9,2178.1 1475,2175.6 1486.1,2171.9 1497.2,2167 1508.3,2160.8 1519.4,2153.3 1530.5,2144.6 1541.7,2134.5 1552.8,2123.1 1563.9,2110.3 1575,2096.3 1586.1,2081.2 1597.2,2065.4 1608.4,2048.8 1619.5,2031.9 1630.6,2014.8 1641.7,1997.6 1652.8,1980.7 1663.9,1964.2 1675,1948.3 1686.2,1933.2 1697.3,1919.1 1708.4,1906.3 1719.5,1894.9 1730.6,1885.2 1741.7,1877.3 1752.8,1871.5 1764,1868 1775.1,1867 1786.2,1868.6 1797.3,1873.2 1808.4,1880.8 1819.5,1891.4 1830.6,1904.7 1841.8,1920.5 1852.9,1938.3 1864,1957.8 1875.1,1978.8 1886.2,2000.9 1897.3,2023.8 1908.4,2047.2 1919.6,2070.8 1930.7,2094.2 1941.8,2117.2 1952.9,2139.4 1964,2160.5 1975.1,2180.2 1986.3,2198.2 1997.4,2214.1 2008.5,2227.8 2019.6,2238.7 2030.7,2246.6 2041.8,2251.3 2052.9,2252.4 2064.1,2249.8 2075.2,2243.8 2086.3,2234.8 2097.4,2223.1 2108.5,2209 2119.6,2192.7 2130.7,2174.5 2141.9,2154.9 2153,2134 2164.1,2112.2 2175.2,2089.8 2186.3,2067.1 2197.4,2044.3 2208.5,2021.9 2219.7,2000.1 2230.8,1979.2 2241.9,1959.5 2253,1941.3 2264.1,1924.9 2275.2,1910.6 2286.3,1898.8 2297.5,1889.7 2308.6,1883.5 2319.7,1879.9 2330.8,1878.8 2341.9,1880.1 2353,1883.6 2364.2,1889 2375.3,1896.2 2386.4,1905 2397.5,1915.2 2408.6,1926.7 2419.7,1939.2 2430.8,1952.6 2442,1966.7 2453.1,1981.4 2464.2,1996.3 2475.3,2011.5 2486.4,2026.6 2497.5,2041.5 2508.6,2056.1 2519.8,2070 2530.9,2083.3 2542,2095.6 2553.1,2106.8 2564.2,2117.1 2575.3,2126.3 2586.5,2134.4 2597.6,2141.6 2608.7,2147.9 2619.8,2153.1 2630.9,2157.5 2642,2160.9 2653.1,2163.5 2664.3,2165.1 2675.4,2165.9 2686.5,2165.9 2697.6,2165 2708.7,2163.4 2719.8,2160.9 2730.9,2157.7 2742.1,2153.7 2753.2,2149.1 2764.3,2143.7 2775.4,2137.6 2786.5,2130.8 2797.6,2123.4 2808.7,2115.3 2819.9,2106.7 2831,2097.5 2842.1,2087.7 2853.2,2077.5 2864.3,2066.8 2875.4,2055.6 2886.5,2044 2897.7,2032.1 2908.8,2019.8 2919.9,2007.1 2931,1994.2 2942.1,1980.9 2953.2,1967.5 2964.4,1953.8 2975.5,1940 2986.6,1926 2997.7,1911.9 3008.8,1897.7 3019.9,1883.4 3031,1869.1 " stroke-width="4.8188" />
<polyline points="819.2,982.15 830.31,984.16 841.43,990.2 852.54,1000.3 863.66,1014.4 874.77,1032.5 885.89,1054.6 897,1080.8 908.12,1111 919.23,1145.2 930.35,1183.5 941.46,1225.8 952.58,1272.1 963.69,1322.4 974.81,1376.8 985.92,1435.1 997.04,1497.6 1008.2,1564 1019.3,1634.5 1030.4,1709 1041.5,1787.5 1052.6,1870 1063.7,1956.6 1074.8,2043.4 1086,2124.6 1097.1,2200.2 1108.2,2270.2 1119.3,2334.5 1130.4,2393.2 1141.5,2446.3 1152.6,2493.8 1163.8,2535.6 1174.9,2571.8 1186,2602.4 1197.1,2627.4 1208.2,2646.7 1219.3,2660.4 1230.4,2668.5 1241.6,2670.9 1252.7,2667.8 1263.8,2659 1274.9,2644.5 1286,2624.5 1297.1,2598.8 1308.3,2567.5 1319.4,2531.9 1330.5,2495.1 1341.6,2457.1 1352.7,2417.9 1363.8,2377.5 1374.9,2336 1386.1,2293.3 1397.2,2249.5 1408.3,2204.4 1419.4,2158.3 1430.5,2110.9 1441.6,2062.4 1452.7,2012.7 1463.9,1961.9 1475,1909.8 1486.1,1856.7 1497.2,1802.3 1508.3,1746.8 1519.4,1690.1 1530.5,1632.3 1541.7,1573.3 1552.8,1513.1 1563.9,1454 1575,1403.6 1586.1,1362.2 1597.2,1330.1 1608.4,1307 1619.5,1293.2 1630.6,1288.4 1641.7,1292.9 1652.8,1306.5 1663.9,1329.2 1675,1361.1 1686.2,1402.1 1697.3,1452.3 1708.4,1511.6 1719.5,1580.1 1730.6,1657.7 1741.7,1744.5 1752.8,1840.4 1764,1945.5 1775.1,2059.7 1786.2,2183.1 1797.3,2315.7 1808.4,2453.8 1819.5,2580.2 1830.6,2692.7 1841.8,2791.2 1852.9,2875.7 1864,2946.3 1875.1,3002.9 1886.2,3045.6 1897.3,3074.2 1908.4,3089 1919.6,3089.7 1930.7,3076.5 1941.8,3049.3 1952.9,3008.2 1964,2953.1 1975.1,2884 1986.3,2801 1997.4,2704 2008.5,2593 2019.6,2468.1 2030.7,2329.2 2041.8,2176.3 2052.9,2012.2 2064.1,1857.3 2075.2,1715.8 2086.3,1587.8 2097.4,1473.3 2108.5,1372.2 2119.6,1284.5 2130.7,1210.3 2141.9,1149.5 2153,1102.2 2164.1,1068.3 2175.2,1047.9 2186.3,1040.9 2197.4,1047.3 2208.5,1067.2 2219.7,1100.6 2230.8,1147.4 2241.9,1207.7 2253,1281.3 2264.1,1368.5 2275.2,1469.1 2286.3,1583.1 2297.5,1709.4 2308.6,1832.5 2319.7,1947.5 2330.8,2054.6 2341.9,2153.7 2353,2244.7 2364.2,2327.8 2375.3,2402.9 2386.4,2469.9 2397.5,2529 2408.6,2580.1 2419.7,2623.2 2430.8,2658.2 2442,2685.3 2453.1,2704.4 2464.2,2715.5 2475.3,2718.5 2486.4,2713.6 2497.5,2700.7 2508.6,2679.8 2519.8,2650.9 2530.9,2614 2542,2569.3 2553.1,2522.8 2564.2,2477 2575.3,2432.1 2586.5,2388 2597.6,2344.8 2608.7,2302.3 2619.8,2260.7 2630.9,2219.8 2642,2179.8 2653.1,2140.7 2664.3,2102.3 2675.4,2064.7 2686.5,2028 2697.6,1992.1 2708.7,1957 2719.8,1922.7 2730.9,1889.2 2742.1,1856.6 2753.2,1824.7 2764.3,1793.7 2775.4,1763.5 2786.5,1734.1 2797.6,1705.9 2808.7,1678.9 2819.9,1653.3 2831,1629 2842.1,1606 2853.2,1584.3 2864.3,1563.9 2875.4,1544.9 2886.5,1527.1 2897.7,1510.7 2908.8,1495.6 2919.9,1481.8 2931,1469.3 2942.1,1458.1 2953.2,1448.2 2964.4,1439.7 2975.5,1432.5 2986.6,1426.6 2997.7,1421.9 3008.8,1418.7 3019.9,1416.7 3031,1416 " stroke-width="4.8188" stroke-dasharray="19.275, 14.456, 4.8188, 14.456" />
<polyline points="819.2,2048 830.31,2052.4 841.43,2056.2 852.54,2059.4 863.66,2062.2 874.77,2064.4 885.89,2066.1 897,2067.3 908.12,2068 919.23,2068.2 930.35,2067.9 941.46,2067.2 952.58,2066.1 963.69,2064.6 974.81,2062.7 985.92,2060.5 997.04,2058 1008.2,2055.1 1019.3,2052.1 1030.4,2048.8 1041.5,2045.3 1052.6,2041.8 1063.7,2038.1 1074.8,2034.4 1086,2030.6 1097.1,2027 1108.2,2023.4 1119.3,2019.9 1130.4,2016.5 1141.5,2013.3 1152.6,2010.4 1163.8,2007.6 1174.9,2005.1 1186,2002.9 1197.1,2001 1208.2,1999.3 1219.3,1998 1230.4,1997 1241.6,1996.3 1252.7,1995.9 1263.8,1995.8 1274.9,1996 1286,1996.6 1297.1,1997.4 1308.3,1998.5 1319.4,1999.9 1330.5,2001.6 1341.6,2003.4 1352.7,2005.5 1363.8,2007.7 1374.9,2010.2 1386.1,2012.7 1397.2,2015.4 1408.3,2018.2 1419.4,2021.1 1430.5,2024.1 1441.6,2027 1452.7,2030 1463.9,2033 1475,2035.9 1486.1,2038.7 1497.2,2041.5 1508.3,2044.1 1519.4,2046.6 1530.5,2048.9 1541.7,2050.9 1552.8,2052.8 1563.9,2054.3 1575,2055.6 1586.1,2056.5 1597.2,2057.1 1608.4,2057.3 1619.5,2057.1 1630.6,2056.6 1641.7,2055.6 1652.8,2054.3 1663.9,2052.6 1675,2050.5 1686.2,2048.1 1697.3,2045.3 1708.4,2042.2 1719.5,2038.9 1730.6,2035.3 1741.7,2031.6 1752.8,2027.6 1764,2023.6 1775.1,2019.5 1786.2,2015.4 1797.3,2011.4 1808.4,2007.5 1819.5,2003.9 1830.6,2000.5 1841.8,1997.4 1852.9,1994.7 1864,1992.5 1875.1,1990.7 1886.2,1989.3 1897.3,1988.5 1908.4,1988.3 1919.6,1988.5 1930.7,1989.3 1941.8,1990.6 1952.9,1992.4 1964,1994.7 1975.1,1997.5 1986.3,2000.7 1997.4,2004.3 2008.5,2008.2 2019.6,2012.4 2030.7,2016.8 2041.8,2021.3 2052.9,2025.9 2064.1,2030.5 2075.2,2035 2086.3,2039.4 2097.4,2043.5 2108.5,2047.3 2119.6,2050.7 2130.7,2053.8 2141.9,2056.4 2153,2058.6 2164.1,2060.3 2175.2,2061.5 2186.3,2062.2 2197.4,2062.4 2208.5,2062.1 2219.7,2061.2 2230.8,2059.9 2241.9,2058.1 2253,2055.9 2264.1,2053.3 2275.2,2050.3 2286.3,2047.1 2297.5,2043.6 2308.6,2040 2319.7,2036.2 2330.8,2032.4 2341.9,2028.6 2353,2024.8 2364.2,2021.1 2375.3,2017.6 2386.4,2014.3 2397.5,2011.2 2408.6,2008.3 2419.7,2005.7 2430.8,2003.4 2442,2001.4 2453.1,1999.7 2464.2,1998.4 2475.3,1997.4 2486.4,1996.7 2497.5,1996.4 2508.6,1996.4 2519.8,1996.8 2530.9,1997.4 2542,1998.4 2553.1,1999.6 2564.2,2001 2575.3,2002.7 2586.5,2004.5 2597.6,2006.6 2608.7,2008.8 2619.8,2011.1 2630.9,2013.5 2642,2016 2653.1,2018.6 2664.3,2021.2 2675.4,2023.9 2686.5,2026.6 2697.6,2029.2 2708.7,2031.9 2719.8,2034.4 2730.9,2037 2742.1,2039.4 2753.2,2041.7 2764.3,2044 2775.4,2046.1 2786.5,2048 2797.6,2049.8 2808.7,2051.4 2819.9,2052.8 2831,2054.1 2842.1,2055.1 2853.2,2055.9 2864.3,2056.4 2875.4,2056.7 2886.5,2056.7 2897.7,2056.5 2908.8,2056 2919.9,2055.2 2931,2054.2 2942.1,2052.8 2953.2,2051.1 2964.4,2049.2 2975.5,2046.9 2986.6,2044.3 2997.7,2041.4 3008.8,2038.1 3019.9,2034.6 3031,2030.7 " stroke-width="4.8188" stroke-dasharray="19.275, 19.275" />
</g>
</svg>
