<?xml version="1.0" encoding="ISO-8859-1" standalone="no"?>
<!DOCTYPE svg PUBLIC "-//W3C//DTD SVG 1.1//EN" "http://www.w3.org/Graphics/SVG/1.1/DTD/svg11.dtd">
<svg version="1.1" baseProfile="full" id="body" width="8in" height="8in" viewBox="0 0 1 1" preserveAspectRatio="none" xmlns="http://www.w3.org/2000/svg" xmlns:xlink="http://www.w3.org/1999/xlink" xmlns:ev="http://www.w3.org/2001/xml-events">
<title>SVG drawing</title>
<desc>This was produced by version 4.4 of GNU libplot, a free library for exporting 2-D vector graphics.</desc>
<rect id="background" x="0" y="0" width="1" height="1" stroke="none" fill="white"/>
<g id="content" transform="translate(0,1) scale(1,-1) scale(0.00024414) " xml:space="preserve" stroke="black" stroke-linecap="butt" stroke-linejoin="miter" stroke-miterlimit="10.433" stroke-dasharray="none" stroke-dashoffset="0" stroke-opacity="1" fill="none" fill-rule="evenodd" fill-opacity="1" font-style="normal" font-variant="normal" font-weight="normal" font-stretch="normal" font-size-adjust="none" letter-spacing="normal" word-spacing="normal" text-anchor="start">
<text transform="translate(1780.3,3451.9) scale(1,-1) scale(8.6016) " font-family="Helvetica,sans-serif" font-size="20px" stroke="none" fill="black" >cspline</text>
<rect x="819.2" y="819.2" width="2457.6" height="2457.6" stroke-width="4.8188" />
<text transform="translate(783.33,662.21) scale(1,-1) scale(6.4512) " font-family="Helvetica,sans-serif" font-size="20px" stroke="none" fill="black" >0</text>
<line x1="819.2" y1="3276.8" x2="819.2" y2="3227.6" stroke-width="4.8188" />
<line x1="819.2" y1="819.2" x2="819.2" y2="868.35" stroke-width="4.8188" />
<text transform="translate(1274.9,662.21) scale(1,-1) scale(6.4512) " font-family="Helvetica,sans-serif" font-size="20px" stroke="none" fill="black" >1</text>
<line x1="1310.7" y1="3276.8" x2="1310.7" y2="3227.6" stroke-width="4.8188" />
<line x1="1310.7" y1="819.2" x2="1310.7" y2="868.35" stroke-width="4.8188" />
<text transform="translate(1766.4,662.21) scale(1,-1) scale(6.4512) " font-family="Helvetica,sans-serif" font-size="20px" stroke="none" fill="black" >2</text>
<line x1="1802.2" y1="3276.8" x2="1802.2" y2="3227.6" stroke-width="4.8188" />
<line x1="1802.2" y1="819.2" x2="1802.2" y2="868.35" stroke-width="4.8188" />
<text transform="translate(2257.9,662.21) scale(1,-1) scale(6.4512) " font-family="Helvetica,sans-serif" font-size="20px" stroke="none" fill="black" >3</text>
<line x1="2293.8" y1="3276.8" x2="2293.8" y2="3227.6" stroke-width="4.8188" />
<line x1="2293.8" y1="819.2" x2="2293.8" y2="868.35" stroke-width="4.8188" />
<text transform="translate(2749.4,662.21) scale(1,-1) scale(6.4512) " font-family="Helvetica,sans-serif" font-size="20px" stroke="none" fill="black" >4</text>
<line x1="2785.3" y1="3276.8" x2="2785.3" y2="3227.6" stroke-width="4.8188" />
<line x1="2785.3" y1="819.2" x2="2785.3" y2="868.35" stroke-width="4.8188" />
<text transform="translate(3240.9,662.21) scale(1,-1) scale(6.4512) " font-family="Helvetica,sans-serif" font-size="20px" stroke="none" fill="black" >5</text>
<line x1="3276.8" y1="3276.8" x2="3276.8" y2="3227.6" stroke-width="4.8188" />
<line x1="3276.8" y1="819.2" x2="3276.8" y2="868.35" stroke-width="4.8188" />
<line x1="819.2" y1="3276.8" x2="819.2" y2="3257.1" stroke-width="4.8188" />
<line x1="819.2" y1="819.2" x2="819.2" y2="838.86" stroke-width="4.8188" />
<line x1="917.5" y1="3276.8" x2="917.5" y2="3257.1" stroke-width="4.8188" />
<line x1="917.5" y1="819.2" x2="917.5" y2="838.86" stroke-width="4.8188" />
<line x1="1015.8" y1="3276.8" x2="1015.8" y2="3257.1" stroke-width="4.8188" />
<line x1="1015.8" y1="819.2" x2="1015.8" y2="838.86" stroke-width="4.8188" />
<line x1="1114.1" y1="3276.8" x2="1114.1" y2="3257.1" stroke-width="4.8188" />
<line x1="1114.1" y1="819.2" x2="1114.1" y2="838.86" stroke-width="4.8188" />
<line x1="1212.4" y1="3276.8" x2="1212.4" y2="3257.1" stroke-width="4.8188" />
<line x1="1212.4" y1="819.2" x2="1212.4" y2="838.86" stroke-width="4.8188" />
<line x1="1310.7" y1="3276.8" x2="1310.7" y2="3257.1" stroke-width="4.8188" />
<line x1="1310.7" y1="819.2" x2="1310.7" y2="838.86" stroke-width="4.8188" />
<line x1="1409" y1="3276.8" x2="1409" y2="3257.1" stroke-width="4.8188" />
<line x1="1409" y1="819.2" x2="1409" y2="838.86" stroke-width="4.8188" />
<line x1="1507.3" y1="3276.8" x2="1507.3" y2="3257.1" stroke-width="4.8188" />
<line x1="1507.3" y1="819.2" x2="1507.3" y2="838.86" stroke-width="4.8188" />
<line x1="1605.6" y1="3276.8" x2="1605.6" y2="3257.1" stroke-width="4.8188" />
<line x1="1605.6" y1="819.2" x2="1605.6" y2="838.86" stroke-width="4.8188" />
<line x1="1703.9" y1="3276.8" x2="1703.9" y2="3257.1" stroke-width="4.8188" />
<line x1="1703.9" y1="819.2" x2="1703.9" y2="838.86" stroke-width="4.8188" />
<line x1="1802.2" y1="3276.8" x2="1802.2" y2="3257.1" stroke-width="4.8188" />
<line x1="1802.2" y1="819.2" x2="1802.2" y2="838.86" stroke-width="4.8188" />
<line x1="1900.5" y1="3276.8" x2="1900.5" y2="3257.1" stroke-width="4.8188" />
<line x1="1900.5" y1="819.2" x2="1900.5" y2="838.86" stroke-width="4.8188" />
<line x1="1998.8" y1="3276.8" x2="1998.8" y2="3257.1" stroke-width="4.8188" />
<line x1="1998.8" y1="819.2" x2="1998.8" y2="838.86" stroke-width="4.8188" />
<line x1="2097.2" y1="3276.8" x2="2097.2" y2="3257.1" stroke-width="4.8188" />
<line x1="2097.2" y1="819.2" x2="2097.2" y2="838.86" stroke-width="4.8188" />
<line x1="2195.5" y1="3276.8" x2="2195.5" y2="3257.1" stroke-width="4.8188" />
<line x1="2195.5" y1="819.2" x2="2195.5" y2="838.86" stroke-width="4.8188" />
<line x1="2293.8" y1="3276.8" x2="2293.8" y2="3257.1" stroke-width="4.8188" />
<line x1="2293.8" y1="819.2" x2="2293.8" y2="838.86" stroke-width="4.8188" />
<line x1="2392.1" y1="3276.8" x2="2392.1" y2="3257.1" stroke-width="4.8188" />
<line x1="2392.1" y1="819.2" x2="2392.1" y2="838.86" stroke-width="4.8188" />
<line x1="2490.4" y1="3276.8" x2="2490.4" y2="3257.1" stroke-width="4.8188" />
<line x1="2490.4" y1="819.2" x2="2490.4" y2="838.86" stroke-width="4.8188" />
<line x1="2588.7" y1="3276.8" x2="2588.7" y2="3257.1" stroke-width="4.8188" />
<line x1="2588.7" y1="819.2" x2="2588.7" y2="838.86" stroke-width="4.8188" />
<line x1="2687" y1="3276.8" x2="2687" y2="3257.1" stroke-width="4.8188" />
<line x1="2687" y1="819.2" x2="2687" y2="838.86" stroke-width="4.8188" />
<line x1="2785.3" y1="3276.8" x2="2785.3" y2="3257.1" stroke-width="4.8188" />
<line x1="2785.3" y1="819.2" x2="2785.3" y2="838.86" stroke-width="4.8188" />
<line x1="2883.6" y1="3276.8" x2="2883.6" y2="3257.1" stroke-width="4.8188" />
<line x1="2883.6" y1="819.2" x2="2883.6" y2="838.86" stroke-width="4.8188" />
<line x1="2981.9" y1="3276.8" x2="2981.9" y2="3257.1" stroke-width="4.8188" />
<line x1="2981.9" y1="819.2" x2="2981.9" y2="838.86" stroke-width="4.8188" />
<line x1="3080.2" y1="3276.8" x2="3080.2" y2="3257.1" stroke-width="4.8188" />
<line x1="3080.2" y1="819.2" x2="3080.2" y2="838.86" stroke-width="4.8188" />
<line x1="3178.5" y1="3276.8" x2="3178.5" y2="3257.1" stroke-width="4.8188" />
<line x1="3178.5" y1="819.2" x2="3178.5" y2="838.86" stroke-width="4.8188" />
<line x1="3276.8" y1="3276.8" x2="3276.8" y2="3257.1" stroke-width="4.8188" />
<line x1="3276.8" y1="819.2" x2="3276.8" y2="838.86" stroke-width="4.8188" />
<text transform="translate(527.64,773.65) scale(1,-1) scale(6.4512) " font-family="Helvetica,sans-serif" font-size="20px" stroke="none" fill="black" >-1.0</text>
<line x1="3276.8" y1="819.2" x2="3227.6" y2="819.2" stroke-width="4.8188" />
<line x1="819.2" y1="819.2" x2="868.35" y2="819.2" stroke-width="4.8188" />
<text transform="translate(527.64,1388.1) scale(1,-1) scale(6.4512) " font-family="Helvetica,sans-serif" font-size="20px" stroke="none" fill="black" >-0.5</text>
<line x1="3276.8" y1="1433.6" x2="3227.6" y2="1433.6" stroke-width="4.8188" />
<line x1="819.2" y1="1433.6" x2="868.35" y2="1433.6" stroke-width="4.8188" />
<text transform="translate(602.99,2002.5) scale(1,-1) scale(6.4512) " font-family="Helvetica,sans-serif" font-size="20px" stroke="none" fill="black" >0.0</text>
<line x1="3276.8" y1="2048" x2="3227.6" y2="2048" stroke-width="4.8188" />
<line x1="819.2" y1="2048" x2="868.35" y2="2048" stroke-width="4.8188" />
<text transform="translate(602.99,2616.9) scale(1,-1) scale(6.4512) " font-family="Helvetica,sans-serif" font-size="20px" stroke="none" fill="black" >0.5</text>
<line x1="3276.8" y1="2662.4" x2="3227.6" y2="2662.4" stroke-width="4.8188" />
<line x1="819.2" y1="2662.4" x2="868.35" y2="2662.4" stroke-width="4.8188" />
<text transform="translate(602.99,3231.3) scale(1,-1) scale(6.4512) " font-family="Helvetica,sans-serif" font-size="20px" stroke="none" fill="black" >1.0</text>
<line x1="3276.8" y1="3276.8" x2="3227.6" y2="3276.8" stroke-width="4.8188" />
<line x1="819.2" y1="3276.8" x2="868.35" y2="3276.8" stroke-width="4.8188" />
<line x1="3276.8" y1="819.2" x2="3257.1" y2="819.2" stroke-width="4.8188" />
<line x1="819.2" y1="819.2" x2="838.86" y2="819.2" stroke-width="4.8188" />
<line x1="3276.8" y1="942.08" x2="3257.1" y2="942.08" stroke-width="4.8188" />
<line x1="819.2" y1="942.08" x2="838.86" y2="942.08" stroke-width="4.8188" />
<line x1="3276.8" y1="1065" x2="3257.1" y2="1065" stroke-width="4.8188" />
<line x1="819.2" y1="1065" x2="838.86" y2="1065" stroke-width="4.8188" />
<line x1="3276.8" y1="1187.8" x2="3257.1" y2="1187.8" stroke-width="4.8188" />
<line x1="819.2" y1="1187.8" x2="838.86" y2="1187.8" stroke-width="4.8188" />
<line x1="3276.8" y1="1310.7" x2="3257.1" y2="1310.7" stroke-width="4.8188" />
<line x1="819.2" y1="1310.7" x2="838.86" y2="1310.7" stroke-width="4.8188" />
<line x1="3276.8" y1="1433.6" x2="3257.1" y2="1433.6" stroke-width="4.8188" />
<line x1="819.2" y1="1433.6" x2="838.86" y2="1433.6" stroke-width="4.8188" />
<line x1="3276.8" y1="1556.5" x2="3257.1" y2="1556.5" stroke-width="4.8188" />
<line x1="819.2" y1="1556.5" x2="838.86" y2="1556.5" stroke-width="4.8188" />
<line x1="3276.8" y1="1679.4" x2="3257.1" y2="1679.4" stroke-width="4.8188" />
<line x1="819.2" y1="1679.4" x2="838.86" y2="1679.4" stroke-width="4.8188" />
<line x1="3276.8" y1="1802.2" x2="3257.1" y2="1802.2" stroke-width="4.8188" />
<line x1="819.2" y1="1802.2" x2="838.86" y2="1802.2" stroke-width="4.8188" />
<line x1="3276.8" y1="1925.1" x2="3257.1" y2="1925.1" stroke-width="4.8188" />
<line x1="819.2" y1="1925.1" x2="838.86" y2="1925.1" stroke-width="4.8188" />
<line x1="3276.8" y1="2048" x2="3257.1" y2="2048" stroke-width="4.8188" />
<line x1="819.2" y1="2048" x2="838.86" y2="2048" stroke-width="4.8188" />
<line x1="3276.8" y1="2170.9" x2="3257.1" y2="2170.9" stroke-width="4.8188" />
<line x1="819.2" y1="2170.9" x2="838.86" y2="2170.9" stroke-width="4.8188" />
<line x1="3276.8" y1="2293.8" x2="3257.1" y2="2293.8" stroke-width="4.8188" />
<line x1="819.2" y1="2293.8" x2="838.86" y2="2293.8" stroke-width="4.8188" />
<line x1="3276.8" y1="2416.6" x2="3257.1" y2="2416.6" stroke-width="4.8188" />
<line x1="819.2" y1="2416.6" x2="838.86" y2="2416.6" stroke-width="4.8188" />
<line x1="3276.8" y1="2539.5" x2="3257.1" y2="2539.5" stroke-width="4.8188" />
<line x1="819.2" y1="2539.5" x2="838.86" y2="2539.5" stroke-width="4.8188" />
<line x1="3276.8" y1="2662.4" x2="3257.1" y2="2662.4" stroke-width="4.8188" />
<line x1="819.2" y1="2662.4" x2="838.86" y2="2662.4" stroke-width="4.8188" />
<line x1="3276.8" y1="2785.3" x2="3257.1" y2="2785.3" stroke-width="4.8188" />
<line x1="819.2" y1="2785.3" x2="838.86" y2="2785.3" stroke-width="4.8188" />
<line x1="3276.8" y1="2908.2" x2="3257.1" y2="2908.2" stroke-width="4.8188" />
<line x1="819.2" y1="2908.2" x2="838.86" y2="2908.2" stroke-width="4.8188" />
<line x1="3276.8" y1="3031" x2="3257.1" y2="3031" stroke-width="4.8188" />
<line x1="819.2" y1="3031" x2="838.86" y2="3031" stroke-width="4.8188" />
<line x1="3276.8" y1="3153.9" x2="3257.1" y2="3153.9" stroke-width="4.8188" />
<line x1="819.2" y1="3153.9" x2="838.86" y2="3153.9" stroke-width="4.8188" />
<line x1="3276.8" y1="3276.8" x2="3257.1" y2="3276.8" stroke-width="4.8188" />
<line x1="819.2" y1="3276.8" x2="838.86" y2="3276.8" stroke-width="4.8188" />
<line x1="819.2" y1="2048" x2="3276.8" y2="2048" stroke-width="4.8188" stroke-dasharray="4.8188, 14.456" />
<text transform="translate(2015.7,501.24) scale(1,-1) scale(6.4512) " font-family="Helvetica,sans-serif" font-size="20px" stroke="none" fill="black" >x</text>
<text transform="matrix(0 6.4512 6.4512 0 424.93 2015.7) " font-family="Helvetica,sans-serif" font-size="20px" stroke="none" fill="black" >y</text>
<circle cx="819.2" cy="3276.8" r="23.04" stroke-width="2.304" />
<circle cx="1065" cy="1063.6" r="23.04" stroke-width="2.304" />
<circle cx="1310.7" cy="2396.6" r="23.04" stroke-width="2.304" />
<circle cx="1556.5" cy="2473.9" r="23.04" stroke-width="2.304" />
<circle cx="1802.2" cy="1016.9" r="23.04" stroke-width="2.304" />
<circle cx="2048" cy="3274.1" r="23.04" stroke-width="2.304" />
<circle cx="2293.8" cy="1114.5" r="23.04" stroke-width="2.304" />
<circle cx="2539.5" cy="2317.6" r="23.04" stroke-width="2.304" />
<circle cx="2785.3" cy="2549.5" r="23.04" stroke-width="2.304" />
<circle cx="3031" cy="974.88" r="23.04" stroke-width="2.304" />
<polyline points="819.2,3276.8 831.49,3267.2 843.78,3238.6 856.06,3191.4 868.35,3126.4 880.64,3044.5 892.93,2947.1 905.22,2835.7 917.5,2711.9 929.79,2577.8 942.08,2435.5 954.37,2287.1 966.66,2134.9 978.94,1981.4 991.23,1829 1003.5,1679.9 1015.8,1536.6 1028.1,1401.3 1040.4,1276.1 1052.7,1162.9 1065,1063.6 1077.2,979.55 1089.5,912.22 1101.8,862.61 1114.1,831.5 1126.4,819.37 1138.7,826.41 1151,852.52 1163.3,897.28 1175.6,960 1187.8,1039.7 1200.1,1135.1 1212.4,1244.8 1224.7,1367 1237,1499.8 1249.3,1641.2 1261.6,1789 1273.9,1940.8 1286.1,2094.2 1298.4,2246.9 1310.7,2396.6 1323,2540.8 1335.3,2677.3 1347.6,2803.9 1359.9,2918.8 1372.2,3020.1 1384.4,3106.2 1396.7,3175.8 1409,3227.9 1421.3,3261.5 1433.6,3276.1 1445.9,3271.6 1458.2,3248 1470.5,3205.7 1482.8,3145.3 1495,3067.8 1507.3,2974.4 1519.6,2866.5 1531.9,2745.9 1544.2,2614.3 1556.5,2473.9 1568.8,2326.9 1581.1,2175.5 1593.3,2022.2 1605.6,1869.2 1617.9,1719 1630.2,1574 1642.5,1436.3 1654.8,1308.2 1667.1,1191.7 1679.4,1088.5 1691.6,1000.3 1703.9,928.4 1716.2,874 1728.5,837.92 1740.8,820.72 1753.1,822.68 1765.4,843.75 1777.7,883.61 1790,941.65 1802.2,1016.9 1814.5,1108.3 1826.8,1214.4 1839.1,1333.5 1851.4,1463.7 1863.7,1603 1876,1749.3 1888.3,1900.2 1900.5,2053.4 1912.8,2206.6 1925.1,2357.3 1937.4,2503.1 1949.7,2641.9 1962,2771.4 1974.3,2889.6 1986.6,2994.6 1998.8,3084.9 2011.1,3159 2023.4,3215.8 2035.7,3254.4 2048,3274.1 2060.3,3274.7 2072.6,3256.1 2084.9,3218.7 2097.2,3163.1 2109.4,3090 2121.7,3000.7 2134,2896.5 2146.3,2779 2158.6,2650.2 2170.9,2512 2183.2,2366.5 2195.5,2216 2207.7,2063 2220,1909.6 2232.3,1758.5 2244.6,1611.9 2256.9,1472 2269.2,1341.2 2281.5,1221.4 2293.8,1114.5 2306,1022.2 2318.3,945.82 2330.6,886.69 2342.9,845.68 2355.2,823.43 2367.5,820.29 2379.8,836.3 2392.1,871.23 2404.4,924.52 2416.6,995.34 2428.9,1082.6 2441.2,1184.9 2453.5,1300.7 2465.8,1428.1 2478.1,1565.2 2490.4,1709.9 2502.7,1859.8 2514.9,2012.7 2527.2,2166.1 2539.5,2317.6 2551.8,2465 2564.1,2605.9 2576.4,2738 2588.7,2859.4 2601,2968.1 2613.2,3062.5 2625.5,3141 2637.8,3202.5 2650.1,3245.9 2662.4,3270.7 2674.7,3276.4 2687,3262.9 2699.3,3230.5 2711.6,3179.6 2723.8,3111 2736.1,3025.9 2748.4,2925.5 2760.7,2811.4 2773,2685.4 2785.3,2549.5 2797.6,2405.7 2809.9,2256.3 2822.1,2103.7 2834.4,1950.2 2846.7,1798.3 2859,1650.2 2871.3,1508.4 2883.6,1375 2895.9,1252 2908.2,1141.5 2920.4,1045.2 2932.7,964.45 2945,900.65 2957.3,854.76 2969.6,827.48 2981.9,819.25 2994.2,830.19 3006.5,860.14 3018.8,908.62 3031,974.88 3043.3,1057.9 3055.6,1156.3 3067.9,1268.7 3080.2,1393.3 3092.5,1528 3104.8,1670.9 3117.1,1819.6 3129.3,1971.9 3141.6,2125.4 3153.9,2277.7 3166.2,2426.4 3178.5,2569.2 3190.8,2703.9 3203.1,2828.3 3215.4,2940.6 3227.6,3038.9 3239.9,3121.8 3252.2,3187.9 3264.5,3236.2 " stroke-width="4.8188" stroke-dasharray="4.8188, 14.456" />
<polyline points="819.2,3276.8 830.31,3132.3 841.43,2988.3 852.54,2845.4 863.66,2704.2 874.77,2565.1 885.89,2428.8 897,2295.7 908.12,2166.5 919.23,2041.7 930.35,1921.7 941.46,1807.3 952.58,1698.8 963.69,1596.9 974.81,1502.1 985.92,1414.9 997.04,1336 1008.2,1265.7 1019.3,1204.8 1030.4,1153.7 1041.5,1113 1052.6,1083.2 1063.7,1064.9 1074.8,1058.4 1086,1063.3 1097.1,1078.9 1108.2,1104.4 1119.3,1139 1130.4,1181.9 1141.5,1232.4 1152.6,1289.7 1163.8,1353.1 1174.9,1421.8 1186,1495 1197.1,1571.9 1208.2,1651.9 1219.3,1734.1 1230.4,1817.8 1241.6,1902.3 1252.7,1986.6 1263.8,2070.2 1274.9,2152.2 1286,2231.8 1297.1,2308.3 1308.3,2381 1319.4,2449.1 1330.5,2512.3 1341.6,2570.4 1352.7,2623.2 1363.8,2670.7 1374.9,2712.6 1386.1,2748.8 1397.2,2779.1 1408.3,2803.4 1419.4,2821.5 1430.5,2833.3 1441.6,2838.5 1452.7,2837.1 1463.9,2828.9 1475,2813.7 1486.1,2791.4 1497.2,2761.7 1508.3,2724.6 1519.4,2679.9 1530.5,2627.5 1541.7,2567.1 1552.8,2498.6 1563.9,2421.9 1575,2337.8 1586.1,2247.5 1597.2,2152.2 1608.4,2053.1 1619.5,1951.5 1630.6,1848.7 1641.7,1745.8 1652.8,1644.2 1663.9,1545 1675,1449.5 1686.2,1359 1697.3,1274.7 1708.4,1197.8 1719.5,1129.5 1730.6,1071.2 1741.7,1024 1752.8,989.27 1764,968.13 1775.1,961.87 1786.2,971.73 1797.3,998.95 1808.4,1044.7 1819.5,1108.5 1830.6,1188.5 1841.8,1282.8 1852.9,1389.5 1864,1506.8 1875.1,1632.6 1886.2,1765.3 1897.3,1902.7 1908.4,2043.1 1919.6,2184.6 1930.7,2325.2 1941.8,2463 1952.9,2596.2 1964,2722.9 1975.1,2841.2 1986.3,2949.2 1997.4,3044.9 2008.5,3126.5 2019.6,3192.2 2030.7,3239.9 2041.8,3267.8 2052.9,3274.1 2064.1,3258.6 2075.2,3223 2086.3,3169.1 2097.4,3098.7 2108.5,3013.7 2119.6,2915.9 2130.7,2807.2 2141.9,2689.2 2153,2564 2164.1,2433.2 2175.2,2298.7 2186.3,2162.4 2197.4,2026 2208.5,1891.5 2219.7,1760.5 2230.8,1635 2241.9,1516.7 2253,1407.6 2264.1,1309.3 2275.2,1223.8 2286.3,1152.8 2297.5,1098.2 2308.6,1060.7 2319.7,1039.4 2330.8,1033.1 2341.9,1040.8 2353,1061.4 2364.2,1093.8 2375.3,1137 2386.4,1189.8 2397.5,1251.1 2408.6,1319.9 2419.7,1395.1 2430.8,1475.6 2442,1560.3 2453.1,1648.2 2464.2,1738.1 2475.3,1829 2486.4,1919.7 2497.5,2009.2 2508.6,2096.4 2519.8,2180.3 2530.9,2259.7 2542,2333.5 2553.1,2401.1 2564.2,2462.4 2575.3,2517.5 2586.5,2566.7 2597.6,2609.8 2608.7,2647.2 2619.8,2678.9 2630.9,2705 2642,2725.6 2653.1,2740.8 2664.3,2750.7 2675.4,2755.6 2686.5,2755.3 2697.6,2750.2 2708.7,2740.2 2719.8,2725.5 2730.9,2706.2 2742.1,2682.4 2753.2,2654.3 2764.3,2621.9 2775.4,2585.3 2786.5,2544.7 2797.6,2500.2 2808.7,2452 2819.9,2400.1 2831,2344.9 2842.1,2286.5 2853.2,2225 2864.3,2160.7 2875.4,2093.7 2886.5,2024.3 2897.7,1952.4 2908.8,1878.5 2919.9,1802.6 2931,1724.9 2942.1,1645.6 2953.2,1564.9 2964.4,1482.9 2975.5,1399.9 2986.6,1316 2997.7,1231.3 3008.8,1146.1 3019.9,1060.6 3031,974.88 " stroke-width="4.8188" />
</g>
</svg>
