<?xml version="1.0" encoding="ISO-8859-1" standalone="no"?>
<!DOCTYPE svg PUBLIC "-//W3C//DTD SVG 1.1//EN" "http://www.w3.org/Graphics/SVG/1.1/DTD/svg11.dtd">
<svg version="1.1" baseProfile="full" id="body" width="8in" height="8in" viewBox="0 0 1 1" preserveAspectRatio="none" xmlns="http://www.w3.org/2000/svg" xmlns:xlink="http://www.w3.org/1999/xlink" xmlns:ev="http://www.w3.org/2001/xml-events">
<title>SVG drawing</title>
<desc>This was produced by version 4.4 of GNU libplot, a free library for exporting 2-D vector graphics.</desc>
<rect id="background" x="0" y="0" width="1" height="1" stroke="none" fill="white"/>
<g id="content" transform="translate(0,1) scale(1,-1) scale(0.00024414) " xml:space="preserve" stroke="black" stroke-linecap="butt" stroke-linejoin="miter" stroke-miterlimit="10.433" stroke-dasharray="none" stroke-dashoffset="0" stroke-opacity="1" fill="none" fill-rule="evenodd" fill-opacity="1" font-style="normal" font-variant="normal" font-weight="normal" font-stretch="normal" font-size-adjust="none" letter-spacing="normal" word-spacing="normal" text-anchor="start">
<text transform="translate(1015.4,3451.9) scale(1,-1) scale(8.6016) " font-family="Helvetica,sans-serif" font-size="20px" stroke="none" fill="black" >cspline with deriv and integ</text>
<rect x="819.2" y="819.2" width="2457.6" height="2457.6" stroke-width="4.8188" />
<text transform="translate(783.33,662.21) scale(1,-1) scale(6.4512) " font-family="Helvetica,sans-serif" font-size="20px" stroke="none" fill="black" >0</text>
<line x1="819.2" y1="3276.8" x2="819.2" y2="3227.6" stroke-width="4.8188" />
<line x1="819.2" y1="819.2" x2="819.2" y2="868.35" stroke-width="4.8188" />
<text transform="translate(1274.9,662.21) scale(1,-1) scale(6.4512) " font-family="Helvetica,sans-serif" font-size="20px" stroke="none" fill="black" >1</text>
<line x1="1310.7" y1="3276.8" x2="1310.7" y2="3227.6" stroke-width="4.8188" />
<line x1="1310.7" y1="819.2" x2="1310.7" y2="868.35" stroke-width="4.8188" />
<text transform="translate(1766.4,662.21) scale(1,-1) scale(6.4512) " font-family="Helvetica,sans-serif" font-size="20px" stroke="none" fill="black" >2</text>
<line x1="1802.2" y1="3276.8" x2="1802.2" y2="3227.6" stroke-width="4.8188" />
<line x1="1802.2" y1="819.2" x2="1802.2" y2="868.35" stroke-width="4.8188" />
<text transform="translate(2257.9,662.21) scale(1,-1) scale(6.4512) " font-family="Helvetica,sans-serif" font-size="20px" stroke="none" fill="black" >3</text>
<line x1="2293.8" y1="3276.8" x2="2293.8" y2="3227.6" stroke-width="4.8188" />
<line x1="2293.8" y1="819.2" x2="2293.8" y2="868.35" stroke-width="4.8188" />
<text transform="translate(2749.4,662.21) scale(1,-1) scale(6.4512) " font-family="Helvetica,sans-serif" font-size="20px" stroke="none" fill="black" >4</text>
<line x1="2785.3" y1="3276.8" x2="2785.3" y2="3227.6" stroke-width="4.8188" />
<line x1="2785.3" y1="819.2" x2="2785.3" y2="868.35" stroke-width="4.8188" />
<text transform="translate(3240.9,662.21) scale(1,-1) scale(6.4512) " font-family="Helvetica,sans-serif" font-size="20px" stroke="none" fill="black" >5</text>
<line x1="3276.8" y1="3276.8" x2="3276.8" y2="3227.6" stroke-width="4.8188" />
<line x1="3276.8" y1="819.2" x2="3276.8" y2="868.35" stroke-width="4.8188" />
<line x1="819.2" y1="3276.8" x2="819.2" y2="3257.1" stroke-width="4.8188" />
<line x1="819.2" y1="819.2" x2="819.2" y2="838.86" stroke-width="4.8188" />
<line x1="917.5" y1="3276.8" x2="917.5" y2="3257.1" stroke-width="4.8188" />
<line x1="917.5" y1="819.2" x2="917.5" y2="838.86" stroke-width="4.8188" />
<line x1="1015.8" y1="3276.8" x2="1015.8" y2="3257.1" stroke-width="4.8188" />
<line x1="1015.8" y1="819.2" x2="1015.8" y2="838.86" stroke-width="4.8188" />
<line x1="1114.1" y1="3276.8" x2="1114.1" y2="3257.1" stroke-width="4.8188" />
<line x1="1114.1" y1="819.2" x2="1114.1" y2="838.86" stroke-width="4.8188" />
<line x1="1212.4" y1="3276.8" x2="1212.4" y2="3257.1" stroke-width="4.8188" />
<line x1="1212.4" y1="819.2" x2="1212.4" y2="838.86" stroke-width="4.8188" />
<line x1="1310.7" y1="3276.8" x2="1310.7" y2="3257.1" stroke-width="4.8188" />
<line x1="1310.7" y1="819.2" x2="1310.7" y2="838.86" stroke-width="4.8188" />
<line x1="1409" y1="3276.8" x2="1409" y2="3257.1" stroke-width="4.8188" />
<line x1="1409" y1="819.2" x2="1409" y2="838.86" stroke-width="4.8188" />
<line x1="1507.3" y1="3276.8" x2="1507.3" y2="3257.1" stroke-width="4.8188" />
<line x1="1507.3" y1="819.2" x2="1507.3" y2="838.86" stroke-width="4.8188" />
<line x1="1605.6" y1="3276.8" x2="1605.6" y2="3257.1" stroke-width="4.8188" />
<line x1="1605.6" y1="819.2" x2="1605.6" y2="838.86" stroke-width="4.8188" />
<line x1="1703.9" y1="3276.8" x2="1703.9" y2="3257.1" stroke-width="4.8188" />
<line x1="1703.9" y1="819.2" x2="1703.9" y2="838.86" stroke-width="4.8188" />
<line x1="1802.2" y1="3276.8" x2="1802.2" y2="3257.1" stroke-width="4.8188" />
<line x1="1802.2" y1="819.2" x2="1802.2" y2="838.86" stroke-width="4.8188" />
<line x1="1900.5" y1="3276.8" x2="1900.5" y2="3257.1" stroke-width="4.8188" />
<line x1="1900.5" y1="819.2" x2="1900.5" y2="838.86" stroke-width="4.8188" />
<line x1="1998.8" y1="3276.8" x2="1998.8" y2="3257.1" stroke-width="4.8188" />
<line x1="1998.8" y1="819.2" x2="1998.8" y2="838.86" stroke-width="4.8188" />
<line x1="2097.2" y1="3276.8" x2="2097.2" y2="3257.1" stroke-width="4.8188" />
<line x1="2097.2" y1="819.2" x2="2097.2" y2="838.86" stroke-width="4.8188" />
<line x1="2195.5" y1="3276.8" x2="2195.5" y2="3257.1" stroke-width="4.8188" />
<line x1="2195.5" y1="819.2" x2="2195.5" y2="838.86" stroke-width="4.8188" />
<line x1="2293.8" y1="3276.8" x2="2293.8" y2="3257.1" stroke-width="4.8188" />
<line x1="2293.8" y1="819.2" x2="2293.8" y2="838.86" stroke-width="4.8188" />
<line x1="2392.1" y1="3276.8" x2="2392.1" y2="3257.1" stroke-width="4.8188" />
<line x1="2392.1" y1="819.2" x2="2392.1" y2="838.86" stroke-width="4.8188" />
<line x1="2490.4" y1="3276.8" x2="2490.4" y2="3257.1" stroke-width="4.8188" />
<line x1="2490.4" y1="819.2" x2="2490.4" y2="838.86" stroke-width="4.8188" />
<line x1="2588.7" y1="3276.8" x2="2588.7" y2="3257.1" stroke-width="4.8188" />
<line x1="2588.7" y1="819.2" x2="2588.7" y2="838.86" stroke-width="4.8188" />
<line x1="2687" y1="3276.8" x2="2687" y2="3257.1" stroke-width="4.8188" />
<line x1="2687" y1="819.2" x2="2687" y2="838.86" stroke-width="4.8188" />
<line x1="2785.3" y1="3276.8" x2="2785.3" y2="3257.1" stroke-width="4.8188" />
<line x1="2785.3" y1="819.2" x2="2785.3" y2="838.86" stroke-width="4.8188" />
<line x1="2883.6" y1="3276.8" x2="2883.6" y2="3257.1" stroke-width="4.8188" />
<line x1="2883.6" y1="819.2" x2="2883.6" y2="838.86" stroke-width="4.8188" />
<line x1="2981.9" y1="3276.8" x2="2981.9" y2="3257.1" stroke-width="4.8188" />
<line x1="2981.9" y1="819.2" x2="2981.9" y2="838.86" stroke-width="4.8188" />
<line x1="3080.2" y1="3276.8" x2="3080.2" y2="3257.1" stroke-width="4.8188" />
<line x1="3080.2" y1="819.2" x2="3080.2" y2="838.86" stroke-width="4.8188" />
<line x1="3178.5" y1="3276.8" x2="3178.5" y2="3257.1" stroke-width="4.8188" />
<line x1="3178.5" y1="819.2" x2="3178.5" y2="838.86" stroke-width="4.8188" />
<line x1="3276.8" y1="3276.8" x2="3276.8" y2="3257.1" stroke-width="4.8188" />
<line x1="3276.8" y1="819.2" x2="3276.8" y2="838.86" stroke-width="4.8188" />
<text transform="translate(527.64,773.65) scale(1,-1) scale(6.4512) " font-family="Helvetica,sans-serif" font-size="20px" stroke="none" fill="black" >-1.5</text>
<line x1="3276.8" y1="819.2" x2="3227.6" y2="819.2" stroke-width="4.8188" />
<line x1="819.2" y1="819.2" x2="868.35" y2="819.2" stroke-width="4.8188" />
<text transform="translate(527.64,1080.9) scale(1,-1) scale(6.4512) " font-family="Helvetica,sans-serif" font-size="20px" stroke="none" fill="black" >-1.0</text>
<line x1="3276.8" y1="1126.4" x2="3227.6" y2="1126.4" stroke-width="4.8188" />
<line x1="819.2" y1="1126.4" x2="868.35" y2="1126.4" stroke-width="4.8188" />
<text transform="translate(527.64,1388.1) scale(1,-1) scale(6.4512) " font-family="Helvetica,sans-serif" font-size="20px" stroke="none" fill="black" >-0.5</text>
<line x1="3276.8" y1="1433.6" x2="3227.6" y2="1433.6" stroke-width="4.8188" />
<line x1="819.2" y1="1433.6" x2="868.35" y2="1433.6" stroke-width="4.8188" />
<text transform="translate(602.99,1695.3) scale(1,-1) scale(6.4512) " font-family="Helvetica,sans-serif" font-size="20px" stroke="none" fill="black" >0.0</text>
<line x1="3276.8" y1="1740.8" x2="3227.6" y2="1740.8" stroke-width="4.8188" />
<line x1="819.2" y1="1740.8" x2="868.35" y2="1740.8" stroke-width="4.8188" />
<text transform="translate(602.99,2002.5) scale(1,-1) scale(6.4512) " font-family="Helvetica,sans-serif" font-size="20px" stroke="none" fill="black" >0.5</text>
<line x1="3276.8" y1="2048" x2="3227.6" y2="2048" stroke-width="4.8188" />
<line x1="819.2" y1="2048" x2="868.35" y2="2048" stroke-width="4.8188" />
<text transform="translate(602.99,2309.7) scale(1,-1) scale(6.4512) " font-family="Helvetica,sans-serif" font-size="20px" stroke="none" fill="black" >1.0</text>
<line x1="3276.8" y1="2355.2" x2="3227.6" y2="2355.2" stroke-width="4.8188" />
<line x1="819.2" y1="2355.2" x2="868.35" y2="2355.2" stroke-width="4.8188" />
<text transform="translate(602.99,2616.9) scale(1,-1) scale(6.4512) " font-family="Helvetica,sans-serif" font-size="20px" stroke="none" fill="black" >1.5</text>
<line x1="3276.8" y1="2662.4" x2="3227.6" y2="2662.4" stroke-width="4.8188" />
<line x1="819.2" y1="2662.4" x2="868.35" y2="2662.4" stroke-width="4.8188" />
<text transform="translate(602.99,2924.1) scale(1,-1) scale(6.4512) " font-family="Helvetica,sans-serif" font-size="20px" stroke="none" fill="black" >2.0</text>
<line x1="3276.8" y1="2969.6" x2="3227.6" y2="2969.6" stroke-width="4.8188" />
<line x1="819.2" y1="2969.6" x2="868.35" y2="2969.6" stroke-width="4.8188" />
<text transform="translate(602.99,3231.3) scale(1,-1) scale(6.4512) " font-family="Helvetica,sans-serif" font-size="20px" stroke="none" fill="black" >2.5</text>
<line x1="3276.8" y1="3276.8" x2="3227.6" y2="3276.8" stroke-width="4.8188" />
<line x1="819.2" y1="3276.8" x2="868.35" y2="3276.8" stroke-width="4.8188" />
<line x1="819.2" y1="1740.8" x2="3276.8" y2="1740.8" stroke-width="4.8188" stroke-dasharray="4.8188, 14.456" />
<text transform="translate(2015.7,501.24) scale(1,-1) scale(6.4512) " font-family="Helvetica,sans-serif" font-size="20px" stroke="none" fill="black" >x</text>
<text transform="matrix(0 6.4512 6.4512 0 424.93 2015.7) " font-family="Helvetica,sans-serif" font-size="20px" stroke="none" fill="black" >y</text>
<circle cx="819.2" cy="2355.2" r="23.04" stroke-width="2.304" />
<circle cx="1065" cy="2214" r="23.04" stroke-width="2.304" />
<circle cx="1310.7" cy="1920.2" r="23.04" stroke-width="2.304" />
<circle cx="1556.5" cy="1743.9" r="23.04" stroke-width="2.304" />
<circle cx="1802.2" cy="1847.2" r="23.04" stroke-width="2.304" />
<circle cx="2048" cy="2135.1" r="23.04" stroke-width="2.304" />
<circle cx="2293.8" cy="2343" r="23.04" stroke-width="2.304" />
<circle cx="2539.5" cy="2279.6" r="23.04" stroke-width="2.304" />
<circle cx="2785.3" cy="2003.3" r="23.04" stroke-width="2.304" />
<circle cx="3031" cy="1768.1" r="23.04" stroke-width="2.304" />
<polyline points="819.2,2355.2 831.49,2354.8 843.78,2353.7 856.06,2351.8 868.35,2349.1 880.64,2345.6 892.93,2341.5 905.22,2336.6 917.5,2330.9 929.79,2324.6 942.08,2317.6 954.37,2309.9 966.66,2301.5 978.94,2292.6 991.23,2283 1003.5,2272.8 1015.8,2262 1028.1,2250.7 1040.4,2239 1052.7,2226.7 1065,2214 1077.2,2200.9 1089.5,2187.3 1101.8,2173.5 1114.1,2159.3 1126.4,2144.9 1138.7,2130.2 1151,2115.3 1163.3,2100.2 1175.6,2085 1187.8,2069.7 1200.1,2054.4 1212.4,2039 1224.7,2023.7 1237,2008.4 1249.3,1993.2 1261.6,1978.2 1273.9,1963.3 1286.1,1948.7 1298.4,1934.3 1310.7,1920.2 1323,1906.4 1335.3,1892.9 1347.6,1879.9 1359.9,1867.2 1372.2,1855 1384.4,1843.3 1396.7,1832.1 1409,1821.5 1421.3,1811.4 1433.6,1801.9 1445.9,1793 1458.2,1784.8 1470.5,1777.2 1482.8,1770.3 1495,1764.1 1507.3,1758.5 1519.6,1753.8 1531.9,1749.7 1544.2,1746.4 1556.5,1743.9 1568.8,1742.1 1581.1,1741.1 1593.3,1740.8 1605.6,1741.3 1617.9,1742.6 1630.2,1744.6 1642.5,1747.4 1654.8,1751 1667.1,1755.3 1679.4,1760.3 1691.6,1766.1 1703.9,1772.5 1716.2,1779.7 1728.5,1787.5 1740.8,1795.9 1753.1,1805 1765.4,1814.7 1777.7,1825 1790,1835.8 1802.2,1847.2 1814.5,1859.1 1826.8,1871.4 1839.1,1884.2 1851.4,1897.4 1863.7,1911 1876,1924.9 1888.3,1939.1 1900.5,1953.6 1912.8,1968.3 1925.1,1983.2 1937.4,1998.3 1949.7,2013.5 1962,2028.8 1974.3,2044.2 1986.6,2059.6 1998.8,2074.9 2011.1,2090.1 2023.4,2105.3 2035.7,2120.3 2048,2135.1 2060.3,2149.8 2072.6,2164.1 2084.9,2178.2 2097.2,2191.9 2109.4,2205.3 2121.7,2218.3 2134,2230.9 2146.3,2243 2158.6,2254.6 2170.9,2265.7 2183.2,2276.3 2195.5,2286.3 2207.7,2295.6 2220,2304.4 2232.3,2312.6 2244.6,2320 2256.9,2326.8 2269.2,2332.9 2281.5,2338.3 2293.8,2343 2306,2346.9 2318.3,2350.1 2330.6,2352.5 2342.9,2354.1 2355.2,2355 2367.5,2355.2 2379.8,2354.5 2392.1,2353.1 2404.4,2350.9 2416.6,2348 2428.9,2344.3 2441.2,2339.9 2453.5,2334.8 2465.8,2328.9 2478.1,2322.3 2490.4,2315.1 2502.7,2307.2 2514.9,2298.6 2527.2,2289.4 2539.5,2279.6 2551.8,2269.2 2564.1,2258.3 2576.4,2246.8 2588.7,2234.9 2601,2222.5 2613.2,2209.6 2625.5,2196.4 2637.8,2182.7 2650.1,2168.8 2662.4,2154.5 2674.7,2140 2687,2125.2 2699.3,2110.2 2711.6,2095.1 2723.8,2079.9 2736.1,2064.6 2748.4,2049.2 2760.7,2033.9 2773,2018.5 2785.3,2003.3 2797.6,1988.2 2809.9,1973.2 2822.1,1958.4 2834.4,1943.8 2846.7,1929.5 2859,1915.5 2871.3,1901.8 2883.6,1888.5 2895.9,1875.6 2908.2,1863.1 2920.4,1851 2932.7,1839.5 2945,1828.5 2957.3,1818 2969.6,1808.1 2981.9,1798.8 2994.2,1790.2 3006.5,1782.1 3018.8,1774.8 3031,1768.1 3043.3,1762.1 3055.6,1756.9 3067.9,1752.3 3080.2,1748.5 3092.5,1745.5 3104.8,1743.2 3117.1,1741.7 3129.3,1740.9 3141.6,1740.9 3153.9,1741.7 3166.2,1743.2 3178.5,1745.5 3190.8,1748.6 3203.1,1752.4 3215.4,1756.9 3227.6,1762.2 3239.9,1768.2 3252.2,1774.8 3264.5,1782.2 " stroke-width="4.8188" stroke-dasharray="4.8188, 14.456" />
<polyline points="819.2,2355.2 830.31,2350.8 841.43,2346.5 852.54,2342 863.66,2337.5 874.77,2332.9 885.89,2328.2 897,2323.3 908.12,2318.2 919.23,2313 930.35,2307.5 941.46,2301.8 952.58,2295.8 963.69,2289.5 974.81,2282.8 985.92,2275.9 997.04,2268.5 1008.2,2260.8 1019.3,2252.6 1030.4,2244 1041.5,2234.9 1052.6,2225.3 1063.7,2215.1 1074.8,2204.5 1086,2193.3 1097.1,2181.6 1108.2,2169.6 1119.3,2157.1 1130.4,2144.2 1141.5,2131.1 1152.6,2117.6 1163.8,2104 1174.9,2090.1 1186,2076.1 1197.1,2062 1208.2,2047.7 1219.3,2033.5 1230.4,2019.3 1241.6,2005.1 1252.7,1990.9 1263.8,1977 1274.9,1963.1 1286,1949.5 1297.1,1936.1 1308.3,1923 1319.4,1910.3 1330.5,1897.8 1341.6,1885.8 1352.7,1874.1 1363.8,1862.8 1374.9,1851.9 1386.1,1841.4 1397.2,1831.3 1408.3,1821.7 1419.4,1812.6 1430.5,1803.9 1441.6,1795.8 1452.7,1788.1 1463.9,1781 1475,1774.4 1486.1,1768.3 1497.2,1762.9 1508.3,1758 1519.4,1753.7 1530.5,1750 1541.7,1746.9 1552.8,1744.5 1563.9,1742.8 1575,1741.7 1586.1,1741.2 1597.2,1741.4 1608.4,1742.2 1619.5,1743.6 1630.6,1745.7 1641.7,1748.3 1652.8,1751.5 1663.9,1755.3 1675,1759.7 1686.2,1764.6 1697.3,1770.1 1708.4,1776.1 1719.5,1782.7 1730.6,1789.8 1741.7,1797.3 1752.8,1805.4 1764,1814 1775.1,1823.1 1786.2,1832.6 1797.3,1842.6 1808.4,1853.1 1819.5,1864 1830.6,1875.2 1841.8,1886.9 1852.9,1898.9 1864,1911.3 1875.1,1923.9 1886.2,1936.8 1897.3,1949.9 1908.4,1963.2 1919.6,1976.7 1930.7,1990.3 1941.8,2004 1952.9,2017.8 1964,2031.7 1975.1,2045.6 1986.3,2059.5 1997.4,2073.3 2008.5,2087.1 2019.6,2100.8 2030.7,2114.3 2041.8,2127.8 2052.9,2141 2064.1,2154 2075.2,2166.8 2086.3,2179.4 2097.4,2191.7 2108.5,2203.7 2119.6,2215.4 2130.7,2226.7 2141.9,2237.8 2153,2248.4 2164.1,2258.7 2175.2,2268.5 2186.3,2277.9 2197.4,2286.9 2208.5,2295.4 2219.7,2303.5 2230.8,2311 2241.9,2318 2253,2324.4 2264.1,2330.3 2275.2,2335.5 2286.3,2340.2 2297.5,2344.2 2308.6,2347.6 2319.7,2350.4 2330.8,2352.5 2341.9,2354 2353,2354.9 2364.2,2355.1 2375.3,2354.8 2386.4,2353.8 2397.5,2352.2 2408.6,2350 2419.7,2347.2 2430.8,2343.8 2442,2339.8 2453.1,2335.2 2464.2,2330 2475.3,2324.2 2486.4,2317.8 2497.5,2310.9 2508.6,2303.4 2519.8,2295.3 2530.9,2286.7 2542,2277.5 2553.1,2267.8 2564.2,2257.5 2575.3,2246.8 2586.5,2235.6 2597.6,2224 2608.7,2212.1 2619.8,2199.8 2630.9,2187.2 2642,2174.4 2653.1,2161.4 2664.3,2148.2 2675.4,2134.9 2686.5,2121.4 2697.6,2107.9 2708.7,2094.4 2719.8,2080.8 2730.9,2067.3 2742.1,2053.9 2753.2,2040.7 2764.3,2027.5 2775.4,2014.6 2786.5,2001.9 2797.6,1989.5 2808.7,1977.3 2819.9,1965.3 2831,1953.6 2842.1,1942.1 2853.2,1930.8 2864.3,1919.7 2875.4,1908.8 2886.5,1898.1 2897.7,1887.5 2908.8,1877 2919.9,1866.7 2931,1856.5 2942.1,1846.4 2953.2,1836.4 2964.4,1826.5 2975.5,1816.6 2986.6,1806.9 2997.7,1797.1 3008.8,1787.4 3019.9,1777.8 3031,1768.1 " stroke-width="4.8188" />
<polyline points="819.2,1548.2 830.31,1547.7 841.43,1546 852.54,1543.3 863.66,1539.4 874.77,1534.4 885.89,1528.4 897,1521.2 908.12,1512.9 919.23,1503.6 930.35,1493.1 941.46,1481.5 952.58,1468.8 963.69,1455 974.81,1440.1 985.92,1424.2 997.04,1407.1 1008.2,1388.9 1019.3,1369.6 1030.4,1349.2 1041.5,1327.7 1052.6,1305 1063.7,1281.3 1074.8,1257.7 1086,1235.7 1097.1,1215.6 1108.2,1197.2 1119.3,1180.5 1130.4,1165.7 1141.5,1152.6 1152.6,1141.3 1163.8,1131.7 1174.9,1124 1186,1118 1197.1,1113.7 1208.2,1111.2 1219.3,1110.5 1230.4,1111.6 1241.6,1114.4 1252.7,1119 1263.8,1125.4 1274.9,1133.6 1286,1143.5 1297.1,1155.1 1308.3,1168.6 1319.4,1183.5 1330.5,1199 1341.6,1215.3 1352.7,1232.1 1363.8,1249.7 1374.9,1267.9 1386.1,1286.7 1397.2,1306.2 1408.3,1326.4 1419.4,1347.2 1430.5,1368.7 1441.6,1390.9 1452.7,1413.7 1463.9,1437.2 1475,1461.3 1486.1,1486.1 1497.2,1511.5 1508.3,1537.6 1519.4,1564.3 1530.5,1591.8 1541.7,1619.8 1552.8,1648.6 1563.9,1677.7 1575,1706.5 1586.1,1734.8 1597.2,1762.8 1608.4,1790.3 1619.5,1817.4 1630.6,1844.1 1641.7,1870.3 1652.8,1896.1 1663.9,1921.5 1675,1946.5 1686.2,1971 1697.3,1995.2 1708.4,2018.9 1719.5,2042.1 1730.6,2065 1741.7,2087.4 1752.8,2109.4 1764,2131 1775.1,2152.2 1786.2,2172.9 1797.3,2193.2 1808.4,2213 1819.5,2231.5 1830.6,2248.8 1841.8,2264.7 1852.9,2279.4 1864,2292.8 1875.1,2304.8 1886.2,2315.6 1897.3,2325.1 1908.4,2333.2 1919.6,2340.1 1930.7,2345.7 1941.8,2350 1952.9,2353 1964,2354.7 1975.1,2355.1 1986.3,2354.2 1997.4,2352 2008.5,2348.5 2019.6,2343.7 2030.7,2337.7 2041.8,2330.3 2052.9,2321.7 2064.1,2312.1 2075.2,2301.6 2086.3,2290.2 2097.4,2278 2108.5,2264.9 2119.6,2250.8 2130.7,2235.9 2141.9,2220.1 2153,2203.4 2164.1,2185.8 2175.2,2167.3 2186.3,2147.9 2197.4,2127.6 2208.5,2106.5 2219.7,2084.4 2230.8,2061.5 2241.9,2037.7 2253,2013 2264.1,1987.3 2275.2,1960.8 2286.3,1933.5 2297.5,1905.2 2308.6,1876.9 2319.7,1848.8 2330.8,1820.9 2341.9,1793.1 2353,1765.5 2364.2,1738 2375.3,1710.7 2386.4,1683.6 2397.5,1656.7 2408.6,1629.9 2419.7,1603.3 2430.8,1576.8 2442,1550.6 2453.1,1524.4 2464.2,1498.5 2475.3,1472.7 2486.4,1447.1 2497.5,1421.7 2508.6,1396.4 2519.8,1371.3 2530.9,1346.4 2542,1321.6 2553.1,1298.1 2564.2,1276.2 2575.3,1256 2586.5,1237.4 2597.6,1220.5 2608.7,1205.2 2619.8,1191.6 2630.9,1179.6 2642,1169.3 2653.1,1160.6 2664.3,1153.5 2675.4,1148.2 2686.5,1144.4 2697.6,1142.3 2708.7,1141.9 2719.8,1143.1 2730.9,1146 2742.1,1150.5 2753.2,1156.7 2764.3,1164.5 2775.4,1174 2786.5,1185.1 2797.6,1196.5 2808.7,1207.4 2819.9,1217.8 2831,1227.6 2842.1,1236.9 2853.2,1245.7 2864.3,1253.9 2875.4,1261.6 2886.5,1268.8 2897.7,1275.4 2908.8,1281.6 2919.9,1287.1 2931,1292.2 2942.1,1296.7 2953.2,1300.7 2964.4,1304.2 2975.5,1307.1 2986.6,1309.5 2997.7,1311.3 3008.8,1312.7 3019.9,1313.5 3031,1313.7 " stroke-width="4.8188" stroke-dasharray="19.275, 14.456, 4.8188, 14.456" />
<polyline points="819.2,1740.8 830.31,1754.6 841.43,1768.4 852.54,1782 863.66,1795.6 874.77,1809 885.89,1822.4 897,1835.6 908.12,1848.7 919.23,1861.7 930.35,1874.6 941.46,1887.3 952.58,1899.9 963.69,1912.4 974.81,1924.8 985.92,1936.9 997.04,1949 1008.2,1960.8 1019.3,1972.5 1030.4,1983.9 1041.5,1995.2 1052.6,2006.3 1063.7,2017.1 1074.8,2027.7 1086,2038.1 1097.1,2048.2 1108.2,2058 1119.3,2067.6 1130.4,2076.8 1141.5,2085.8 1152.6,2094.5 1163.8,2102.9 1174.9,2110.9 1186,2118.7 1197.1,2126.1 1208.2,2133.2 1219.3,2140 1230.4,2146.4 1241.6,2152.6 1252.7,2158.4 1263.8,2163.9 1274.9,2169.1 1286,2173.9 1297.1,2178.5 1308.3,2182.8 1319.4,2186.7 1330.5,2190.4 1341.6,2193.8 1352.7,2197 1363.8,2199.9 1374.9,2202.5 1386.1,2204.9 1397.2,2207.1 1408.3,2209 1419.4,2210.7 1430.5,2212.2 1441.6,2213.6 1452.7,2214.7 1463.9,2215.7 1475,2216.6 1486.1,2217.2 1497.2,2217.8 1508.3,2218.3 1519.4,2218.6 1530.5,2218.8 1541.7,2219 1552.8,2219.1 1563.9,2219.2 1575,2219.2 1586.1,2219.2 1597.2,2219.2 1608.4,2219.3 1619.5,2219.3 1630.6,2219.4 1641.7,2219.5 1652.8,2219.7 1663.9,2220 1675,2220.4 1686.2,2220.9 1697.3,2221.5 1708.4,2222.2 1719.5,2223.1 1730.6,2224.1 1741.7,2225.3 1752.8,2226.7 1764,2228.2 1775.1,2230 1786.2,2232 1797.3,2234.1 1808.4,2236.6 1819.5,2239.2 1830.6,2242.1 1841.8,2245.3 1852.9,2248.7 1864,2252.5 1875.1,2256.5 1886.2,2260.7 1897.3,2265.3 1908.4,2270.2 1919.6,2275.4 1930.7,2280.9 1941.8,2286.7 1952.9,2292.8 1964,2299.2 1975.1,2305.9 1986.3,2313 1997.4,2320.3 2008.5,2328 2019.6,2336 2030.7,2344.3 2041.8,2352.9 2052.9,2361.8 2064.1,2371 2075.2,2380.5 2086.3,2390.3 2097.4,2400.3 2108.5,2410.6 2119.6,2421.2 2130.7,2432.1 2141.9,2443.2 2153,2454.6 2164.1,2466.2 2175.2,2478 2186.3,2490 2197.4,2502.3 2208.5,2514.7 2219.7,2527.4 2230.8,2540.2 2241.9,2553.1 2253,2566.3 2264.1,2579.5 2275.2,2592.9 2286.3,2606.4 2297.5,2620 2308.6,2633.7 2319.7,2647.5 2330.8,2661.3 2341.9,2675.1 2353,2689 2364.2,2702.9 2375.3,2716.8 2386.4,2730.7 2397.5,2744.5 2408.6,2758.3 2419.7,2772.1 2430.8,2785.7 2442,2799.3 2453.1,2812.8 2464.2,2826.2 2475.3,2839.5 2486.4,2852.6 2497.5,2865.5 2508.6,2878.3 2519.8,2891 2530.9,2903.4 2542,2915.7 2553.1,2927.7 2564.2,2939.5 2575.3,2951.1 2586.5,2962.4 2597.6,2973.4 2608.7,2984.2 2619.8,2994.7 2630.9,3005 2642,3014.9 2653.1,3024.6 2664.3,3034 2675.4,3043 2686.5,3051.8 2697.6,3060.2 2708.7,3068.4 2719.8,3076.2 2730.9,3083.8 2742.1,3091 2753.2,3097.9 2764.3,3104.6 2775.4,3110.9 2786.5,3116.9 2797.6,3122.7 2808.7,3128.2 2819.9,3133.4 2831,3138.3 2842.1,3143 2853.2,3147.5 2864.3,3151.6 2875.4,3155.5 2886.5,3159.2 2897.7,3162.7 2908.8,3165.9 2919.9,3168.8 2931,3171.5 2942.1,3174 2953.2,3176.3 2964.4,3178.4 2975.5,3180.2 2986.6,3181.8 2997.7,3183.2 3008.8,3184.4 3019.9,3185.3 3031,3186 " stroke-width="4.8188" stroke-dasharray="19.275, 19.275" />
</g>
</svg>
