<?xml version="1.0" encoding="ISO-8859-1" standalone="no"?>
<!DOCTYPE svg PUBLIC "-//W3C//DTD SVG 1.1//EN" "http://www.w3.org/Graphics/SVG/1.1/DTD/svg11.dtd">
<svg version="1.1" baseProfile="full" id="body" width="8in" height="8in" viewBox="0 0 1 1" preserveAspectRatio="none" xmlns="http://www.w3.org/2000/svg" xmlns:xlink="http://www.w3.org/1999/xlink" xmlns:ev="http://www.w3.org/2001/xml-events">
<title>SVG drawing</title>
<desc>This was produced by version 4.4 of GNU libplot, a free library for exporting 2-D vector graphics.</desc>
<rect id="background" x="0" y="0" width="1" height="1" stroke="none" fill="white"/>
<g id="content" transform="translate(0,1) scale(1,-1) scale(0.00024414) " xml:space="preserve" stroke="black" stroke-linecap="butt" stroke-linejoin="miter" stroke-miterlimit="10.433" stroke-dasharray="none" stroke-dashoffset="0" stroke-opacity="1" fill="none" fill-rule="evenodd" fill-opacity="1" font-style="normal" font-variant="normal" font-weight="normal" font-stretch="normal" font-size-adjust="none" letter-spacing="normal" word-spacing="normal" text-anchor="start">
<text transform="translate(1015.4,3451.9) scale(1,-1) scale(8.6016) " font-family="Helvetica,sans-serif" font-size="20px" stroke="none" fill="black" >cspline with deriv and integ</text>
<rect x="819.2" y="819.2" width="2457.6" height="2457.6" stroke-width="4.8188" />
<text transform="translate(783.33,662.21) scale(1,-1) scale(6.4512) " font-family="Helvetica,sans-serif" font-size="20px" stroke="none" fill="black" >0</text>
<line x1="819.2" y1="3276.8" x2="819.2" y2="3227.6" stroke-width="4.8188" />
<line x1="819.2" y1="819.2" x2="819.2" y2="868.35" stroke-width="4.8188" />
<text transform="translate(1274.9,662.21) scale(1,-1) scale(6.4512) " font-family="Helvetica,sans-serif" font-size="20px" stroke="none" fill="black" >2</text>
<line x1="1310.7" y1="3276.8" x2="1310.7" y2="3227.6" stroke-width="4.8188" />
<line x1="1310.7" y1="819.2" x2="1310.7" y2="868.35" stroke-width="4.8188" />
<text transform="translate(1766.4,662.21) scale(1,-1) scale(6.4512) " font-family="Helvetica,sans-serif" font-size="20px" stroke="none" fill="black" >4</text>
<line x1="1802.2" y1="3276.8" x2="1802.2" y2="3227.6" stroke-width="4.8188" />
<line x1="1802.2" y1="819.2" x2="1802.2" y2="868.35" stroke-width="4.8188" />
<text transform="translate(2257.9,662.21) scale(1,-1) scale(6.4512) " font-family="Helvetica,sans-serif" font-size="20px" stroke="none" fill="black" >6</text>
<line x1="2293.8" y1="3276.8" x2="2293.8" y2="3227.6" stroke-width="4.8188" />
<line x1="2293.8" y1="819.2" x2="2293.8" y2="868.35" stroke-width="4.8188" />
<text transform="translate(2749.4,662.21) scale(1,-1) scale(6.4512) " font-family="Helvetica,sans-serif" font-size="20px" stroke="none" fill="black" >8</text>
<line x1="2785.3" y1="3276.8" x2="2785.3" y2="3227.6" stroke-width="4.8188" />
<line x1="2785.3" y1="819.2" x2="2785.3" y2="868.35" stroke-width="4.8188" />
<text transform="translate(3205.1,662.21) scale(1,-1) scale(6.4512) " font-family="Helvetica,sans-serif" font-size="20px" stroke="none" fill="black" >10</text>
<line x1="3276.8" y1="3276.8" x2="3276.8" y2="3227.6" stroke-width="4.8188" />
<line x1="3276.8" y1="819.2" x2="3276.8" y2="868.35" stroke-width="4.8188" />
<line x1="819.2" y1="3276.8" x2="819.2" y2="3257.1" stroke-width="4.8188" />
<line x1="819.2" y1="819.2" x2="819.2" y2="838.86" stroke-width="4.8188" />
<line x1="1065" y1="3276.8" x2="1065" y2="3257.1" stroke-width="4.8188" />
<line x1="1065" y1="819.2" x2="1065" y2="838.86" stroke-width="4.8188" />
<line x1="1310.7" y1="3276.8" x2="1310.7" y2="3257.1" stroke-width="4.8188" />
<line x1="1310.7" y1="819.2" x2="1310.7" y2="838.86" stroke-width="4.8188" />
<line x1="1556.5" y1="3276.8" x2="1556.5" y2="3257.1" stroke-width="4.8188" />
<line x1="1556.5" y1="819.2" x2="1556.5" y2="838.86" stroke-width="4.8188" />
<line x1="1802.2" y1="3276.8" x2="1802.2" y2="3257.1" stroke-width="4.8188" />
<line x1="1802.2" y1="819.2" x2="1802.2" y2="838.86" stroke-width="4.8188" />
<line x1="2048" y1="3276.8" x2="2048" y2="3257.1" stroke-width="4.8188" />
<line x1="2048" y1="819.2" x2="2048" y2="838.86" stroke-width="4.8188" />
<line x1="2293.8" y1="3276.8" x2="2293.8" y2="3257.1" stroke-width="4.8188" />
<line x1="2293.8" y1="819.2" x2="2293.8" y2="838.86" stroke-width="4.8188" />
<line x1="2539.5" y1="3276.8" x2="2539.5" y2="3257.1" stroke-width="4.8188" />
<line x1="2539.5" y1="819.2" x2="2539.5" y2="838.86" stroke-width="4.8188" />
<line x1="2785.3" y1="3276.8" x2="2785.3" y2="3257.1" stroke-width="4.8188" />
<line x1="2785.3" y1="819.2" x2="2785.3" y2="838.86" stroke-width="4.8188" />
<line x1="3031" y1="3276.8" x2="3031" y2="3257.1" stroke-width="4.8188" />
<line x1="3031" y1="819.2" x2="3031" y2="838.86" stroke-width="4.8188" />
<line x1="3276.8" y1="3276.8" x2="3276.8" y2="3257.1" stroke-width="4.8188" />
<line x1="3276.8" y1="819.2" x2="3276.8" y2="838.86" stroke-width="4.8188" />
<text transform="translate(635.25,773.65) scale(1,-1) scale(6.4512) " font-family="Helvetica,sans-serif" font-size="20px" stroke="none" fill="black" >-1</text>
<line x1="3276.8" y1="819.2" x2="3227.6" y2="819.2" stroke-width="4.8188" />
<line x1="819.2" y1="819.2" x2="868.35" y2="819.2" stroke-width="4.8188" />
<text transform="translate(710.6,1183.3) scale(1,-1) scale(6.4512) " font-family="Helvetica,sans-serif" font-size="20px" stroke="none" fill="black" >0</text>
<line x1="3276.8" y1="1228.8" x2="3227.6" y2="1228.8" stroke-width="4.8188" />
<line x1="819.2" y1="1228.8" x2="868.35" y2="1228.8" stroke-width="4.8188" />
<text transform="translate(710.6,1592.9) scale(1,-1) scale(6.4512) " font-family="Helvetica,sans-serif" font-size="20px" stroke="none" fill="black" >1</text>
<line x1="3276.8" y1="1638.4" x2="3227.6" y2="1638.4" stroke-width="4.8188" />
<line x1="819.2" y1="1638.4" x2="868.35" y2="1638.4" stroke-width="4.8188" />
<text transform="translate(710.6,2002.5) scale(1,-1) scale(6.4512) " font-family="Helvetica,sans-serif" font-size="20px" stroke="none" fill="black" >2</text>
<line x1="3276.8" y1="2048" x2="3227.6" y2="2048" stroke-width="4.8188" />
<line x1="819.2" y1="2048" x2="868.35" y2="2048" stroke-width="4.8188" />
<text transform="translate(710.6,2412.1) scale(1,-1) scale(6.4512) " font-family="Helvetica,sans-serif" font-size="20px" stroke="none" fill="black" >3</text>
<line x1="3276.8" y1="2457.6" x2="3227.6" y2="2457.6" stroke-width="4.8188" />
<line x1="819.2" y1="2457.6" x2="868.35" y2="2457.6" stroke-width="4.8188" />
<text transform="translate(710.6,2821.7) scale(1,-1) scale(6.4512) " font-family="Helvetica,sans-serif" font-size="20px" stroke="none" fill="black" >4</text>
<line x1="3276.8" y1="2867.2" x2="3227.6" y2="2867.2" stroke-width="4.8188" />
<line x1="819.2" y1="2867.2" x2="868.35" y2="2867.2" stroke-width="4.8188" />
<text transform="translate(710.6,3231.3) scale(1,-1) scale(6.4512) " font-family="Helvetica,sans-serif" font-size="20px" stroke="none" fill="black" >5</text>
<line x1="3276.8" y1="3276.8" x2="3227.6" y2="3276.8" stroke-width="4.8188" />
<line x1="819.2" y1="3276.8" x2="868.35" y2="3276.8" stroke-width="4.8188" />
<line x1="3276.8" y1="819.2" x2="3257.1" y2="819.2" stroke-width="4.8188" />
<line x1="819.2" y1="819.2" x2="838.86" y2="819.2" stroke-width="4.8188" />
<line x1="3276.8" y1="1024" x2="3257.1" y2="1024" stroke-width="4.8188" />
<line x1="819.2" y1="1024" x2="838.86" y2="1024" stroke-width="4.8188" />
<line x1="3276.8" y1="1228.8" x2="3257.1" y2="1228.8" stroke-width="4.8188" />
<line x1="819.2" y1="1228.8" x2="838.86" y2="1228.8" stroke-width="4.8188" />
<line x1="3276.8" y1="1433.6" x2="3257.1" y2="1433.6" stroke-width="4.8188" />
<line x1="819.2" y1="1433.6" x2="838.86" y2="1433.6" stroke-width="4.8188" />
<line x1="3276.8" y1="1638.4" x2="3257.1" y2="1638.4" stroke-width="4.8188" />
<line x1="819.2" y1="1638.4" x2="838.86" y2="1638.4" stroke-width="4.8188" />
<line x1="3276.8" y1="1843.2" x2="3257.1" y2="1843.2" stroke-width="4.8188" />
<line x1="819.2" y1="1843.2" x2="838.86" y2="1843.2" stroke-width="4.8188" />
<line x1="3276.8" y1="2048" x2="3257.1" y2="2048" stroke-width="4.8188" />
<line x1="819.2" y1="2048" x2="838.86" y2="2048" stroke-width="4.8188" />
<line x1="3276.8" y1="2252.8" x2="3257.1" y2="2252.8" stroke-width="4.8188" />
<line x1="819.2" y1="2252.8" x2="838.86" y2="2252.8" stroke-width="4.8188" />
<line x1="3276.8" y1="2457.6" x2="3257.1" y2="2457.6" stroke-width="4.8188" />
<line x1="819.2" y1="2457.6" x2="838.86" y2="2457.6" stroke-width="4.8188" />
<line x1="3276.8" y1="2662.4" x2="3257.1" y2="2662.4" stroke-width="4.8188" />
<line x1="819.2" y1="2662.4" x2="838.86" y2="2662.4" stroke-width="4.8188" />
<line x1="3276.8" y1="2867.2" x2="3257.1" y2="2867.2" stroke-width="4.8188" />
<line x1="819.2" y1="2867.2" x2="838.86" y2="2867.2" stroke-width="4.8188" />
<line x1="3276.8" y1="3072" x2="3257.1" y2="3072" stroke-width="4.8188" />
<line x1="819.2" y1="3072" x2="838.86" y2="3072" stroke-width="4.8188" />
<line x1="3276.8" y1="3276.8" x2="3257.1" y2="3276.8" stroke-width="4.8188" />
<line x1="819.2" y1="3276.8" x2="838.86" y2="3276.8" stroke-width="4.8188" />
<line x1="819.2" y1="1228.8" x2="3276.8" y2="1228.8" stroke-width="4.8188" stroke-dasharray="4.8188, 14.456" />
<text transform="translate(2015.7,501.24) scale(1,-1) scale(6.4512) " font-family="Helvetica,sans-serif" font-size="20px" stroke="none" fill="black" >x</text>
<text transform="matrix(0 6.4512 6.4512 0 548.67 2015.7) " font-family="Helvetica,sans-serif" font-size="20px" stroke="none" fill="black" >y</text>
<circle cx="819.2" cy="1638.4" r="23.04" stroke-width="2.304" />
<circle cx="1065" cy="1348.4" r="23.04" stroke-width="2.304" />
<circle cx="1310.7" cy="1299.7" r="23.04" stroke-width="2.304" />
<circle cx="1556.5" cy="1630.2" r="23.04" stroke-width="2.304" />
<circle cx="1802.2" cy="1403.8" r="23.04" stroke-width="2.304" />
<circle cx="2048" cy="1261.8" r="23.04" stroke-width="2.304" />
<circle cx="2293.8" cy="1606.4" r="23.04" stroke-width="2.304" />
<circle cx="2539.5" cy="1461.6" r="23.04" stroke-width="2.304" />
<circle cx="2785.3" cy="1237.5" r="23.04" stroke-width="2.304" />
<circle cx="3031" cy="1568.8" r="23.04" stroke-width="2.304" />
<polyline points="819.2,1638.4 831.49,1637.4 843.78,1634.3 856.06,1629.3 868.35,1622.2 880.64,1613.3 892.93,1602.6 905.22,1590.2 917.5,1576.3 929.79,1560.9 942.08,1544.3 954.37,1526.5 966.66,1507.8 978.94,1488.4 991.23,1468.4 1003.5,1448.1 1015.8,1427.6 1028.1,1407.2 1040.4,1387.1 1052.7,1367.4 1065,1348.4 1077.2,1330.2 1089.5,1313.1 1101.8,1297.1 1114.1,1282.6 1126.4,1269.5 1138.7,1258.1 1151,1248.4 1163.3,1240.6 1175.6,1234.7 1187.8,1230.8 1200.1,1229 1212.4,1229.1 1224.7,1231.4 1237,1235.6 1249.3,1241.8 1261.6,1249.9 1273.9,1259.9 1286.1,1271.6 1298.4,1284.9 1310.7,1299.7 1323,1315.9 1335.3,1333.2 1347.6,1351.5 1359.9,1370.7 1372.2,1390.4 1384.4,1410.6 1396.7,1431.1 1409,1451.5 1421.3,1471.8 1433.6,1491.7 1445.9,1511 1458.2,1529.6 1470.5,1547.1 1482.8,1563.6 1495,1578.7 1507.3,1592.4 1519.6,1604.5 1531.9,1615 1544.2,1623.5 1556.5,1630.2 1568.8,1635 1581.1,1637.7 1593.3,1638.4 1605.6,1637 1617.9,1633.6 1630.2,1628.2 1642.5,1620.9 1654.8,1611.7 1667.1,1600.7 1679.4,1588 1691.6,1573.8 1703.9,1558.2 1716.2,1541.3 1728.5,1523.4 1740.8,1504.6 1753.1,1485.1 1765.4,1465 1777.7,1444.7 1790,1424.2 1802.2,1403.8 1814.5,1383.7 1826.8,1364.1 1839.1,1345.3 1851.4,1327.2 1863.7,1310.3 1876,1294.6 1888.3,1280.3 1900.5,1267.5 1912.8,1256.4 1925.1,1247 1937.4,1239.5 1949.7,1234 1962,1230.4 1974.3,1228.9 1986.6,1229.4 1998.8,1231.9 2011.1,1236.5 2023.4,1243 2035.7,1251.5 2048,1261.8 2060.3,1273.7 2072.6,1287.3 2084.9,1302.4 2097.2,1318.7 2109.4,1336.2 2121.7,1354.7 2134,1373.9 2146.3,1393.8 2158.6,1414.1 2170.9,1434.5 2183.2,1454.9 2195.5,1475.2 2207.7,1495 2220,1514.2 2232.3,1532.6 2244.6,1550 2256.9,1566.2 2269.2,1581.1 2281.5,1594.6 2293.8,1606.4 2306,1616.5 2318.3,1624.8 2330.6,1631.2 2342.9,1635.6 2355.2,1637.9 2367.5,1638.3 2379.8,1636.6 2392.1,1632.8 2404.4,1627.1 2416.6,1619.4 2428.9,1609.9 2441.2,1598.6 2453.5,1585.7 2465.8,1571.3 2478.1,1555.4 2490.4,1538.4 2502.7,1520.3 2514.9,1501.4 2527.2,1481.7 2539.5,1461.6 2551.8,1441.2 2564.1,1420.7 2576.4,1400.4 2588.7,1380.4 2601,1360.9 2613.2,1342.2 2625.5,1324.3 2637.8,1307.6 2650.1,1292.1 2662.4,1278 2674.7,1265.5 2687,1254.7 2699.3,1245.6 2711.6,1238.4 2723.8,1233.2 2736.1,1230 2748.4,1228.8 2760.7,1229.7 2773,1232.6 2785.3,1237.5 2797.6,1244.3 2809.9,1253.1 2822.1,1263.7 2834.4,1275.9 2846.7,1289.7 2859,1305 2871.3,1321.6 2883.6,1339.3 2895.9,1357.9 2908.2,1377.2 2920.4,1397.2 2932.7,1417.5 2945,1437.9 2957.3,1458.4 2969.6,1478.5 2981.9,1498.3 2994.2,1517.3 3006.5,1535.6 3018.8,1552.8 3031,1568.8 3043.3,1583.5 3055.6,1596.7 3067.9,1608.2 3080.2,1618.1 3092.5,1626 3104.8,1632.1 3117.1,1636.1 3129.3,1638.1 3141.6,1638.1 3153.9,1636.1 3166.2,1632 3178.5,1626 3190.8,1618 3203.1,1608.1 3215.4,1596.6 3227.6,1583.4 3239.9,1568.7 3252.2,1552.7 3264.5,1535.4 " stroke-width="4.8188" stroke-dasharray="4.8188, 14.456" />
<polyline points="819.2,1638.4 830.31,1624.1 841.43,1609.7 852.54,1595.4 863.66,1581.2 874.77,1567 885.89,1552.9 897,1538.9 908.12,1524.9 919.23,1511.1 930.35,1497.5 941.46,1484 952.58,1470.6 963.69,1457.4 974.81,1444.5 985.92,1431.7 997.04,1419.2 1008.2,1406.9 1019.3,1394.8 1030.4,1383.1 1041.5,1371.6 1052.6,1360.4 1063.7,1349.6 1074.8,1339 1086,1328.9 1097.1,1319.2 1108.2,1310 1119.3,1301.4 1130.4,1293.4 1141.5,1286 1152.6,1279.4 1163.8,1273.6 1174.9,1268.7 1186,1264.6 1197.1,1261.6 1208.2,1259.6 1219.3,1258.6 1230.4,1258.8 1241.6,1260.2 1252.7,1262.9 1263.8,1266.9 1274.9,1272.3 1286,1279.1 1297.1,1287.4 1308.3,1297.3 1319.4,1308.8 1330.5,1321.8 1341.6,1336.1 1352.7,1351.5 1363.8,1367.9 1374.9,1385.2 1386.1,1403 1397.2,1421.3 1408.3,1439.9 1419.4,1458.6 1430.5,1477.3 1441.6,1495.7 1452.7,1513.7 1463.9,1531.1 1475,1547.7 1486.1,1563.4 1497.2,1578.1 1508.3,1591.4 1519.4,1603.3 1530.5,1613.6 1541.7,1622 1552.8,1628.5 1563.9,1632.9 1575,1635.2 1586.1,1635.4 1597.2,1633.8 1608.4,1630.3 1619.5,1625.2 1630.6,1618.6 1641.7,1610.5 1652.8,1601.1 1663.9,1590.5 1675,1578.8 1686.2,1566.1 1697.3,1552.6 1708.4,1538.3 1719.5,1523.4 1730.6,1507.9 1741.7,1492.1 1752.8,1476 1764,1459.7 1775.1,1443.3 1786.2,1427 1797.3,1410.9 1808.4,1395 1819.5,1379.6 1830.6,1364.5 1841.8,1350 1852.9,1336.1 1864,1322.8 1875.1,1310.3 1886.2,1298.6 1897.3,1287.7 1908.4,1277.7 1919.6,1268.8 1930.7,1261 1941.8,1254.2 1952.9,1248.8 1964,1244.6 1975.1,1241.7 1986.3,1240.3 1997.4,1240.4 2008.5,1242.1 2019.6,1245.4 2030.7,1250.4 2041.8,1257.2 2052.9,1265.8 2064.1,1276.3 2075.2,1288.4 2086.3,1301.9 2097.4,1316.8 2108.5,1332.8 2119.6,1349.7 2130.7,1367.4 2141.9,1385.7 2153,1404.4 2164.1,1423.5 2175.2,1442.6 2186.3,1461.6 2197.4,1480.3 2208.5,1498.6 2219.7,1516.4 2230.8,1533.3 2241.9,1549.3 2253,1564.2 2264.1,1577.8 2275.2,1589.9 2286.4,1600.4 2297.5,1609.1 2308.6,1615.9 2319.7,1620.9 2330.8,1624.1 2341.9,1625.7 2353,1625.7 2364.2,1624.2 2375.3,1621.2 2386.4,1616.9 2397.5,1611.3 2408.6,1604.5 2419.7,1596.6 2430.8,1587.7 2442,1577.8 2453.1,1567 2464.2,1555.4 2475.3,1543.1 2486.4,1530.1 2497.5,1516.6 2508.6,1502.6 2519.8,1488.1 2530.9,1473.3 2542,1458.2 2553.1,1443 2564.2,1427.7 2575.3,1412.3 2586.4,1397.1 2597.6,1382 2608.7,1367.2 2619.8,1352.7 2630.9,1338.7 2642,1325.2 2653.1,1312.3 2664.3,1300.1 2675.4,1288.7 2686.5,1278.2 2697.6,1268.6 2708.7,1260.1 2719.8,1252.8 2730.9,1246.7 2742.1,1241.9 2753.2,1238.5 2764.3,1236.6 2775.4,1236.3 2786.5,1237.7 2797.6,1240.8 2808.7,1245.6 2819.9,1252 2831,1259.8 2842.1,1269.1 2853.2,1279.8 2864.3,1291.7 2875.4,1304.8 2886.5,1319 2897.7,1334.3 2908.8,1350.5 2919.9,1367.5 2931,1385.4 2942.1,1404 2953.2,1423.2 2964.4,1443 2975.5,1463.2 2986.6,1483.9 2997.7,1504.8 3008.8,1526 3019.9,1547.4 3031,1568.8 " stroke-width="4.8188" />
<polyline points="819.2,911.63 830.31,911.8 841.43,912.3 852.54,913.13 863.66,914.3 874.77,915.8 885.89,917.63 897,919.79 908.12,922.29 919.23,925.12 930.35,928.29 941.46,931.78 952.58,935.61 963.69,939.78 974.81,944.27 985.92,949.1 997.04,954.27 1008.2,959.76 1019.3,965.59 1030.4,971.75 1041.5,978.25 1052.6,985.08 1063.7,992.24 1074.8,1000.1 1086,1009.3 1097.1,1019.7 1108.2,1031.5 1119.3,1044.6 1130.4,1058.9 1141.5,1074.6 1152.6,1091.5 1163.8,1109.8 1174.9,1129.3 1186,1150.1 1197.1,1172.3 1208.2,1195.7 1219.3,1220.4 1230.4,1246.5 1241.6,1273.8 1252.7,1302.4 1263.8,1332.3 1274.9,1363.5 1286,1396.1 1297.1,1429.9 1308.3,1465 1319.4,1499.8 1330.5,1531 1341.6,1558.3 1352.7,1581.8 1363.8,1601.4 1374.9,1617.3 1386.1,1629.3 1397.2,1637.4 1408.3,1641.8 1419.4,1642.3 1430.5,1638.9 1441.6,1631.8 1452.7,1620.8 1463.9,1606 1475,1587.3 1486.1,1564.9 1497.2,1538.5 1508.3,1508.4 1519.4,1474.4 1530.5,1436.6 1541.7,1395 1552.8,1349.5 1563.9,1301.7 1575,1256 1586.1,1212.8 1597.2,1172.2 1608.4,1134.1 1619.5,1098.6 1630.6,1065.6 1641.7,1035.1 1652.8,1007.1 1663.9,981.75 1675,958.88 1686.2,938.56 1697.3,920.77 1708.4,905.52 1719.5,892.81 1730.6,882.63 1741.7,874.99 1752.8,869.89 1764,867.32 1775.1,867.29 1786.2,869.8 1797.3,874.84 1808.4,882.27 1819.5,891.35 1830.6,901.99 1841.8,914.18 1852.9,927.92 1864,943.21 1875.1,960.06 1886.2,978.46 1897.3,998.42 1908.4,1019.9 1919.6,1043 1930.7,1067.6 1941.8,1093.8 1952.9,1121.5 1964,1150.8 1975.1,1181.6 1986.3,1214 1997.4,1247.9 2008.5,1283.4 2019.6,1320.5 2030.7,1359.1 2041.8,1399.2 2052.9,1440.4 2064.1,1478.6 2075.2,1513 2086.3,1543.5 2097.4,1570.3 2108.5,1593.2 2119.6,1612.3 2130.7,1627.6 2141.9,1639.1 2153,1646.8 2164.1,1650.7 2175.2,1650.7 2186.3,1647 2197.4,1639.4 2208.5,1628 2219.7,1612.8 2230.8,1593.8 2241.9,1570.9 2253,1544.3 2264.1,1513.8 2275.2,1479.5 2286.4,1441.4 2297.5,1399.8 2308.6,1358.7 2319.7,1319.3 2330.8,1281.7 2341.9,1245.7 2353,1211.5 2364.2,1179 2375.3,1148.3 2386.4,1119.2 2397.5,1091.9 2408.6,1066.3 2419.7,1042.4 2430.8,1020.3 2442,999.84 2453.1,981.13 2464.2,964.15 2475.3,948.89 2486.4,935.35 2497.5,923.53 2508.6,913.44 2519.8,905.07 2530.9,898.43 2542,893.51 2553.1,890.48 2564.2,889.41 2575.3,890.28 2586.4,893.12 2597.6,897.91 2608.7,904.66 2619.8,913.36 2630.9,924.02 2642,936.63 2653.1,951.2 2664.3,967.72 2675.4,986.2 2686.5,1006.6 2697.6,1029 2708.7,1053.4 2719.8,1079.7 2730.9,1107.9 2742.1,1138.1 2753.2,1170.3 2764.3,1204.4 2775.4,1240.5 2786.5,1278.5 2797.6,1316.2 2808.7,1352.2 2819.9,1386.4 2831,1418.9 2842.1,1449.6 2853.2,1478.5 2864.3,1505.7 2875.4,1531.2 2886.5,1554.9 2897.7,1576.8 2908.8,1597 2919.9,1615.4 2931,1632.1 2942.1,1647 2953.2,1660.1 2964.4,1671.5 2975.5,1681.2 2986.6,1689.1 2997.7,1695.2 3008.8,1699.6 3019.9,1702.3 3031,1703.1 " stroke-width="4.8188" stroke-dasharray="19.275, 14.456, 4.8188, 14.456" />
<polyline points="819.2,1228.8 830.31,1247 841.43,1264.6 852.54,1281.5 863.66,1297.7 874.77,1313.3 885.89,1328.3 897,1342.6 908.12,1356.4 919.23,1369.4 930.35,1381.9 941.46,1393.7 952.58,1405 963.69,1415.6 974.81,1425.7 985.92,1435.1 997.04,1444 1008.2,1452.3 1019.3,1460.1 1030.4,1467.4 1041.5,1474.1 1052.6,1480.3 1063.7,1486 1074.8,1491.2 1086,1496 1097.1,1500.3 1108.2,1504.2 1119.3,1507.6 1130.4,1510.7 1141.5,1513.5 1152.6,1515.9 1163.8,1518.1 1174.9,1520 1186,1521.7 1197.1,1523.2 1208.2,1524.7 1219.3,1526 1230.4,1527.4 1241.6,1528.8 1252.7,1530.3 1263.8,1531.9 1274.9,1533.7 1286,1535.8 1297.1,1538.3 1308.3,1541.2 1319.4,1544.5 1330.5,1548.4 1341.6,1552.9 1352.7,1558.1 1363.8,1564.1 1374.9,1570.7 1386.1,1578.2 1397.2,1586.5 1408.3,1595.6 1419.4,1605.6 1430.5,1616.4 1441.6,1628.1 1452.7,1640.6 1463.9,1653.8 1475,1667.9 1486.1,1682.7 1497.2,1698.1 1508.3,1714.2 1519.4,1730.9 1530.5,1748.1 1541.7,1765.7 1552.8,1783.6 1563.9,1801.8 1575,1820.2 1586.1,1838.5 1597.2,1856.9 1608.4,1875.1 1619.5,1893.2 1630.6,1911 1641.7,1928.4 1652.8,1945.5 1663.9,1962.1 1675,1978.2 1686.2,1993.7 1697.3,2008.7 1708.4,2023 1719.5,2036.7 1730.6,2049.6 1741.7,2061.9 1752.8,2073.5 1764,2084.3 1775.1,2094.3 1786.2,2103.7 1797.3,2112.3 1808.4,2120.1 1819.5,2127.3 1830.6,2133.8 1841.8,2139.6 1852.9,2144.8 1864,2149.3 1875.1,2153.3 1886.2,2156.7 1897.3,2159.6 1908.4,2162 1919.6,2164 1930.7,2165.7 1941.8,2167 1952.9,2168 1964,2168.8 1975.1,2169.4 1986.3,2170 1997.4,2170.5 2008.5,2171.1 2019.6,2171.7 2030.7,2172.6 2041.8,2173.7 2052.9,2175.2 2064.1,2177.1 2075.2,2179.5 2086.3,2182.5 2097.4,2186.1 2108.5,2190.5 2119.6,2195.6 2130.7,2201.4 2141.9,2208.1 2153,2215.6 2164.1,2224 2175.2,2233.2 2186.3,2243.3 2197.4,2254.3 2208.5,2266.1 2219.7,2278.7 2230.8,2292.1 2241.9,2306.2 2253,2321 2264.1,2336.5 2275.2,2352.6 2286.4,2369.2 2297.5,2386.2 2308.6,2403.5 2319.7,2421.2 2330.8,2439 2341.9,2456.9 2353,2474.9 2364.2,2492.8 2375.3,2510.6 2386.4,2528.2 2397.5,2545.7 2408.6,2562.8 2419.7,2579.6 2430.8,2596.1 2442,2612.1 2453.1,2627.6 2464.2,2642.7 2475.3,2657.2 2486.4,2671.1 2497.5,2684.4 2508.6,2697.1 2519.8,2709.2 2530.9,2720.6 2542,2731.3 2553.1,2741.3 2564.2,2750.7 2575.3,2759.3 2586.4,2767.3 2597.6,2774.5 2608.7,2781.1 2619.8,2787.1 2630.9,2792.3 2642,2797 2653.1,2801.1 2664.3,2804.6 2675.4,2807.5 2686.5,2810 2697.6,2812 2708.7,2813.6 2719.8,2814.9 2730.9,2815.8 2742.1,2816.5 2753.2,2817 2764.3,2817.4 2775.4,2817.7 2786.5,2818.1 2797.6,2818.6 2808.7,2819.2 2819.9,2820.1 2831,2821.3 2842.1,2822.9 2853.2,2825 2864.3,2827.6 2875.4,2830.7 2886.5,2834.5 2897.7,2838.9 2908.8,2844 2919.9,2849.9 2931,2856.6 2942.1,2864.1 2953.2,2872.4 2964.4,2881.7 2975.5,2891.8 2986.6,2902.9 2997.7,2914.9 3008.8,2927.8 3019.9,2941.8 3031,2956.7 " stroke-width="4.8188" stroke-dasharray="19.275, 19.275" />
</g>
</svg>
